<svg version="1.1" xmlns="http://www.w3.org/2000/svg" viewBox="0 0 1117 1065.0510847568512" width="1117" height="1065.0510847568512">
  <!-- svg-source:excalidraw -->
  
  <defs>
    <style>
      @font-face {
        font-family: "Virgil";
        src: url("https://excalidraw.com/FG_Virgil.woff2");
      }
      @font-face {
        font-family: "Cascadia";
        src: url("https://excalidraw.com/Cascadia.woff2");
      }
    </style>
  </defs>
  <rect x="0" y="0" width="1117" height="1065.0510847568512" fill="#ffffff"></rect><g transform="translate(484 11.5) rotate(0 120 82.5)"><path d="M0 0 C0 0, 0 0, 0 0 M0 0 C0 0, 0 0, 0 0 M-0.21699839752631878 6.850491294314258 C1.1749575085042436 4.679773148369191, 3.1047254312037618 3.0616421884355383, 5.307845075013584 0.728970419972878 M-0.44630816724615785 6.638597147961251 C1.930487207109172 4.024859462050717, 3.9194459340450103 1.6030016766857813, 5.082819615634627 0.12502073830340443 M-0.29434277628551864 13.560024515211165 C4.147772422614547 6.565839665893018, 8.182874547070753 4.306559288349931, 9.9021978064896 -0.11107204304190854 M-0.10284897153269179 12.35747373890835 C3.0860262394173894 8.343872325221026, 5.323980737303633 5.3632273258351635, 10.29826395506872 -0.002013980309688912 M1.5961838224390288 17.549609835167104 C6.040991677064347 11.656214105875831, 8.705132960954925 9.444319952068124, 14.537968378051598 1.309542265434282 M-0.9787660884252052 18.142462507729107 C3.233261066243931 14.679879925993697, 8.801922436863084 9.24274491903661, 14.934990992307146 -0.011845005031211109 M-1.0836676841416146 24.237575987069963 C7.184380730646473 14.356902374993984, 13.952082508773888 7.786756685214531, 23.25817372863915 1.1012769354670766 M-0.7131138237007644 23.24297332735276 C7.6621412599382985 13.959740860757625, 17.652041800547003 5.723473542848431, 20.969850275942946 -0.560108163005161 M-0.7054020417342528 30.67853892012333 C5.5394130273390525 22.680691765029877, 12.091078566542636 17.923806032615047, 26.182614392277213 -1.0840941524121224 M0.17327193827828324 31.150228105250946 C10.323909055652503 20.2524414439928, 18.257636728974134 8.17504323857229, 25.668594912302108 0.6815879693266691 M1.3446813802141229 37.435538077541935 C9.985485050659419 25.052779189383358, 23.256579431658775 12.48016839090328, 33.772456278509296 -1.06714738521136 M0.07540286322119627 36.09224431198214 C7.011883651665042 26.840077613472005, 15.373468968082536 18.704750316900377, 32.58034247108439 0.40725440729998397 M0.21543946225652633 41.598956652540494 C10.033836514378464 30.593267589591107, 23.38425777933054 19.170656690006854, 35.02478543091689 2.2527229209524116 M-0.5355375081627614 43.189617543104816 C13.762435075395945 26.170053682473366, 28.54785819809342 9.68318004639736, 37.39364628102754 -0.46518138785841856 M1.2477082479744368 49.42565032900207 C13.569532502298852 37.197740801071426, 24.874249013075968 23.505502612156164, 42.346080259043504 -0.7653721209288591 M0.1071291528641396 48.53215025984578 C10.572672296661834 35.82045144738844, 22.177382186618527 24.735150417565556, 42.37246766183131 -1.0190521508128398 M0.19171614691136796 53.430980219918595 C11.06279258676088 39.94220922525807, 24.639277678842983 25.59336090130497, 45.92873930647063 1.9088606730278777 M0.8454891660016628 53.70838472754072 C16.25191953853907 38.02402362259692, 30.56858858405269 20.999752884979678, 48.29520369223344 -0.4887741703364803 M1.5836117026488097 60.80148950917314 C17.44306236787679 39.97468555629038, 31.322460287353884 21.682678187283834, 54.624553482741774 0.3142199158145793 M-0.4639353900124519 61.655779657416446 C19.47799465950104 39.36572871898511, 38.08041233217257 16.29979484273278, 52.89065944193369 -0.4850239310936324 M-1.037123204260233 66.48693638998041 C22.71681579386543 39.264924630868464, 46.27398059331134 13.400807164889926, 58.321233831438434 -1.0893137086857116 M-1.1702734744689494 67.19024314503143 C19.4681204272267 45.30234211623515, 36.90923011849577 22.77089380739521, 58.77707573966981 0.8554385281424963 M0.5291495567372451 73.83942280555515 C14.986634967865207 53.973791917695024, 34.36188784130935 35.768870126333276, 64.81588376210411 0.9167459125189552 M-0.6089821716585746 73.08276141094414 C15.027485842450481 55.64886028015242, 30.58147439800872 37.235583811677785, 63.898101405141546 0.6445929727076063 M-1.2009527207772663 79.25252318978039 C18.245496043472816 58.78033820645815, 36.48615427620313 34.58093713416886, 70.1915268183203 0.7220669633116259 M-0.8825237778435877 80.1360275413814 C16.77124169929314 60.513495520390634, 32.69000051526935 42.54659336792175, 69.46182101708665 1.0933356138284935 M-1.176420377260257 85.25331740564809 C22.56388291450775 57.79199298604222, 48.22435204505909 30.41028082964022, 75.6905789096305 0.22482305668427216 M0.9195474016757714 85.71397442667887 C24.335693874159947 57.47716713751873, 46.43633507210656 32.49065901255672, 74.37672714520487 -0.7136975331591202 M0.5646763808697628 92.9150673870413 C29.444717544789913 55.93435870734315, 58.429389651951496 20.359170390783675, 78.09137607961623 1.2443698765199116 M0.6596128206372427 91.59195140306339 C22.09688516039838 65.52716413007673, 47.46264308853147 37.343595152097, 79.19074811823396 1.0320459929715327 M-0.8873993158342017 98.94925007717475 C32.261492977673605 60.03947055885991, 64.71983397487001 24.838936758838173, 86.58164673782096 -2.1414314641894805 M-1.0680971052499189 98.48625719109342 C25.490255741050824 70.0729353968768, 48.735949712946244 42.02631545174335, 84.52722025587366 0.6378584575561774 M-1.6572280868191456 104.34468616926316 C33.78914684908035 62.858274894449295, 71.96546854126625 25.281264618580877, 89.1350394278262 0.8164622184391277 M0.28181991472354184 104.13076863632742 C34.07052409019418 64.73730898623356, 67.11651156014288 26.566626859221557, 91.02391563686172 0.7599485718215959 M0.5725886114964212 111.00666884718956 C22.81025295101149 82.83562434058626, 47.489741355020165 52.53537809636489, 97.3845950591755 -2.1244004626022956 M0.42526095929536467 109.3535694499922 C25.04079348641164 83.36794393738553, 47.478681412652925 55.14394099655332, 95.76901433089793 0.17826485110350632 M-1.2211583113439914 114.84899672394594 C39.068153813288156 69.87149199468777, 78.0923692878768 26.925758721230707, 100.99927467545027 -1.7852888234307116 M0.028531098165309743 114.60648314742348 C37.23940214915815 71.27130260655841, 75.94920387797032 28.245308744581678, 100.24013216671997 -0.35332774337130246 M-1.0257578117588935 122.20665048341533 C29.838411483634967 88.403420122135, 55.40421345382558 57.484944230152394, 104.55743168619406 0.7710332489458338 M0.647371160071117 121.81524968984803 C40.65523653577263 76.89897606256847, 81.64614608405189 30.349027516758227, 106.74029296402765 -0.33222444626712644 M0.42483449080472013 126.92782581881244 C36.117233381912065 87.73187738201203, 71.5027727460986 46.96944528788981, 109.92333963498838 -1.3470160615896205 M0.5068709357220413 128.90905842282433 C24.143010898721503 98.64807384840587, 48.35894202749828 70.82651332662677, 110.33695630155869 0.3430959536428233 M1.3068192268998615 135.013062173352 C33.68762622386848 95.48158455087619, 67.90685047839382 58.6652003352297, 116.46460540238621 0.23219643817767377 M-0.2792079091726549 133.89717681691087 C47.37766429671316 82.61286937361207, 93.0133628295518 30.294809818642136, 116.64193072002234 -0.09739594808295493 M0.36337619010799926 141.25437148091711 C37.09654859391072 94.16107924086916, 77.21898752322365 53.58871891765706, 122.70899211894056 1.7826476914624152 M-0.48910892087525326 140.94557920833446 C34.49729733767833 102.43175523350719, 67.50625126002255 63.910692408288384, 121.03069663512787 0.7813485691139874 M1.1220775399726648 146.32727110449966 C36.56591553210586 102.8957932432708, 74.39858609442427 61.53232430998915, 128.0012420782329 0.11978713214767112 M-0.013167654685972252 146.90647973743077 C44.22362879746311 96.89000809770374, 87.06479474514776 47.7080781650006, 127.861729250613 -0.3039149085395323 M-1.5474204653594805 153.12015720336663 C43.98412968090729 101.88736414183892, 87.37183253083194 51.26985417847896, 132.7026711173414 1.512062396745947 M0.07890636115507704 153.08881828758373 C43.55139277703964 102.58433946554118, 86.98071424815681 53.53329932582774, 132.28655987362396 0.15117691276463205 M-1.9018746015580978 160.07393184746252 C50.302053382834444 101.30217292168193, 99.60524663504609 43.45652937670975, 136.75928499103966 -0.8509818762214885 M-0.6022880564564217 158.25731845047127 C27.651086347008878 126.45419409483816, 55.13599176642523 94.57655275862608, 137.97937138684995 0.39518628180415977 M-0.8108368503380108 165.65140529859835 C51.516705756201766 103.31219638545713, 105.763500538133 40.81151063577328, 143.7927378703939 -0.9605221092143658 M1.0202960144108881 163.67147319269685 C53.230243189414864 102.63153011667751, 105.82830224609644 41.45596995629209, 144.03921767025633 -0.8657045489808718 M2.233694822998494 166.25525608830768 C53.572694696314905 107.70077907098808, 106.10017697575327 49.99026920942501, 149.00610880022379 -0.734341851639789 M2.523407659810186 167.17893062550513 C42.33804030442378 123.18039599157862, 82.1614711071582 79.25092801016606, 148.61318223564245 0.8317360436572903 M8.03372335804579 165.8325134141586 C45.586339003476276 127.48154062728749, 80.63450826240056 87.12775410055322, 154.56994910184366 0.32521489877625925 M8.638680882662587 167.32915859154357 C47.26906425632997 121.94965572128521, 88.6386248097276 74.85224296878356, 153.22940823681748 -0.8048831800160213 M12.057202500975439 166.7214306102393 C72.01765959194897 101.87252074697712, 129.57406618621724 35.3389602397499, 160.45616991061343 -0.7160025353142352 M13.106969202216462 167.49480381566505 C68.67221286985226 104.22684208051763, 122.78375401673534 42.202900472802085, 158.56783608623203 0.3803391493399818 M18.065054550832887 166.55044333832106 C73.54965597069406 105.91098977922151, 125.62570421477709 47.10611843751633, 165.95067423339114 -0.40562607495250813 M18.874841310217455 167.07048239076875 C60.673648218851575 119.11134814382378, 103.24575498147651 69.22210438222479, 163.85034810922556 -0.5058384714692552 M23.015707286014123 169.33573611075371 C74.18703262296694 108.86163618488557, 126.71983250312104 47.10759477717789, 170.98287100638515 1.9238519593987693 M24.333997872292997 166.92008477830117 C64.83060741868249 119.66198422256907, 106.45044664044907 71.8126627300042, 169.5173067800192 0.2888346479090259 M28.896262246189593 167.68104319868348 C84.69845311547618 99.1195296390468, 144.19648851878563 32.39609001822884, 174.1439729770785 0.1677501560733773 M29.594917734876233 166.63044719147402 C78.08335157971243 111.86451918475099, 123.93863430998589 57.560514717098776, 174.86815692863985 0.329511174592784 M33.69706575038021 168.13176122383524 C68.12473435383079 130.1668519494258, 99.93308416183395 90.52983336803096, 180.92765572230456 -0.10312459601639912 M33.99016846828202 166.9339410620463 C76.15078883186966 119.52861874932962, 117.33973428980835 72.3503038725893, 180.74456268399618 0.323270419247235 M39.789659578881476 166.46831486673025 C71.319427607017 129.14254509183812, 105.5092968898088 92.19517136107855, 184.4822675301714 0.557323800838262 M40.62144377363105 166.9621444235422 C82.80708925072591 117.5997718447365, 125.90949685529291 68.07396351608315, 185.4444008808026 -0.35381908069711965 M44.901351991339325 166.1538342584683 C89.23442219624165 115.03705098828351, 134.4817282352672 62.93416769981104, 191.1175764181374 0.10528764492463318 M45.229830025925715 168.39504017803324 C101.87666583040698 105.27809257883773, 156.52879654785184 40.72938167913676, 190.85811560265523 0.49249870573742155 M50.493168408674215 167.44039108894566 C98.15344926777186 113.45644637786789, 143.4803958175609 61.76968945502109, 197.60376241493546 1.3793795433265355 M51.10249648097415 167.53486107935612 C104.54953936602946 107.28695373126578, 157.92849854919677 45.19016602526459, 196.65610278895593 -0.05148771370613961 M56.18764003115707 168.55058799863724 C93.27118822273917 124.86434988173609, 128.58647601158106 85.68252466027356, 202.8652941786491 -0.530648596293744 M56.21635301846625 168.08833199989488 C101.55008781491922 112.80498325573674, 148.38540410874143 58.17464665615158, 201.24523837798841 -0.6784326877375874 M61.24031932033339 168.59666508681423 C95.95945755521599 131.4752872078165, 127.67126525041867 93.57103916991838, 205.99922687863625 -1.551928657477427 M61.23830514889768 168.0606885137986 C108.32087235126004 116.21174192423238, 154.22603640289861 62.54857294540372, 206.31591571384206 -0.3328708383014632 M65.87400381709911 168.76208930332643 C122.16826491756088 101.13508249937391, 180.41678295529343 34.104294860911445, 211.0626436136054 -1.2597573231871841 M67.02856455664583 167.35809276376386 C123.05282822427554 103.70827342338474, 179.94615928508918 38.81375106260979, 212.61874728948797 0.7581548062049916 M72.75025162362465 168.31422575682018 C112.6645880969594 120.1533272756303, 148.97417231514288 75.42882071237722, 218.18451809353942 0.04151043241076302 M72.28125130689384 166.76791364425242 C121.35801070196354 109.93922152837324, 171.02365663412505 51.47430993680678, 217.60516695370313 0.06537299414973613 M77.943952421431 169.23914470652028 C108.52093674850268 129.7486572550668, 142.27650518171262 94.06055598705005, 221.4467208577719 -0.9531668642712984 M76.20753078870662 166.92809866827315 C129.80505423040753 106.75116932367644, 182.4698612668829 45.58902941923587, 223.29039325414615 0.3597001174479859 M82.77449575331363 168.801075270448 C114.68637631019233 132.72129299175904, 144.6569695260741 96.22509709222432, 227.62162275691068 -0.7239754780245473 M83.08265112195484 167.3074541506004 C126.45335987447426 114.10897713087385, 171.97974600929356 63.08308172449463, 228.7142052442814 0.05947639478024258 M88.23355964141844 167.63043001720314 C136.827467359517 113.13370672821554, 183.49468832132027 57.53055760018789, 233.33379557091425 -1.557527473061697 M87.66299210039085 166.90162587455555 C143.87747436621103 104.88094527919391, 199.69878129810172 41.514312743089114, 232.62407942645507 0.8328817383742219 M93.00302139996825 165.733753432968 C130.6461285292115 125.16434658374187, 163.3805353769568 82.27669484514298, 239.69122607371204 -0.9691628806752826 M93.54663347014711 166.66566983745892 C130.04723078864345 123.37182148571004, 166.2299831317093 80.34004000034122, 237.36457187754104 0.4266265483793262 M98.24464388292438 167.14003064683126 C129.62140138670188 129.0031752292245, 162.59578065856263 91.92736722810874, 241.0999292566388 1.0688921773002407 M98.58939636162076 166.75713299996093 C140.0983234581525 117.88923542970959, 183.63527349350704 68.3573090358394, 242.52468440757738 2.211403934259618 M102.12418026637846 165.50358561865002 C156.3253043902834 107.22174328636683, 208.54110166037862 47.59995348733254, 243.5971555749394 9.619061572293438 M104.64367628916155 167.25829658148353 C146.8355853158078 119.60882137234422, 188.4664082034739 71.28659442051159, 242.05616458719473 8.342396149921829 M108.21535465808496 166.13088212220597 C157.00700872419281 112.51619878215259, 208.47877676656208 51.845351847160416, 241.93621118476875 13.266532332544372 M108.0605603141893 167.08266793536112 C148.2277299779273 119.67896398737703, 188.45832856670043 74.71838821044282, 242.73461119941865 13.480476297545954 M112.00214492885706 169.00572660162905 C139.8582208802207 135.01967206393718, 171.68615666236613 100.07510384534858, 241.16315003675484 21.384085659848978 M114.28956825083432 167.21690176583687 C160.00054470436012 115.97464728210596, 205.55827427690292 62.90169005894758, 241.70051142950618 20.35587515959375 M120.87880245839969 168.90059161223803 C157.67933362026312 120.68781611798062, 197.19845681419383 73.9513225733483, 241.61376522750206 28.21009650550002 M118.82869045866445 167.94425239265297 C157.06007230459562 125.97234078376152, 193.20805394731806 83.22556553409198, 242.56933813997156 26.670154321036875 M124.25180955880535 167.4656897321225 C152.48987175098011 138.05966963308157, 179.8981854254414 104.62339937550566, 242.0425946821653 31.416840841141266 M125.06825807781172 168.2521506886811 C167.69403717029422 118.25336195663414, 210.7167066687913 68.01916956801368, 242.31047739621332 32.38333065350048 M129.8831133896175 166.89216332427443 C172.13104939062322 116.62635356037103, 216.25718757359857 70.8238768412665, 241.49693278129752 37.57126435998748 M130.62574805297584 166.60999829425694 C166.7433997581192 125.01236700731552, 204.2978155965783 82.02086943619986, 242.00839398894067 38.315218502543075 M134.19558124441767 166.16733682257689 C168.73027284020884 129.9377700073201, 201.41014720098372 93.47773572222134, 240.96605306848028 46.656785245921725 M135.19557308789456 166.77361329560733 C168.31161252146862 128.72728632025394, 202.09578885953147 90.40295498290887, 242.1680474968914 44.12983907939147 M139.14647278274936 165.41204009002178 C175.3916821736242 130.9433462950297, 205.75353320174844 92.68366789150876, 243.59862145325704 49.16532711193591 M140.98505387726766 167.56005358306794 C178.45311476205063 123.76860159010158, 215.1585605522992 79.87313116369783, 242.49480548976524 50.864953399381335 M146.60396779819405 166.2932850604922 C176.18508382196745 135.79382385888613, 202.41653343447302 100.45670011735457, 241.07922397920933 58.50999564191309 M146.65344687483287 168.6977934928656 C166.80013105351907 143.01925498934082, 188.05405370172886 119.16331653372289, 241.83347129629996 56.78223892373947 M151.2206384502953 168.36158909698008 C178.0130159564223 138.28493915105892, 204.37930422111668 109.31192148244321, 241.84578002689014 64.11711152906804 M151.74791652528998 166.601547165336 C179.0117096647775 135.18771187902027, 206.42916874835117 104.63048738473435, 241.9481972072048 63.89682249802439 M154.80997703263452 169.46365163336844 C186.43827029942054 132.3570295445924, 218.77642055939558 97.72028036336181, 240.74636522685245 68.06533921661543 M156.64256303237667 168.2224451867059 C183.75712181465266 137.04961660821505, 209.13167582678784 108.24022414683243, 242.741807388189 68.05390909279453 M163.21986820475527 166.07967753264927 C187.4657474986527 137.22912305864114, 214.53568460973324 105.3168093632072, 240.6960343726778 73.72481563843832 M160.97439459079274 166.82285794731104 C190.52826445032633 134.1860913399922, 220.42314157151392 101.00299841830548, 241.4751207929903 75.00541054427669 M168.70911676023906 165.73605372870563 C197.5589417028809 132.93358760961345, 224.5504837722067 101.03827906489457, 240.89423462390965 82.84918315752867 M167.58235515427594 167.82657228337823 C185.97768599881883 145.8619741654682, 204.03633062476624 126.70102084926734, 242.5468643663085 80.93947849280659 M170.82091985862934 167.34267258452945 C188.60089673616687 149.51367836519876, 207.92577928212768 127.86458911866566, 243.20133327412952 87.98826620776956 M172.943296667526 166.59361483524316 C194.36863155889338 141.8256784085197, 214.72422736481758 118.29661042429635, 241.43270081188132 86.33068102461104 M178.75939479350762 169.60560853400375 C202.86166050221266 138.87427022559717, 226.8559187021912 111.84093892606045, 240.35603095389038 93.58010423237565 M177.11100683428066 168.2704286891326 C196.73970760137271 144.58507215623217, 217.67961981612171 121.74871645183643, 242.46514179541796 94.46953561024847 M184.26305122441744 167.36444144012052 C198.54789599643013 148.23135574334967, 219.07502718115975 126.83604210315615, 241.63218454374527 100.5900804245617 M184.1521813492397 167.56469673538226 C207.63344565576864 139.4347574478584, 229.4634816554092 112.98380775134514, 242.05287085762774 99.5391378452774 M187.98131894494028 168.00493323676284 C204.1597828948822 149.91333821778284, 219.0048398823336 131.69008567284178, 242.49563008727569 107.1500504682108 M188.08545166614087 166.595518310219 C202.18673853509625 152.47251652734366, 214.10874912479915 138.8664977821841, 241.9000663272484 106.69179019092462 M192.34802011461963 167.79635128692257 C209.05632775497713 149.62121584792848, 223.5275641526957 130.2130467175093, 240.82159599402513 109.65037547631482 M193.3173572296839 166.66823255397844 C207.11756196059147 152.96713778361033, 219.061235184456 138.24464595432724, 242.78631452397968 110.57853491252581 M199.95789702703698 168.3041450244828 C214.4990610286407 152.44574480269696, 229.16029274995262 135.74337868761873, 243.27123080757508 119.15259863275685 M198.58137324360652 168.1245950528874 C215.5218576757706 149.70616695668923, 231.96890873377694 131.132381432537, 242.50563752655933 117.19933072130777 M206.44008434173588 168.72726931243554 C214.44452767852798 157.64986174903862, 221.56756510698776 145.70356103403915, 241.50901640847854 122.48147813075164 M205.37388290260856 168.11760119728163 C213.22580983116217 158.42020121564687, 220.53276649855897 147.70382896310824, 241.64640637569659 124.43258571282902 M210.83463685229776 166.31086108466377 C220.6345235456572 153.88553991496477, 232.52631312747232 141.9537174424279, 241.85959092728854 130.86411591351387 M209.89320516042767 168.46166282338788 C218.7962721260394 156.06393662516533, 227.98257530047357 145.9715573787045, 242.81066398710072 130.111786107648 M216.46600171826614 168.68356270415944 C224.67392176702376 157.22213789875096, 230.96126581746944 146.33460683534028, 242.96457165758648 136.5690864149266 M215.47556696176363 167.40743157154185 C225.6003490765895 156.78562054777728, 233.83943794094847 145.47312921338488, 241.8334480645094 136.10212499199147 M221.31954623322258 166.27019860480564 C226.31994499152918 156.92528838316946, 235.6129400877142 151.39463627177236, 243.999968258916 141.99846949798183 M220.53413101035426 167.49197552797037 C228.11162048125306 157.39650605632673, 238.1965707247926 146.15361855514973, 241.56270430262254 140.83003525619523 M226.91503005671052 168.62909864959428 C232.36310520504395 160.57089208466897, 238.7203641318511 152.79182382952726, 243.05271052485853 148.10052709656253 M224.99496800089923 167.3136025830091 C230.640243637932 161.99669051502065, 233.81278607744676 158.12969121773673, 241.79831415517776 149.13336623648598 M232.39151251116925 168.6530122657074 C232.06662607962804 165.09624288461768, 235.33346945840017 161.0399910493313, 241.4211523482023 155.3359200103931 M230.3115212052704 167.39268522111237 C233.77755390377743 164.04772081626507, 237.54168947926559 158.44775358947166, 241.19500683233198 154.76572343500106 M235.9544400282355 168.26654300974565 C237.898984243896 166.24670074831192, 239.6349377348865 163.4065141035107, 241.57152151429614 160.60597683198006 M235.29667375033367 168.2305424105923 C237.0075264030874 166.37696435252838, 238.37019076573617 164.67298555385068, 242.0766452236246 160.43254982668162" stroke="#7950f2" stroke-width="0.5" fill="none"></path><path d="M0.36125491492881623 -1.2082574711103662 C89.46719892889085 1.3630108580420064, 179.05121143835916 0.4422038871488617, 241.52659366061224 -0.3598725861823782 M-0.7487568984409683 0.39670335602183265 C90.28345927103781 -0.4327252662979162, 180.9275938593284 0.15112592287065627, 239.47666073318243 0.273683448551964 M238.47067508473992 1.9570154808461666 C240.40559625038878 45.40901814680547, 242.41308152088897 90.34633804298939, 240.85726663842797 166.11790355667472 M239.70219664089382 0.7340525854378939 C240.6602403434925 36.128906886093326, 242.0933005723171 71.04053250327708, 240.3866922687739 165.02250598557293 M240.83570852465428 163.6697695873084 C158.0923507765218 165.11969324711677, 78.37843857028236 163.25621466024157, -1.0967201094993129 166.5662583586652 M239.82489984594022 165.75595138041277 C153.35334252791785 165.32842282626868, 66.21895403129514 164.67585950274957, 0.5792911939713843 165.68331219269234 M-0.2582913897931576 165.01632329449058 C0.08181983968243012 107.65335286129266, 0.23532409211620697 51.97565083019434, 1.839794609695673 0.7256046198308468 M-0.17976673133671284 165.48011164553463 C0.2870844771154224 101.56140505615622, 0.722879843879491 38.63957232236862, 0.438715560361743 -0.7611857783049345" stroke="#000000" stroke-width="1" fill="none"></path></g><g transform="translate(552 80.5) rotate(0 66 12.5)"><text x="0" y="18" font-family="Virgil, Segoe UI Emoji" font-size="20px" fill="#000000" text-anchor="start" style="white-space: pre;" direction="ltr">DHCP Server</text></g><g transform="translate(10 10) rotate(0 120 82.5)"><path d="M0 0 C0 0, 0 0, 0 0 M0 0 C0 0, 0 0, 0 0 M0.2033643134264399 6.978911694933765 C1.9921765959702271 4.771845309726946, 2.909489879553278 2.519528314122548, 5.0382801126264996 -0.2413289670052713 M-0.31412845399695133 6.2855354004102875 C1.4205653516885557 4.8554701732647185, 2.8903579166209274 2.3587986354572332, 4.769472442897505 0.1436455447075182 M-1.3259775838721886 10.716227499067365 C4.414197620554102 8.92029545206125, 5.3485776069439686 4.869156817539773, 9.652914683473242 -1.25670316563102 M0.174716936899315 12.341439660310327 C4.552772175901221 8.329288891414054, 8.129383271604244 3.276830045383722, 10.78414132590307 -0.6154464353725552 M-0.285152747347043 19.55204969169634 C6.192129103474997 13.223798188183626, 9.936395331374113 5.721312402211799, 17.591236453040917 1.6127900748443773 M-0.03748077624945445 18.92576654339271 C5.490270832504464 11.419953861018836, 12.113692884456999 5.273878530646829, 16.477669050454576 0.6006998295825889 M-1.7104838376679208 23.195029118745683 C6.898648032019999 16.18618158828906, 15.987670609103429 7.328548574780768, 19.401533508950735 1.2212323559611562 M1.1952411143294785 23.44418698520875 C6.892541350933527 17.285163164358504, 14.568215798186268 8.92407729784508, 20.47489825291362 -0.3892118116677281 M-0.5087280524382933 32.328676225383035 C10.901338389390967 17.970539105398665, 18.454620713486683 8.185795411131714, 25.488941854473563 -1.3511664723965584 M-0.5961399236182316 30.870242498580566 C8.852018907916175 20.328636534035475, 19.808876870032826 7.619649286066469, 25.832973257314773 -0.6113199243310152 M1.281471488894848 38.230874204823124 C10.236904998153197 25.081129187627944, 23.66854694543067 11.43622343493509, 32.28728364915291 0.16486095276318835 M-0.8466903493833264 37.730778679066646 C12.445535744426792 23.975874271153433, 22.72126260458234 10.322630398180863, 31.9584335083578 0.23971463192843245 M-0.21837208311548295 41.08185000028067 C15.11037343141303 25.467216538019528, 25.457835976469987 10.571749755968053, 36.391301186570274 1.3347640653234443 M-0.7278047472565419 42.25771924722545 C9.134589472603746 32.31878182407199, 19.056513880750803 21.34321280397433, 36.58475420978044 -0.49435255666258726 M-1.0697664748878069 50.603303045638725 C11.727960257928164 34.15255875566568, 24.227867863216403 22.229445487661955, 43.43012912626915 -0.642502271723842 M0.07211708649985127 48.4646947892838 C8.834389731980504 38.5408408569361, 17.821388335568308 28.591208770828754, 42.20831855628245 -0.6605260997683757 M-1.29982702687861 55.15043820388924 C13.035509550001922 38.86739064328678, 31.17675406230517 19.7181845574921, 46.443822261831045 1.4781988755043791 M1.1275833465856167 54.67657569557737 C14.417112529635634 38.57523545595944, 27.85618914540924 23.554168267695907, 48.027445501601576 0.5556058388378666 M1.4752510544935973 62.124642408915264 C10.38252468260399 45.24415850355869, 22.445255802640244 32.76795528560406, 54.75682775279945 1.3255098700000651 M-0.7849620132615058 61.37964880233298 C18.29408121229989 39.46149031708758, 38.18083882497706 16.22636419988072, 52.37836199043757 0.40469489949184734 M0.26760589978182026 67.06551760393153 C20.771096728071285 43.938321747160444, 43.04314922268162 18.6536766196908, 56.35451289275588 -0.6757448543537414 M0.09277392266773887 67.7511503301091 C17.011794293644535 47.05101218108206, 33.91457059313503 26.990896313153797, 58.67423072652818 0.4238091684203589 M0.3745318895390639 74.29000948215274 C23.577612409530953 50.13897189778243, 44.27713797614654 22.51699968113202, 62.75663734124382 -0.9672354345650902 M-0.2797440549173942 73.7358946244642 C21.811600011101536 47.30198915738937, 45.3708622402016 19.389266529432668, 63.841122404573156 0.21125653595910165 M1.0353025673468181 77.53153622746197 C23.092550160881363 54.713375132347245, 44.64793692348214 29.37847028283778, 67.39388089184477 -0.44444993675093514 M-0.5225563672791651 80.12290289662508 C27.615563802829175 47.818903447533586, 53.90739086070716 17.884556536638364, 68.25704347831025 -0.7232386616651283 M-0.35141615725140696 85.03202145285115 C25.55043047992185 57.87058838706221, 51.090124582562744 25.16852206695399, 74.48131570410224 -0.1193709979193045 M-0.05529544471781378 85.07493616192744 C28.663908481459494 53.39442918455576, 57.57343746451588 20.580073823111277, 74.18790839243921 -1.1837122841166092 M-1.8510382406741215 91.95457084220335 C28.95720301911627 56.00210077138064, 57.401439575352725 24.078647669554442, 81.39493407159773 -0.7077991841871807 M0.8418420415043997 91.97867188159809 C18.632001720712196 69.15271361890468, 37.84429536426608 47.75752906632737, 79.72656735069779 -0.43778374516857355 M-0.7756443023683204 97.47550508873329 C32.71775530202123 60.19967385132602, 65.08244783810805 26.782599724857633, 83.54512065387473 1.7079703674374116 M-1.1919916179032697 97.9742369011955 C18.258443550326575 76.86443756711573, 35.896112967764815 56.937037503542925, 85.22877854778574 -0.44183265448529596 M-0.0271587117809986 105.42348863565567 C20.456716641289482 80.77731308082727, 37.67768568616709 58.71309624604641, 88.75318024451474 0.09182459083750416 M0.6210277427684332 104.03183619127813 C21.420745625074638 81.29216664069855, 40.620209460262785 56.510744438828, 89.25223593744079 0.009177824160005343 M1.5594733246693337 108.91865841685356 C19.814116134209527 87.87356881124953, 38.38490349707056 65.36014640940977, 94.1248100030613 0.7911558490050652 M0.4167190772572482 109.02838158807279 C27.643771382867328 77.26935875247503, 56.98824640522986 46.475592154875514, 94.99254146436274 -0.9434756688969514 M1.4336989665261868 115.46465679531893 C25.241478336541082 86.95370949822124, 48.803273702722436 59.85778481494402, 100.42662722309584 -0.05046142417686639 M-0.5311906697370645 116.2770247319152 C26.625097298041695 85.49232971601866, 54.29602289068643 53.85729522528902, 100.22223283228928 -0.3721000474293774 M-0.2941144926289496 123.3613082049348 C27.993953129694077 91.49137352086976, 52.851300079869866 62.83415758002249, 104.9596415641619 -0.1559473657163366 M0.12796120552323487 121.37733370903214 C26.81183267055741 89.14901828138419, 56.0484936071225 58.12019609418695, 105.7267557359202 -0.7877624211015686 M-0.6352664222430704 126.79665208891589 C45.78967160496503 79.7540598868884, 87.42221482075013 28.246777844672735, 111.93578281984098 1.2979599582696935 M-0.39831363125259855 128.74482598998208 C22.731821012793677 101.88488068945253, 46.37562700319237 76.50161466865353, 111.24349162899323 -0.290113453686736 M-0.06589994176316338 132.48607164047695 C37.323989589452566 92.72219746196313, 75.95629266137887 49.21168614177897, 116.69531412068608 0.7727374909959721 M-0.8263316393553026 133.6875971703235 C23.78458770980563 106.4560318237725, 48.390618077576086 76.84732088860258, 117.24167092721763 -0.037854424626381444 M-0.87017900760776 140.31142254350104 C40.026794396705824 93.37725443100314, 78.22240178001213 46.61798766120275, 123.36365484725019 -0.9927940743228021 M-0.5769144900471588 140.48294971128323 C27.07285577771471 111.09673258151984, 51.05182244326725 80.86097657179741, 122.14169592130264 -0.17210848836205628 M1.0771247897666711 144.41306591098007 C31.948690277525053 111.23797957830624, 65.08842727592769 75.29257653350113, 126.5082035431148 1.6566584461964382 M0.004524136371614418 146.90692587819692 C32.33484597684324 107.92964099108457, 65.51114780325297 70.87062347738701, 127.53446368998601 0.2602080663330568 M-1.174647218846257 153.47799244318534 C29.128181459561606 119.65717892960826, 58.167584355253666 86.06552655437895, 131.47899115410274 0.3395473029815943 M-0.3678086503312863 152.11683802933553 C50.382375563512674 93.61983223848245, 101.1385832994439 34.36630013386875, 132.02193218824158 -0.1526857805841333 M-1.9052377233458844 160.26098402922116 C43.764762470640584 112.00778176972761, 86.22640152031161 60.9796804305161, 136.3284243277251 1.1636272656430493 M-0.3510655756044139 158.99292365774298 C45.36507704645359 105.86044054982334, 89.92110908191377 53.138303837267486, 136.93249519553322 0.5708152322284733 M-0.6637699333223153 165.7503005632393 C51.76891115264155 106.95134658149276, 101.02752472564079 50.915835811153514, 144.86757780707666 1.0117239037526962 M-0.3081699173181664 164.63906189950944 C50.60651145450857 104.97222949101318, 100.26915868841141 47.109998076890236, 142.99308995285148 -0.12525779927810832 M2.261291906804389 168.90531248265805 C56.07329838370223 102.15753463679576, 112.31145451851152 38.448982227122634, 146.8717860889079 0.12115621998568193 M2.836278432587338 167.1168297514123 C59.203813757952794 101.0718351112846, 118.02608229665356 35.61755089972184, 148.2983983963003 0.05846715916176978 M8.29928044105365 166.1947360865775 C61.27786119296735 104.83241389909122, 117.01348454737585 43.460570374756436, 154.3425502304036 1.3330420148276945 M9.01433243024061 167.55939413038178 C48.561112873318834 121.64226174670083, 87.04401292414757 75.0914678480156, 154.52291184686118 0.2804516390689328 M11.490546709405967 166.61632536028733 C65.89632223648499 108.12803073902832, 119.0663076945714 48.398510619828144, 157.72358973808235 0.9123740169112112 M12.555373059531883 167.43170508835718 C48.91562419120345 126.5640488414991, 84.33880962976308 83.81542008305028, 159.20993420169182 0.7439017093345125 M19.025624631219287 167.8760784702462 C76.74587231353773 100.38218876887433, 136.62904879807425 34.132476645117954, 165.44981088911476 -1.603700040117503 M18.872793889550547 166.6561409783939 C52.61330549778686 129.77603054907075, 83.92049821417476 91.01417357695254, 163.7783900384755 -0.056966048079796536 M22.3357704552021 167.48504638349155 C80.76746913439017 101.11097536088465, 138.83512547947416 35.38695627440489, 170.73640754002167 1.2204991279663793 M23.80716363826778 167.32578934709468 C71.52676267513215 116.56163902151434, 117.06009357670851 62.600154307202104, 169.30094485877703 0.539165567335014 M29.643436641337345 165.67843937585704 C73.3938902653403 114.91298034035943, 119.08139804078829 64.38978605690066, 173.76968220859862 0.012548064184138924 M30.259525179460482 167.5049007178275 C61.292645411171826 130.40691086796554, 94.32282545561958 91.70024942831245, 175.8712160949671 -0.29204944214684664 M32.764319678958444 166.59721642375507 C66.43945688124384 129.4663227723053, 96.04072616874758 95.87958194528848, 179.58805229199152 0.8524683621355611 M33.60844448578726 167.1046956575076 C68.12978897296995 128.06971949091627, 103.9335829290742 87.59438262637156, 180.10708365329813 0.19501319429608696 M39.657833968673394 167.39432131239442 C80.3415837639967 119.90729497622019, 121.6955949978632 74.73780456377634, 185.74069514862086 0.566092374216968 M40.06991843571255 166.86364495981545 C72.88749210275827 131.8797674884084, 103.99602456712017 95.24929435836853, 184.87755372082827 -1.0634246007494332 M44.68237724044063 166.32270722756232 C77.35558721332033 135.41882781850987, 106.45582291143835 97.02137967756362, 190.52820711625753 1.7195230034031315 M45.20798855658251 167.31684151197874 C90.81714125452743 114.86370675224335, 137.77604930881907 61.63498073051615, 189.89963410849742 -0.1583009861494563 M50.78615163549311 165.6544432638426 C84.50774550093378 127.58094793789883, 117.36167289621682 91.28713786206505, 197.92733659394705 -1.7278477885346262 M50.568040031549 167.77628047799047 C89.21754667622587 124.41508386812276, 125.19376808755837 82.75966857363294, 196.28537165805116 -1.0403044190047301 M57.02851712441426 165.95586861639768 C108.02073869416056 108.79070232945276, 162.2096065690379 46.26030042587482, 201.6591198600853 0.9307736107534799 M56.00028584264568 167.02683996539096 C89.78504688403764 127.60545573229224, 125.35395503304844 88.030100478009, 200.5919451851169 0.7155862121312107 M60.05150698906208 165.55348148918614 C115.75590764451273 107.32106725977043, 170.52053123000428 41.66437917922634, 207.3797021543428 -1.3699222275862697 M60.75358657771197 167.4863876084855 C113.05537161196281 107.65012870946478, 163.24426125119484 49.01911266467996, 206.27513808612787 -0.37570622952992444 M65.77370444064499 168.6219636867454 C107.46564576406425 117.77980547965988, 149.70524236497457 70.32718041426375, 213.29525589574044 1.1528528181709525 M66.15858737346902 167.26871723512696 C117.55104420261794 108.69768164089331, 168.10170901954697 50.546089183067735, 212.55960488139888 -0.020679662229127496 M73.59567010164594 167.38398152240927 C111.60889020413654 121.81570182888275, 152.78016208883278 75.95333216305434, 218.53993136457373 0.610479728546427 M71.54171132244366 167.79687304993328 C105.13897605019224 129.0271196811508, 137.52737118361694 91.66810468976487, 217.25929982205065 -0.7064518024421893 M77.7341658238984 167.46429841009 C107.6259151759825 132.93145699885514, 140.9100787563988 95.83455073733988, 221.0568629204886 0.25026253463993914 M76.90829641604464 167.59269510106967 C106.01261608832506 134.39186107402645, 135.27715413658404 100.4387810521079, 222.91383143308556 -0.6451266980976443 M82.50654057051032 166.63635817249644 C111.91301802070284 131.75093419147493, 141.48301335846415 98.8429925549589, 229.42933728440553 0.10844682634781089 M82.30980655148629 166.43692586346663 C128.6506732169663 114.03374345900598, 175.05180636362522 60.08198300611704, 227.52262952031174 0.02665905464125884 M86.39886623394015 166.36352723291583 C118.8666806171085 130.39666825968726, 151.6449129070597 90.02450749557165, 233.13605895659543 1.6450267441448283 M87.07375087486479 167.79179970560187 C145.91998937045702 101.42079019696388, 203.86894580182252 34.59767190986595, 232.40790851341907 -0.05628302184151346 M93.89844432922297 167.81304988768238 C143.86426519860814 109.39460992513342, 194.89213439907232 48.58758663842418, 237.8982147474431 1.0592635904026362 M92.62299300394658 167.4222010710743 C127.04500079033842 130.84237561793472, 160.28266256054326 91.70478175746666, 237.47121108544022 -0.3007513498686786 M99.56315227485409 166.11677748643385 C153.2010299071008 103.5816365214876, 210.44119412520135 39.79100568644723, 240.696167081616 2.7710920520682114 M98.2584386167324 167.90414949425647 C147.8586239142159 109.74576854005534, 198.46497331453608 52.88018452367779, 241.7416728295393 2.767464458457816 M103.26792910229736 167.15694026003365 C136.24851243041036 127.18990602798009, 171.61241894061956 90.2840231258295, 241.12182298305373 6.110459459499229 M103.96913639486466 167.24199337657006 C139.18136771957415 126.92549021431591, 175.34498649759306 87.02920273625223, 242.24955386253743 8.640256617531854 M108.18787803669909 167.94771360533653 C133.58733264504863 138.70989428558036, 160.9821462807224 105.49237634588359, 242.94019177394503 15.383059660435054 M109.69412269320118 168.22826361731038 C149.86626395431486 119.85438961393508, 191.39029405020776 70.43182809231857, 242.03570428250003 13.46951531924896 M114.75928949920771 167.13128199770907 C155.09604183445035 122.56990121108404, 193.12820161896266 76.4536944565756, 244.33414729875588 20.592919711934854 M113.91191816872296 167.66978816844383 C142.04598556011527 133.3568154678716, 173.41731934700758 100.57119265385957, 241.717833194929 20.49481388458841 M121.3872936168851 166.27730286158953 C165.55408177621632 112.05858287716669, 216.2291492944833 56.31479091323594, 242.42636786670036 25.35209324679488 M119.87477504147009 167.49314900338982 C165.58788400327018 116.83593406376862, 209.66178342147032 65.14903373756738, 241.29085111328013 26.822888898692668 M125.94780453198803 166.839040233183 C160.92943199565826 127.37540960208838, 199.50088327452667 84.13234759136503, 243.18686617512336 34.54607742008261 M123.7721471497531 167.68154237082908 C162.19864171703725 123.62317430167403, 201.43599002322514 78.73602057604234, 241.93704827662637 32.586299072098655 M130.30042565405995 166.9724802254814 C166.03830320064802 127.41913014080401, 200.3297155076275 84.05215960315017, 242.38559285457785 38.08166167501281 M130.0164333132717 168.3781980360973 C151.28175651138739 142.80474218659435, 173.99706711295414 116.08005403573664, 243.22331135067697 37.59118687536488 M134.59068052668238 166.00479102236784 C168.67062721266612 125.32649462457634, 204.6844623916768 86.25732263094781, 243.35947769864538 43.65710794546854 M135.28446811076367 167.82526221042133 C160.9668565400734 136.11378442113735, 187.34414344059513 106.18382768460066, 242.3245217891697 45.300401644718164 M142.12348505939883 168.77164623683421 C175.48212347529702 128.51255982798617, 210.18548581879185 86.33174262384178, 241.2298428668694 49.85418359444171 M140.95349411192876 168.13862090913682 C177.26831296526333 124.4527160413243, 212.51740911269258 84.04100869599834, 241.80346903680427 51.36303252049416 M145.7396752957908 166.02990155276362 C180.9110157513609 123.97763198601679, 216.19746098633777 83.01860745468429, 241.27893065283146 58.550838055815376 M145.0401896455047 167.1580765934706 C183.25810673802738 123.53336661371584, 221.98980589224342 79.95734124301785, 241.5498782973185 57.46458508891968 M152.6894796454018 166.794918083148 C172.37919680708353 144.02573178278715, 194.36969309639096 118.60864914015701, 243.16731668708454 64.01323577280431 M150.63664103119132 168.2221715287584 C187.77819230041757 126.74879965968029, 223.09542899089973 85.19286380995972, 242.56032373642157 63.85651432055323 M155.0090466518133 166.75323901187033 C189.27722694616526 130.67830201997054, 221.8920739881167 92.11046685220838, 242.5907328501816 69.53488493862318 M155.84937034772625 168.01836442622692 C183.5245113946274 134.60902293035932, 212.29515745357327 102.49679845554498, 242.15755139482275 69.43285331095325 M162.3939172245688 168.59991295192265 C183.29493440606973 146.20459541176064, 202.8435494082912 124.06746434462175, 240.93689018570421 76.07576623715505 M162.2353076648093 166.35785380121195 C186.00070955872482 138.60307701833898, 211.40463832206973 112.69934127043724, 241.2098021012598 75.80684202134654 M168.57555240724986 166.451170587188 C195.84957782061002 134.84716039083827, 222.36298970250735 101.15968711944598, 241.50289210319585 79.35436578139189 M166.74081881117826 168.02575461494027 C190.2976171709276 140.96898321735827, 214.11355059698872 111.18685026307165, 241.9107246754325 81.84046021706882 M172.1948056093999 166.1817480306583 C198.3845166879583 138.30953196084926, 225.18369594355076 108.18579187183072, 243.87176214623798 86.26035175521676 M172.1376776065328 166.55592163274758 C192.66661760767064 143.31097408247626, 213.20126524702604 119.23130888760849, 241.71840369607855 87.49460410934691 M179.17845037460046 165.83756346621658 C197.91947180527558 142.65030301869618, 220.09168008154535 116.9661413086082, 240.1298571953836 91.94660735184434 M176.9620936296107 168.08112606586064 C202.10082710223858 139.31390684080773, 226.72506981115723 111.49536214328796, 241.1352727039072 94.35861929373922 M183.61265261239504 167.97304050685483 C199.94268629417627 146.92924759480428, 217.56809071497153 128.84721414704097, 240.52369038118576 100.46835951448938 M183.95068445011174 167.1078789296152 C195.74749444307915 152.43695279729397, 209.66230642746646 138.18308988166694, 242.9274371146277 99.72692949080428 M190.11949836636515 168.06378483645614 C209.55934172958717 143.9287493874856, 228.89386346709097 122.16527542924221, 243.11675399722594 105.42230767703495 M187.97950339677365 168.36660768523808 C200.31602579818644 151.42440233760237, 215.06893172840768 137.30463173279938, 241.34399713197786 106.67566528676889 M194.73046604605426 166.84390756801236 C208.38079870836978 151.1894290557234, 220.92587057805065 135.1260995758873, 242.00693270304765 111.03865670247296 M194.50001178929617 166.5864795980649 C211.50318404675295 146.6746823617016, 228.5553310394003 127.67050385205556, 241.8969609506574 110.59219707196871 M199.26295419504387 166.71870188540657 C209.6175015650846 153.6495715813198, 224.71688652539595 141.66561069437512, 241.70303129223237 116.59379352468648 M199.47810670641704 168.3455783793225 C214.40485159738532 148.91268080682957, 231.23740372749447 130.92876755391828, 241.30027252440402 117.02531168263056 M204.19375372287755 168.1019664016308 C214.41331937018413 156.20858717391155, 222.28590530135088 146.23317776490282, 241.3421878953331 125.50232008689025 M203.83009321783607 167.8457275443466 C219.13837692476696 151.66178010792152, 232.12792417051816 134.25020242125746, 241.24972476892702 124.21474533931294 M211.0355756731367 165.828681800568 C223.47398475108363 152.6279363876508, 237.22341803472918 139.25334215842997, 240.34669689290286 129.95618208229897 M209.36171215229092 166.762667054364 C220.6524257469888 154.46649033183456, 233.36066353416413 141.72842810898598, 241.64228247493566 129.1678123875743 M215.21052345536484 165.49233419521016 C223.30348986314573 158.41941280867454, 227.96679011151534 150.33730959500443, 240.08083182852306 135.56379769479568 M215.20411232948138 168.02087667471034 C222.11632696688832 159.8754529263643, 227.550786887552 151.69694672211824, 241.79540522116758 135.7360340386414 M220.42662061314354 167.85759176944035 C228.53749957218432 159.23580736831286, 236.8835224305138 147.88669804682195, 244.06825861173735 142.4420905373724 M219.75287832814524 167.6437526166125 C226.387504955639 159.2254329166071, 232.6041828636353 151.1650377774565, 242.2269605773227 141.14467130785005 M227.55128305601625 165.19762813625047 C231.56981162658744 162.54572382702378, 236.9831673091723 155.74473092970408, 240.36856328612714 149.62916629391208 M225.1040027179822 166.5284308954061 C230.3112731468144 162.49096612960497, 234.64406604913137 156.85592297984977, 242.59425187213867 147.84290165642693 M229.2505192796343 165.9687328417553 C233.19443935233113 163.37951754198926, 236.9438552062052 161.20547654332145, 241.8092654475389 155.9433380885772 M230.95482622977505 168.16952308563054 C233.3699121434653 163.28473919725454, 237.39540302601307 161.2876171561353, 241.53664168700632 154.12179342003313 M236.30949661211687 167.20290354775148 C237.9344880937892 165.63902184607426, 240.00592393257173 162.18688639263377, 242.92812114322146 161.02666468627007 M236.15020043199527 167.81699289796757 C238.28792443878442 164.90002112930836, 239.7148742615729 162.41881221960654, 241.93396276069393 160.0073816998601" stroke="#82c91e" stroke-width="0.5" fill="none"></path><path d="M1.4570869268838391 1.0210396097957863 C59.399475736538314 1.1758385888410612, 123.34025362739243 0.9449477181600137, 239.0350444142894 -1.122485837452434 M0.2661553638558276 -0.2646673153459318 C88.49248087833202 -0.20773218259566195, 175.94596348166397 0.48583034300250644, 240.03709274723778 0.5713059153792374 M241.29183027520776 1.9392145536839962 C241.3661327452399 53.0595393953845, 240.66244781920688 107.17140705324711, 239.1816299892962 165.4612133167684 M240.40887425653636 0.7692372668534517 C239.39889891175554 42.250040422193706, 239.28010405329988 87.03454116359353, 240.40069524757564 164.9602957237512 M239.1379711097752 165.77211195906233 C180.24737125151242 166.8283829215443, 123.35079444271102 164.5678251746273, 0.07238630279292911 165.9572381174812 M240.33415167333865 165.44191172951466 C189.1244939286462 165.4454715861346, 136.9681513394599 165.2687150455783, 0.8296730936850197 165.6557852695889 M-1.5461373589932919 163.40354403480887 C0.8786173387430609 117.2861708747223, 0.6136760040186346 68.10247920267284, -1.3166693709790707 -0.9472065307199955 M-0.39106168039143085 164.0616258252412 C-0.5263442794792355 103.6906163925305, 0.6428743203170597 42.04481333494185, 0.5155809354037046 -0.3926671277731657" stroke="#000000" stroke-width="1" fill="none"></path></g><g transform="translate(63 81) rotate(0 71.5 12.5)"><text x="0" y="18" font-family="Virgil, Segoe UI Emoji" font-size="20px" fill="#000000" text-anchor="start" style="white-space: pre;" direction="ltr">Netboot Client</text></g><g><g transform="translate(129.83460998535156 175.8140367269516) rotate(0 -0.7156401704217785 410.86559412958076)"><path d="M-0.10935961380600934 1.1020819701254367 C-0.07635811939835555 137.88345376643346, 0.14228523597121243 683.0818017886484, 0.19877992495894437 819.5031691599075 M-1.6259121403936296 0.6350710591021924 C-1.733606150234118 137.73375729333603, -0.8466338840965181 684.3569569992271, -0.6449060780648141 821.0961172000594" stroke="#5c940d" stroke-width="1" fill="none"></path></g><g transform="translate(129.83460998535156 175.8140367269516) rotate(0 -0.7156401704217785 410.86559412958076)"><path d="M-9.111487441107649 793.2522460049777 C-7.958594833613326 801.7673782599654, -4.655055753173684 808.9992903164195, -1.1128252228442579 822.1710795515306 M-11.286646040499228 792.1714947740375 C-7.757444804625516 804.4123514515962, -3.063882992800118 813.2235158569367, -0.6810884350631385 820.5375625339426" stroke="#5c940d" stroke-width="1" fill="none"></path></g><g transform="translate(129.83460998535156 175.8140367269516) rotate(0 -0.7156401704217785 410.86559412958076)"><path d="M11.409697516246759 793.2210958542212 C6.404608597614291 801.7268735818773, 3.5504737756609295 808.9681326848478, -1.1128252228442579 822.1710795515306 M9.234538916855179 792.140344623281 C5.060527095230594 804.2060763994373, 2.050776863633531 813.0289340540699, -0.6810884350631385 820.5375625339426" stroke="#5c940d" stroke-width="1" fill="none"></path></g></g><g><g transform="translate(605.8126100301743 177.29753470420837) rotate(0 -0.8163411619747194 309.9871053305734)"><path d="M-0.1644619189202785 0.45871179923415184 C-0.10677241906523699 103.55522596860925, 0.008457592874765482 515.6897989911338, 0.07726083174347886 618.857609089464 M-1.7099431556928903 -0.3460684515070169 C-1.7799879572261126 102.9179834049909, -1.0507210398185998 517.3680202497014, -0.8302226952183992 620.3202791126538" stroke="#5f3dc4" stroke-width="1" fill="none"></path></g><g transform="translate(605.8126100301743 177.29753470420837) rotate(0 -0.8163411619747194 309.9871053305734)"><path d="M-10.379251448204428 592.2775949661822 C-8.452726823091911 600.3971073051836, -4.576479078901133 607.8780607804408, -0.6109695388842374 619.889388518976 M-11.410845357691557 592.207990113014 C-7.731716785495103 600.3433034060339, -3.3488281676773433 610.2136477635927, -0.8949618796724826 621.2951063295919" stroke="#5f3dc4" stroke-width="1" fill="none"></path></g><g transform="translate(605.8126100301743 177.29753470420837) rotate(0 -0.8163411619747194 309.9871053305734)"><path d="M10.141920936072584 592.2390416184002 C6.371987844611469 600.3411315271302, 4.55168838859978 607.8327871670226, -0.6109695388842374 619.889388518976 M9.110327026585455 592.169436765232 C6.140717782001489 600.1934868342198, 3.8745899903791816 610.0763227705852, -0.8949618796724826 621.2951063295919" stroke="#5f3dc4" stroke-width="1" fill="none"></path></g></g><g><g transform="translate(128.81261003017426 234.12116849422455) rotate(0 237.81255252940122 10.601650887872069)"><path d="M0.05175831690430632 0.025715287774801254 C79.40328905222317 3.597257225297699, 397.6824628024052 17.319021703714178, 477.0053123548627 20.821185742067154 M-1.3802072960603984 -1.0063881314825267 C77.77887337096347 2.7979071379996183, 396.93222482708904 18.321715219180703, 476.321161384387 22.209689907226693" stroke="#5c940d" stroke-width="1" fill="none"></path></g><g transform="translate(128.81261003017426 234.12116849422455) rotate(0 237.81255252940122 10.601650887872069)"><path d="M447.7068789067197 31.92259826081699 C457.97340817418075 26.890826578723413, 469.073112277376 22.91129793487938, 476.74931856866 21.78513194942845 M446.96077348352253 30.667715111178218 C452.6274827540537 29.61710761842663, 459.95312612147734 26.67067271511711, 475.52543858501133 21.874441245067846" stroke="#5c940d" stroke-width="1" fill="none"></path></g><g transform="translate(128.81261003017426 234.12116849422455) rotate(0 237.81255252940122 10.601650887872069)"><path d="M448.70654115025275 11.42575270388569 C458.49465770137766 14.074115532988749, 469.2198110256845 17.774290226714697, 476.74931856866 21.78513194942845 M447.9604357270556 10.170869554246918 C453.5668352188678 13.390052816755349, 460.68440793119373 14.709850943708478, 475.52543858501133 21.874441245067846" stroke="#5c940d" stroke-width="1" fill="none"></path></g></g><g transform="translate(290.81261003017426 215.12116849422455) rotate(4.434466709991486 77.5 12.5)"><text x="0" y="18" font-family="Virgil, Segoe UI Emoji" font-size="20px" fill="#5c940d" text-anchor="start" style="white-space: pre;" direction="ltr">DHCP Discover</text></g><g><g transform="translate(607.8126100301743 281.27269411087036) rotate(0 -237.2753360951645 24.171350312973374)"><path d="M-0.5139567576348781 -0.40664779320359223 C-79.55019530883213 7.708914030375893, -395.8898248399685 40.598483211710125, -475.1795004334021 48.65457924549469 M1.4170772152673452 -1.665741829974577 C-77.66636882762579 6.626988341738471, -396.7714065674304 41.61691689884756, -475.96774940559635 50.00844245592133" stroke="#5f3dc4" stroke-width="1" fill="none"></path></g><g transform="translate(607.8126100301743 281.27269411087036) rotate(0 -237.2753360951645 24.171350312973374)"><path d="M-449.71952646813554 37.28727194234432 C-455.5478635385424 38.292412734295496, -462.67468539986373 41.832886338090226, -474.68195791536937 48.44946720266716 M-449.4384942541943 36.993271098804485 C-455.6999638430613 39.68740560201822, -461.0609190784495 42.532906299733455, -476.82436752872536 50.195020895469945" stroke="#5f3dc4" stroke-width="1" fill="none"></path></g><g transform="translate(607.8126100301743 281.27269411087036) rotate(0 -237.2753360951645 24.171350312973374)"><path d="M-447.515915798833 57.68982331230725 C-453.8220718410188 54.20048275240797, -461.43330808720236 53.255913009307946, -474.68195791536937 48.44946720266716 M-447.2348835848918 57.39582246876741 C-453.9752470956587 55.31036420451934, -459.85466235877203 53.35560345120295, -476.82436752872536 50.195020895469945" stroke="#5f3dc4" stroke-width="1" fill="none"></path></g></g><g transform="translate(202.81261003017426 285.27269411087036) rotate(0 175 62.5)"><text x="0" y="18" font-family="Virgil, Segoe UI Emoji" font-size="20px" fill="#5f3dc4" text-anchor="start" style="white-space: pre;" direction="ltr">DHCP Offer:</text><text x="0" y="43" font-family="Virgil, Segoe UI Emoji" font-size="20px" fill="#5f3dc4" text-anchor="start" style="white-space: pre;" direction="ltr"></text><text x="0" y="68" font-family="Virgil, Segoe UI Emoji" font-size="20px" fill="#5f3dc4" text-anchor="start" style="white-space: pre;" direction="ltr">IP:... DNS... Gateway...</text><text x="0" y="93" font-family="Virgil, Segoe UI Emoji" font-size="20px" fill="#5f3dc4" text-anchor="start" style="white-space: pre;" direction="ltr">Next Server: pxe.viktorbarzin.lan</text><text x="0" y="118" font-family="Virgil, Segoe UI Emoji" font-size="20px" fill="#5f3dc4" text-anchor="start" style="white-space: pre;" direction="ltr">Default BIOS file name: pxelinux.0</text></g><g><g transform="translate(127.56128194145856 480.3092697912482) rotate(0 237.6704288543342 10.515479647209872)"><path d="M0.5418940387666225 0.16714530363678937 C79.98111469832561 3.819020235620746, 396.4967828466247 18.16187622290258, 475.97360802888875 21.82166665171271 M-0.6327503202203661 -0.7907073572929948 C78.66005748126967 2.5260957287422663, 395.1240628945238 16.55706836094302, 474.74781228727664 20.075423294436167" stroke="#5c940d" stroke-width="1" fill="none"></path></g><g transform="translate(127.56128194145856 480.3092697912482) rotate(0 237.6704288543342 10.515479647209872)"><path d="M446.4097661039696 28.198617417627556 C454.33959614477794 28.246529882922957, 461.8536118270036 25.146176297550905, 473.1149988000747 18.535582570116947 M445.7056409585194 29.3737213893622 C453.01665778121554 27.16482654685966, 457.84758116563347 25.201782626729674, 475.40781039311554 20.843990243729184" stroke="#5c940d" stroke-width="1" fill="none"></path></g><g transform="translate(127.56128194145856 480.3092697912482) rotate(0 237.6704288543342 10.515479647209872)"><path d="M447.31651924254203 7.697451569522013 C455.00901980207675 12.769312824102895, 462.3010106256456 14.688813327012777, 473.1149988000747 18.535582570116947 M446.6123940970918 8.872555541256656 C453.66906600193965 11.123366970588046, 458.30284328277634 13.617682825567542, 475.40781039311554 20.843990243729184" stroke="#5c940d" stroke-width="1" fill="none"></path></g></g><g transform="translate(289.57325625779856 460.9999945958805) rotate(4.434466709991486 73.5 12.5)"><text x="0" y="18" font-family="Virgil, Segoe UI Emoji" font-size="20px" fill="#5c940d" text-anchor="start" style="white-space: pre;" direction="ltr">DHCP Request</text></g><g><g transform="translate(600.5545473815735 521.3806015740138) rotate(0 -236.8786024483945 25.31153710413264)"><path d="M0.9760128580033778 1.1166686810553073 C-78.21749655386589 9.21051500666421, -394.85149335070355 40.69780152083841, -474.36997148205523 48.62658971046098 M0.029280879115685776 0.6573157932702451 C-79.29400322630225 8.916929830578157, -395.18795104630135 41.7683773202682, -474.7332177547924 49.96575841499494" stroke="#5f3dc4" stroke-width="1" fill="none"></path></g><g transform="translate(600.5545473815735 521.3806015740138) rotate(0 -236.8786024483945 25.31153710413264)"><path d="M-445.8886901659553 38.71137455397263 C-458.2461230592575 40.78695419918018, -468.0153145711538 46.60153525060404, -475.87727661190553 49.1006667074375 M-446.87666461035957 36.196968716690094 C-457.00463832044727 40.367620136407865, -467.2628897172735 45.61852998023033, -474.241645387765 50.65548719471322" stroke="#5f3dc4" stroke-width="1" fill="none"></path></g><g transform="translate(600.5545473815735 521.3806015740138) rotate(0 -236.8786024483945 25.31153710413264)"><path d="M-443.77409246076473 59.12334356558546 C-456.91611020761343 53.74689793819957, -467.4590832396243 52.09225476244857, -475.87727661190553 49.1006667074375 M-444.762066905169 56.60893772830292 C-455.51662072365804 53.4540534716582, -466.5317061457884 51.39933131109372, -474.241645387765 50.65548719471322" stroke="#5f3dc4" stroke-width="1" fill="none"></path></g></g><g transform="translate(293.6241496925461 522.6160797647176) rotate(353.55114840531036 52 12.5)"><text x="0" y="18" font-family="Virgil, Segoe UI Emoji" font-size="20px" fill="#5f3dc4" text-anchor="start" style="white-space: pre;" direction="ltr">DHCP Ack</text></g><g transform="translate(867 10) rotate(0 120 82.5)"><path d="M0 0 C0 0, 0 0, 0 0 M0 0 C0 0, 0 0, 0 0 M-0.17305518310981483 6.433394393374316 C2.176150169926489 4.488959658946063, 4.220094711869908 2.948898050897452, 5.503747517945713 1.1357931967673114 M-0.30194829252081606 6.234110014935128 C1.3785325271616216 4.5077356682246466, 2.7052276388604954 2.6199128110490726, 5.150565110477156 0.6678022820350937 M1.3688488283287392 12.681970850050032 C3.1698534211718474 7.720640793369431, 4.867373682027984 5.519082297897083, 9.802510993135106 0.7067605222657085 M-0.27727009122263324 12.07560518574673 C2.811338383869203 8.674937855528158, 5.386928837233073 7.1028901547901855, 10.950887513113154 0.3897563825443151 M-1.9743475458165864 20.429932768364125 C7.538492766191265 11.41414716664979, 12.650445715623205 2.830918036439746, 14.070967893585046 -1.270843419532759 M-0.3765486525884132 17.78030778551536 C5.2381520701268105 12.271292702492612, 11.757447815400903 4.897802376802513, 15.226043572186907 -0.612761629100425 M-1.6567472701706674 25.112878778665422 C5.309206383405787 16.403141663361502, 11.343205040652922 9.123674574553847, 21.48637893264916 -1.205320297351527 M0.35070486946024637 24.835110902502297 C5.993070276684496 16.396151026872246, 14.218893562466725 9.292406382788753, 20.557220910021925 -0.5922305365860936 M1.131567810713257 31.050286413867227 C9.740769533102844 20.428845129194393, 17.427154527537073 9.008530166832742, 27.409247941013785 1.7439369106677116 M0.33223681063851274 30.543581805888763 C8.314625648034363 20.095130610871706, 18.01696700183313 9.804162681792178, 26.115516022455306 0.01049617435901773 M-1.7300766726118049 35.78957011718427 C8.368147904892027 25.284537847839367, 18.330332206623094 14.6765053674394, 30.06636582822243 -1.7592731824830885 M-0.2947536633443555 36.26655046623324 C10.807181833864453 24.08924699062962, 24.00038122988867 9.142537347497534, 31.94223397918681 0.27224201907061385 M0.6728011604071611 42.905488081831265 C11.860716580348818 27.02414742449777, 25.23490820112354 11.892773290919319, 36.72044363785659 1.3700301070791205 M-0.5668955117790944 43.507424979094196 C14.056048349826833 27.78524885496671, 27.509871010916637 11.049017971876236, 36.96811560895418 0.7437469587754926 M-0.05333764664836593 50.639270991691276 C13.30693753798977 35.50054492433915, 24.65574130751275 19.407201948938393, 40.54358477945976 -1.0246671076537126 M0.5246770940720253 47.98882030569844 C10.253451237335144 37.57271269683332, 18.735011624479128 26.35493728004367, 43.44930973145716 -0.7755092411906475 M0.6073603157651277 52.99065495975624 C12.327920780008563 40.095927109483455, 26.012684612988966 23.097064323179858, 46.993812796613454 2.0713033572014616 M-0.1857620260912327 54.18209121138166 C17.76708108024463 34.779238991410935, 37.11962171908948 13.816241390813367, 46.906400925433516 0.6128696303989933 M-1.543331408770868 60.13055816990922 C10.859625960276604 46.16432148345671, 23.97816892619345 29.067251004797168, 54.68854359886116 1.1811151146366008 M-0.09950329353112863 61.15750890737067 C13.490313187446507 45.599934041076025, 27.013422178234514 29.567942149570644, 52.560381760582985 0.6810195888801225 M0.7996940602966518 67.49311381536494 C23.314085599026843 41.916526402655734, 45.194855042591314 14.887743760676692, 57.78111322978438 -1.2508761514652527 M-1.0734881675384074 67.11379398922394 C23.416599728259712 41.229077428659735, 45.87040105640339 16.45593455648641, 57.27168056564332 -0.07500690452046754 M0.10169985352069233 72.4147988393381 C17.99936385121101 49.06096691426193, 38.614151330616096 26.3954738738031, 62.83425009892662 1.4781906718878517 M-0.20098623240381386 73.45474517749993 C20.739978410211286 48.40352600499686, 40.19372243225861 25.495501784124734, 63.976133660314275 -0.6604175844670763 M-0.35507173551725657 78.77356267571179 C16.94414279609748 59.448396785948475, 37.04667046984662 37.52711201405227, 67.19660274986937 0.7423587685789599 M-0.5922722843896082 78.86586805842546 C14.728034394903991 61.89734112189028, 28.72200728660047 45.67530078290513, 69.6240131233336 0.26849626026709217 M1.7460139527263152 86.08086018747792 C26.429900869895693 54.17779391689615, 52.95200483936916 27.195947388917553, 75.87621209215614 0.9241767516000436 M0.40528687120396967 85.84390802233622 C18.78808508059811 66.44487310860053, 34.991631106877506 45.82078645745833, 73.61599902440103 0.17918314501775967 M-1.8674882881671024 89.89432830851958 C17.13531126991504 73.90719145623316, 31.5360663595699 52.716800540352395, 79.91703916936842 -0.17262469516587942 M-0.8537398118853403 90.54702690545902 C24.215935593884492 62.37365693070622, 49.60253134849539 34.33893840470446, 79.74220719225434 0.5130080310116938 M-1.8396903276445045 98.90981898205146 C29.40550875332853 65.6030780914337, 55.7479765914591 29.83191646096634, 85.27243739104972 1.014190541273166 M-0.5329344179482831 97.32433592835233 C27.44830879513493 65.30625845506309, 57.174479964822346 31.757113309916207, 84.61816144659326 0.4600756835846198 M-1.5295477851528858 103.6005279012883 C19.14513144534156 82.11295638099216, 36.48761904711252 58.17624424985494, 91.18168030078152 -1.7819593551997883 M-0.09470715627560367 102.79252443657461 C31.853553608103944 67.31495622311273, 64.21276103310667 29.6863267089402, 89.62382136615554 0.8094073139633196 M0.6459628828892434 108.85612325011314 C36.74299791220025 66.76288207625694, 76.68994436291744 22.076137232896727, 95.04343380810738 -0.31915077159277416 M-1.080973448129562 109.91248864135267 C28.54611016596145 76.41016581866127, 57.197834838019176 41.248623300878776, 95.33955452064097 -0.2762360625164888 M-0.5707424139746067 115.07477864151797 C25.317578471476423 85.03055617837252, 53.81692998020487 52.61404765878638, 98.79228395660871 0.5657219759772474 M0.6667592761896017 116.51886455802223 C26.32894641734092 86.34208449394694, 53.395040001136024 58.076625828674175, 101.48516423878723 0.5898230153719837 M1.0986723678370538 122.57584975938579 C36.01336121097079 79.70295553913417, 72.87628288293678 36.32525959226558, 105.77220915582907 -0.7057299994977697 M0.9464193454196277 121.17020464781007 C37.26255212377998 79.22152009403851, 72.47201502124977 38.27718085926554, 105.35586184029412 -0.20699818703555906 M-0.3141233911227701 128.69190729693133 C45.07002265462852 74.69416556723164, 88.92743908722647 25.03062606377287, 111.11310794934995 1.9592864858652135 M-1.0247159497302292 127.67851075627465 C39.40020202476438 83.19307423224072, 77.86513230936026 38.596146477257534, 111.76129440389938 0.5676340414876719 M-1.3673040603010662 132.40786569736935 C39.99862028308351 85.80593441889943, 82.5866769855719 39.83595489337519, 117.94821221772435 -0.5832203747190547 M0.6093025564492933 133.18586285397447 C40.3160095549344 88.14996655993568, 79.06147213622248 42.24382610695166, 116.80545797031226 -0.47349720349982505 M0.44793515388363403 139.0001118945829 C28.159946146289744 105.2353493030834, 59.42095592455192 73.603787298886, 123.07091009150525 -0.07489863803587582 M-0.43758118230408627 140.24104777713634 C48.96227258486711 83.46561218430298, 97.49423537820132 27.59012299449354, 121.106020455242 0.7374692985603986 M-1.075208589025138 145.12853825156387 C33.85056725875068 104.35501043249496, 70.16953292601451 64.32208301645439, 126.59156886427417 1.7840761297978176 M1.1864847787094135 145.32909216609593 C49.665828774386526 89.2509418979727, 99.05591648937344 33.33838199320324, 127.01364456242635 -0.1998983661048399 M1.363044176838128 151.36790552414814 C30.51261627732957 118.00226979282965, 61.31787997191226 81.4350299727326, 132.19558354157635 -1.415948957380983 M0.37037909418072323 152.6879573685519 C50.94826466502274 92.21410395114422, 102.00895201292848 33.86778107642557, 132.40804498687118 0.3308624685405605 M1.3486399412513883 158.71681180418 C41.8826650390145 108.68957737124424, 83.62819418129831 57.66839439210409, 137.34221163995878 -0.9946479020784602 M-0.45214892409071816 158.98095287534892 C33.60168115809755 118.67614521944515, 68.2036536933608 79.76453636599202, 136.67051775888544 0.06666680758817548 M-0.053731424592428245 166.12043866361512 C38.16219295086301 120.23207448591776, 79.00987881259762 75.91598840607035, 142.51595812319636 -0.12766868131309778 M-0.5225585567642104 165.06720079952106 C50.08976451077285 106.20490821586479, 100.14886339055322 49.32737089753724, 142.77108992476178 0.0215550832858403 M1.4416648881399812 168.20353773303253 C57.31566959545591 104.34432376297168, 111.3264494530574 40.399092475167535, 148.84850274244656 -1.0979840155392107 M3.159641792466188 167.64602246337984 C35.86548407331779 129.00834253414712, 68.97137993083977 91.07421477655262, 147.92252187892774 1.0549762671429508 M8.968210012329124 168.50951112491737 C47.64370294601014 120.39819926587907, 86.42220666670362 77.23846712789523, 152.6540268818411 0.9174963554029605 M7.510730290620713 166.908029338247 C55.71417951678653 112.67312653286024, 103.21932224772446 58.06538766052528, 153.43086817327597 -0.3930519921352192 M12.17423989772093 166.7696153118367 C58.963533331699075 114.05732523193741, 105.6061899685806 59.565673128336186, 157.16510716295585 1.6697932853932762 M12.967248963504055 167.1931337291074 C66.64479778539732 104.54702830998198, 120.71017319079536 42.37638269425627, 158.68408660326608 0.43044690015108183 M18.07155747461085 166.21027542431176 C68.17783005873919 112.2905160839495, 117.31188890554748 53.18844783084954, 163.62357062389881 1.1445681221405015 M19.44745653723686 168.2264354444851 C76.63210393190953 102.23346996367707, 132.6907932554057 37.094199160827095, 163.97644542861252 0.0418456564322989 M22.12129695264487 167.38096924344242 C67.51571933720491 121.15412448514786, 110.73742181265054 72.38540316631205, 169.16657603212846 1.290796013931965 M22.962222011821556 167.10161276145175 C60.35755045834783 127.44011475146351, 96.05656773365571 86.16784223518707, 169.7415625579114 -0.49768671731380953 M30.424744902743434 167.62011610912487 C61.90863724981562 129.53295698410193, 94.48128884649384 90.3535801402934, 175.20456456637768 -1.4197803821485542 M28.795106068066293 167.62085540884394 C67.50525099855209 124.35584732699299, 102.85037975030497 83.67285696293769, 175.91961655556466 -0.0551223383442849 M33.431823275177464 169.143101511834 C89.10288539354578 105.8980363511762, 144.30993657861174 40.24270306089148, 178.39583083473 -0.9981911084387698 M35.192801210660924 167.17797483404576 C83.15536404744222 110.63478358359264, 131.7687175351503 55.06680297911601, 179.4606571848559 -0.18281138036891104 M38.491563281492446 168.14851320084108 C84.37403587990119 119.41938675132707, 125.70954431161468 66.651372212362, 185.93090875654337 0.2615620015201392 M39.63877797510114 167.82494598620636 C74.32328383951592 126.61425404495004, 109.01277888052908 88.12587276466591, 185.7780780148746 -0.9583754903321865 M43.56058841258433 166.35938337599586 C100.43800693728647 106.25100451720155, 155.7149076435686 40.9054833863566, 189.2410545805262 -0.1294700852345541 M44.98963947076434 168.3348439830222 C84.50591475574478 123.25541319344471, 121.7998097887562 77.90429655488246, 190.71244776359185 -0.28872712163140996 M49.034282720623565 167.0358599959447 C102.69590189923794 107.19778295740389, 154.79172571056185 46.90196427669534, 196.5487207666614 -1.9360770928690283 M50.209288387833645 166.63534189395506 C96.859216308696 114.14246383217957, 141.79774331318058 63.23344253857616, 197.16480930478457 -0.10961575089857961 M55.62779703713108 169.25036096991238 C87.94515174525554 127.92213205543025, 123.53170662801357 90.8361590221143, 199.66960380428253 -1.0173000449709977 M56.50528154037396 167.41112660701395 C113.4283270622503 102.90031056516308, 170.0188436312652 37.76093608025903, 200.51372861111133 -0.5098208112184796 M62.394346854902366 167.35346306592015 C90.99429728938692 133.56450576477906, 120.16759694384136 99.07577675464412, 206.56311809399747 -0.22019515633168274 M61.51621447325596 167.27130861197298 C99.92646065846213 123.66908690378911, 136.1491937889178 81.30418177808406, 206.97520256103664 -0.7508715089106512 M64.60621854608337 165.96836170256788 C119.36107717819135 102.15972226919152, 175.02788961383047 39.418696875009886, 211.5876613657647 -1.2918092411637543 M65.44807600523201 167.5316642671537 C120.37573913143149 104.80643160315583, 174.37717894208174 41.88250361838591, 212.11327268190655 -0.29767495674733596 M72.4923728440945 165.64388945725182 C110.86809752476368 118.63011714130029, 150.41504632588445 74.99810138833011, 217.69143576081714 -1.9600732048834337 M72.16806803586027 168.01508958264284 C115.18464582099146 117.17269911981084, 158.80149126482294 67.30293855623195, 217.47332415687305 0.16176400926442497 M78.04049266170676 167.48932305794676 C132.27424012100022 105.5636494161346, 188.06114887430286 40.60081213576166, 223.93380124973834 -1.6586478523284347 M76.34826328858064 167.74758088707438 C110.99861288872509 126.45892271259991, 145.30964765460152 87.37700894881968, 222.90556996796977 -0.5876765033351522 M84.0942393729656 165.73383709142405 C116.73077458218556 129.4752619030881, 148.41663538434523 88.29619661675535, 226.95679111438614 -2.0610349795399356 M81.82551311763879 167.39173261084753 C120.56443103975754 121.7358182026444, 160.82851419717707 76.19440879069573, 227.65887070303603 -0.12812886024056658 M88.42138863126696 166.17418139503346 C136.90721961280295 110.43329403523505, 187.40522891441023 54.86529567272976, 232.67898856596906 1.0074472180193497 M87.0184964511621 168.21610915290876 C133.96742556114143 115.43605240948162, 178.01776609682108 63.87979477757361, 233.06387149879308 -0.3457992335991018 M92.08963388381453 168.3768523768927 C143.34110637266642 108.4640084546001, 192.92706821605617 49.84449056703028, 239.84808467628392 0.5244994660082194 M92.92744208750742 167.62322563677952 C132.14746501955793 122.45856502727274, 168.8230103966136 80.3498978933823, 237.79016027557762 0.9381881719064715 M97.35350601941462 166.84401316767133 C136.8639855970176 120.77694116501304, 177.57829295606993 76.03092543800521, 242.67592653264322 2.1132645861652155 M98.91767935639749 166.74297386729052 C132.56387913836951 125.42685606273069, 168.2878813974348 84.58554158358163, 241.8452735543744 2.2424049717369203 M102.18786094431616 167.80261754928776 C147.0935726226128 114.84947517378913, 193.63548299161818 66.92385255905138, 242.19374697437368 7.312074864442409 M103.78621062377364 167.730324241363 C154.75612899829534 109.14663102382187, 204.63072617387195 51.728918520918164, 241.992834731664 7.108407025627738 M108.66752084495057 166.02873151234843 C150.18993625290597 118.7729998424585, 191.8498607673725 73.21368844954584, 240.79640429698838 13.04528588580937 M108.48511043692777 167.43614984340573 C141.3916221353716 131.4447001231954, 172.9271862137533 92.46398508488844, 241.4960462039137 14.525952678033205 M113.04046976177332 165.9837363024042 C148.34198661432032 129.17813300509607, 183.465161747156 88.2213146098628, 243.19856044096016 20.679707054960062 M113.00068766421018 167.66210483170906 C151.8971113005197 122.91491566973053, 189.23313876202158 78.79280306479728, 241.724001143175 20.227843667360474 M117.81594626104251 165.76908898391162 C154.59959726285592 125.26385202132548, 193.0621689511184 78.64833918851704, 243.71449850768394 24.70626416525954 M119.30854003561453 166.76318134963844 C147.74894336736168 136.32033316543405, 175.8760938582614 103.24068360868728, 242.2118998140896 26.76472567304188 M126.21911998742473 167.50738961844453 C167.47799038529098 119.26408460298676, 206.27704865820525 74.49894880655569, 241.23062349457373 32.755644609299225 M124.34100774021101 167.15110436490485 C151.9659290748306 134.92555275329653, 179.8372453432795 103.60375637867396, 242.02596845265558 32.852116177868766 M130.27756310046345 167.3741555689949 C159.7636408831319 132.6988466983663, 187.15436680435513 101.66190147626044, 241.55985478218253 38.87916908029388 M129.95775522269935 167.92808801784398 C154.60701808191928 139.29297127199774, 180.07775711276236 109.46170671610147, 243.24285934958215 39.19264202739964 M133.17976789374018 167.84108626944578 C166.79584898859133 129.81668078793678, 200.6073845729634 92.70353014990388, 242.95709091409185 44.04463076212656 M134.8453826868173 168.73276289468265 C172.70165371509947 123.67271506289396, 210.7643248895278 80.2347305968454, 242.1097195836071 44.58313693286132 M142.14861902679843 166.0133865827891 C166.2522017835482 141.83891168072736, 190.23041010027356 111.42601057614792, 244.33662279984517 49.22832826778918 M140.9533983272646 167.51499938575654 C163.02910058002686 141.74669549361408, 185.65998647312432 114.90768490382337, 242.82410422443016 50.444174409589465 M146.81792129321968 166.04244344290797 C180.38884219841347 128.17225824608312, 212.24982286684644 88.75966025028583, 243.64866148302403 55.8277422811648 M145.43324609777903 168.38608432729248 C171.73031484221613 137.43452646561306, 197.4958617326597 106.85771896259376, 241.4730041007891 56.67024441881088 M152.1058718525475 167.4631492127943 C175.994557969918 138.9610342883444, 202.1400896074909 109.71041414732395, 242.0967513441814 62.75356849546819 M151.07427794306037 167.39354435962616 C179.78996473165222 133.13951259937974, 210.16558698789478 100.13672220778646, 241.81275900339315 64.15928630608408 M156.59158799836328 169.6065783263311 C178.63012033950776 139.6790979978967, 205.09473224983233 110.82931731535412, 241.79459301387027 67.06884635391401 M156.24278156684628 168.37132256898434 C175.58026398655903 145.72984830103778, 195.82205658223793 124.89216032915948, 242.48838059795156 68.8893175419675 M161.3885793902106 167.93731064651035 C190.81210899953598 136.70457855199058, 217.8541331489823 106.43659328472611, 243.42286628567217 76.62808779038534 M161.31795266383656 166.71460184570276 C189.56077229250712 134.4699608229891, 218.4039200229949 101.73120264717076, 242.2528753382021 75.99506246268794 M168.52127582167094 166.46610810721515 C194.70852028176265 140.60040298097317, 219.6914528814171 110.15494527598173, 242.4466433191306 79.16931016787413 M166.630922687769 167.22998152600823 C189.76929733373242 144.8122817560245, 210.40877513792935 120.08159529527883, 241.74715766884452 80.29748520858112 M173.79849945228779 166.0872380714374 C192.91443427322585 143.74272765693047, 211.16593681716188 121.66150010819734, 243.49191640782703 86.72671292026345 M172.90073108334326 167.91030075023644 C191.9796110937092 145.9321701690963, 210.72961423089356 122.5482704459094, 241.43907779361655 88.15396636587386 M177.18999257564263 168.99114997306015 C201.38070350912818 142.96690322201832, 223.66705072518005 115.42283518508151, 240.56301118231445 92.72271049076798 M177.17335305429714 167.78481510461415 C200.12357178795327 141.87505632607892, 222.90948357087402 116.58334292403332, 241.4033348782274 93.98783590512457 M183.699889851279 167.00179867507535 C201.10834401952062 146.67298444087442, 215.20825632635163 126.9038430977871, 242.6994095231459 100.60706107260248 M183.2576717953304 166.6940199794771 C205.99184149779097 140.88648495128015, 227.05387002531415 115.16676162726694, 242.5407999633864 98.36500192189177 M189.74324607277842 165.9893211113661 C201.55334835915752 155.56403415682942, 212.952129382104 140.69443078735415, 243.63257247390288 104.49599534965 M187.6645062601808 167.13982721105214 C206.05809732808 146.7366515184338, 226.06977767860474 124.6988084016755, 241.79783887783128 106.07057937740228 M192.01950839968433 166.20735964492428 C208.13898910243358 154.24397229704988, 217.62160980748578 138.48651142052648, 242.0033534441289 110.26424943490247 M194.04258339354803 168.06038843967485 C206.34444811675692 151.8026944074877, 219.42214311752647 137.65888721485604, 241.9462254412618 110.63842303699175 M197.88904412557824 166.70573870963295 C208.6613356293627 157.88786557414636, 218.8396478040949 146.47412208902333, 243.7385259774054 115.95774151224293 M199.11756589916988 166.6802717515721 C207.7144002577218 157.32631404210693, 218.0926662400547 145.5482584718269, 241.52216923241565 118.201304111887 M206.2466129100037 165.66778816848412 C215.3861827211847 156.02767674471755, 224.89921350152946 146.10198764471, 242.26819695428543 124.88560477488616 M205.12802447174613 166.2852850370796 C216.40908573948508 153.26273805452504, 227.17471529740683 140.97224082337848, 242.60622879200213 124.02044319764653 M209.89789454654215 168.8230199553608 C219.61951927825643 158.106347187146, 229.46429143517275 144.2812395979552, 244.18262950532198 130.25931616604683 M209.76446556501446 168.07265263242414 C221.9738619845465 152.5185082290435, 235.07431322467073 139.61493140921812, 242.04263453573049 130.56213901482877 M216.4329611947371 165.7844514332549 C223.0227835921419 159.74488409977502, 225.34231555011473 155.02542049479337, 242.88906592409649 135.831825119608 M214.60530362367464 166.92583867794139 C224.09205375778143 157.12095000696368, 232.34267601862905 147.20711260866963, 242.6586116673384 135.57439714966054 M218.6028051481701 166.46128203604954 C226.51003461909738 158.07609359970604, 234.03772884999375 148.8261813080766, 242.82914087015257 140.98958649856166 M221.0558888514645 167.26472375985819 C224.23279610335686 162.6859529276004, 228.8962700686835 157.2831962701156, 243.04429338152573 142.61646299247758 M227.1928110663846 165.39621662673662 C227.81536231863404 161.5392046252266, 233.24811329739305 157.04095632065207, 241.85540913707166 149.1652372367908 M224.78447944308368 166.8204282685102 C232.82396443228615 160.5741977037416, 238.519327350823 152.71014852865352, 241.49174863203018 148.9089983795066 M229.6002406577223 166.36937452747955 C234.9068114296727 164.38750968585452, 239.67005498620892 158.80313257008743, 243.21524502722605 153.1836291654758 M231.522928425634 166.63061939326585 C234.77878511749188 163.19844142110733, 238.41692020873327 158.1279315111016, 241.79246103450714 153.97751663120238 M236.3864366121741 167.17364630984025 C236.76477935793028 165.46618375241184, 239.12861559435805 164.6077293853443, 242.33091830575427 159.44849730736763 M235.6321567053126 167.32826219914364 C237.93187214264296 164.85483301275895, 240.24161373047187 162.50348027877658, 242.32771274281254 160.71276854711772" stroke="#15aabf" stroke-width="0.5" fill="none"></path><path d="M-1.5657221853757872 1.5157897253703847 C63.482248664432205 -0.44853816115526696, 125.34509567283241 -0.9326931547840072, 239.73023959872927 1.2393262608415856 M-0.5266682100669258 -0.4237521405721195 C58.341671948898544 0.4816619495665512, 117.34823723419534 1.5078678739798745, 240.42961157837104 0.22692754831726475 M240.70498380437493 -1.726779017597437 C238.09323659548537 38.40097378473729, 238.91680768141524 75.24597741104662, 238.71170780435205 165.84742387756705 M239.7767498921603 -0.5059555303305387 C239.98606535522268 65.14470724295825, 239.97409537164495 131.32508078590035, 240.66521738283336 165.70828674919903 M240.28097902023592 165.3149338080201 C174.3760648616115 163.60332997961245, 109.73837409546604 162.56141728211102, 0.4102531569258198 165.74140996624826 M239.25893985795318 165.2741392579338 C168.91532818298197 166.7067739069624, 98.10968344317996 166.68820850325835, -0.6445076752870195 164.4668742202836 M0.4948466755449772 163.74387523159385 C0.9570283486507831 125.60515618789941, -1.2071706459857525 85.60238914005458, 1.8116979338228703 0.47096356377005577 M0.31774489395320415 164.86377601511776 C1.1270476390607653 99.18691872898489, 0.09876982467249029 34.16049975156784, -0.4169298578053713 0.37883387692272663" stroke="#000000" stroke-width="1" fill="none"></path></g><g transform="translate(871.5 74) rotate(0 109 22.15447154471545)"><text x="109.00000000000004" y="15.154471544715456" font-family="Virgil, Segoe UI Emoji" font-size="17.723577235772343px" fill="#000000" text-anchor="middle" style="white-space: pre;" direction="ltr">PXE Server</text><text x="109.00000000000004" y="37.30894308943091" font-family="Virgil, Segoe UI Emoji" font-size="17.723577235772343px" fill="#000000" text-anchor="middle" style="white-space: pre;" direction="ltr">DNS: pxe.viktorbarzin.lan</text></g><g><g transform="translate(990.256187081337 178.37879741191864) rotate(0 0.07603138911997576 418.4141315158457)"><path d="M0.4785294614732265 -0.9043652258813382 C0.3935339771211147 138.6396619681269, -0.792282048612833 697.9584931839258, -1.0138185180723667 837.7326282575727 M-0.7293813005927949 1.2352390851918607 C-0.40702070304192595 140.3646958179865, 0.7781510069128126 696.7425164623652, 1.1658812963124365 835.8023684264068" stroke="#1864ab" stroke-width="1" fill="none"></path></g><g transform="translate(990.256187081337 178.37879741191864) rotate(0 0.07603138911997576 418.4141315158457)"><path d="M-10.669983416176445 805.9467297203223 C-5.777319223255219 813.4445990696339, -3.0993820262941236 821.5991080174625, 2.2769143447931857 834.4786516406481 M-9.48655481015802 807.2289708356689 C-7.170886780948045 814.8598742968554, -4.106201578197582 820.9354207860191, 1.529280192842707 835.4305028390978" stroke="#1864ab" stroke-width="1" fill="none"></path></g><g transform="translate(990.256187081337 178.37879741191864) rotate(0 0.07603138911997576 418.4141315158457)"><path d="M9.851165456796986 805.897218922489 C9.449302506165603 813.4896958139561, 6.832519275569613 821.6569791846154, 2.2769143447931857 834.4786516406481 M11.03459406281541 807.1794600378355 C8.356065603018058 814.619813683054, 6.4268936847331535 820.7074087106236, 1.529280192842707 835.4305028390978" stroke="#1864ab" stroke-width="1" fill="none"></path></g></g><g><g transform="translate(128.25618708133698 601.8857167959213) rotate(0 430.176441211542 16.507095306268923)"><path d="M-0.747484890371561 -0.24314312562346463 C142.5298226244608 5.484572013655368, 715.5345874614314 27.754684093788583, 858.7883666864689 33.34832254239359 M1.0609468128439041 -1.416397211914882 C144.80017841418734 4.528897906366427, 717.7334216599119 28.500278944650983, 861.1003673134556 34.43058782445268" stroke="#5c940d" stroke-width="1" fill="none"></path></g><g transform="translate(128.25618708133698 601.8857167959213) rotate(0 430.176441211542 16.507095306268923)"><path d="M832.1019708526343 42.240062454423374 C837.6311660259629 40.334843888583336, 844.0736640893107 38.09023579111827, 862.3332087716273 32.92061522604899 M832.364934883362 43.776789713358944 C841.1510334670869 41.00910353496199, 849.7552061682111 38.4459028456057, 860.4522556590101 33.43291608432309" stroke="#5c940d" stroke-width="1" fill="none"></path></g><g transform="translate(128.25618708133698 601.8857167959213) rotate(0 430.176441211542 16.507095306268923)"><path d="M832.9555213238285 21.736612647647867 C838.1169912576639 24.48125159957965, 844.3656962632365 26.89181782055631, 862.3332087716273 32.92061522604899 M833.2184853545563 23.273339906583438 C841.7703863062751 26.777503843415346, 850.1136840043467 30.480877552932323, 860.4522556590101 33.43291608432309" stroke="#5c940d" stroke-width="1" fill="none"></path></g></g><g transform="translate(610.256187081337 586.8857167959213) rotate(0 72.5 12.5)"><text x="0" y="18" font-family="Virgil, Segoe UI Emoji" font-size="20px" fill="#5c940d" text-anchor="start" style="white-space: pre;" direction="ltr">Get: pxelinux.0</text></g><g><g transform="translate(989.256187081337 657.7920341491699) rotate(0 -430.7262911347533 18.300634325169995)"><path d="M0.03807125464081773 -0.6624672330915927 C-143.4772110981246 5.4430824282268695, -716.8435100677113 30.025521509100997, -860.3558085642755 36.164793857187036 M-1.4010800660122187 1.6041335241962225 C-145.1699069427916 7.881964505907769, -718.6099717222123 31.35499708960143, -861.4906535241473 37.26373588343151" stroke="#0b7285" stroke-width="1" fill="none"></path></g><g transform="translate(989.256187081337 657.7920341491699) rotate(0 -430.7262911347533 18.300634325169995)"><path d="M-834.849802648986 25.25945384503443 C-845.2071680405837 28.258233543339387, -855.2181283701141 34.00305934229628, -859.5637648459244 38.107122380780055 M-833.5192534591652 26.19939568900604 C-840.284475727862 29.00451662533581, -848.3033037983517 32.489821729419816, -861.9829800389427 38.1705401935894" stroke="#0b7285" stroke-width="1" fill="none"></path></g><g transform="translate(989.256187081337 657.7920341491699) rotate(0 -430.7262911347533 18.300634325169995)"><path d="M-834.0058693720878 45.76330175243908 C-844.5881167969684 41.35382103834816, -854.9040103017006 39.69011867825347, -859.5637648459244 38.107122380780055 M-832.6753201822669 46.70324359641069 C-839.6719209956425 44.27521598190735, -847.9063577098633 42.52218417050388, -861.9829800389427 38.1705401935894" stroke="#0b7285" stroke-width="1" fill="none"></path></g></g><g transform="translate(415.256187081337 646.7920341491699) rotate(0 83 12.5)"><text x="0" y="18" font-family="Virgil, Segoe UI Emoji" font-size="20px" fill="#0b7285" text-anchor="start" style="white-space: pre;" direction="ltr">Serve bootloader</text></g><g><g transform="translate(125.76577091217041 729.2824499607086) rotate(0 -34.98400859099348 1.1995455069188097)"><path d="M1.0824924789369106 0.19445076361298552 C-10.429349573204915 0.6334184922277926, -58.31175093625983 1.5038891352713106, -70.06718963757157 2.0890047825872897 M0.19166230103932325 -0.7490665308292956 C-11.396918117289118 -0.1377729964908213, -59.36403904674885 2.734507719511166, -71.05050966092385 3.1481575446669012" stroke="#5c940d" stroke-width="1" fill="none"></path></g><g transform="translate(125.76577091217041 729.2824499607086) rotate(0 -34.98400859099348 1.1995455069188097)"><path d="M-43.07757084839648 -8.606026912273098 C-50.97232152366832 -4.801971880402428, -54.2782400390125 -5.130047953848165, -69.82040834748186 1.3686587030533701 M-42.89162185997373 -8.66240675763898 C-53.29526197171637 -3.188593481483811, -64.97358530656189 1.6138214315605435, -70.86210529268719 3.615416696527973" stroke="#5c940d" stroke-width="1" fill="none"></path></g><g transform="translate(125.76577091217041 729.2824499607086) rotate(0 -34.98400859099348 1.1995455069188097)"><path d="M-42.062710911394475 11.890071782212829 C-50.08462201972316 11.255862767873797, -53.610753527617 6.480367829476869, -69.82040834748186 1.3686587030533701 M-41.876761922971724 11.833691936846947 C-52.56246789872977 9.310188125682501, -64.63716591507172 6.107424889764193, -70.86210529268719 3.615416696527973" stroke="#5c940d" stroke-width="1" fill="none"></path></g></g><g><g transform="translate(58.76577091217041 727.2824499607086) rotate(0 0.24152575453277336 63.553700133310656)"><path d="M1.1136322058737276 0.9402097307145596 C1.016292154540618 22.00525849685073, 0.061587830136219684 104.53948183879257, -0.13608867749571796 125.46344860419632 M0.23915038461796945 0.38821589400060486 C0.02018551752281686 21.691783010559156, -0.5321974279948822 106.05128659238108, -0.6305806968081744 126.71918437262066" stroke="#5c940d" stroke-width="1" fill="none"></path></g><g transform="translate(58.76577091217041 727.2824499607086) rotate(0 0.24152575453277336 63.553700133310656)"><path d="M-9.158672517500692 99.9085712055833 C-8.432763425618806 109.45069873642223, -3.32645147365489 116.87163349693162, -0.5028701420594008 127.43537265066989 M-10.576980349011594 98.77123634285935 C-7.260914367065524 104.67184031913246, -6.160047791661385 112.3264987718233, -0.8504925273079427 127.35521431830712" stroke="#5c940d" stroke-width="1" fill="none"></path></g><g transform="translate(58.76577091217041 727.2824499607086) rotate(0 0.24152575453277336 63.553700133310656)"><path d="M11.362183213925553 100.02891419802604 C5.166735847525565 109.72088555978016, 3.350761848044275 117.10122510258303, -0.5028701420594008 127.43537265066989 M9.943875382414651 98.8915793353021 C8.001847720057928 104.89728547515271, 3.8448917142681003 112.52110982855281, -0.8504925273079427 127.35521431830712" stroke="#5c940d" stroke-width="1" fill="none"></path></g></g><g><g transform="translate(57.76577091217041 853.2824499607086) rotate(0 36.27413198128343 1.241335164653151)"><path d="M-0.45834591016173365 0.7845705829560756 C11.713809938977162 1.1195643665889898, 60.72168012832602 0.8214744252463182, 73.00660987272859 0.8651664815843105 M1.5018837576638906 0.15086619366891685 C13.518900138788545 0.7785994619100044, 60.20944332674456 1.9588252867230525, 72.0620345922839 2.3318041356373578" stroke="#5c940d" stroke-width="1" fill="none"></path></g><g transform="translate(57.76577091217041 853.2824499607086) rotate(0 36.27413198128343 1.241335164653151)"><path d="M44.89888095308419 11.798780767055913 C51.93552344816278 9.49918688731041, 60.71689061561912 5.201286794983901, 73.45797641973012 1.8397567922342568 M43.91786301520045 11.081901181298061 C51.92664761505672 7.940393581177823, 61.45254237446561 5.0584471005265295, 71.77917888599448 2.6040058394987136" stroke="#5c940d" stroke-width="1" fill="none"></path></g><g transform="translate(57.76577091217041 853.2824499607086) rotate(0 36.27413198128343 1.241335164653151)"><path d="M45.48160206275255 -8.714152677339271 C52.14901384121184 -4.907092883156432, 60.75684303098743 -3.0961135695764215, 73.45797641973012 1.8397567922342568 M44.500584124868816 -9.431032263097123 C52.3915395512263 -6.026045088496918, 61.73146800004734 -2.3616103094076992, 71.77917888599448 2.6040058394987136" stroke="#5c940d" stroke-width="1" fill="none"></path></g></g><g transform="translate(75.0439840555191 770.2824499607086) rotate(0 75 12.5)"><text x="0" y="18" font-family="Virgil, Segoe UI Emoji" font-size="20px" fill="#5c940d" text-anchor="start" style="white-space: pre;" direction="ltr">method=nfs://...</text></g><g><g transform="translate(127.84153485298157 875.0510847568512) rotate(0 432.24335407737186 7.586140372240948)"><path d="M0.5838731132447719 0.9390494383871555 C144.7179651024441 3.0934600787858164, 720.8994177026053 11.191922461738189, 865.0554403863847 13.162891177088023 M-0.5687322316411882 0.3864464482013137 C143.39023676307562 2.7387904230101654, 719.8704931275205 12.523758542373155, 864.1365011256095 14.785834296280518" stroke="#5c940d" stroke-width="1" fill="none"></path></g><g transform="translate(127.84153485298157 875.0510847568512) rotate(0 432.24335407737186 7.586140372240948)"><path d="M837.3462147504059 24.674819129382342 C845.1327629904393 22.167338290338883, 853.5688274240429 16.891180682830495, 864.5211286727246 13.142161088669672 M836.2165158983288 24.981530514408917 C841.4181414998094 22.935628823970283, 847.6083565434518 20.299051543720218, 865.0130957156326 14.88328930423595" stroke="#5c940d" stroke-width="1" fill="none"></path></g><g transform="translate(127.84153485298157 875.0510847568512) rotate(0 432.24335407737186 7.586140372240948)"><path d="M837.6829879081245 4.156374104817715 C845.4018891700911 8.23505212082873, 853.7298806150504 9.543414761774368, 864.5211286727246 13.142161088669672 M836.5532890560473 4.463085489844289 C841.5285664124928 6.77934563909748, 847.647207134099 8.503548777986879, 865.0130957156326 14.88328930423595" stroke="#5c940d" stroke-width="1" fill="none"></path></g></g><g transform="translate(416.84153485298157 851.0510847568512) rotate(0 203 12.5)"><text x="0" y="18" font-family="Virgil, Segoe UI Emoji" font-size="20px" fill="#5c940d" text-anchor="start" style="white-space: pre;" direction="ltr">NFS get kernel, initrd and kickstart seed</text></g><g><g transform="translate(989.8415348529816 906.0510847568512) rotate(0 -428.73464807142506 24.002944242106764)"><path d="M-0.9660744868218898 1.0184466205537317 C-143.853928403308 8.522043919811646, -714.4084117295841 38.657401244093975, -857.1631792508066 45.97438431605697 M0.7275976782571525 0.5075271510053425 C-142.34690083319632 8.129880780574554, -714.9889467565685 39.97111368546573, -858.1968938211072 47.49836133320816" stroke="#0b7285" stroke-width="1" fill="none"></path></g><g transform="translate(989.8415348529816 906.0510847568512) rotate(0 -428.73464807142506 24.002944242106764)"><path d="M-828.9061748430823 35.45314841417386 C-839.2077717744579 38.37132515291596, -849.6194766074398 42.84864694895762, -859.3391371132899 46.272404382871464 M-830.936177308554 35.20413763334765 C-841.5160471106262 40.6023705310291, -853.0571766750877 44.88922830434403, -858.2901857761759 48.20239821163006" stroke="#0b7285" stroke-width="1" fill="none"></path></g><g transform="translate(989.8415348529816 906.0510847568512) rotate(0 -428.73464807142506 24.002944242106764)"><path d="M-827.7940849498254 55.944201546093524 C-838.607201295042 52.42616013976067, -849.3677264911162 50.476216804668454, -859.3391371132899 46.272404382871464 M-829.8240874152971 55.69519076526731 C-840.7267440183226 53.076717507386775, -852.7033707817455 49.339227341897654, -858.2901857761759 48.20239821163006" stroke="#0b7285" stroke-width="1" fill="none"></path></g></g><g transform="translate(76.84153485298157 1005.0510847568512) rotate(0 149 25)"><text x="0" y="18" font-family="Virgil, Segoe UI Emoji" font-size="20px" fill="#5c940d" text-anchor="start" style="white-space: pre;" direction="ltr">Proceed with auto installation</text><text x="0" y="43" font-family="Virgil, Segoe UI Emoji" font-size="20px" fill="#5c940d" text-anchor="start" style="white-space: pre;" direction="ltr">using vars from ks.cfg</text></g></svg>