<svg version="1.1" xmlns="http://www.w3.org/2000/svg" viewBox="0 0 384.95317578315735 723.4325845241547" width="384.95317578315735" height="723.4325845241547">
  <!-- svg-source:excalidraw -->

  <defs>
    <style>
      @font-face {
        font-family: "Virgil";
        src: url("https://excalidraw.com/Virgil.woff2");
      }
      @font-face {
        font-family: "Cascadia";
        src: url("https://excalidraw.com/Cascadia.woff2");
      }
    </style>
  </defs>
  <rect x="0" y="0" width="384.95317578315735" height="723.4325845241547" fill="#ffffff"></rect><g stroke-linecap="round" transform="translate(53.71155920324418 10) rotate(0 89.80620155038764 35)"><path d="M0 0 C0 0, 0 0, 0 0 M0 0 C0 0, 0 0, 0 0 M-0.11 6.87 C0.89 5.14, 2.86 2.58, 5.06 0.06 M-0.46 6.39 C0.63 5.5, 2.35 3.87, 4.81 0.72 M0.19 12.09 C2.66 10.32, 5.14 7.43, 10.94 0.06 M-0.09 11.9 C2.25 9.36, 4.21 7.29, 10.27 0.22 M-0.8 17.77 C7.04 10.51, 11.07 5.59, 14.9 -0.9 M-0.3 18.45 C4.66 11.24, 10.95 5.4, 15.97 -0.05 M-0.8 24.61 C5.55 16.61, 13.59 10.95, 21.08 -1.16 M0.53 24.05 C7.32 15.22, 15.07 8.26, 20.4 0.08 M1.24 31.17 C10.56 20.34, 18.61 7.87, 26 -0.32 M0.65 30.69 C5.34 24.28, 11.23 18.13, 25.33 1.22 M-1.31 37.39 C10.56 23.78, 24.6 7.04, 30.46 0.34 M0.54 37.64 C10.3 25.67, 20.25 15.04, 31.34 0.07 M2.07 41.06 C9.92 29.28, 22.33 18.07, 35.07 0.1 M1.05 43.05 C8.21 32.95, 14.81 25.28, 37.55 -0.11 M-2.05 48.31 C9.68 37.22, 16.23 29.62, 44.4 -1.05 M0.46 48.64 C16.12 30.32, 30.59 12.28, 43.01 -0.12 M0.3 54.45 C9.85 42.72, 21.05 28.26, 46.49 -0.17 M1.21 53.83 C14.38 38.2, 28.6 21.28, 48.46 -0.35 M-1.91 62.23 C19.79 37.1, 40.57 12.51, 52.92 0.75 M-0.26 60.19 C19.15 40.24, 37.58 18.48, 53.78 0.53 M-1.33 66.77 C17.78 49.26, 30.15 30.72, 58.4 1.06 M-0.84 67.51 C17.99 46.37, 36.43 25.58, 57.72 0.1 M-0.05 72.46 C14.45 56.69, 29.32 40.77, 64.81 1.54 M1.69 71.06 C24.19 46.6, 45.9 19.97, 63.36 -0.55 M7.88 72.66 C29.59 48.77, 48.39 23.99, 68.76 -1.3 M7.45 70.38 C29.18 44.93, 52.43 20.72, 67.85 -0.27 M10.71 69.48 C31.94 46.97, 56.02 22.05, 73.66 0.85 M13 71.36 C31.2 51.14, 49.32 29.58, 73.84 -0.57 M18.29 69.55 C29.19 57.32, 42.93 39.4, 81.28 -1.62 M17.89 71.22 C32.71 55.97, 46.01 39.57, 79.24 0.91 M22.29 70.1 C47.71 44.98, 68.63 20.35, 83.83 -0.09 M23.21 70.74 C45.9 45.85, 65.48 20.79, 84.65 -0.32 M28.35 71.06 C48.28 48.93, 68.01 25.43, 91.47 -1.53 M28.95 71.67 C44.24 52, 60.82 35.15, 89.14 0.91 M31.57 73.31 C51.39 50.12, 73.61 27.05, 96.45 -0.32 M33.85 71.14 C52.95 51.15, 70.63 30.1, 95.6 -1.22 M40.6 70.79 C58.6 50.59, 76.04 28.24, 100.61 0.01 M38.74 71.02 C63.79 43.17, 88.08 14.38, 100.64 0.9 M45.2 72.79 C58.95 54.11, 69.04 40.28, 107.46 -1.15 M44.35 70.4 C56.4 57.63, 68.92 42.99, 105.85 -0.3 M47.67 72.8 C61.04 56.99, 75.5 39.11, 109.76 0.8 M48.07 71.69 C70.71 46.75, 93 23.06, 111.71 0.9 M53.63 70.96 C67.73 55.66, 81.7 40.57, 116.91 0.55 M54.99 71.27 C75.84 47.08, 96.14 24.34, 116.25 -0.42 M60.94 70.58 C74.78 57.32, 85.05 39.22, 121.78 1.34 M60.1 71.22 C75.59 54.39, 90.86 36.59, 122.18 0.88 M65.07 72.95 C83.6 49.24, 103.98 24.56, 125.59 -0.6 M65.9 70.37 C79.24 55.34, 93.31 38.71, 127.01 -0.34 M68.64 73.64 C84.37 56.23, 98.95 40.89, 131.28 -1.14 M69.34 71.82 C93.28 44.88, 117.2 18.04, 132.73 -0.36 M75.53 72.61 C91.96 50.6, 106.23 34.31, 137.11 -0.02 M76.08 71.22 C89.96 55.42, 103.74 41.74, 136.69 0.84 M80.4 70.44 C95.65 51.78, 112.88 32.95, 142.68 1.3 M81.36 72.31 C95.11 55.59, 108.9 37.37, 143.89 -0.07 M86.79 70.5 C102.2 54.95, 112.77 41.27, 146.53 -0.15 M86.37 71.22 C107.19 49.42, 127.95 25.56, 147.89 -0.33 M92.65 71.15 C111.41 49.04, 133.64 21.2, 152.17 1.32 M91.07 71.94 C110.49 51.11, 129.93 28, 153.08 -0.67 M96.42 71.91 C114.26 48.48, 133.52 29.39, 157.67 0.28 M96.5 70.67 C119.57 43.89, 143.47 17.25, 159.57 0.08 M102.59 69.67 C121.07 49.39, 142.52 24.96, 165.71 -1.69 M101.72 71.31 C118.63 52.32, 135.12 33.65, 163.54 -0.63 M107.76 72.85 C120.27 56.55, 135.15 40.64, 169.15 0.25 M108.04 71.77 C124.69 53.95, 140.72 35.59, 170.05 0.38 M114.2 69.61 C128.91 51.35, 146.27 32.36, 173.07 0.36 M111.95 71.44 C133.88 45.78, 156.57 22.58, 175.41 0.42 M119.94 70.04 C134.48 48.6, 154.52 28.03, 180.36 -1.52 M117.41 71.58 C135.2 52.93, 151.7 33.5, 180 0.3 M124.27 70.32 C135.48 57.35, 146.58 45.97, 179.87 5.07 M122.74 70.72 C136.59 56.63, 150.49 40.94, 180.75 7.56 M129.87 70.92 C138.23 59.44, 149.55 45.51, 178.98 11.47 M128.92 71.08 C149.37 48.48, 169.29 26.45, 180.96 12 M132.33 72.83 C145.3 61.5, 153.09 50.18, 178.73 18.49 M134.45 71.96 C149.1 54.26, 163.8 35.54, 179.72 18.46 M138.23 71.66 C148.01 58.84, 157.18 48.58, 177.8 24.04 M139.71 70.13 C154.65 52.9, 171.05 35.81, 179.16 25.66 M142.71 69.92 C155.31 57.14, 169.18 44.71, 179.35 29.58 M143.77 71.32 C155.5 58.67, 165.8 47.39, 179.6 30.9 M151.51 71.13 C156.8 63.98, 162.45 56.08, 179.87 36.55 M150.79 70.49 C158.64 60.36, 167.69 49.32, 179.67 37.66 M154.54 72.08 C158.96 64.48, 164.83 59.98, 178.6 41.31 M154.78 71.38 C162.73 62.62, 169.68 53.27, 179.96 42.83 M159.29 73.7 C166.05 67.76, 169.08 59.27, 179.06 47.34 M159.37 71.54 C163.7 67.53, 169.86 62.56, 179.93 50.03 M167.7 69.52 C169.26 65.55, 173.26 60.3, 178.49 56.14 M165.89 72.1 C171.92 65.62, 176.74 58.36, 179.55 54.85 M170.91 72.02 C173.99 68.68, 176.07 65.07, 180.49 60.13 M170.62 72.13 C172.69 68.6, 175.55 67.21, 179.62 60.64 M176.61 71.02 C177.85 69.91, 178.65 68.86, 179.54 67.38 M176.62 71.43 C177.66 69.97, 178.79 68.96, 179.84 67.69" stroke="#4c6ef5" stroke-width="0.5" fill="none"></path><path d="M1.4 -1.23 C42.68 0.28, 86.96 -0.15, 178.97 -1.67 M-0.69 0.68 C47.53 -1.45, 97.41 -0.8, 179.16 -0.55 M181.54 -1.9 C180.17 26.31, 178.35 54.36, 178.22 69.98 M178.92 0.68 C179.86 17.02, 180.41 33.23, 179.85 70.39 M180.44 69.77 C126.37 68.85, 73.38 67.28, -1.56 69.9 M179.47 69.95 C144.15 70.1, 106.33 70.64, 0.37 69.62 M1.33 70.73 C-1.4 53.11, -0.87 31.84, -0.36 0.75 M-0.93 69.59 C0 43.64, 0.75 17.06, -0.41 -0.17" stroke="#000000" stroke-width="1" fill="none"></path></g><g transform="translate(87.0039795305529 28.86520241171297) rotate(0 56.608695652173765 15.5)"><text x="0" y="21.999999999999975" font-family="Virgil, Segoe UI Emoji" font-size="24.853407937207027px" fill="#000000" text-anchor="start" style="white-space: pre;" direction="ltr">DNSMasq</text></g><g stroke-linecap="round"><g stroke-opacity="0.8" fill-opacity="0.8" transform="translate(140.27247083838574 87.53319384112501) rotate(0 0.9704648374890894 38.90497922190815)"><path d="M0.71 -1.01 C1.1 11.85, 2.07 64.21, 2.32 77.27 M-0.37 1.07 C-0.08 14.13, 1.37 65.88, 1.71 78.82" stroke="#000000" stroke-width="1" fill="none"></path></g><g stroke-opacity="0.8" fill-opacity="0.8" transform="translate(140.27247083838574 87.53319384112501) rotate(0 0.9704648374890894 38.90497922190815)"><path d="M-11 52.01 C-5.96 60.04, -2.54 67.37, 0.49 79.92 M-9.69 51.66 C-6.12 56.87, -3.62 64, 1.12 77.86" stroke="#000000" stroke-width="1" fill="none"></path></g><g stroke-opacity="0.8" fill-opacity="0.8" transform="translate(140.27247083838574 87.53319384112501) rotate(0 0.9704648374890894 38.90497922190815)"><path d="M9.52 51.45 C8.43 59.77, 5.72 67.26, 0.49 79.92 M10.83 51.1 C9.36 56.65, 6.83 63.92, 1.12 77.86" stroke="#000000" stroke-width="1" fill="none"></path></g></g><g stroke-opacity="0.8" fill-opacity="0.8" transform="translate(151.49168193340302 114.74787044525146) rotate(0 60 12.5)"><text x="0" y="18" font-family="Virgil, Segoe UI Emoji" font-size="20px" fill="#000000" text-anchor="start" style="white-space: pre;" direction="ltr">Send log line</text></g><g stroke-opacity="0.8" fill-opacity="0.8" stroke-linecap="round" transform="translate(53.491681933403015 164.74787044525146) rotate(0 86.5 86.5)"><path d="M-0.22 87.26 C-0.22 87.26, -0.22 87.26, -0.22 87.26 M-0.22 87.26 C-0.22 87.26, -0.22 87.26, -0.22 87.26 M4.21 89.21 C14.69 72.33, 29.44 56.92, 42.69 45.55 M3.23 89.96 C11.87 79.58, 20.17 69.62, 41.06 45.8 M5.63 91.04 C32 59.37, 59.73 30.42, 79.51 6.63 M6.69 93.08 C24.2 70.45, 43.08 48.44, 81.83 6.41 M8.15 95.72 C31.95 67.4, 58.46 41.19, 91.19 3.29 M8.11 95.68 C33.09 67.1, 59.07 37.26, 89.14 1.68 M10.34 99.21 C42.11 63.17, 73.57 23.52, 91.24 4.72 M11.74 98.44 C43.08 61.06, 76.74 24.97, 92.9 5.08 M13.57 99.48 C40.33 70.94, 66.71 40.73, 92.97 9.67 M13.35 100.45 C31.85 78.97, 50.45 59.64, 95.1 9.09 M18.82 105.14 C32.45 83.18, 51.11 62.19, 99.37 10.8 M17.33 104.21 C37.07 80.44, 60.02 53.99, 98.91 10.76 M20.17 106.69 C36.15 86.31, 53.15 69.36, 101.15 13.31 M19.44 105.98 C47.39 75.1, 73.72 46.34, 101.08 12.56 M24.27 110.16 C52.55 76.95, 80.25 43.44, 102.26 18.13 M22.61 109.69 C47.63 78.4, 75.8 47.61, 104.65 16.81 M23.81 112.29 C48.98 82.18, 76.59 54.84, 107.35 19.63 M25.61 113.37 C51.69 82.78, 76.26 54.61, 106.78 19.57 M30.34 113.29 C55.19 87.24, 81.34 57.8, 111.19 20.76 M28.25 114.04 C47.55 93.25, 66.14 70.85, 109.39 23.05 M31.77 115.93 C56.06 91.74, 76.93 64.7, 111.6 25.76 M32.06 118.11 C57.8 88.52, 82.42 59.64, 112.4 24.5 M35.81 119.3 C61.28 88.16, 91.09 52.55, 114.17 28.15 M34.12 121.32 C59.23 91.99, 84.38 63.21, 115.73 27.42 M35.46 121.96 C67.32 89.6, 101.01 50.56, 119.09 32.56 M37.73 123.1 C54.13 105.21, 71.41 84.75, 118.38 31.63 M41.86 126.65 C69.85 91.18, 96.82 61.54, 120 33.51 M39.6 125.49 C64.29 99.22, 89.39 70.95, 120.61 33.25 M41.07 128.22 C68.14 98.71, 92.64 73.02, 122.77 37.33 M41.89 130.34 C65.48 102.96, 88.72 75.2, 122.97 36.85 M44.85 131.55 C76.31 99.66, 104.59 65.32, 126.3 38.03 M45.29 131.4 C60.64 112.92, 78.41 94.17, 126.39 38.54 M49.54 134.26 C79.19 102.01, 109.22 63.36, 127.36 42.1 M49.17 134.27 C68.1 113.17, 86.47 92.41, 129.31 42.96 M51.52 135.9 C67.82 116.26, 85.88 97.27, 134.07 43.61 M51.28 137.78 C70.53 114.61, 90.75 92.45, 132.4 45.63 M52.65 141.61 C84.08 106.47, 116.6 69.56, 133.38 49.91 M54.58 140.93 C79.12 112.36, 103.72 85.08, 134.38 48.9 M55.78 143.33 C83.46 113.9, 110.38 82.98, 136.5 48.85 M56.89 144.26 C81.86 115.57, 106.79 85.47, 136.7 50.3 M59.57 146.5 C84.37 116.42, 108.57 88.71, 139.79 53.45 M59.13 145.77 C88.14 114.8, 115.33 81.97, 140.7 53.5 M61.96 147.2 C87.54 119.91, 114.1 91.91, 141.51 57.84 M62.94 148.34 C85.15 121.74, 108.95 96.34, 143.69 57.44 M65.63 151.89 C97.01 113.92, 128.39 78.08, 144.66 59.18 M65.55 152.63 C82.15 133.57, 97.16 114.5, 145.99 58.49 M69.51 154.57 C101.09 118.91, 132.93 79.8, 147.81 60.38 M67.45 154.45 C97 121.5, 124.32 90.37, 149.11 62.35 M71.57 155.46 C95.27 128.02, 120.92 100.18, 151.87 64.01 M70.56 156.74 C94.83 130.03, 119.6 100.07, 150.81 66.22 M76.32 158.22 C99.3 128.69, 125 101.34, 152.91 68.24 M73.96 160.88 C95.65 136.71, 115.66 113.52, 155.12 67.95 M76.27 161.6 C107.35 125.86, 137.05 92.01, 159.01 71.56 M76.63 163.71 C100.08 137.31, 123.13 111.06, 157.57 70.94 M79.42 164.67 C103.04 142.7, 121.95 117.48, 159.73 71.92 M79.23 166.82 C100.28 142.68, 122.07 117.65, 159.84 72.56 M84.05 169.44 C112.53 137.45, 138.8 101.08, 161.55 76.45 M82.2 168.55 C109.24 139.45, 134.27 107.88, 163.58 76.05 M86.25 170.12 C117.54 137.91, 147.92 101.61, 165.37 80.62 M85.5 171.34 C101.37 152.24, 117.95 133.33, 165.13 78.9 M90.01 172.04 C108.03 153.5, 125.78 132.24, 167.33 80.97 M88.08 173.92 C109.06 150.74, 129.81 126.44, 168.64 81.82 M129.46 132.78 C137.68 120.9, 147.35 113.94, 171.64 87.02 M128.31 132.65 C137.51 123, 146.53 112.72, 170.18 85.82" stroke="#4c6ef5" stroke-width="0.5" fill="none"></path><path d="M88.86 1.73 C110.15 23.44, 130.12 45.33, 171.53 88.3 M87.22 0.03 C112.14 28.28, 140.18 54.88, 173.52 87.29 M173.35 87.08 C139.59 118.96, 111.3 149.45, 85.2 172.64 M172.92 86.14 C151.06 109.82, 127.57 133.64, 87.62 172.52 M86.26 171.07 C65.13 152.64, 42.95 132.08, 1.02 85.18 M86.54 173.68 C65.34 153.43, 44.85 131.54, 0.48 86.7 M0.03 85.58 C21.72 65.26, 39.77 46.99, 86.22 0.25 M-0.2 87.09 C25.42 63.31, 50.34 38.09, 86.7 0.5" stroke="#000000" stroke-width="1" fill="none"></path></g><g stroke-opacity="0.8" fill-opacity="0.8" transform="translate(71.49168193340302 237.74787044525146) rotate(0 67.5 12.5)"><text x="0" y="18" font-family="Virgil, Segoe UI Emoji" font-size="20px" fill="#000000" text-anchor="start" style="white-space: pre;" direction="ltr">type A query?</text></g><g stroke-opacity="0.8" fill-opacity="0.8" transform="translate(338.95317578315735 132.77679252624512) rotate(0 18 12.5)"><text x="0" y="18" font-family="Virgil, Segoe UI Emoji" font-size="20px" fill="#000000" text-anchor="start" style="white-space: pre;" direction="ltr">Skip</text></g><g stroke-opacity="0.8" fill-opacity="0.8" stroke-linecap="round" transform="translate(41.95317578315735 419.899396777153) rotate(0 101.5 35.801818181818135)"><path d="M0 0 C0 0, 0 0, 0 0 M0 0 C0 0, 0 0, 0 0 M-0.67 6.26 C1.53 4.52, 2.93 2.13, 5.54 0.04 M0.01 6.69 C1.14 4.89, 2.78 2.89, 5.38 0.23 M0.67 11.13 C3.98 6.91, 6.95 2.69, 9.82 -0.73 M-0.49 12.74 C4.16 7.66, 7.37 4.3, 11.12 0.33 M0.79 20.05 C3.49 15.45, 6.66 11.96, 14.68 -1.64 M-0.34 19.13 C4.76 13.25, 9.11 8.85, 16.37 1.3 M-0.21 24.86 C5.62 17.29, 11.87 9.59, 21.92 -0.27 M0.81 24.33 C5.47 18.44, 11.06 11.33, 22.01 -0.33 M1.94 29.06 C7.55 23.79, 13.9 14.5, 28.04 1.67 M-0.25 31.2 C6.17 25.38, 10.3 18.72, 27.14 -0.67 M-0.16 35.66 C9.32 25.74, 19.37 14.3, 30.19 -1.16 M0.6 37.76 C6.66 28.79, 14.09 22.04, 32.36 0.26 M-0.6 43.42 C8.52 32.78, 14.74 21.7, 37.47 0.35 M0.7 42.97 C12.29 27.22, 27.68 12.12, 37.78 1.12 M-1.35 49.26 C15.63 29.21, 29.91 14.04, 43.07 -2.11 M-0.15 49.41 C13.25 32.59, 27.96 17.04, 42.33 0.53 M-0.82 53.22 C15.17 37.99, 26.52 24.74, 47.75 -0.03 M0.87 55.45 C15.58 38.7, 28.74 21.74, 47.64 -0.41 M1.7 60.62 C21.82 38.96, 40.35 13.96, 51.98 0.06 M-0.43 61.64 C13.86 45.32, 27.57 29.24, 53.33 -0.8 M1.43 67.01 C15.13 48.82, 32.36 26.96, 59.44 -1.19 M-0.67 66.83 C16.99 48.26, 33.34 29.44, 58.93 0.53 M-0.39 71.88 C21.75 48.06, 45.14 23.72, 65.13 0.24 M0.95 72.15 C14.11 55.81, 27.44 38.88, 63.14 0.39 M6.95 72.03 C17.33 54.99, 34.6 38.23, 66.89 1.89 M5.37 73.6 C19.6 57.05, 32.99 42.49, 69.73 -0.36 M13.27 74.12 C29.01 51.96, 41.74 36, 73.51 -0.96 M11.55 72.78 C33.02 47.7, 54.25 22.56, 74.88 0.61 M18.13 71.77 C30.09 57.18, 45.65 38.38, 80.23 -1.09 M16.46 73.23 C37.75 47.8, 61.99 20.77, 78.98 -0.5 M20.34 73 C38.34 53.52, 56.16 33.1, 84.88 0.81 M22.78 72.1 C43.36 46.96, 64.45 24.58, 86.03 -0.24 M27.52 72.47 C47.77 48.7, 68.68 24.07, 91.36 -1.66 M27.81 71.58 C39.69 57.73, 51.53 42.82, 89.45 0.56 M34.12 73.59 C47.39 56.81, 57.6 42.2, 93.79 -0.41 M31.75 71.28 C57.42 43.57, 82.7 14.27, 95.44 0.13 M39.04 72.8 C64.41 42.63, 86.7 13.81, 99.98 1.32 M38.58 71.64 C60.8 45.59, 84.85 19.15, 100.81 0.2 M43.66 73.68 C67.52 45.07, 89.72 19.85, 107.58 1.15 M42.41 72.35 C62.68 50.61, 81.56 29.3, 106.33 -0.6 M49.4 71.18 C66.58 49.46, 83.66 30.3, 111.56 -0.26 M48.29 71.77 C69.4 46.69, 91.55 22.47, 110.56 -0.33 M55.81 73.78 C74.95 48.13, 99.69 21.83, 115.69 1.74 M54.59 71.27 C76.92 47.36, 98.9 21.87, 116.59 0.4 M58.09 71.7 C81.94 47.71, 103.88 21.3, 123.34 -1.8 M59.82 72.73 C79.95 48.63, 102.38 23.71, 121.08 -0.9 M65.2 71.1 C80.05 53.9, 94.34 35.26, 126.34 -0.94 M64.98 72.86 C88.03 44.65, 114 16.26, 126.46 1.08 M69.38 74.21 C91.41 48.77, 111.63 25.69, 134.37 0.02 M70.4 72.67 C93.37 44.37, 116.96 18.33, 132.59 0.53 M76.23 73.59 C100.56 44.29, 124.75 18.33, 136.55 -1.21 M76.1 71.83 C99.48 45.42, 123.23 18.61, 137.58 0.04 M78.31 72.26 C92.09 58.53, 105.99 40.37, 143.46 1.22 M80.63 72.13 C97.76 52.39, 114.11 33.71, 142.18 0.89 M85.11 73.91 C102.83 53.94, 115.97 36.63, 148.76 1.57 M85.38 71.81 C103.06 53.48, 119.29 33.92, 148.58 0.54 M92.71 71.11 C109.09 52.55, 123.12 36.21, 155.2 0.58 M91.46 73.04 C104.92 56.28, 118.52 40.04, 154.8 -1.02 M97.79 71.45 C117.85 46.38, 141.29 19.38, 160.21 1.77 M96.06 72.28 C114.81 52.77, 131.66 32.18, 159.48 0.2 M103.2 73.76 C119.31 49.63, 139.87 26.3, 165.97 1.56 M101.22 71.72 C115.78 57.88, 128.09 42.17, 164.26 0.51 M108.03 70.3 C127.82 47.66, 150.33 21.24, 168.93 1.48 M106.26 71.65 C123.72 53.73, 139.64 34.78, 168.62 0.05 M113.17 70.92 C130.74 52.72, 148.59 30.66, 173.93 -1.65 M112.57 71.89 C126.94 55.18, 141.32 37.73, 174.22 -0.92 M118.72 74.03 C136.31 52.03, 156.47 30.62, 179.72 0.49 M117.31 72.95 C134.24 51.51, 152.73 30.42, 179.73 -0.5 M120.8 71 C142.4 51.04, 159.38 31.13, 185.02 -2.13 M123.55 71.65 C137.6 55.15, 154.01 37.3, 185.21 -0.83 M126.46 72.67 C142.43 53.6, 158.97 38.07, 190.14 -1.67 M127.36 71.84 C145.11 51.79, 163.44 31.57, 190.9 -0.63 M133.04 74.17 C154.72 46.17, 179.54 23.14, 194.97 -2.26 M132.55 72.49 C146.6 56.37, 160.54 39.71, 195.61 -0.84 M139.72 73.23 C153.23 54.81, 167.01 40.14, 200.57 0.24 M138.46 72.15 C151.62 56.42, 165.49 41.41, 201.56 0.84 M143.62 70.28 C157.14 55.26, 170.49 38.74, 205.29 2.59 M143.33 72.3 C160.59 52.36, 177.79 32.78, 204.71 2.58 M147.35 70.69 C160.76 58.16, 175.86 41.15, 205.59 6.71 M148.15 71.82 C165.05 54.13, 180.89 36.13, 204.95 8.06 M155.07 72.92 C164.31 59.73, 175.6 48.95, 206.73 13.02 M153.99 72.35 C173.53 50.34, 193.76 28.18, 205.05 14.12 M160.03 70.74 C175.89 54.91, 189.67 39.76, 203.09 22.18 M159.86 72.7 C176.35 53.22, 191.5 36.09, 204.2 19.72 M164.68 73.39 C179.2 55.2, 192.01 39.69, 204.87 25.01 M166.02 72.3 C173.62 61.21, 183.22 51.62, 205.11 26.04 M172.19 71.79 C178.91 64.71, 183.26 55.12, 203.02 30.98 M169.86 71.53 C180.25 60.82, 188.88 49.77, 204.08 32.18 M174.53 70.7 C185.83 59.42, 198.21 44.86, 206.56 39.07 M175.23 71.21 C186.26 60.26, 198.16 47.81, 204.72 38.27 M180.05 70.96 C187.22 61.41, 195.6 54.02, 204.21 46 M180.28 72.94 C190.16 60.92, 200.17 49.14, 204.8 44.93 M185.5 73.61 C192.54 68.92, 194.16 61.83, 205.77 49.17 M186.82 72.53 C190.74 66.92, 195.99 60.55, 203.91 50.39 M191.62 74.12 C192.99 67.26, 198.9 65.4, 206.94 55.07 M192.13 72.43 C194.03 68.4, 198.08 63.82, 205.61 56.14 M195.98 71.13 C200.71 67.88, 203.37 66.75, 204.53 62.22 M196.66 71.45 C199.06 69.95, 200.93 68.16, 204.72 63.34 M201.75 72.71 C202.5 71.64, 203.59 70.31, 205.61 68.36 M202.15 72.11 C202.8 71.42, 204.05 70.44, 205.32 68.51" stroke="#4c6ef5" stroke-width="0.5" fill="none"></path><path d="M-0.6 1.49 C71.19 -0.09, 139.4 1.27, 202.14 1.09 M0.08 0.6 C54.38 -0.32, 107.59 -0.6, 203.48 0.09 M202.26 1.82 C201.85 24.05, 204.2 47.52, 201.13 72.92 M203.82 -0.6 C202.31 21.37, 202.88 43.84, 202.88 72.32 M202.55 70.69 C147.43 68.38, 92.09 68.62, -1.01 71.61 M202.7 72.11 C141.31 71.5, 80.58 71.79, -0.31 72.05 M1.65 71.63 C1.92 53.88, 0.17 37.58, 1.56 -1.23 M-0.21 71.18 C-0.4 53.05, -1 35.13, 0.95 1" stroke="#000000" stroke-width="1" fill="none"></path></g><g stroke-opacity="0.8" fill-opacity="0.8" transform="translate(60.95317578315735 445.899396777153) rotate(0 88.5 12.5)"><text x="0" y="18" font-family="Virgil, Segoe UI Emoji" font-size="20px" fill="#000000" text-anchor="start" style="white-space: pre;" direction="ltr">Extract src, host</text></g><g stroke-linecap="round"><g stroke-opacity="0.8" fill-opacity="0.8" transform="translate(140.52446473590135 348.94543786949214) rotate(0 -1.0694593881469245 33.56771386792718)"><path d="M-0.22 -0.32 C-0.48 11.25, -0.5 57.18, -0.52 68.66 M-1.79 -1.53 C-2.25 9.77, -1.34 55.62, -1.15 66.99" stroke="#000000" stroke-width="1" fill="none"></path></g><g stroke-opacity="0.8" fill-opacity="0.8" transform="translate(140.52446473590135 348.94543786949214) rotate(0 -1.0694593881469245 33.56771386792718)"><path d="M-12.43 40 C-6.47 51.17, -2.39 61.14, -2.75 67.27 M-12.34 39.02 C-8.68 48.84, -4.21 61.19, -1.92 67.93" stroke="#000000" stroke-width="1" fill="none"></path></g><g stroke-opacity="0.8" fill-opacity="0.8" transform="translate(140.52446473590135 348.94543786949214) rotate(0 -1.0694593881469245 33.56771386792718)"><path d="M8.09 39.64 C6.1 50.92, 2.23 61.03, -2.75 67.27 M8.18 38.66 C3.93 48.6, 0.49 61.09, -1.92 67.93" stroke="#000000" stroke-width="1" fill="none"></path></g></g><g stroke-opacity="0.8" fill-opacity="0.8" transform="translate(151.28229200839996 357.63218677043915) rotate(0 16 12.5)"><text x="0" y="18" font-family="Virgil, Segoe UI Emoji" font-size="20px" fill="#000000" text-anchor="start" style="white-space: pre;" direction="ltr">Yes</text></g><g stroke-opacity="0.8" fill-opacity="0.8" stroke-linecap="round" transform="translate(10 558.6391112804413) rotate(0 128 25)"><path d="M0 0 C0 0, 0 0, 0 0 M0 0 C0 0, 0 0, 0 0 M-0.01 6.51 C1.4 4.54, 3.33 2.07, 4.26 0.53 M-0.13 6.47 C0.46 5.5, 2.16 4.12, 4.76 0.47 M-0.16 13.09 C2.35 7.15, 7.49 5.02, 10.01 -0.48 M-0.09 11.69 C3.79 7.28, 7.23 3.22, 10.01 0.59 M-1.52 19.75 C4.8 12.69, 8.53 8.12, 15.53 2.29 M-1.1 18.53 C2.97 12.79, 7.95 9.59, 16.15 -0.04 M-0.55 23.79 C2.65 18.56, 10.37 12.43, 21.07 -1.4 M0.22 23.21 C5.9 18.95, 10.85 13.45, 21.79 -0.71 M1.76 32.05 C4.39 24.12, 12.12 16.32, 25.23 -0.51 M-0.86 30.62 C5.81 24.6, 13.22 16.61, 27.22 -0.28 M-0.55 35.35 C10.6 24.77, 21.25 10.35, 30.04 -1.1 M-0.74 36.63 C12.08 21.72, 23.43 7.9, 32.49 0.22 M-0.27 41.79 C11.41 26.5, 24.42 12.67, 37.79 0.39 M0.95 42.39 C15.49 25.75, 28.38 10.07, 37.44 0.9 M-0.79 47.88 C14.04 33.12, 27.05 20.89, 44.4 -2.06 M0.77 49.66 C8.82 37.46, 18.29 26.35, 43.33 -0.93 M2.62 53.74 C10.81 42.58, 19.48 28.66, 48.44 -1.22 M2.39 51.41 C19.94 32.32, 36.04 13.53, 47 0.36 M9.82 52.26 C17.03 40.51, 26.6 29.4, 52.5 0.16 M8.85 51.15 C21.01 36.54, 34.32 21.22, 52.56 0.77 M13.97 54.14 C27.45 34.66, 40.27 20.88, 56.15 0.23 M12.95 51.36 C24.33 39.05, 34.92 24.96, 57.49 -0.19 M17.61 53.44 C33.17 38.22, 45.96 20.07, 65.4 -1.23 M18.53 51.18 C29.26 38.08, 41.47 24.26, 64.35 0.57 M24.94 51.39 C39.51 36.61, 52.99 16.32, 69.6 0.07 M22.96 51.64 C33.11 39.82, 43.54 28.66, 68.89 0.82 M29.26 51.18 C45.22 30.58, 61.32 12.15, 74.89 1.73 M29.85 52.65 C42.73 34.84, 57.14 19.06, 73.74 -0.9 M35.94 50.85 C50.21 33.68, 66.75 16.88, 81.17 1.45 M34.15 53.19 C49.08 36.6, 63.56 17.92, 78.56 -0.17 M37.8 49.98 C54.83 33.78, 71.99 16.06, 83.48 -2.17 M38.86 52.31 C49.81 40, 60.1 28.37, 85.67 -0.64 M46.1 50.65 C53.35 40.46, 66.44 26.39, 88.99 1.26 M44.15 51.3 C60.27 35.87, 73.42 18.72, 90.26 -0.87 M49.95 52.12 C64.68 35.25, 79.87 14.59, 94.39 -1.38 M50.02 52.75 C61.41 39.01, 71.17 28.37, 95.98 -0.32 M55.27 51.73 C67.38 39.92, 78.46 25.24, 98.89 0.19 M55.47 52.64 C65.15 39.28, 76.14 28.46, 101.15 -0.14 M60.19 51.67 C77.6 33.86, 90.99 18.77, 105.57 0.42 M61.16 51.44 C77.55 31.82, 96.07 11.45, 106.38 -1.22 M66.02 51.8 C82.17 30.58, 101.85 9.92, 110.41 0.73 M66.53 52.22 C84.58 32.83, 101.87 11.88, 110.76 -0.96 M72.03 53.22 C84.64 39.8, 96.09 22.49, 115.01 -0.9 M71.85 52.46 C80.94 41.29, 91.46 30.12, 116.83 -0.53 M77.64 51.33 C94.13 34.32, 110.79 14.07, 122.84 1.11 M76.62 52.42 C93.46 31.94, 111.72 11.46, 122.02 0.54 M82.67 50.89 C92.03 39.84, 102.16 26.62, 125.42 1.04 M81.02 52.48 C91.7 41.33, 101.52 29.16, 127.13 0.67 M88.12 51.59 C101.21 34.09, 114.48 19.38, 133.16 1.38 M86.92 51.98 C101.26 34.89, 117.1 19.09, 132.27 0.08 M93.08 50.86 C104.02 37.04, 118.65 19.86, 138.23 1.68 M92.02 52.3 C101.15 41.41, 110.79 30.52, 138.04 0.92 M96.2 52.65 C111.05 37.29, 125.46 19.29, 142.07 1.34 M97.52 50.99 C114.65 32.62, 129.77 13.98, 142.2 0.27 M104.6 54.3 C121.51 30.6, 135.71 11.83, 146.27 0.47 M102.26 52.83 C118.71 34.79, 134.94 16.39, 148.82 0.35 M107.32 51.31 C121.66 37.84, 136.91 20.01, 152.02 -1.4 M108.39 51.92 C126.67 32.58, 143.42 12.07, 152.92 -0.46 M112.26 52.19 C123.45 41.06, 132.94 31.49, 159.06 -0.36 M113.53 52.81 C127.9 36.86, 141.91 20.36, 159.65 0.48 M119.63 51.21 C132.74 34.38, 150.47 17.39, 165.13 -1.46 M118.39 52.56 C134.54 36, 149 17.74, 164.93 -0.8 M122.86 51.28 C133.91 38.76, 143.28 28.7, 168.87 -1.79 M125 51.87 C140.83 33.01, 156.28 13.99, 168.6 1.17 M130.03 52.72 C143.43 35.18, 161.47 15.1, 173.29 0.3 M130.27 51.11 C139.92 38.84, 151.59 27.52, 175.1 0.41 M132.86 52.11 C143.99 41.64, 156.02 27.74, 180.67 1.99 M134.24 51.49 C145.67 39.63, 154.92 29.13, 180.62 -0.37 M140.11 51.03 C156.45 35.03, 167.54 20.3, 184.06 -1.17 M139.68 51.1 C150.82 40.7, 159.74 28.18, 185.72 -0.79 M146.49 50.98 C160.84 37.37, 174.63 18.58, 190.15 1.56 M146.23 52.01 C156.08 39.3, 168.21 25.78, 190.55 -0.56 M150.18 50.09 C169.12 31.06, 184.27 14.23, 194.76 -1.14 M150.13 52.4 C165.45 37.22, 178.81 20.37, 195.45 -0.51 M157.67 54.01 C171.58 33.67, 189.93 13.21, 201.73 -1.74 M156.31 51.63 C165.94 40.53, 174.98 29.17, 202.13 -0.44 M161.28 52.64 C176.21 36.09, 189.32 19.64, 206.4 0.88 M162.06 52.29 C176.35 34.24, 192.52 16.03, 206.34 -0.03 M168.04 51.05 C181.42 32.23, 199.93 15.95, 210.52 -1.74 M167.22 51.4 C183.57 33.32, 199.47 16.38, 210.99 -0.73 M173.17 50.2 C182.08 39.41, 194.3 29.07, 217.72 -0.82 M171.79 52.37 C187.39 33.46, 203.63 16.33, 216.84 -0.72 M176.98 53.78 C188.59 37.26, 200.14 25.22, 224.4 -1.53 M178.11 52.24 C191.34 35.97, 206.2 18.13, 221.65 -0.76 M181.67 53.81 C192.23 38.65, 206.89 24.18, 227.19 -0.18 M181.85 52.37 C199.41 33.55, 217.2 13.77, 228.8 -1.13 M187.56 53.63 C204.57 34.71, 221.38 13.13, 233.91 0.6 M187.48 51.92 C198.14 41.73, 207.18 30.4, 232.5 0.48 M191.28 53.05 C208.92 36.19, 220.07 20.76, 238.32 -0.6 M192.66 52.11 C209.4 32.12, 226.1 12.76, 237.77 0.82 M196.59 51.83 C210.51 38.14, 221.53 26.19, 242.35 1.13 M198.27 52.09 C215.23 33.94, 231.22 14.96, 242.85 -0.62 M205.26 50.54 C218.94 38.06, 231.08 22.03, 248.32 0.05 M203.55 53.04 C219.32 34.23, 236.71 14.09, 248.69 -0.2 M208.58 53.37 C225.02 35.27, 236.09 20.23, 255.72 1.34 M208.77 51.23 C222.98 35.18, 236.94 19.65, 253.89 0.66 M214.23 52.92 C224.34 39.74, 238.72 25.62, 256.84 1.43 M214.39 52.19 C227.61 36.94, 241.17 20.02, 257.6 2.12 M221.78 53.04 C226.87 41.93, 236.55 31.7, 257.53 9.57 M219.69 51.71 C231.06 39.61, 242.58 25.18, 258.48 8.74 M225.56 53.62 C237.06 37.03, 247.67 21.64, 257.34 13.8 M223.95 51.99 C237.49 38.08, 249.94 22.67, 258.03 13.74 M230.14 53.41 C236.73 43.69, 241.98 37.46, 257.17 22.13 M231.1 52.73 C239.92 41.83, 249.65 31.33, 258.53 19.52 M237.29 50.83 C240.55 47.45, 244.85 40.71, 258.05 25.55 M234.88 53.2 C242.41 44.24, 249.22 37.36, 258.96 26.85 M241.35 50.81 C243.65 47.38, 248.74 40.48, 260.06 30.85 M241.49 51.36 C246.45 46.07, 252.25 39.81, 258.18 33.06 M244.41 53.43 C250.33 47.53, 252.94 45.29, 257.18 40.04 M246.67 51.98 C250.61 47.09, 255.5 42.42, 257 37.92 M251.26 52.62 C253.03 50.4, 255.95 47.68, 258.69 44.22 M251.22 51.71 C254.41 48.99, 255.99 46.27, 258.22 43.93" stroke="#e64980" stroke-width="0.5" fill="none"></path><path d="M0.86 -0.66 C58.14 -0.83, 116.42 -0.14, 256.41 -0.25 M0.7 0.79 C101.6 -0.36, 203.64 0.53, 256.33 -0.64 M255.59 -1.22 C254.37 15.35, 254.4 33.5, 257.24 51.38 M255.94 0.65 C255.77 16.77, 255.33 33.49, 255.97 50.12 M255.53 50.78 C189.9 50.52, 121.92 49.79, 0.33 49.71 M255.35 49.71 C203.32 49.76, 150.22 49.02, -0.16 49.48 M-1.01 48.98 C-0.18 35.5, -0.69 19.92, -0.01 -1.61 M-0.23 50.31 C0.52 39.12, 0.32 29.3, -0.75 -0.81" stroke="#000000" stroke-width="1" fill="none"></path></g><g stroke-opacity="0.8" fill-opacity="0.8" transform="translate(20 569.6391112804413) rotate(0 117.5 12.5)"><text x="0" y="18" font-family="Virgil, Segoe UI Emoji" font-size="20px" fill="#000000" text-anchor="start" style="white-space: pre;" direction="ltr">Create/Increment count</text></g><g stroke-linecap="round"><g stroke-opacity="0.8" fill-opacity="0.8" transform="translate(139.1789652855823 492.6391112804413) rotate(0 1.2880149129300662 30.171478582676514)"><path d="M-0.56 0.97 C-0.29 10.93, 0.5 49.05, 0.92 58.93 M1.34 0.43 C2.04 10.57, 3.15 49.7, 3.14 59.91" stroke="#000000" stroke-width="1" fill="none"></path></g><g stroke-opacity="0.8" fill-opacity="0.8" transform="translate(139.1789652855823 492.6391112804413) rotate(0 1.2880149129300662 30.171478582676514)"><path d="M-5.97 30.32 C-6.96 38.92, -2.19 45.84, 4.58 58.98 M-7.11 31.17 C-3.15 41.65, 0.26 52.79, 2.25 60.34" stroke="#000000" stroke-width="1" fill="none"></path></g><g stroke-opacity="0.8" fill-opacity="0.8" transform="translate(139.1789652855823 492.6391112804413) rotate(0 1.2880149129300662 30.171478582676514)"><path d="M14.55 29.98 C8.6 38.57, 8.43 45.57, 4.58 58.98 M13.4 30.84 C9.8 41.28, 5.64 52.54, 2.25 60.34" stroke="#000000" stroke-width="1" fill="none"></path></g></g><g stroke-opacity="0.8" fill-opacity="0.8" stroke-linecap="round" transform="translate(13 663.4325845241547) rotate(0 128 25)"><path d="M0 0 C0 0, 0 0, 0 0 M0 0 C0 0, 0 0, 0 0 M-0.24 7.19 C1.5 5.25, 3.13 1.77, 4.31 0.13 M-0.66 6.03 C1.35 4.38, 3.42 2.4, 4.68 -0.02 M-1.32 12.85 C3.04 8.84, 6.04 5.7, 11.64 -0.62 M0.67 11.44 C1.84 9.52, 5.26 5.98, 10.21 0.44 M-1.34 16.72 C6.69 13.47, 8.98 6.77, 16.08 -1.59 M-0.35 18.62 C4.67 12.92, 9.86 5.35, 14.98 -0.21 M-0.5 26.04 C5.8 16.88, 9.28 14.05, 21.88 -0.08 M0.21 23.89 C5.88 18.42, 11.02 11.54, 20.37 0 M0.18 31.5 C4.88 22.26, 12.17 17.5, 27.22 -0.09 M-0.42 30.45 C9.5 20.18, 17.37 11.27, 25.88 0.67 M0 36.29 C10.64 23.58, 25 8.94, 32.05 -1.85 M-0.26 36.73 C11.48 21.88, 25.09 7.22, 31.45 0.25 M1.16 42.78 C16 28.06, 29.7 10.19, 35.82 -1.7 M0.65 42.9 C10.69 31.67, 20.27 18.6, 36.25 -0.38 M1.56 48.94 C9.34 38, 20.05 27.56, 43.62 -1.95 M0.37 48.55 C15.78 31.76, 31.18 13.51, 42.98 0.43 M2.17 53.02 C18.85 32, 38.14 10.84, 47.72 1.34 M2.76 51.54 C12.81 39.77, 23.44 26.77, 46.77 0.57 M6.65 52.04 C17.77 41.74, 27.34 28.97, 53.61 0.49 M8.3 51.69 C21.86 34.63, 35.53 19.18, 53.45 0.54 M12.15 52.18 C26.33 34.71, 43.48 19.82, 57.57 0.47 M13.28 51.5 C25.4 36.58, 39.52 20.15, 58.49 0.87 M18.03 51.72 C27.16 40.65, 37.17 29.52, 64.78 1.01 M17.66 52.2 C32.06 36.57, 46.14 19.66, 63.23 0.51 M22.73 50.24 C40.99 32.68, 54.88 14.21, 66.81 0.87 M24.35 53.2 C41.27 31.32, 56.98 12.03, 67.82 0.25 M27.88 52.79 C44.98 34.95, 61.78 16.15, 75.71 -0.08 M28.53 51.51 C42.57 36.82, 57.15 19.91, 73.51 -0.88 M33.84 52.12 C52.31 33.69, 68.16 12.97, 77.62 -0.56 M33.5 52.13 C44.18 41.08, 53.81 30.68, 79.53 -0.18 M39.77 52.79 C54.75 36.97, 68.6 20.26, 86.75 0.21 M40 51.44 C54.09 34.5, 70.52 17.31, 85.39 -0.93 M43.21 53.45 C60.31 37.21, 74.3 17.88, 91 -1.21 M44.11 51.66 C54.65 39.36, 64.47 28.43, 89.75 -0.91 M52.08 50.95 C67.47 32.36, 82.03 13.12, 94.02 1.61 M50.52 52.18 C64.93 34.48, 81.56 15.67, 94.78 -0.06 M56.34 50.58 C64.88 38.32, 77.31 28.23, 100.73 1.26 M54.43 52.06 C64.86 40.89, 75.95 28.11, 100.97 0.96 M59.95 50.23 C72.1 38.18, 80.21 29.14, 107.42 -1.43 M60.87 51.32 C76.07 35.24, 88.56 19.89, 105.48 -0.81 M64.51 50.58 C76.63 41.52, 84.57 27.88, 111.33 -1.1 M66.56 51.48 C80.72 36.7, 94.51 19.37, 111.02 0.73 M72.63 52.06 C81.31 39.76, 94.47 25.48, 116 -1 M70.56 51.59 C88.61 32.48, 104.68 14.3, 115.49 -0.06 M74.79 53.24 C91.77 38.28, 105.1 19.98, 120.16 -0.52 M77.46 52.97 C92.69 33.52, 109.96 13.97, 122.12 -0.94 M82.16 51.32 C91.86 40.45, 100.01 29.14, 128.54 -0.74 M81.43 52.85 C96.2 36.44, 109.8 20.11, 126.62 0.93 M88.03 53.05 C101.21 34.12, 118.27 15.27, 131.31 0.49 M87.96 51.48 C103.02 32.62, 120.4 15.13, 131.84 -0.96 M93.36 50.9 C109.87 32.74, 125.8 17.11, 135.63 -1.28 M92.69 51.61 C102.24 40.18, 113.42 29.18, 137.6 0.06 M96.85 53.25 C112.59 33.24, 129.28 17.13, 141.69 -0.87 M97.75 52.83 C109.57 37.43, 121.56 24.27, 144.09 -0.87 M104.49 52.61 C116.05 37.01, 131.18 18.08, 146.31 -1.31 M102.59 53.02 C113.59 38.91, 126.74 24.99, 147.65 0.36 M107.66 51.77 C125.35 34.24, 143.77 14.43, 154.96 -1.66 M108.35 52.73 C125.13 33.73, 141.67 13.6, 154.16 0.18 M112.62 52.01 C124.53 41.93, 133.36 29.89, 157.38 1.21 M112.71 52.62 C128.69 36.21, 141.25 20.46, 158.86 -0.24 M118.65 51.28 C135.44 30.64, 152 11.28, 163.59 0.77 M118.18 51.81 C130.79 38.49, 142.1 25.85, 163.69 0.43 M123.56 52.38 C141.68 34.66, 157.74 15.03, 167.46 -0.96 M125.01 51.35 C138.59 37.27, 151.3 21.6, 169.17 0.07 M129.79 53.16 C144.69 34.67, 162.72 13.69, 174.8 -1.23 M129.49 52.57 C144.71 35.49, 157.03 20.17, 175.7 0.51 M133.94 50.71 C147.92 34.94, 161.89 19.91, 178.91 1.64 M134.81 52.52 C146.14 38.42, 159.87 23.85, 179.4 -0.01 M140.84 51.51 C153.56 36.63, 167.41 18.02, 184.62 0.43 M141.41 52.39 C149.4 40.42, 159.77 28.94, 185.53 0.46 M145.13 51.69 C158.89 37.98, 172.71 19.73, 191.89 1.22 M145.79 52.85 C161.96 32.21, 177.92 12.26, 190.22 0.11 M149.32 51.14 C168.18 32.56, 184.95 11.11, 195.85 -0.45 M150.9 52.55 C160.34 40.19, 169.28 29.8, 195.91 0.69 M157.33 53.76 C171.61 35.78, 187.73 18.61, 202.35 -1.33 M156.97 51.45 C166.12 41.38, 175.54 29.65, 201.14 -0.07 M160.56 53.6 C175.42 35.9, 188.87 22.36, 208.06 1.66 M161.82 51.24 C172.54 38.06, 185 23.21, 207.92 -1.01 M167.48 51.07 C181.07 36.21, 196.32 19.48, 212.01 1.64 M165.75 52.79 C180.61 37.01, 193.22 22.92, 211.55 0.82 M173.65 51.13 C189.92 31.77, 208.32 12.73, 215.63 -2.02 M171.86 52.51 C185.77 36.51, 200.57 20.13, 218 -0.42 M175.32 51.48 C194.6 32.92, 207.6 14.37, 222.36 -1.53 M176.89 51.77 C187.91 41.59, 197.46 28.78, 221.7 -0.95 M182.81 53.47 C199.5 33.57, 218.8 10.76, 229.68 -0.51 M182.92 52.07 C201 32.17, 218.2 11.02, 228.95 0.03 M189.37 50.57 C206.74 32.67, 223.74 11.36, 232.69 0.24 M187.49 52.66 C199.35 38.9, 211.01 25.41, 233.7 0.77 M194.01 50.8 C203.63 39.37, 212.11 31.54, 239.49 -0.38 M192.73 53.26 C205.8 38.01, 220.06 21.58, 238.28 1.08 M196.92 53.64 C215.13 34.45, 232.35 12.49, 242.07 -1.28 M198.03 52.13 C206.87 41.69, 216.91 31.45, 244.5 -0.97 M203.04 52.28 C216.22 38.53, 231.32 20.77, 249.09 1.24 M203.91 52.57 C220.24 34.58, 235.54 16.12, 249.81 0.59 M210.07 53.73 C226.71 32.85, 241.28 11.93, 255.34 0.42 M209.34 52.24 C223.13 35.31, 237.29 20.8, 254.93 0.77 M216.11 53.05 C229.85 33.8, 249.04 12.07, 257.97 0.74 M213.59 51.63 C224.1 40.34, 234.7 28.93, 257.45 2.58 M219.66 53.56 C234.76 34.82, 248.16 17.22, 257.91 8.86 M219.6 51.42 C233.06 37.48, 245.74 24.01, 257.46 8.13 M223.23 52.96 C231.96 42.38, 240.95 32.53, 256.55 13.01 M225.78 52.95 C237.33 38.57, 249.12 24.86, 257.57 13.25 M229.35 51.59 C242.43 38.21, 251.15 28.28, 256.13 21.48 M231.37 51.52 C238.26 42.81, 248.08 32.73, 257.56 20.28 M236.19 50.57 C239.72 44.28, 247.6 41.31, 259.06 27.03 M236.32 52.93 C241.28 44.91, 248.53 37.13, 258.95 25.59 M241.56 52 C243 45.8, 248.5 43.49, 259.48 33.14 M240.56 52.77 C247.03 44.05, 254.15 36.95, 258.91 32.08 M246.49 53.08 C249.91 49.6, 254.32 45.05, 258.59 38.82 M245.94 52.83 C250.03 49.13, 252.37 44.37, 256.99 39.22 M251.6 51.28 C252.57 49.74, 254.44 48.06, 259.09 44.77 M251.58 52.32 C253.72 49.58, 256.24 47.08, 258.03 44.17" stroke="#e64980" stroke-width="0.5" fill="none"></path><path d="M1.56 -1.21 C74.41 -0.14, 148.89 -0.54, 255.04 1.52 M0.44 0.76 C81.71 0.86, 162.61 2, 255.2 0.02 M256.16 -1.81 C256.63 13.28, 254.94 24.01, 254.71 49.25 M255.55 0.79 C256.57 15.34, 256.4 28.33, 256.81 49.49 M256.03 48.9 C188.83 48.75, 124.13 48, 0.91 51.25 M256.58 49.66 C170.48 51.19, 84.03 50.04, 0.33 49.97 M-1.08 48.82 C-0.96 36.85, -0.29 26.63, 0.24 1.34 M0.06 49.68 C-0.35 30.61, -0.7 12.51, 0.24 0.99" stroke="#000000" stroke-width="1" fill="none"></path></g><g stroke-opacity="0.8" fill-opacity="0.8" transform="translate(44 675.4325845241547) rotate(0 100 12.5)"><text x="0" y="18" font-family="Virgil, Segoe UI Emoji" font-size="20px" fill="#000000" text-anchor="start" style="white-space: pre;" direction="ltr">Dump internal state</text></g><g stroke-linecap="round"><g stroke-opacity="0.8" fill-opacity="0.8" transform="translate(131.31864658013046 613.440749168396) rotate(0 2.397135192016094 19.408147805854696)"><path d="M1.17 1.01 C1.43 7.04, 1.99 31.23, 2.28 37.2 M0.33 0.5 C0.89 7.18, 4.2 32.14, 4.47 38.32" stroke="#000000" stroke-width="1" fill="none"></path></g><g stroke-opacity="0.8" fill-opacity="0.8" transform="translate(131.31864658013046 613.440749168396) rotate(0 2.397135192016094 19.408147805854696)"><path d="M-2.1 19.5 C-1.9 26.59, 0.5 33.56, 5.34 37.79 M-3.68 21.73 C-0.37 27.36, 2.55 33.24, 4.53 38.62" stroke="#000000" stroke-width="1" fill="none"></path></g><g stroke-opacity="0.8" fill-opacity="0.8" transform="translate(131.31864658013046 613.440749168396) rotate(0 2.397135192016094 19.408147805854696)"><path d="M10.89 18.28 C6.44 25.93, 4.17 33.34, 5.34 37.79 M9.3 20.51 C8.05 26.63, 6.4 32.94, 4.53 38.62" stroke="#000000" stroke-width="1" fill="none"></path></g></g><g stroke-linecap="round"><g stroke-opacity="0.8" fill-opacity="0.8" transform="translate(267.94907581806183 681.8704890012741) rotate(0 28.835486757466697 0.6192222351394321)"><path d="M0.98 0.3 C10.54 0.19, 48.38 0.35, 57.64 0.19 M0.03 -0.59 C9.47 -0.55, 47.78 1.67, 57.03 1.82" stroke="#000000" stroke-width="1" fill="none"></path></g></g><g stroke-linecap="round"><g stroke-opacity="0.8" fill-opacity="0.8" transform="translate(325.94907581806183 680.8704890012741) rotate(0 0.3545028373214336 -316.1593272058293)"><path d="M0.8 0.55 C0.88 -104.76, 1.07 -527.21, 0.85 -632.87 M-0.24 -0.21 C-0.28 -105.26, 0.56 -526.17, 0.35 -631.56" stroke="#000000" stroke-width="1" fill="none"></path></g></g><g stroke-linecap="round"><g stroke-opacity="0.8" fill-opacity="0.8" transform="translate(323.94907581806183 47.87048900127411) rotate(0 -43.605530673256 -0.30381124908109314)"><path d="M1.17 0 C-13.46 -0.3, -72.57 -0.6, -87.63 -0.72 M0.33 -1.04 C-14.45 -0.69, -73.84 0.22, -88.38 0.44" stroke="#000000" stroke-width="1" fill="none"></path></g><g stroke-opacity="0.8" fill-opacity="0.8" transform="translate(323.94907581806183 47.87048900127411) rotate(0 -43.605530673256 -0.30381124908109314)"><path d="M-60.35 -9.64 C-70.32 -8.58, -79.15 -3.84, -87.25 1.46 M-59.8 -10.6 C-69.92 -7.09, -79.28 -2.48, -88.29 1.22" stroke="#000000" stroke-width="1" fill="none"></path></g><g stroke-opacity="0.8" fill-opacity="0.8" transform="translate(323.94907581806183 47.87048900127411) rotate(0 -43.605530673256 -0.30381124908109314)"><path d="M-60.04 10.88 C-70.29 5.45, -79.23 3.71, -87.25 1.46 M-59.49 9.92 C-69.7 6.59, -79.16 4.35, -88.29 1.22" stroke="#000000" stroke-width="1" fill="none"></path></g></g><g stroke-linecap="round"><g stroke-opacity="0.8" fill-opacity="0.8" transform="translate(226.94907581806183 246.8704890012741) rotate(0 50.53716585457323 0.5908037131279684)"><path d="M-0.16 0.53 C17 0.43, 85.77 -0.14, 102.78 -0.08 M-1.7 -0.23 C15.3 -0.19, 84.06 1.54, 101.71 1.42" stroke="#000000" stroke-width="1" fill="none"></path></g><g stroke-opacity="0.8" fill-opacity="0.8" transform="translate(226.94907581806183 246.8704890012741) rotate(0 50.53716585457323 0.5908037131279684)"><path d="M74.3 10.99 C81.25 6.76, 90.9 5.16, 101.45 3.4 M74.28 11.02 C81.77 7.4, 91.8 4.88, 101.16 0.44" stroke="#000000" stroke-width="1" fill="none"></path></g><g stroke-opacity="0.8" fill-opacity="0.8" transform="translate(226.94907581806183 246.8704890012741) rotate(0 50.53716585457323 0.5908037131279684)"><path d="M74.52 -9.53 C81.51 -7.95, 91.1 -3.73, 101.45 3.4 M74.51 -9.5 C81.79 -6.53, 91.75 -2.47, 101.16 0.44" stroke="#000000" stroke-width="1" fill="none"></path></g></g><g stroke-opacity="0.8" fill-opacity="0.8" transform="translate(251.94907581806183 214.8704890012741) rotate(0 12 12.5)"><text x="0" y="18" font-family="Virgil, Segoe UI Emoji" font-size="20px" fill="#000000" text-anchor="start" style="white-space: pre;" direction="ltr">No</text></g></svg>
