<svg version="1.1" xmlns="http://www.w3.org/2000/svg" viewBox="0 0 847.0551581197931 495.6097323274712" width="847.0551581197931" height="495.6097323274712">
  <!-- svg-source:excalidraw -->

  <defs>
    <style>
      @font-face {
        font-family: "Virgil";
        src: url("https://excalidraw.com/Virgil.woff2");
      }
      @font-face {
        font-family: "Cascadia";
        src: url("https://excalidraw.com/Cascadia.woff2");
      }
    </style>
  </defs>
  <rect x="0" y="0" width="847.0551581197931" height="495.6097323274712" fill="#ffffff"></rect><g stroke-linecap="round" transform="translate(10 10) rotate(0 94.27799479166652 94.27799479166652)"><path d="M14.49 45.72 C14.49 45.72, 14.49 45.72, 14.49 45.72 M14.49 45.72 C14.49 45.72, 14.49 45.72, 14.49 45.72 M6.16 56.83 C22.07 45.76, 31.62 28.71, 46.4 20.3 M9.98 56.86 C20.33 44.36, 33.27 29.96, 43.3 20.25 M3.76 67.91 C24.86 44.7, 47.75 26.94, 54.29 5.22 M5.97 68.02 C18.05 53.99, 30.6 40, 59.17 9.98 M-2.43 82.04 C16.88 63.14, 28.79 52.28, 65.71 8.62 M1.15 80.63 C27.36 48.36, 51.37 20.74, 63.2 5.84 M3.19 82.91 C25.13 53.39, 54.52 23.43, 70.94 8.03 M-0.25 85.15 C19.91 62.62, 41.19 40.27, 69.89 6.06 M3.06 93.18 C27.41 59.24, 56.82 25.2, 73.19 7.82 M1.71 90.41 C28.78 60.92, 56.03 26.28, 77.38 6.35 M-1.95 99.26 C21.05 72, 38.27 47.99, 81.72 7.55 M3.63 96.07 C25.52 71.73, 47.05 48.42, 79.82 5.85 M0.69 100.72 C28.15 65.98, 60.96 32.36, 86.16 4.81 M3.26 103.77 C31.76 68.52, 62.92 33.54, 87.09 5.72 M4.28 111.2 C39.53 71.99, 64.29 32.96, 96.44 6.12 M1.9 109.65 C32.51 76.58, 59.94 42.01, 91.95 5.67 M4.02 115.23 C37.51 76.62, 70.35 33.71, 100.45 6.53 M4.9 114.91 C20.58 88.88, 41.94 66.53, 97.1 3.32 M7.43 115.65 C40.18 82.98, 71.8 44.11, 105.26 7.02 M5.38 116.9 C36.65 80.23, 65.55 46.47, 103.65 5.24 M3.56 118.96 C29.3 90.35, 56.66 60.07, 111.51 1.34 M4.73 120.16 C29.12 93.72, 50.34 68.59, 106.84 5.48 M8.04 123.71 C38.98 94.79, 64.31 62.37, 111.94 4.43 M6.97 124.49 C37.47 86.77, 68.71 54.06, 113.91 7.68 M10.87 126.87 C38.14 95.79, 73.73 56.37, 113.77 7.27 M9.92 129.03 C38.11 103.43, 64.81 71.45, 115.74 7.63 M9.62 132.7 C47.32 87.13, 94.41 42.56, 117.87 8 M11.58 132.77 C38.92 106.22, 67.66 75.24, 121.4 6.03 M14.46 141.61 C55.16 87.12, 104.84 37.19, 125.93 7.05 M14.62 137.18 C51.21 92.34, 92.32 43.23, 126.54 7.37 M18 142.34 C42.44 109.18, 66.63 84.52, 134.13 6.79 M17.44 141.96 C49.38 101.45, 88.51 58.44, 130.49 9.21 M13.78 143.76 C41.21 116.57, 70.72 79.94, 137.07 10.36 M15.99 146.67 C50.34 106.51, 87.26 64.61, 133.39 8.73 M16.67 148.06 C64.61 102.74, 105.3 56.42, 136.78 14.09 M17.49 151.47 C45.78 120.2, 71.64 87.61, 140.58 12.83 M21.31 154.07 C68.28 101.13, 109.18 53.85, 142.58 17.82 M22.19 154.22 C56.57 112.22, 94.75 71.56, 143.78 16.15 M28.02 158.44 C64.01 108.23, 104.13 66.85, 144.84 21.09 M22.57 155.32 C53.91 118.39, 83.67 87.19, 146.08 18.9 M30.46 160.99 C66.95 117.81, 102.79 72, 147.44 16.72 M26.38 160.7 C67.67 111.42, 108 65.9, 147.82 20.18 M30.85 159.81 C76.62 106.76, 120.06 58.51, 154.95 21.93 M29.02 160.72 C71.75 111.16, 117.74 59.09, 153 22.8 M37.01 164.17 C60.66 134.01, 88.22 96.71, 153.66 26.77 M34.1 164.65 C66.28 130.6, 100.49 91.48, 155.67 25.32 M39.57 163.39 C61.29 134.84, 90.73 106.49, 154.76 25.18 M35.78 165.29 C63.16 138.66, 88.09 110.59, 158.42 26.86 M41.03 171.69 C71.73 133.01, 111.47 88.27, 161.5 26.16 M39.24 169.5 C68.16 136.6, 99.15 99.47, 160.81 29.94 M40.91 173.1 C72.61 140.16, 102.89 106.58, 162.9 29.36 M43.13 170.8 C77.16 133.36, 109.61 93.07, 164.44 29.78 M49.54 173.56 C82.71 125.02, 119.32 83.59, 168.95 32.75 M44.65 175.11 C68.97 141.54, 93.53 116.12, 169.44 33.62 M46.55 172.8 C75.05 142.29, 103.74 118.62, 166.34 37.93 M47.37 176.41 C86.58 133.85, 124.83 90.91, 169.51 35.72 M54.58 179.98 C82.55 140.66, 115.87 101.91, 170.94 40.33 M54.24 177.96 C88.15 138.28, 121.68 98.96, 173.74 39.29 M56.49 179.03 C94.83 132.36, 131.24 91.13, 178.29 40.52 M58.12 181.44 C96.58 138.31, 132.17 90.64, 176.37 45.44 M65.11 180.83 C88.59 151.01, 115.76 119.52, 180.69 45.13 M62.86 180.72 C88 154.44, 112.21 128.58, 175.23 49.81 M69.07 183.29 C101.66 141.69, 135.47 99.01, 180.33 47.71 M66.39 181.65 C108.28 137.28, 147.9 85.2, 180.15 53.12 M71.84 181.96 C88.87 156.61, 115.01 132.08, 182.42 53.58 M71.14 182.44 C110.88 137.14, 149.01 90.07, 183.44 53.71 M72.93 183.48 C95.49 157.79, 124.76 131.61, 184.32 60.76 M74.51 186.67 C115.48 137.91, 158.65 88.12, 184.3 58.12 M75.03 184.13 C106.16 149.86, 140.42 114.08, 184.66 60.78 M79.31 187.61 C105.58 151.86, 133.86 118.12, 187.26 61.65 M79.03 184.48 C114.77 147.55, 150.2 110.1, 186.49 69.88 M82.16 186.55 C114.41 149.71, 144.13 112.38, 188.65 65.19 M84.62 191.54 C117.63 154.78, 144.49 120.35, 188.32 75.05 M85.31 188.6 C119.32 149.77, 155.42 106.28, 188.97 72.98 M89.94 188.07 C114.3 165.72, 142.87 138.98, 191.33 77.72 M89.67 187.74 C114.86 162.88, 138.5 137.03, 187.37 77.99 M96.16 187.3 C113.37 165.55, 133.99 148.86, 186.49 84.36 M98.7 187.16 C128.52 153.46, 159.36 118.15, 186.09 84.17 M99.21 186.22 C120.57 172.5, 139.56 152.01, 192.3 86.59 M103.39 188.33 C118.02 166.35, 136.63 146.4, 187.55 88.32 M108.92 188.76 C132.31 167.52, 148.63 143.47, 187.34 99.37 M108.79 187.76 C129.2 163.26, 150.64 142.72, 188.21 97.87 M110.11 190.63 C136.69 157.37, 159.59 132.72, 188.6 107.29 M112.39 189.62 C126.43 167.83, 144.24 151.93, 184.14 106.93 M115.77 184.2 C135.05 169.27, 145.21 155.49, 182.01 112.97 M120.57 188.25 C136.72 167.76, 151.89 145.56, 182.96 112.39 M128.15 183.4 C147.46 159.87, 165.7 141.23, 184.92 124.48 M123.05 188.76 C140.51 170.16, 152.91 155.71, 181.56 122.93 M135.78 179.5 C146.2 167.52, 158.19 157.97, 181.2 134.43 M137.2 176.55 C155.2 158.7, 169.33 139.23, 178.55 129.9 M18.2 151.3 C18.2 151.3, 18.2 151.3, 18.2 151.3 M18.2 151.3 C18.2 151.3, 18.2 151.3, 18.2 151.3 M47.91 172.33 C38.92 161.83, 27.4 152.83, 13.29 138.92 M51.78 174.86 C40.78 166.43, 32.55 161.65, 15.89 143.96 M58.24 174.02 C50.53 168.66, 40.65 160.79, 7.75 135.63 M60.45 176.25 C44.79 164.63, 25.39 148.13, 12.11 134.35 M69.74 181.36 C46.56 163.43, 33.54 142.92, 7.96 122.21 M72.09 182.83 C57.2 169.28, 41.54 155.08, 6.22 124.19 M87.65 191.2 C53.79 159.33, 22.4 135.67, -0.63 114.99 M83.4 187.39 C60.51 167.49, 36.43 147.52, 4 116.37 M89.05 188.95 C64.77 157.06, 30.93 138.59, 5.67 108.49 M90.11 186.28 C58.26 163.02, 28.63 137.23, 2.61 110.1 M95.88 184.24 C76.45 168.83, 58.09 158.9, 3.43 103.09 M97.4 186.83 C69.58 162.84, 38.81 135.32, 0.43 106.39 M100.46 188.27 C64.7 154.44, 28.42 126.23, -0.73 100.38 M100.71 186.3 C75.77 164.54, 47.53 139.55, 3.55 99.06 M107.61 190.5 C78.74 162.64, 53.05 135.27, 4.16 94.16 M109.13 188.34 C76.27 163.1, 46 136.87, -0.51 95.41 M115.8 187.58 C87.5 160.78, 53.7 141.61, -0.86 91.25 M113.96 185.55 C87.99 165.15, 63.81 142.05, 0.07 88.72 M118.25 184.21 C88.01 156.6, 49.37 124.18, 1.35 81.73 M119.04 188.03 C79.49 152.46, 40.45 115.54, -1.09 82.19 M124.11 181.97 C98.94 163.56, 71.01 135.23, 2.75 81.1 M125.24 185.96 C92.13 157.87, 62.04 131.07, -0.66 78.79 M125.26 186.31 C81.33 140.12, 33.64 97, 6.41 70.58 M126.64 184.19 C84.81 146.75, 42.52 111.16, 2.07 75.22 M132.25 177.26 C86.11 144.16, 33.64 101.87, 0.65 67.26 M129.73 182.7 C101.83 159.13, 74.73 133.85, 4.64 71.78 M136.66 176.43 C109.32 155.35, 77.82 127.62, 3 62.95 M133.07 179.25 C93.09 143.03, 55.89 109.98, 4.62 64.91 M134.44 173.84 C96.79 132.2, 47.38 93.36, 7.18 59.79 M138.01 177.94 C112.49 154.78, 83.76 129.06, 8.05 62.43 M143.06 176.82 C89.74 129.68, 41.52 83.04, 7.37 61.73 M143.07 173.75 C111.63 149.18, 82.38 125.46, 8.84 60.79 M142.66 174.85 C105.05 138.64, 69.41 103.41, 13.73 58.12 M144.47 171.11 C110.2 142.74, 80.19 111.2, 9.76 56.29 M149.13 172.46 C104.27 126.66, 58.62 92.89, 12.59 47.18 M146.47 168.44 C116.71 139.31, 86.62 112.65, 13.84 50.25 M155.25 170.11 C111.58 132.75, 69.33 97.34, 11.03 48.98 M149.86 168.75 C118.99 136.59, 81.67 106.5, 14.31 45.67 M155.83 165.04 C103.36 119.22, 43.14 71.03, 13.04 40.89 M154.41 164.19 C125.09 141.16, 93.91 113.27, 18.07 44.42 M160.07 163.49 C113.98 128.24, 68.82 85.83, 20.61 38.49 M158.52 161.94 C118.49 127.16, 77.41 91.17, 20.09 39.77 M162.93 159.59 C114.73 121.3, 70.86 82.56, 20.65 34.45 M159.91 158.75 C128.29 128.86, 93.64 102.45, 21.61 36.98 M163.3 153.53 C120.62 121.73, 87.38 92.87, 20.32 33.43 M161.11 152.89 C122.32 121.99, 83.11 86.04, 22.83 35.89 M168.79 147.81 C106.94 105.88, 59.72 58.46, 28.19 32.86 M163.57 151.98 C122.72 115.05, 77.14 79.18, 27.35 33.42 M164.45 148.09 C112.32 102.17, 61.11 55.87, 28.31 29.29 M167.67 147.61 C127.37 114.66, 87.98 81.25, 29.59 29.54 M172.82 142.76 C127.89 111.25, 93.08 74.6, 29.94 27.13 M170.09 146.54 C141.01 117.05, 110.72 92.62, 31.76 25.75 M170.35 139.09 C123.12 97.24, 69.45 53.23, 33.55 20.93 M171.56 140.62 C135.64 110.37, 103.41 78.98, 35.28 23.03 M175.73 139.53 C146.66 109.42, 111.94 82.16, 36.79 16.93 M174.5 138.65 C139.86 110.73, 109.36 82.03, 37.95 21.08 M178.1 133.14 C137.48 99.13, 88.16 58.48, 43.57 17.87 M178.49 135.61 C139.02 103.14, 98.58 70.89, 40.41 18.83 M181.57 132.56 C153.36 104.59, 116.63 79.6, 45.94 12.61 M178.19 133.28 C135.34 97.94, 93.67 61.88, 43.33 13.7 M179.9 132.19 C150.52 103.91, 121.72 78.56, 46.98 14.96 M181.27 128.09 C135.6 89.66, 93.59 51.45, 47.59 12.19 M185.4 120.35 C151.68 95.16, 115.39 64.32, 51.38 5.91 M182.62 122.98 C149.36 93.66, 116.27 66.26, 48.19 9.74 M181.49 120.23 C146.68 87.26, 109.73 62.58, 52.91 8.46 M184.28 118.05 C145.79 90.25, 112.13 57.46, 55 5.26 M181.39 112.02 C149.84 90.72, 122.93 59.35, 58.18 7.91 M183.37 116.37 C147.43 82.88, 113.66 52.96, 55.88 3.13 M185.2 109.88 C136.75 65.83, 92 30.59, 64.11 -0.07 M184.53 110.61 C148.23 79.32, 108.07 46.12, 63.45 4.93 M189.03 106.74 C151.25 80.88, 118.18 50.51, 66.98 0.97 M186.36 107.58 C148.65 75.77, 111.13 40.64, 67.41 1.56 M190.15 103.18 C139.51 61.07, 95.13 23.77, 72.61 0.97 M185.85 102.76 C146.25 63.87, 104.96 29.97, 74.07 1.62 M187.34 99.7 C159.58 69.4, 130.35 49.15, 77.45 0.28 M188.09 96.26 C151.75 64.85, 113.41 32.76, 78.78 2.03 M189.78 96.81 C167.18 69.21, 144.24 51.22, 80.49 -2.09 M190.43 94.61 C144.63 58.82, 103.8 20.7, 83.07 -0.06 M193.16 88.1 C165.13 72.68, 143.02 52.83, 86.34 1.65 M187.91 87.51 C155.51 59.98, 122.5 30.95, 89.15 0.6 M188.82 83.55 C157.11 50.99, 119.09 21.09, 93.16 0.39 M189.76 80.83 C152.27 49.97, 116.32 20.74, 93.03 1.29 M187.88 78.57 C159.62 48.37, 128.4 18.1, 99.21 2.25 M188.76 77.32 C165.7 59.68, 144.46 41.86, 98.51 -0.81 M191.61 71.45 C164.52 49.99, 132.17 20.93, 103.59 2.07 M186.98 71.81 C163.15 50.15, 141.99 33.55, 107.12 -1.45 M188.01 68.3 C170.21 48.5, 155.89 37.25, 110.72 3.83 M185.69 63.74 C160.43 45.16, 136.37 21.66, 113.98 -1.24 M182.51 57.26 C164.69 38.29, 144.03 23.97, 123.34 3.29 M187.3 57.15 C168.52 44.31, 152.85 29.27, 122.09 0.74 M179.25 46.05 C155.54 26.31, 141.37 17.65, 135.06 4.95 M174.02 45.85 C165.83 35.39, 151.15 24.74, 134.23 5.53" stroke="#e14b2d" stroke-width="0.5" fill="none"></path><path d="M54.86 6.2 C65.27 0.68, 82.75 0.89, 95.76 1.17 C108.77 1.45, 121.69 3.09, 132.93 7.86 C144.17 12.63, 154.67 21.21, 163.19 29.8 C171.71 38.38, 180.04 48.22, 184.05 59.39 C188.06 70.56, 188.26 84.19, 187.24 96.83 C186.21 109.47, 183.19 124.04, 177.9 135.23 C172.6 146.42, 164.43 155.51, 155.46 163.95 C146.49 172.39, 135.87 181.78, 124.06 185.86 C112.26 189.94, 97.19 189.99, 84.63 188.45 C72.07 186.91, 59.78 182.85, 48.68 176.63 C37.59 170.42, 25.73 161.16, 18.05 151.16 C10.36 141.16, 5.56 128.63, 2.56 116.63 C-0.44 104.63, -1.96 90.97, 0.02 79.16 C2 67.35, 7.67 56.02, 14.44 45.79 C21.21 35.56, 27.75 25.39, 40.64 17.79 C53.52 10.19, 77.24 2.07, 91.73 0.18 C106.22 -1.71, 127.45 4.57, 127.59 6.45 M65.1 6.26 C76.55 1.43, 93.83 1.21, 106.73 2.33 C119.63 3.44, 131.62 6.91, 142.52 12.94 C153.42 18.96, 164.78 28.23, 172.11 38.47 C179.45 48.72, 184.48 62.49, 186.52 74.42 C188.57 86.34, 186.66 98.71, 184.36 110.02 C182.06 121.33, 179 131.45, 172.73 142.26 C166.45 153.07, 156.58 167.86, 146.71 174.86 C136.84 181.86, 126.09 182.68, 113.51 184.26 C100.93 185.84, 83.75 187.08, 71.22 184.36 C58.7 181.64, 47.84 175.22, 38.34 167.93 C28.85 160.64, 20.19 150.35, 14.27 140.64 C8.35 130.93, 4.7 121.61, 2.85 109.68 C0.99 97.75, 0.01 81.39, 3.14 69.06 C6.27 56.72, 13.53 45.45, 21.6 35.66 C29.68 25.88, 44 15.34, 51.58 10.35 C59.16 5.36, 64.6 6.08, 67.08 5.71 C69.57 5.34, 65.84 7.19, 66.49 8.14" stroke="#e14b2d" stroke-width="1" fill="none"></path></g><g stroke-linecap="round" transform="translate(52.07020252561006 133.24299113424536) rotate(0 51.134151031654255 9.4571576846879)"><path d="M0.93 3.69 L102.65 -2.86 L101 17.05 L2.94 16.15" stroke="none" stroke-width="0" fill="#ffffff"></path><path d="M-1.64 1.6 C33.07 -4.19, 70.22 3.26, 104.6 3.56 M1.46 -1.88 C31.27 -2.68, 63.84 -1.08, 101.89 -1.73 M102.95 0.1 C102.33 3.71, 100.89 13.11, 99.74 16.92 M102.46 0.86 C102.28 4.99, 103.35 8.53, 102.83 20.79 M99.72 21.89 C77.11 22.58, 49 21.03, 3.5 20.3 M102.5 18.29 C67.26 16.62, 37.78 17.89, -1.74 17.01 M0.86 15.89 C2.59 17.59, -0.14 9.74, 1.29 0.23 M1.06 18.24 C1.56 12.87, -0.92 5.92, -0.06 1.22" stroke="#e14b2d" stroke-width="1" fill="none"></path></g><g stroke-linecap="round"><g transform="translate(77.34669593726903 202.1635934282889) rotate(181.11973861006382 28.84208321034771 -30.41707576177754)" fill-rule="evenodd"><path d="M-0.73 -21.6 L-3.3 -21.44 L9.91 -31.6 L21.75 -40.21 L38.58 -42.03 L47.02 -35.66 L57.18 -26.12 L55.28 -21.05 L48.77 -19.94 L1.81 -20.89" stroke="none" stroke-width="0" fill="#ffffff" fill-rule="evenodd"></path><path d="M-1.15 -19.72 C-1.62 -20.83, -4.63 -24.28, -2.38 -26.87 C-0.12 -29.46, 7.01 -33.42, 12.38 -35.26 C17.75 -37.09, 23.68 -38.17, 29.84 -37.9 C35.99 -37.63, 44.61 -36.71, 49.31 -33.62 C54 -30.53, 66.67 -21.2, 58.01 -19.35 C49.35 -17.5, 7.5 -22.03, -2.63 -22.54 M3.43 -21.58 C3.75 -22.49, 0.21 -21.7, 2.64 -24.67 C5.07 -27.63, 13.22 -36.4, 18 -39.38 C22.77 -42.37, 26.62 -43.79, 31.31 -42.58 C35.99 -41.36, 42.45 -35.74, 46.1 -32.09 C49.76 -28.44, 61.34 -23.04, 53.23 -20.69 C45.12 -18.34, 6 -17.43, -2.54 -18" stroke="#e14b2d" stroke-width="1" fill="none"></path></g></g><g stroke-linecap="round"><g transform="translate(87.7905423451864 238.67106168779276) rotate(0 18.254424752808404 -162.527680597469)" fill-rule="evenodd"><path d="M-11.52 -113.85 L-11.99 -118.57 L-16.09 -135.62 L-9.73 -128.35 L-13.64 -152.7 L-11.11 -186.57 L-18.2 -187.14 L-8.73 -180.44 L2.97 -176.31 L-1.3 -172.32 L4.27 -169.27 L1.93 -181.15 L5.43 -193.24 L25.88 -214.26 L9.38 -195.52 L19.03 -174.14 L23.71 -163.68 L30.83 -192.24 L32.15 -201.23 L33.07 -208.2 L31.97 -205.08 L33.57 -190.76 L51.41 -160.08 L49.09 -153.71 L47.53 -135.11 L44.49 -119.67 L48.96 -125.35 L59.72 -132.19 L60.71 -122.84 L54.07 -117.07 L-17.46 -110.29 L-13.27 -109.96" stroke="none" stroke-width="0" fill="#ffffff" fill-rule="evenodd"></path><path d="M-9.14 -114.54 C-9.85 -114.95, -13.42 -115.65, -13.95 -115.59 C-14.49 -115.53, -11.78 -111.42, -12.35 -114.17 C-12.93 -116.92, -16.89 -129.79, -17.38 -132.1 C-17.87 -134.41, -17.39 -128.8, -15.31 -128.03 C-13.24 -127.26, -4.86 -124.96, -4.93 -127.48 C-5.01 -130, -13.74 -137.89, -15.78 -143.17 C-17.82 -148.44, -17.82 -151.81, -17.18 -159.15 C-16.54 -166.49, -12.72 -182.37, -11.94 -187.2 C-11.16 -192.03, -12.75 -187.95, -12.52 -188.13 C-12.29 -188.31, -12.6 -189.91, -10.56 -188.28 C-8.52 -186.65, -1.9 -181.03, -0.29 -178.36 C1.32 -175.69, -1.67 -172.54, -0.9 -172.25 C-0.14 -171.96, 3.68 -174.84, 4.31 -176.6 C4.95 -178.37, 3.24 -180.67, 2.9 -182.84 C2.56 -185, 2.19 -187.62, 2.27 -189.6 C2.35 -191.59, 0.06 -190.22, 3.36 -194.76 C6.67 -199.3, 19.47 -214.91, 22.08 -216.84 C24.68 -218.76, 20.48 -209.96, 19 -206.28 C17.52 -202.6, 13.99 -197.65, 13.2 -194.73 C12.42 -191.81, 12.57 -192.32, 14.29 -188.75 C16 -185.18, 21.87 -178.31, 23.49 -173.32 C25.12 -168.33, 23.65 -157.72, 24.06 -158.81 C24.47 -159.9, 24.73 -172.7, 25.97 -179.88 C27.22 -187.06, 29.79 -197.46, 31.52 -201.88 C33.26 -206.3, 35.84 -205.73, 36.4 -206.4 C36.95 -207.07, 35.39 -208.18, 34.86 -205.88 C34.33 -203.57, 33.49 -196.18, 33.21 -192.59 C32.93 -188.99, 30.23 -189.45, 33.19 -184.29 C36.15 -179.14, 48.24 -166.9, 50.99 -161.67 C53.73 -156.43, 50.13 -157.39, 49.64 -152.89 C49.15 -148.38, 49.39 -139.41, 48.05 -134.64 C46.71 -129.87, 43.06 -126.46, 41.6 -124.28 C40.14 -122.09, 38.04 -121.55, 39.29 -121.53 C40.53 -121.51, 45.98 -122.91, 49.07 -124.16 C52.16 -125.4, 55.87 -127.78, 57.81 -129 C59.74 -130.23, 60.41 -131.91, 60.66 -131.51 C60.91 -131.1, 60.36 -129.24, 59.31 -126.56 C58.27 -123.89, 56.53 -117.88, 54.4 -115.44 C52.26 -113.01, 57.44 -112.76, 46.51 -111.95 C35.58 -111.15, -1.3 -110.88, -11.2 -110.61 C-21.1 -110.35, -13.16 -110.58, -12.89 -110.38 C-12.63 -110.18, -10.09 -108.81, -9.61 -109.41 M-11.97 -109.75 C-11.91 -109.77, -8.85 -111.67, -8.98 -113.18 C-9.11 -114.69, -10.24 -116.14, -12.76 -118.81 C-15.28 -121.49, -23.18 -127.94, -24.08 -129.23 C-24.99 -130.52, -20.67 -127.66, -18.18 -126.58 C-15.69 -125.49, -9.63 -120.62, -9.13 -122.72 C-8.63 -124.83, -14.74 -132.95, -15.19 -139.2 C-15.63 -145.45, -13.09 -152.9, -11.82 -160.23 C-10.54 -167.55, -6.46 -178.53, -7.54 -183.15 C-8.61 -187.76, -17.87 -187.5, -18.28 -187.92 C-18.69 -188.34, -12.45 -187.09, -10 -185.68 C-7.55 -184.27, -4.97 -181.26, -3.58 -179.46 C-2.19 -177.66, -2.66 -175.11, -1.68 -174.88 C-0.7 -174.65, 1.54 -176.42, 2.3 -178.07 C3.06 -179.73, 2.45 -182.12, 2.87 -184.82 C3.3 -187.51, 5.23 -193, 4.84 -194.25 C4.46 -195.49, -1.81 -188.7, 0.56 -192.3 C2.92 -195.9, 16.35 -213.47, 19.02 -215.85 C21.69 -218.24, 17.27 -209.68, 16.57 -206.61 C15.87 -203.54, 15.68 -201.23, 14.8 -197.42 C13.92 -193.61, 9.55 -188.52, 11.28 -183.75 C13.01 -178.99, 22.87 -172.82, 25.18 -168.84 C27.49 -164.86, 25.66 -157.84, 25.15 -159.9 C24.63 -161.95, 21.75 -173.08, 22.07 -181.18 C22.39 -189.28, 24.15 -204.3, 27.08 -208.51 C30.01 -212.71, 39 -207.85, 39.66 -206.4 C40.32 -204.94, 31.53 -202.78, 31.03 -199.76 C30.53 -196.74, 36.52 -191.41, 36.68 -188.25 C36.84 -185.09, 30.16 -184.84, 31.98 -180.82 C33.79 -176.8, 43.55 -169.24, 47.57 -164.11 C51.58 -158.98, 56.21 -155.62, 56.08 -150.05 C55.95 -144.47, 48.81 -134.82, 46.77 -130.66 C44.73 -126.51, 44.6 -125.82, 43.83 -125.11 C43.05 -124.41, 41.86 -126.29, 42.12 -126.42 C42.38 -126.54, 42.62 -124.63, 45.38 -125.86 C48.14 -127.1, 56.78 -132.53, 58.68 -133.82 C60.59 -135.11, 56.5 -134.58, 56.82 -133.63 C57.14 -132.67, 61.15 -131.27, 60.61 -128.09 C60.07 -124.92, 56.3 -117.37, 53.58 -114.57 C50.87 -111.78, 55.07 -112.33, 44.3 -111.34 C33.53 -110.34, -2.04 -109, -11.05 -108.6 C-20.07 -108.21, -9.68 -109.06, -9.78 -108.97 C-9.89 -108.88, -11.8 -107.55, -11.67 -108.06" stroke="#e14b2d" stroke-width="1" fill="none"></path></g></g><g stroke-linecap="round"><g transform="translate(199.9684103362115 101.4406181315776) rotate(0 36.426468594928224 1.7822672744052284)"><path d="M-0.3 0.84 C11.75 1.26, 61.01 1.51, 73.15 1.8 M1.74 0.24 C13.56 0.93, 60.61 3.26, 72.24 3.32" stroke="#000000" stroke-width="1" fill="none"></path></g><g transform="translate(199.9684103362115 101.4406181315776) rotate(0 36.426468594928224 1.7822672744052284)"><path d="M29.43 -8.94 C17.33 -6.33, 8.07 0.07, -0.06 2.27 M27.77 -9.5 C21.86 -7.41, 14.31 -5.09, 0.57 1.45" stroke="#000000" stroke-width="1" fill="none"></path></g><g transform="translate(199.9684103362115 101.4406181315776) rotate(0 36.426468594928224 1.7822672744052284)"><path d="M29.16 11.58 C17.29 6.52, 8.12 5.26, -0.06 2.27 M27.51 11.02 C21.72 8.48, 14.23 6.17, 0.57 1.45" stroke="#000000" stroke-width="1" fill="none"></path></g><g transform="translate(199.9684103362115 101.4406181315776) rotate(0 36.426468594928224 1.7822672744052284)"><path d="M45.15 12.81 C54.39 8.36, 66.35 7.56, 72.48 4.75 M43.49 12.25 C50.45 9.69, 55.71 7.66, 73.11 3.93" stroke="#000000" stroke-width="1" fill="none"></path></g><g transform="translate(199.9684103362115 101.4406181315776) rotate(0 36.426468594928224 1.7822672744052284)"><path d="M45.79 -7.7 C54.67 -4.49, 66.39 2.37, 72.48 4.75 M44.13 -8.26 C50.88 -6.2, 55.99 -3.6, 73.11 3.93" stroke="#000000" stroke-width="1" fill="none"></path></g></g><g stroke-opacity="0.8" fill-opacity="0.8" stroke-linecap="round" transform="translate(284.7698285977044 51.85784045855189) rotate(0 107.76744186046517 42)"><path d="M0 0 C0 0, 0 0, 0 0 M0 0 C0 0, 0 0, 0 0 M-0.61 6.6 C0.84 4.07, 3.53 3.03, 4.98 0.91 M-0.43 6.15 C1.75 4.15, 3.62 2.12, 5.16 0.08 M0.12 12.84 C5.05 7.73, 7.22 1.85, 11.51 -0.64 M0.31 11.81 C3.43 9.8, 4.97 6.51, 10.93 -0.68 M-1.84 17.53 C4.5 13.27, 10.48 5.51, 14.99 -1.46 M-0.89 19.3 C5.05 13.04, 10.95 6.66, 15.82 0.29 M1.39 23.4 C10.27 15.62, 16.96 5.09, 19.81 -1.03 M0.3 23.82 C8.33 15.43, 14.86 6.7, 21.7 -0.77 M0.52 30.9 C6.91 24.19, 13.16 13.74, 25.46 0 M-0.63 31.11 C10.29 18.96, 19.66 8.5, 25.67 0.49 M-0.45 36.75 C9.72 21.7, 23.21 9.94, 31.11 -2.04 M0.33 37.32 C11.35 22.8, 25.61 8.69, 31.54 -0.85 M-1.74 43.01 C12.34 27.92, 30.12 8.79, 37 0.57 M0.06 43.4 C14.46 27.41, 29.15 9.88, 35.89 0.1 M0.65 47.89 C16.93 28.88, 33.16 11.04, 42.15 -0.53 M-0.36 48.64 C8.87 37.88, 17.59 28.4, 41.63 0.22 M0.01 55.01 C18.16 31.93, 39.04 13.16, 45.54 0.85 M1.22 55.55 C18.27 34.37, 33.6 16.63, 48 -0.36 M0.1 60.06 C15.42 43.02, 29.81 29.99, 51.8 -2.06 M0.04 61.14 C11.13 48.24, 22.95 34.18, 54.14 -0.07 M0.13 67.99 C17.21 46.1, 34.08 26.22, 56.39 1.62 M-0.69 67.85 C19.21 45.23, 35.72 25.64, 59.09 -0.68 M-0.7 71.91 C25.16 44.11, 51.46 15.87, 63.28 0.95 M-0.46 73.06 C16.71 52.71, 32.62 35.73, 63.34 -1.08 M-0.76 77.89 C17.28 60.96, 35.06 39.71, 70.16 1.79 M0.84 79.51 C22.84 54.04, 44.56 27.71, 68.84 -0.02 M-0.32 83.48 C23.68 58.58, 47.05 29.68, 74.13 -0.74 M1.42 84.57 C29.99 49.34, 59.66 16.63, 74.56 0.03 M4.29 83.3 C23.45 63.57, 42.54 43.42, 80.84 0.44 M5.32 85.38 C34.24 50.95, 62.99 20.27, 78.5 0.17 M12.52 85.15 C36.36 55.35, 61.23 29.19, 86.25 0.78 M11.06 83.7 C37.43 54.93, 61.49 27.32, 85.22 -0.76 M15.97 83.51 C37.21 64.53, 56.37 44.01, 89.75 -1.19 M15.81 85.02 C38.27 61, 60.18 35.05, 89.88 -0.91 M21.43 83.36 C43.22 59.24, 67.47 32.78, 95.89 0.57 M21.36 85.05 C49.26 53.36, 76.36 21.13, 95.8 -1.27 M26.08 84.75 C51.08 61.03, 72.71 36.84, 99.55 -1.71 M27.13 83.95 C54.41 51.84, 82.72 19.72, 100.41 -0.38 M32.53 86.13 C50.17 64.99, 66.36 46.83, 107.63 -1.15 M32.03 84.3 C46.8 67.04, 63.54 50.22, 106.88 -0.17 M39.3 85.11 C61.83 55.77, 88.75 26.69, 112.24 -1.57 M38.8 83.57 C64.09 53.9, 92.31 22.14, 112.07 -0.69 M41.27 85.37 C63.76 59.08, 86.77 35.64, 115.74 -0.25 M43.3 85.57 C70.33 52.51, 96.59 21.12, 115.45 0.82 M46.71 85.84 C65.95 61.57, 87.9 39.46, 123.19 -1.07 M49.4 85.45 C72.33 57.82, 97.1 30.14, 122.41 -0.61 M54.48 83.41 C70.25 66.68, 87.05 49.71, 128.81 2.29 M53 84.89 C72.13 63.11, 90.17 42.52, 126.55 0.86 M59.7 85.35 C78.15 64.78, 95.1 43.34, 131.07 1.65 M59.59 84.34 C83.15 56.9, 106.95 31.22, 131.58 -0.25 M62.96 83.99 C84.61 57.88, 107.3 32.83, 135.81 -1.09 M64.23 84.22 C90.44 52.05, 119.6 21.42, 138.33 -0.44 M68 85.2 C94.09 58.94, 118.81 28.72, 143.94 0.6 M69.12 85.16 C94.81 54.36, 119.38 26.33, 143.3 -0.06 M74.89 83 C103.33 53.48, 130.14 19.9, 146.68 -1.54 M75.63 85.19 C102.58 52.39, 128.39 21.86, 147.67 0.95 M81.72 84.1 C102.32 55.92, 127.55 27.82, 153.17 -0.04 M79.81 83.99 C95.2 67.52, 111.64 50.43, 153.86 0.23 M85.77 86.49 C105.19 60.54, 130.04 38.42, 157.73 0.94 M84.44 84.1 C114.25 50.85, 143.58 18.11, 158.53 -0.76 M89.26 83.94 C111.42 57.81, 137.86 32.26, 163.49 0.07 M90.55 85.11 C109.46 64.5, 125.7 44.09, 165.14 0.5 M96.46 84.66 C120.45 56.48, 147.26 26.33, 169.62 -0.5 M95.47 84.92 C120.15 58.1, 142.3 33.03, 168.96 -0.21 M103.42 83.75 C126.19 57.21, 148.36 30.74, 174.98 -0.61 M102.33 83.93 C128.02 52.81, 154.21 22.14, 175.6 -0.65 M107.14 85.87 C126.6 58.23, 150.79 34.13, 181.33 -1.54 M106.12 84.29 C132.07 56.3, 155.2 28.4, 180.06 0.14 M111.29 85.71 C132.37 63.76, 149.17 44.04, 185.03 0.58 M113.2 84.07 C130.51 63.85, 147.74 41.67, 185.26 -0.98 M115.36 86.63 C148.63 53.46, 175.45 19.16, 192.2 -0.71 M117.35 84.54 C140.04 57.99, 164.26 29.05, 191.05 1.01 M124.35 85.17 C145.3 60.26, 167.32 34.82, 194.42 0.42 M123.29 84.31 C150.35 53.14, 178.16 21.35, 196.74 0.45 M126 85.63 C152.01 56.96, 173.99 30.91, 199.91 -1.38 M128.72 84.64 C152.94 57.16, 178.04 27.59, 202.17 -0.72 M132.41 84.63 C148.96 63.92, 163.62 45.01, 205.24 -0.11 M133.82 83.59 C156.98 57.71, 182.06 28.46, 206.22 0.23 M137.28 85.68 C152.47 67.75, 167.75 51.17, 210.48 -1.79 M139.33 85.27 C161.18 58.86, 182.44 33.45, 211.8 1.02 M144.94 84.5 C161.11 65.56, 178.5 42.16, 217.62 -0.42 M143.41 84.79 C167.14 56.61, 191.89 28.89, 217.15 1.13 M150.78 83.78 C167.13 66.88, 183.55 47.82, 218.37 5.82 M148.91 83.74 C168.95 63.39, 187.17 39.61, 217.46 7.25 M155.75 86.08 C170.77 64.89, 192.81 41.77, 214.48 11.83 M153.74 84.69 C173.09 64.57, 191.95 43.44, 216.02 13.17 M161.4 85.06 C177.76 61.64, 196.8 38.23, 217.61 18.01 M160.72 85.07 C172.63 68.79, 186.73 53.28, 215.96 19.85 M165.03 86.1 C179.83 68.37, 193.03 52.71, 215.14 23.5 M164.61 85.51 C185.07 62.12, 203.66 40.53, 216.91 25.38 M171.41 84.82 C186.88 64.95, 200.69 47.75, 215.19 31.51 M170.64 84.93 C183 69.62, 195.66 55, 215.83 31.88 M175.96 83.68 C186.22 72.17, 196.43 60.77, 215.08 36.15 M175.54 84.89 C183.99 73.09, 195.36 62.1, 216.34 37.04 M180.41 82.51 C189.91 72.51, 202.55 57.98, 215.81 43.23 M180.09 84.67 C195.56 68.29, 208.16 51.81, 217.05 44.57 M184.05 83.11 C196.01 72.95, 206.54 59.16, 217.11 49.54 M186.13 85.63 C197.37 71.7, 208.89 59.65, 217.39 50.12 M191.34 83.75 C199.7 73.32, 208.68 61.68, 216.57 55.47 M191.1 84.31 C200.16 74.9, 208.7 65.34, 216.69 55.59 M195.17 83.82 C203.6 77.9, 209.22 67.26, 216.74 60.29 M197.06 84.72 C202.46 76.52, 209.01 69.6, 216.04 63.01 M200.49 86.3 C207.74 80.84, 213.41 72.96, 215.54 66.96 M201.25 83.53 C206.02 80.34, 210.07 74.5, 216.59 67.04 M207.44 85.91 C210.22 81.11, 213.02 77.45, 215.28 73.32 M207.13 84.44 C210.33 81.42, 213.49 77.15, 216.73 74.39 M212.46 84.87 C214.27 83.2, 214.94 82.72, 216.92 79.75 M212.83 84.46 C214.02 82.94, 215.44 81.65, 217.06 79.63" stroke="#4c6ef5" stroke-width="0.5" fill="none"></path><path d="M-1.06 -1.4 C70.68 0.98, 138.87 2.39, 215.55 -0.17 M0.21 -0.29 C69.79 2.07, 137.68 0.34, 214.83 0.39 M214.03 1.33 C213.57 20.07, 214.38 37.33, 216.48 82.62 M215.74 0.33 C216.15 27.81, 215.9 57.76, 215.85 84.67 M215.7 84.41 C162.96 82.9, 112.88 84.22, 1.31 84.02 M215.76 83.48 C151.31 85.08, 87.79 85.56, 0.58 84.13 M1.06 83.81 C-1.87 65.83, -0.7 45.8, 1.82 -1.11 M-0.5 84.15 C-1.65 58.25, -0.28 32.46, 0.72 0.05" stroke="#000000" stroke-width="1" fill="none"></path></g><g transform="translate(319.16517743491704 85.71830557483077) rotate(0 81.74604651162781 12.537737195034993)"><text x="0" y="17.075474390069928" font-family="Virgil, Segoe UI Emoji" font-size="20.06037951205591px" fill="#000000" text-anchor="start" style="white-space: pre;" direction="ltr">Lua Web Handler</text></g><g stroke-linecap="round" transform="translate(606.1249255616535 43.85784045855189) rotate(0 115.46511627906978 45)"><path d="M0 0 C0 0, 0 0, 0 0 M0 0 C0 0, 0 0, 0 0 M-0.85 6.6 C0.97 5.38, 2.86 4.06, 5.77 -0.03 M-0.25 6.27 C0.62 4.69, 2.12 3.43, 5.19 0.14 M0.84 12.5 C3.68 8.85, 5.48 5.21, 11.99 0.33 M0.03 12.41 C2.86 8.69, 7.39 3.73, 10.47 0.04 M-0.97 16.5 C3.69 10.72, 9.84 5.06, 14.22 1.9 M-0.74 17.75 C5.49 11.95, 13.04 5.04, 14.87 0.56 M1.03 24.63 C7.94 18.73, 11.17 10.97, 21.95 0.89 M0.98 24.44 C7.98 13.94, 17.74 5.08, 21.29 0.82 M-1.79 30.33 C8.76 20.14, 15.36 12.24, 24.43 1.66 M0.4 30.84 C5.48 21.95, 12.5 14.97, 26.93 0.53 M-0.56 35.36 C9.45 24.37, 19.33 11.56, 31.98 -1.9 M-0.67 36.85 C12.01 24.52, 24.42 10.1, 32.24 -0.23 M1.86 40.65 C8.36 34.74, 18.84 22.26, 37.58 2.22 M-0.53 42.58 C12.45 28.37, 26.06 13.38, 35.88 0.4 M-0.55 46.98 C16.31 31.75, 33.8 10.52, 42.74 -1.47 M0.61 49.85 C10.5 36.85, 20.49 25.24, 43.18 0.26 M0.2 54.11 C14.85 39.5, 27.61 21.97, 46.81 0.51 M0.46 55.26 C11.9 40.92, 25.23 27.06, 47.09 0.47 M-0.58 61.28 C13.93 43.46, 28.53 29.17, 52.73 1.01 M-0.39 61.43 C17.69 39.25, 36.14 17.95, 52.69 -0.26 M0.92 66.39 C18.15 45.76, 38.9 21.88, 56.43 0.77 M-0.66 68.04 C12.35 52.11, 25.44 37.33, 58.11 -0.4 M1.55 74.65 C13.21 58.82, 27.1 42.2, 64.58 -1.26 M-0.08 73.37 C21.52 47.73, 41.17 23.78, 63.03 0.73 M1.85 81.32 C17.67 61.77, 32.35 45.34, 67.93 0.61 M-0.24 78.86 C24.09 52.11, 46.02 25.4, 69.64 0.21 M1.18 84.82 C22.83 60.09, 43.86 35.17, 75.1 1.22 M0.32 85.06 C22.46 60.19, 43.89 35.23, 75.12 -0.17 M1.67 92.52 C24.64 63.09, 50.23 30.87, 77.91 0.98 M0.69 91.26 C32.42 55.89, 61.9 21.73, 78.58 -0.67 M6.71 90.06 C33.58 55.59, 62.32 22.45, 85.22 0.33 M5.67 89.65 C32.71 61.62, 56.21 32.13, 85.56 -1.27 M12.39 89.43 C30.35 68.83, 49.48 46.41, 88.18 0.17 M11.98 91.29 C37.42 59.48, 63.83 29.73, 90.98 -0.44 M16.49 90.28 C45.39 57.82, 69.88 28.46, 94.07 0.28 M16.78 90.19 C41.87 61.32, 67.54 31.8, 95.62 -0.83 M21.15 91.7 C45.8 65.26, 68.15 40.84, 99.65 -0.21 M21.12 90.97 C45.9 63.77, 67.2 39.22, 101.08 0.05 M28.08 89.3 C55.99 60.18, 82.03 24.8, 104.91 -0.39 M26.69 90.82 C45.42 71.59, 62.84 51.27, 106.25 0.01 M33.09 90.01 C61.68 54.43, 90.57 21.13, 110.43 -1.15 M33.11 90.07 C61.11 57.28, 89.57 24.3, 112.27 -0.43 M38.76 92.7 C58.18 67.25, 79.72 38.84, 114.51 1.99 M38.17 91.72 C63.45 60.97, 90.37 32.04, 116.39 0.91 M43.52 91.39 C73.51 52.38, 106.41 16.68, 121.77 -0.36 M43.64 90.45 C70.48 58.42, 98.17 26.92, 122.14 -0.56 M47.01 91.68 C71.22 63.49, 95.85 33.04, 125.76 -0.85 M48.21 89.91 C76.63 58.24, 105.72 24.52, 126.64 0.34 M51.88 89.19 C84.9 55.85, 113.53 18.96, 132.08 1.84 M54.04 91.03 C76.15 64.95, 97.83 41.06, 133.42 0.56 M57.1 90.02 C88.82 56.09, 117.48 23.77, 137.73 1.42 M59.62 91.24 C81.26 65.75, 104.36 39.5, 138.32 1.14 M63.78 89.14 C92.31 57.1, 119.11 27.45, 142.91 0.45 M64.34 90.82 C86.55 66.01, 108.63 39.81, 143.03 0.43 M68.48 90.87 C92.51 64.31, 112.28 40.21, 146.32 0.74 M69.38 90.13 C85.34 70.63, 102.54 51.59, 149.03 0.45 M77 91.29 C98.37 68.81, 116.85 41.49, 152.98 -0.18 M74.23 89.91 C99.29 64.19, 121.22 38.62, 153.06 0.1 M81.73 90.7 C95.93 71.5, 111.95 51.35, 157.57 1.38 M79.63 90.57 C106.14 61.34, 130.8 33.02, 159.09 -0.49 M87.45 92.03 C106.28 67.5, 129.25 42.65, 164.18 -0.34 M86.07 90.46 C112.09 60.28, 139.32 28.89, 163.78 -0.78 M92.61 89.32 C120.11 55.9, 151.82 20.05, 169.69 1.95 M90.71 91.15 C119.25 60.07, 145.71 27.25, 168.47 0.6 M95.21 90.1 C117.31 62.64, 141.49 38.99, 175.54 0.99 M95.89 89.72 C119.88 62.56, 143.27 36.41, 174.62 -0.99 M102.03 91.9 C117.46 71.84, 136.11 49.62, 179.04 1.42 M102.1 90.03 C123.83 65.81, 144.19 40.75, 179.81 0.13 M106.51 88.6 C135.83 57.81, 166.08 23.11, 185.23 0.2 M106.41 91 C131.4 62.97, 155.91 34.23, 185.18 -0.75 M110.04 90.95 C144.09 54.3, 175.44 22.28, 190.14 1.09 M111.48 89.93 C133.84 65.35, 154.9 40.94, 191.43 -0.45 M115.75 88.94 C132.57 73.39, 150.74 52.03, 196.61 -0.98 M118 90.71 C144.82 60.19, 172.91 29.06, 196.25 -0.66 M121.87 92.31 C148.79 61.67, 175.06 28.33, 201.65 -1.4 M121.69 91.17 C147.7 60.1, 174.27 30.25, 202.31 0.4 M127.48 88.91 C155.96 57.84, 184.11 24.82, 208.18 -1.49 M127.72 89.31 C150.43 65.51, 173.29 40.09, 206.76 -0.79 M133.89 89.19 C163.76 58.82, 190.93 22.99, 212.4 1.96 M133.73 90.64 C149.35 71.03, 167.65 52.15, 211.12 -0.71 M137.74 89.37 C157.29 67.72, 175.71 44.56, 219.59 1.09 M137.62 91.13 C169.14 55.1, 199.56 19.64, 216.84 0.41 M143.64 92.13 C171.04 60.02, 197.78 27.08, 223.39 -0.51 M143.79 90.81 C173.58 59.01, 201.57 25.89, 223.19 0.93 M150.71 89.28 C179.27 54.2, 209.09 21.23, 229.65 0.52 M148.41 90.29 C169.17 67.23, 190.68 43.29, 228.78 -0.96 M155.8 90.99 C175.18 67.5, 192.94 48.48, 231.09 2.62 M154.23 90.73 C179.99 59.8, 207.32 29.65, 232.86 -0.16 M160.74 92.2 C179.93 63.13, 202.79 39.65, 231.78 7.44 M158.52 90.24 C182.55 64.66, 206.49 36.66, 231.49 6.33 M164.21 89.02 C187.95 63.58, 209.49 38.82, 232.96 13.72 M164.57 91.03 C192.4 60.45, 218.92 29.15, 231.97 13.19 M169.01 89.26 C186.64 69.72, 207.69 50.06, 231.73 17.29 M169.66 91.78 C184.57 74.77, 199.71 56.02, 233.23 19.54 M173.88 88.78 C187.39 76.47, 202.18 59.38, 231.61 25.29 M176.51 90.89 C193.86 69.35, 213.46 47.4, 233.02 25.08 M180.84 89.97 C200.96 67.58, 221.91 46.74, 233.05 30.07 M181.26 90.78 C198.31 69.93, 215.6 49.51, 232.08 32.74 M186.96 90.18 C196.98 76.03, 207.3 65.61, 231.99 35.83 M186.93 91.12 C203.74 70.34, 220.15 51.12, 231.38 37.28 M191.72 92.16 C207.44 72.86, 222.02 53.36, 232.5 43.4 M191.39 91.18 C202 79.33, 213.03 65.98, 232.35 44.83 M196.78 88.48 C202.75 81.42, 213.54 73.4, 231.88 49.37 M196.86 91.06 C210.86 74.8, 224.1 60.22, 232.73 49.87 M201.3 92.01 C211.52 78.9, 223.28 66.74, 234.01 54.53 M201.81 90.01 C208.22 83.46, 215.51 76.17, 231.51 56.57 M205.78 92.29 C214.35 81.42, 221.06 73.83, 230.52 63.07 M208.51 89.66 C217.33 79.9, 226.16 69.65, 232.78 61.77 M211.36 90.04 C216.59 82.53, 224.13 77.67, 233.34 67.27 M212.95 90.36 C219.07 83.09, 225.34 75.54, 231.91 68.54 M219.61 89.54 C221.93 85.03, 229.79 80.74, 233.32 74.17 M218.29 90.43 C222.13 86.12, 225.04 83.68, 232.88 74.72 M223.68 89.59 C224.29 89.4, 228.47 86.77, 231.7 79.19 M223 90.51 C226.4 86.47, 229.75 83.06, 232.85 80.67 M228.93 90.12 C230.41 88.71, 231.76 87.66, 232.59 86.53 M229.1 90.35 C229.97 88.8, 231.49 87.25, 232.4 86.6" stroke="#82c91e" stroke-width="0.5" fill="none"></path><path d="M0.15 1.31 C52.35 2.32, 104.66 0.14, 229.44 1.31 M-0.53 -0.6 C62.77 0, 125.75 -0.11, 230.57 -0.66 M232.12 0.74 C230.26 19.04, 231.05 38.48, 230.13 88.08 M230.29 -0.82 C231.02 24.37, 231.62 47.77, 231.11 90.56 M231.42 88.64 C147.39 90.74, 64.15 92.27, -1.35 91.17 M230.1 89.26 C163.15 92.15, 94.84 92.6, -0.59 89.94 M0.46 89.27 C-0.96 66.05, 0.31 39.97, -0.63 1.49 M0.67 90.33 C-0.84 58.7, -0.56 28.43, 0.44 -0.27" stroke="#000000" stroke-width="1" fill="none"></path></g><g transform="translate(632.3342278872387 81.136910225993) rotate(0 92.50000000000011 12.5)"><text x="0" y="17.000000000000046" font-family="Virgil, Segoe UI Emoji" font-size="20.438008275074964px" fill="#000000" text-anchor="start" style="white-space: pre;" direction="ltr">DNSmasq exporter</text></g><g stroke-linecap="round"><g transform="translate(501.4022732942444 91.57648661489611) rotate(0 52.55034062618222 0.4754062150848313)"><path d="M1.15 1.17 C18.07 1.03, 85.57 -0.03, 102.41 -0.22 M0.29 0.74 C17.55 0.68, 87.42 0.86, 104.81 0.92" stroke="#000000" stroke-width="1" fill="none"></path></g><g transform="translate(501.4022732942444 91.57648661489611) rotate(0 52.55034062618222 0.4754062150848313)"><path d="M31.14 -10.45 C17.61 -6.61, 7.69 -1.3, 0.52 -0.82 M29.71 -10.04 C22.18 -6.46, 16.86 -4.35, 1.43 1.91" stroke="#000000" stroke-width="1" fill="none"></path></g><g transform="translate(501.4022732942444 91.57648661489611) rotate(0 52.55034062618222 0.4754062150848313)"><path d="M31.42 10.07 C17.69 6.33, 7.66 4.07, 0.52 -0.82 M29.99 10.48 C22.46 9.45, 17.08 6.94, 1.43 1.91" stroke="#000000" stroke-width="1" fill="none"></path></g><g transform="translate(501.4022732942444 91.57648661489611) rotate(0 52.55034062618222 0.4754062150848313)"><path d="M78.54 10.13 C85.68 5.74, 96.53 3.36, 104.19 -1.07 M77.11 10.54 C82.3 9.63, 89.63 7.06, 105.1 1.66" stroke="#000000" stroke-width="1" fill="none"></path></g><g transform="translate(501.4022732942444 91.57648661489611) rotate(0 52.55034062618222 0.4754062150848313)"><path d="M78.6 -10.39 C85.82 -7.21, 96.64 -2.01, 104.19 -1.07 M77.17 -9.98 C82.27 -6.27, 89.59 -4.24, 105.1 1.66" stroke="#000000" stroke-width="1" fill="none"></path></g></g><g stroke-linecap="round" transform="translate(36.58518035005227 393.8578404585519) rotate(0 89.80620155038753 35)"><path d="M0 0 C0 0, 0 0, 0 0 M0 0 C0 0, 0 0, 0 0 M-1.06 6.52 C2.04 4.38, 2.32 2.46, 4.21 0.32 M-0.22 6.13 C1.45 4.36, 3.42 2.27, 5.36 0.42 M1.18 12.68 C3.39 7.59, 6.98 4.57, 10.27 0.08 M-0.15 12.15 C3.7 6.96, 7.59 3.26, 11.19 -0.54 M-0.96 18.94 C3.18 13.37, 10.25 7.91, 15.94 0.64 M-0.34 19.03 C3.89 14.92, 7.72 9.73, 16.09 -0.37 M-0.66 23.9 C8.29 17.23, 14.76 9.39, 20.3 -1.53 M-0.59 24.37 C7.89 14.68, 16.43 4.56, 21.94 -0.48 M-0.06 29.3 C5.22 22.07, 13.05 15.98, 27.9 -0.03 M0.41 29.95 C9.08 20.33, 18.62 10, 26.62 0.69 M-1.76 38.74 C6.46 27.67, 13.87 20.99, 33.81 1.81 M-0.68 37.11 C9.4 26.05, 18.51 14.91, 31.35 0.69 M1.89 42.64 C10.85 28.51, 23.58 18.46, 36.66 1.58 M0.48 43.25 C9.45 30.87, 19.73 20.46, 36.9 0.1 M1.29 49.06 C15.21 32.29, 27.44 16.16, 44.35 -1.72 M-0.86 49.35 C16.56 30.52, 32.08 13.67, 43.09 0.73 M-1.36 52.99 C17.78 36.22, 31.7 16.97, 47.27 -1.04 M0.36 54.86 C10.62 42.76, 20.59 31.79, 46.87 0.93 M1.05 58.96 C16.04 40, 32.95 23.63, 51.93 -0.8 M-0.92 61 C14.6 44.87, 29.33 29.39, 53.79 -0.32 M1.66 66.3 C15.47 50.96, 30.97 32.66, 58.17 1.75 M-1.05 67.65 C16.24 49.44, 31.74 30.37, 58.07 -0.07 M1.36 70.46 C24.47 43.13, 49.67 16.95, 64.86 1.03 M0.95 71.36 C21.72 46.6, 42.56 22.03, 64.13 0.74 M7.95 71.1 C21.77 55.58, 35.83 41.04, 67.09 1.75 M6.4 71.07 C29.89 43.52, 54 17.11, 68.61 0.55 M11.98 72.17 C32.87 50.93, 52.39 27.29, 73.84 -0.6 M11.66 70.87 C29.83 51.17, 46.81 33.66, 73.9 -0.68 M19.7 70.17 C34.68 51.98, 52.72 32.98, 81.16 -1.09 M16.85 71.87 C42.42 43.68, 65.88 17.29, 80.18 -0.14 M22.94 72.48 C40.45 53.48, 55.88 33.87, 85.88 -0.9 M22.64 71.25 C36.7 56.22, 50.32 40.44, 84.94 -0.04 M28.8 69.94 C44 54.3, 60.29 33.65, 90.8 -0.66 M27.78 70.43 C50.24 46.99, 70.88 23.06, 89.04 -0.36 M32.82 71.38 C56.65 47.4, 75.66 20.3, 94.35 0.05 M33.11 72.33 C54.72 46.95, 74.89 23.77, 96.19 -0.61 M40.73 72.22 C54.16 57.39, 63.85 38.64, 99.81 1.3 M39.08 71.55 C52.74 54.11, 67.03 39.52, 101.03 -0.66 M45.54 73.02 C69.47 41.33, 92.64 14.13, 104.97 -0.65 M43.84 71.62 C56.89 56.72, 69.29 41.9, 106.64 -0.48 M48.66 72.75 C72.2 46.12, 94.37 17.04, 111.32 1.23 M48.04 71.95 C63.37 54.55, 79.44 37.58, 110.58 -0.93 M56.34 71.68 C69.59 52.68, 83.73 38.3, 117.12 2.02 M54.19 71.29 C79.29 42.91, 102.84 14.57, 115.74 1.18 M58.11 72.13 C71.67 56.32, 87.65 41.55, 121.81 -0.3 M58.98 72.25 C77.69 51.79, 94.96 31.16, 121.69 0.6 M65.83 69.82 C80.66 53, 95.89 35.94, 128.52 -0.06 M65.11 71.19 C86.38 47.37, 106.97 22.76, 126.96 0.1 M68.92 70.41 C96.86 43.37, 119.83 15.91, 131.1 -0.57 M70.36 72.52 C88.77 49.93, 106.91 29.63, 132.93 0.4 M73.96 72.05 C99.64 43.67, 125.49 15.77, 137.26 -1.56 M76.1 71.84 C91.16 53.45, 106.16 35.39, 136.88 0.45 M79.96 70.01 C91.79 58.86, 103.97 43.52, 144.34 -0.66 M80.35 72.24 C100.38 49.42, 119.91 27.01, 142.47 0.6 M86.01 71.14 C106.56 49.63, 123.12 29.49, 146.42 -0.77 M86.26 71.43 C109.71 45.01, 131.71 17.47, 148.83 0.83 M90.45 70.54 C110.68 50.05, 124.94 29.06, 154.06 0.45 M91.21 72.05 C104.6 54.6, 119.07 38.79, 153.04 -0.01 M98.61 70.01 C110.45 53.83, 126.91 34.67, 157.43 -0.81 M97.27 70.82 C119.21 45.87, 140.53 21.38, 159.2 0 M101.95 70.74 C125.31 45.83, 147.5 17.41, 166.09 -0.02 M102.28 70.79 C126.08 44.59, 149.75 16.66, 164.94 -0.95 M109.75 71.74 C123.35 56.24, 136.96 37.66, 168.07 0.34 M108.37 70.55 C126.1 48.93, 145.09 27.9, 168.47 -0.11 M112.34 70.52 C133.46 48.27, 153.2 26.3, 173.63 1.28 M112.97 72.45 C136.4 43.65, 160.98 16.1, 175.08 -1.07 M116.74 69.57 C131.92 53.72, 149.47 36.14, 178.44 -0.11 M119.38 71.82 C136.7 52.18, 153.21 31.78, 180.2 0.6 M121.87 72.95 C139.69 55.88, 153.82 36.27, 181.32 6.67 M123.78 71.2 C145.44 46.15, 165.59 22.62, 180.01 7.23 M130.24 72.87 C149.25 49.2, 166.87 29.63, 178.52 12.25 M129.73 71.52 C139.86 58.63, 150.29 45.25, 179.52 11.48 M135.13 70.24 C147.26 54.81, 163.64 39.96, 180.36 20.3 M133.27 72.37 C146.21 57.61, 158.24 43.27, 180.1 17.93 M140.26 69.21 C152.32 58.46, 164.96 43.37, 180.94 23.59 M139.39 71.19 C149.06 60.2, 158.38 49.29, 178.98 24.68 M143.04 69.77 C158.57 56.72, 172.63 40.16, 178.55 30.73 M145.1 71.49 C156.38 58.23, 165.32 46.35, 180.56 30.9 M150.16 70.29 C158.48 60.06, 166.82 50.57, 178.17 35.07 M149.93 70.06 C157.5 62.7, 165.63 52.08, 180.69 37.29 M156.88 72.08 C163.13 62.42, 174.68 48.07, 178.48 41.93 M154.99 71.22 C164.16 60.42, 173.39 51.98, 180.6 41.98 M161.97 70.71 C168.08 63.65, 174.4 57.62, 179.05 49.25 M160.83 70.77 C166.41 64.82, 172.15 58.66, 179.86 48.86 M166.26 72.84 C168.77 67.48, 171.69 63.24, 179.39 54.81 M165.74 70.43 C169.75 67.76, 172.81 65.07, 180.33 55.43 M169.6 71.2 C175.28 67.9, 175.62 64.99, 181 61.11 M171.04 71.48 C173.5 68.98, 176.6 65.34, 180.32 61.29 M176.68 71.7 C177.32 70.25, 178.97 68.33, 179.32 67.18 M176.45 71.26 C177.57 70.08, 178.24 69.17, 179.96 67.62" stroke="#4c6ef5" stroke-width="0.5" fill="none"></path><path d="M-0.4 0.18 C64.32 0.19, 126.59 0.9, 177.68 -1.43 M-0.7 0.79 C37.44 1.94, 73.22 0.94, 178.93 -0.47 M178.12 0.47 C180.08 24.3, 178.56 51.55, 180.16 71.43 M179.96 0.48 C180.09 26.24, 178.53 53.18, 179.98 69.35 M179.68 71.79 C136.84 69.78, 95.19 68.42, -0.15 71.42 M178.71 70.68 C142.71 69.41, 107.86 69.06, 0.36 69.28 M1.37 70.47 C0.7 56.48, 1.47 40.32, -1.52 -0.71 M0.04 69.1 C1.16 48.25, -0.01 27.99, -0.03 0.18" stroke="#000000" stroke-width="1" fill="none"></path></g><g transform="translate(75.87760067736099 415.72304287026486) rotate(0 56.60869565217388 15.5)"><text x="0" y="21.999999999999975" font-family="Virgil, Segoe UI Emoji" font-size="24.853407937207027px" fill="#000000" text-anchor="start" style="white-space: pre;" direction="ltr">DNSMasq</text></g><g stroke-linecap="round"><g transform="translate(339.01588032666723 399.5061879354008) rotate(0 54.31442638168153 42.24925395660409)"><path d="M0.49 0.47 C0.42 10.61, -0.28 48.26, 0.08 59.97 C0.45 71.67, 1.24 67.31, 2.69 70.7 C4.14 74.1, 6.42 78.01, 8.79 80.35 C11.16 82.68, 13.75 84.21, 16.91 84.71 C20.07 85.21, 17.13 83.32, 27.76 83.36 C38.4 83.41, 69.56 85.14, 80.72 84.97 C91.88 84.81, 91.03 83.44, 94.74 82.36 C98.46 81.29, 100.82 80.52, 103 78.52 C105.19 76.52, 106.9 73.82, 107.85 70.37 C108.79 66.91, 108.56 69.79, 108.7 57.79 C108.84 45.8, 109.01 8, 108.68 -1.61 M-0.71 -0.13 C-0.97 9.68, -1.27 46.08, -0.82 58.01 C-0.36 69.94, 0.33 68.05, 2.03 71.44 C3.72 74.83, 6.59 76.03, 9.35 78.37 C12.11 80.71, 15.39 84.3, 18.6 85.49 C21.82 86.69, 18.27 85.81, 28.65 85.54 C39.03 85.28, 69.96 83.97, 80.89 83.9 C91.83 83.83, 90.73 86.23, 94.23 85.1 C97.73 83.98, 99.43 79.59, 101.88 77.15 C104.34 74.71, 107.74 73.5, 108.97 70.47 C110.21 67.44, 109.5 70.53, 109.31 58.97 C109.11 47.41, 108.29 10.98, 107.81 1.12" stroke="#000000" stroke-width="1" fill="none"></path></g></g><g stroke-linecap="round"><g transform="translate(370.09071435117994 410.3298759242997) rotate(0 23.323432953028032 7.494987289785968)"><path d="M-6.99 -0.52 C2.27 -0.63, 36.39 -1.21, 47.25 -0.79 C58.1 -0.38, 55.98 -0.24, 58.13 1.98 C60.28 4.2, 61.55 10.19, 60.13 12.54 C58.72 14.88, 60.07 15.54, 49.66 16.05 C39.25 16.55, 7.96 16.04, -2.33 15.57 C-12.62 15.11, -10.12 15.17, -12.08 13.27 C-14.05 11.38, -14.81 6.42, -14.1 4.22 C-13.39 2.02, -9.04 0.8, -7.82 0.08 M-8 -1.52 C1.17 -2.06, 35.06 -3.05, 46.46 -2.81 C57.87 -2.56, 58.64 -2.7, 60.44 -0.04 C62.25 2.61, 59.28 10.49, 57.3 13.14 C55.32 15.8, 58.36 15.15, 48.59 15.91 C38.81 16.67, 8.6 18.3, -1.36 17.73 C-11.32 17.15, -9.39 14.66, -11.17 12.44 C-12.95 10.23, -12.33 6.66, -12.05 4.43 C-11.76 2.2, -9.97 -0.16, -9.48 -0.94" stroke="#000000" stroke-width="1" fill="none"></path></g></g><g stroke-linecap="round"><g transform="translate(363.94137721752213 445.9058806410949) rotate(0 29.816202821836555 -61.529954333860246)"><path d="M-24.64 -45.82 C-14.67 -46.08, 15.81 -46.74, 35.61 -46.85 C55.4 -46.95, 83.36 -43.98, 94.14 -46.43 C104.93 -48.87, 100.27 -56.67, 100.33 -61.51 C100.4 -66.35, 99.67 -73.15, 94.52 -75.46 C89.37 -77.77, 87.26 -75.03, 69.44 -75.39 C51.61 -75.74, 5.07 -77.78, -12.44 -77.6 C-29.94 -77.42, -30.93 -77.27, -35.58 -74.3 C-40.23 -71.33, -40.23 -64.14, -40.31 -59.78 C-40.4 -55.42, -38.85 -50.26, -36.08 -48.15 C-33.32 -46.04, -25.43 -47.59, -23.7 -47.12 M-26.06 -46.7 C-16.27 -46.93, 14.81 -45.64, 34.77 -45.89 C54.72 -46.14, 82.81 -45.23, 93.69 -48.19 C104.58 -51.16, 99.67 -59.12, 100.08 -63.68 C100.5 -68.23, 101.13 -73.43, 96.18 -75.51 C91.23 -77.59, 88.9 -76.09, 70.38 -76.15 C51.86 -76.21, 2.8 -76.12, -14.94 -75.87 C-32.68 -75.61, -31.61 -77.17, -36.05 -74.63 C-40.5 -72.09, -41.79 -64.98, -41.62 -60.61 C-41.45 -56.24, -37.55 -50.73, -35.03 -48.4 C-32.51 -46.08, -28.35 -47.16, -26.5 -46.65" stroke="#000000" stroke-width="1" fill="none"></path></g></g><g transform="translate(362.356211198628 439.39258155552466) rotate(0 32.11084632212771 10.034639475664903)"><text x="0" y="14.06927895132981" font-family="Virgil, Segoe UI Emoji" font-size="16.055423161063853px" fill="#000000" text-anchor="start" style="white-space: pre;" direction="ltr">/tmp/log</text></g><g stroke-linecap="round" transform="translate(601.830386348473 378.18981305758143) rotate(0 113.55813953488371 40.5)"><path d="M0 0 C0 0, 0 0, 0 0 M0 0 C0 0, 0 0, 0 0 M0.46 7.05 C1.41 4.53, 3.99 1.66, 5 -0.32 M-0.08 6.27 C1.3 4.33, 2.47 2.75, 4.7 0.39 M-0.82 11.13 C2.58 9.9, 6.28 6.37, 11.99 -0.68 M0.88 12.36 C3.71 8.59, 6.63 4.42, 10.08 0.06 M-1.96 18.68 C6.71 13.08, 10.94 8.3, 14.2 -1.21 M0.02 18.61 C3.16 14.76, 6.26 9.24, 15.29 1.08 M-1.36 24.93 C8.12 17.45, 14.16 5.9, 21.34 -0.12 M0.35 25.03 C4.25 17.64, 9.44 13.1, 21.51 -0.18 M-0.72 30.26 C7.65 19.99, 16.76 8.69, 24.27 -0.29 M-0.95 29.88 C10.18 19.43, 18.04 10.13, 26.49 1.06 M0.45 35.47 C12.78 24.62, 20.33 9.43, 31.13 0.97 M-0.4 37.11 C10.41 24.49, 23.51 11.15, 31.19 0.07 M-0.88 44.24 C12.94 28.47, 27.6 10.26, 37.04 0.18 M-0.82 43 C13.24 27.16, 27.29 11.17, 36.65 0 M1.38 47.89 C10.11 35.83, 19.88 26.34, 41.84 -1.87 M-1.02 49.7 C8.55 39.49, 18.27 28.85, 42.47 0.11 M-0.43 56.44 C8.9 42.1, 19.2 34.36, 47.48 0.3 M-0.04 54.2 C11.89 42.22, 21.97 30.21, 47.74 1.09 M1.61 59.17 C20.56 38.84, 37.56 15.51, 51.77 -0.64 M-0.14 61.68 C20.4 36.59, 42.05 13.19, 53.54 -0.71 M0.15 67.74 C18.03 44.94, 39.23 22.16, 57.72 -0.48 M-1.02 66.51 C22.94 40.05, 45.2 14.24, 57.9 0.08 M1.15 72.89 C22.8 47.31, 43.47 23.28, 63.37 -0.97 M0.45 73.77 C16.26 55.53, 33.79 35.07, 64.25 0.05 M-1.51 79.14 C20.84 55.64, 41.84 27.9, 67.04 -1.38 M-0.54 79.8 C20.68 55.27, 42.66 29.77, 68.43 0.33 M3.11 83.69 C17.11 63.88, 35.55 45.16, 73.24 -0.13 M2.08 81.97 C29.38 48.53, 58.95 16.56, 75.12 -1.12 M7.65 81.92 C34.67 51.01, 59.62 21.23, 77.88 1.74 M6.55 83.96 C32.65 52.52, 59.08 22.47, 78.82 -0.25 M14.38 84.28 C28 63.18, 44.28 45.05, 86.16 -1.08 M12.85 83.6 C39.92 50.03, 67.96 19.56, 84.33 -0.63 M18.33 81.78 C43.83 53.55, 67.19 29.37, 89.83 -1.66 M18.55 84.05 C42.35 55.77, 66.39 27.04, 89.71 -0.15 M23.88 82.08 C50.3 50.27, 78.06 19.43, 97.04 1.57 M22.96 82.91 C38.66 64.2, 54.64 45.75, 94.75 -0.8 M28.04 84.03 C44.92 66.86, 58.35 48.59, 101.64 1.26 M29.12 82.45 C49.74 58.26, 72.47 30.85, 99.93 0.7 M32.26 82.03 C59.13 52.07, 89.53 18.76, 104.98 -0.42 M33.28 82.91 C55.5 56.59, 78.07 32.53, 106.91 -0.9 M37.75 84.53 C64.91 53.37, 93.33 21.57, 113.22 0.66 M38.85 82.82 C66.83 51.43, 93.27 19.48, 111.48 -0.04 M45.28 82.42 C65.77 59.81, 88.81 32.52, 114.53 1.78 M43.88 82.2 C63.71 59.89, 81.46 37.76, 115.37 0.64 M50.55 83.5 C74.9 53.21, 99.77 26.98, 123.63 -1.96 M49.02 82.93 C73.57 55.59, 98.12 27.13, 122.52 -0.13 M55.9 80.88 C76.11 61.6, 93.05 37.82, 128.42 1.09 M54.99 81.95 C75.56 58.63, 96.28 33.76, 126.31 0.23 M61.71 83.48 C78.88 62.2, 97.75 40.91, 133.1 0.25 M60.55 83.62 C75.4 67.2, 91.34 48.42, 132.4 0.23 M66.19 84.39 C95.49 53.08, 118.81 19.86, 137.52 1.04 M66 82.91 C84.03 62.43, 102.07 42.31, 136.64 0.58 M72.67 83.37 C95.48 54.5, 117.43 29.12, 144.99 1.5 M71.08 83.79 C93.39 56.93, 115.56 32.1, 142.62 -0.56 M77.42 83.26 C106.19 51.04, 130.98 17.08, 149.55 -1.26 M76.5 82.41 C98.82 54.52, 123.39 26.66, 147.56 0.75 M80.99 84.42 C97.59 66.46, 112.21 44.87, 151.83 1.31 M81.88 83.45 C106.7 53.79, 133.3 23.95, 153.86 -0.53 M87.99 81.16 C104.95 61.91, 123.91 40.77, 158.36 -0.34 M87.22 83.36 C103.26 64.07, 118.16 46.11, 158.99 -0.12 M90.41 84.21 C118.69 56.1, 142.82 24.61, 165.33 -1.43 M92.9 82.67 C119.74 51.54, 149.02 18.41, 164.99 -1.14 M98.8 81.86 C121.97 53.95, 146.03 26.43, 169.97 -0.4 M96.44 83.99 C120.1 56.28, 142.6 30.89, 168.47 0.18 M104.83 82.67 C121.49 63.07, 141.69 40.38, 174.31 1.51 M103.78 82.58 C120.26 62.74, 139.15 42.22, 176.03 -0.26 M105.89 84.19 C126.04 62.19, 143.05 42.62, 180.55 -1.29 M107.54 83.86 C131.09 56.03, 154.77 28.19, 180.26 -0.07 M114.28 84.08 C137.26 59.3, 156.6 33.97, 186.79 1.69 M112.82 82.42 C133.33 60.43, 154.62 35.9, 185.19 -1.18 M118.48 84.6 C143.37 52.1, 172.1 20.94, 190.43 -0.53 M118.15 83.36 C138.82 58.85, 160.21 35.23, 190.26 0.51 M124.98 83.04 C150.64 47.68, 180.09 18.91, 195.91 0.03 M123.99 82.5 C142.48 62.24, 160.56 41.25, 195.82 0.37 M127.6 84.14 C152.81 57.39, 177.67 27.54, 202.09 0.74 M129.68 83.71 C150.34 58.66, 171.44 34.52, 201.05 -0.65 M133.28 82.53 C163.51 51.55, 186.93 21.04, 206 0.79 M133.93 83.19 C150.52 64.84, 166.07 47.06, 207.47 -0.75 M139.43 83.18 C156.05 65.9, 171.81 48.93, 210.18 -0.33 M139.75 82.72 C167.91 51.46, 197.7 17.61, 212.89 1 M143.7 83.84 C166.4 56.19, 191.22 31.15, 218.51 1.57 M144.96 81.96 C163.64 61.72, 180.73 41.75, 216.86 -0.09 M149.32 83.45 C167.08 64.41, 181.92 45.65, 223.5 1.81 M151.14 83.74 C174.58 56.84, 196.77 29.6, 222.69 0.03 M154.91 84.62 C185.21 49.94, 213.67 18.58, 229.43 0.06 M156.07 82.34 C178.21 56.28, 203.92 27.1, 228.22 0.11 M159.78 82.03 C180.94 62.41, 197.82 39.49, 229.08 5.8 M160.78 82.75 C182.63 56.88, 204.49 33.42, 227.17 6.93 M165.74 80.87 C179.53 68.24, 192.3 54.69, 227.34 13.13 M165.92 82.96 C181.65 64.83, 198.69 45.55, 228.42 13.01 M170.45 81.31 C187.56 68.25, 199.42 51.88, 227.36 18.35 M170.81 83.27 C190.46 59.13, 210.61 37.21, 226.89 17.95 M177.18 80.91 C192.11 66.47, 203.29 49.56, 227.03 23.08 M177.84 82.51 C192.59 63.08, 209.78 44.44, 227.54 24.46 M184.16 83.07 C192.22 70.25, 203.48 55.86, 226.2 32.72 M181.51 83.4 C195.95 67.5, 207.7 53.93, 227.39 30.64 M186.36 83.44 C198.96 69.68, 210.79 52.66, 225.92 37.64 M188.83 82.76 C197.03 72.28, 205.06 62.71, 226.31 37.98 M192.86 82.4 C199.99 74.7, 206.74 64.54, 227.01 43.83 M192.35 82.85 C203.21 71.55, 211.3 61.61, 228.28 41.91 M196.59 83.47 C208.64 69.73, 219.67 56.96, 226.6 49.63 M198.58 81.57 C209.61 70.9, 219.23 57.28, 227.62 49.37 M203.69 81.75 C212.53 72.97, 220.08 64.97, 227.37 56.9 M202.97 83.86 C212.77 71.54, 222.75 60.69, 226.85 55.76 M206.66 83.12 C216.54 73.97, 222.88 66.49, 226.8 59.46 M207.76 82.62 C216.07 75.03, 222.32 67.32, 227.58 62.3 M212.93 80.91 C217.61 80.18, 222.14 76.27, 226.36 66.28 M214.17 82.29 C218.31 80.07, 221.08 75.22, 226.39 67.01 M219.38 82.81 C221.95 81.45, 222.82 79.19, 227.96 73.88 M219.52 83.33 C221 81.13, 223.19 79.34, 227.3 73.95 M224.66 82.85 C225.31 82.2, 225.96 81.62, 227.79 79.51 M224.84 82.76 C225.71 81.69, 226.46 80.83, 227.53 79.69" stroke="#82c91e" stroke-width="0.5" fill="none"></path><path d="M-0.68 0.65 C88.41 0.08, 174.17 1.57, 227.23 1.35 M-0.64 0.23 C65.68 -0.04, 130.82 0.11, 226.44 -0.56 M227.71 1.15 C227.63 24.64, 225.68 47.33, 227.26 81.05 M226.52 -0.25 C225.92 25.05, 226.35 48.96, 226.8 81.21 M226.28 82.14 C138.38 81.5, 50.88 79.38, 1.26 82.57 M227.93 80.28 C161.65 80.87, 96.65 81.45, -0.75 80.51 M-1.54 79.87 C-0.19 54.7, -0.55 23.88, -0.28 -0.48 M0.71 81.87 C0.8 61.76, -0.01 41.96, 0.43 -0.29" stroke="#000000" stroke-width="1" fill="none"></path></g><g transform="translate(628.4815491391769 405.72469677851063) rotate(0 89.77083333333337 15.5)"><text x="0" y="22.000000000000025" font-family="Virgil, Segoe UI Emoji" font-size="25.343130261092927px" fill="#000000" text-anchor="start" style="white-space: pre;" direction="ltr">AWK processor</text></g><g stroke-linecap="round"><g stroke-opacity="0.8" fill-opacity="0.8" transform="translate(218.7808230320611 430.46394507090235) rotate(0 57.65841915867293 1.542291527334612)"><path d="M-0.2 0.72 C19.22 1.14, 97.64 1.42, 117.08 1.67 M-1.77 0.06 C17.46 0.72, 96.65 2.43, 116.18 3.03" stroke="#000000" stroke-width="1" fill="none"></path></g><g stroke-opacity="0.8" fill-opacity="0.8" transform="translate(218.7808230320611 430.46394507090235) rotate(0 57.65841915867293 1.542291527334612)"><path d="M88.94 12.7 C97.09 8.43, 107.84 5.57, 116.59 3.9 M86.88 12.47 C96.82 10.23, 104.63 5.53, 115.66 3.38" stroke="#000000" stroke-width="1" fill="none"></path></g><g stroke-opacity="0.8" fill-opacity="0.8" transform="translate(218.7808230320611 430.46394507090235) rotate(0 57.65841915867293 1.542291527334612)"><path d="M89.47 -7.81 C97.28 -4.99, 107.85 -0.76, 116.59 3.9 M87.4 -8.04 C97.11 -3.94, 104.76 -2.3, 115.66 3.38" stroke="#000000" stroke-width="1" fill="none"></path></g></g><g stroke-linecap="round"><g stroke-opacity="0.8" fill-opacity="0.8" transform="translate(722.7808230320611 373.46394507090235) rotate(0 -0.6159376451745402 -20.481162350103205)"><path d="M-1.17 -0.58 C-1.3 -7.35, -0.46 -34.13, -0.46 -40.76 M0.42 1.73 C0.06 -5.41, -1.77 -35.35, -1.65 -42.7" stroke="#000000" stroke-width="1" fill="none"></path></g><g stroke-opacity="0.8" fill-opacity="0.8" transform="translate(722.7808230320611 373.46394507090235) rotate(0 -0.6159376451745402 -20.481162350103205)"><path d="M4.96 -24.34 C4.07 -31.82, 2.23 -36.08, -0.51 -43.76 M6.12 -23.69 C5.12 -26.69, 2.38 -30.51, -1.56 -42.7" stroke="#000000" stroke-width="1" fill="none"></path></g><g stroke-opacity="0.8" fill-opacity="0.8" transform="translate(722.7808230320611 373.46394507090235) rotate(0 -0.6159376451745402 -20.481162350103205)"><path d="M-9.1 -23.95 C-5.38 -31.42, -2.6 -35.8, -0.51 -43.76 M-7.94 -23.29 C-6.02 -26.4, -5.84 -30.3, -1.56 -42.7" stroke="#000000" stroke-width="1" fill="none"></path></g></g><g stroke-linecap="round"><g stroke-opacity="0.8" fill-opacity="0.8" transform="translate(717.7808230320611 147.46394507090235) rotate(0 0.5418731184001899 22.887925010360732)"><path d="M0.88 -1.08 C1.04 6.59, 1.38 39.01, 1.07 46.85 M-0.11 0.97 C-0.04 8.24, 0.43 37.48, 0.68 45.22" stroke="#000000" stroke-width="1" fill="none"></path></g><g stroke-opacity="0.8" fill-opacity="0.8" transform="translate(717.7808230320611 147.46394507090235) rotate(0 0.5418731184001899 22.887925010360732)"><path d="M-9.46 25.6 C-3.36 28.78, -2.16 35.59, 0.74 47.14 M-7.35 24.08 C-5.83 29.25, -2.58 35.03, 1.33 45.61" stroke="#000000" stroke-width="1" fill="none"></path></g><g stroke-opacity="0.8" fill-opacity="0.8" transform="translate(717.7808230320611 147.46394507090235) rotate(0 0.5418731184001899 22.887925010360732)"><path d="M6.24 25.24 C7.43 28.65, 3.72 35.58, 0.74 47.14 M8.36 23.73 C5.53 29.11, 4.45 34.99, 1.33 45.61" stroke="#000000" stroke-width="1" fill="none"></path></g></g><g stroke-linecap="round"><g stroke-opacity="0.8" fill-opacity="0.8" transform="translate(596.7808230320611 425.46394507090235) rotate(0 -75.2359032798372 6.172778977509552)"><path d="M0.9 -1.04 C-24.31 0.88, -124.93 9.78, -150.28 11.9 M-0.09 1.02 C-25.57 3.11, -126.56 11.42, -151.37 13.39" stroke="#000000" stroke-width="1" fill="none"></path></g><g stroke-opacity="0.8" fill-opacity="0.8" transform="translate(596.7808230320611 425.46394507090235) rotate(0 -75.2359032798372 6.172778977509552)"><path d="M-125.84 0.42 C-134.65 3.87, -145.42 8.9, -150.16 14.82 M-124.98 0.82 C-134.11 5.42, -142.61 10.01, -150.68 12.52" stroke="#000000" stroke-width="1" fill="none"></path></g><g stroke-opacity="0.8" fill-opacity="0.8" transform="translate(596.7808230320611 425.46394507090235) rotate(0 -75.2359032798372 6.172778977509552)"><path d="M-124.18 20.87 C-133.69 16.52, -145.09 13.73, -150.16 14.82 M-123.32 21.27 C-132.96 18.66, -142.04 16.03, -150.68 12.52" stroke="#000000" stroke-width="1" fill="none"></path></g></g><g stroke-linecap="round"><g transform="translate(651.5197780073604 230.24589553287547) rotate(0 63.54867649904713 50.27533664850705)"><path d="M0.11 0.41 C0.26 12.67, -0.02 58.61, 0.33 72.69 C0.69 86.77, 0.62 81.31, 2.26 84.89 C3.91 88.47, 7.06 91.4, 10.22 94.18 C13.38 96.95, 17.19 100.33, 21.21 101.53 C25.24 102.73, 21.63 101.3, 34.38 101.37 C47.12 101.43, 84.92 102.27, 97.68 101.92 C110.44 101.57, 106.81 100.7, 110.93 99.27 C115.05 97.84, 119.8 96.02, 122.4 93.34 C125.01 90.66, 125.56 87.09, 126.55 83.21 C127.53 79.32, 128.05 84.02, 128.31 70.02 C128.57 56.03, 128.06 10.76, 128.13 -0.77 M-1.29 -0.45 C-1.23 11.59, -0.84 56.82, -0.44 71.16 C-0.03 85.51, -0.72 81.65, 1.13 85.61 C2.99 89.57, 7.62 92.7, 10.72 94.9 C13.81 97.1, 15.52 97.85, 19.71 98.8 C23.9 99.75, 22.7 100.26, 35.84 100.62 C48.99 100.99, 85.68 101.35, 98.57 101.01 C111.45 100.67, 109.39 99.55, 113.17 98.59 C116.95 97.64, 118.98 97.89, 121.24 95.27 C123.5 92.64, 125.55 87.38, 126.74 82.83 C127.93 78.27, 128.38 81.99, 128.36 67.94 C128.35 53.89, 126.52 9.76, 126.66 -1.46" stroke="#000000" stroke-width="1" fill="none"></path></g></g><g stroke-linecap="round"><g transform="translate(678.2160891633737 242.94496697313036) rotate(0 37.977215835453876 10.287860399816907)"><path d="M1.35 0.41 C12.57 0.2, 54.3 -1.51, 67.36 -1.09 C80.43 -0.67, 77.65 -0.07, 79.74 2.91 C81.84 5.89, 81.62 13.75, 79.93 16.8 C78.24 19.85, 81.42 20.54, 69.62 21.22 C57.81 21.9, 21.36 21.96, 9.11 20.87 C-3.13 19.78, -1.38 17.24, -3.86 14.68 C-6.35 12.13, -6.5 8.15, -5.8 5.53 C-5.11 2.91, -0.84 -0.03, 0.32 -1.02 M0.08 -0.46 C11.32 -0.54, 53.35 -0.13, 67.01 0.09 C80.67 0.3, 79.91 -2.15, 82.04 0.82 C84.17 3.78, 82.02 14.39, 79.8 17.87 C77.57 21.34, 80.79 21.29, 68.68 21.66 C56.58 22.03, 19.68 20.92, 7.16 20.08 C-5.36 19.23, -4.67 19, -6.45 16.6 C-8.23 14.2, -4.91 8.35, -3.51 5.7 C-2.11 3.04, 1.04 1.82, 1.96 0.68" stroke="#000000" stroke-width="1" fill="none"></path></g></g><g stroke-linecap="round"><g transform="translate(648.6808763346544 225.33063887249193) rotate(0 68.18906910009332 -12.045756281277647)"><path d="M3.45 6.94 C15.25 6.77, 50.54 5.72, 74.04 5.14 C97.55 4.55, 131.28 6.35, 144.47 3.43 C157.65 0.51, 152.82 -7.21, 153.15 -12.38 C153.48 -17.54, 152.52 -24.81, 146.46 -27.55 C140.4 -30.29, 138.58 -28.25, 116.8 -28.83 C95.03 -29.4, 36.98 -31.07, 15.83 -31.01 C-5.32 -30.94, -4.58 -31.67, -10.11 -28.43 C-15.64 -25.19, -17.12 -16.98, -17.37 -11.55 C-17.61 -6.13, -14.98 1.29, -11.59 4.1 C-8.19 6.91, 0.47 4.82, 3 5.29 M2.16 6.49 C14.35 6.39, 52.76 6.43, 76.39 6.08 C100.02 5.72, 131.12 7.78, 143.95 4.37 C156.78 0.96, 153.18 -9.19, 153.36 -14.4 C153.55 -19.6, 151.47 -24.36, 145.04 -26.87 C138.62 -29.37, 136.3 -29.08, 114.8 -29.44 C93.31 -29.8, 36.98 -29.08, 16.07 -29.03 C-4.83 -28.98, -5.29 -31.82, -10.63 -29.12 C-15.97 -26.43, -15.88 -18.43, -15.96 -12.87 C-16.03 -7.31, -14.29 1.1, -11.09 4.24 C-7.89 7.38, 1.01 5.53, 3.26 6" stroke="#000000" stroke-width="1" fill="none"></path></g></g><g transform="translate(654.8236544464398 267.974105437072) rotate(0 60.5 10)"><text x="0" y="14" font-family="Virgil, Segoe UI Emoji" font-size="16.055423161063853px" fill="#000000" text-anchor="start" style="white-space: pre;" direction="ltr">/tmp/log.parsed</text></g></svg>
