<svg version="1.1" xmlns="http://www.w3.org/2000/svg" viewBox="0 0 936.9466654182397 515.1898130575814" width="936.9466654182397" height="515.1898130575814">
  <!-- svg-source:excalidraw -->

  <defs>
    <style>
      @font-face {
        font-family: "Virgil";
        src: url("https://excalidraw.com/Virgil.woff2");
      }
      @font-face {
        font-family: "Cascadia";
        src: url("https://excalidraw.com/Cascadia.woff2");
      }
    </style>
  </defs>
  <rect x="0" y="0" width="936.9466654182397" height="515.1898130575814" fill="#ffffff"></rect><g stroke-linecap="round" transform="translate(10 10) rotate(0 94.27799479166652 94.27799479166652)"><path d="M39.66 15.93 C39.66 15.93, 39.66 15.93, 39.66 15.93 M39.66 15.93 C39.66 15.93, 39.66 15.93, 39.66 15.93 M18.92 49.59 C21.64 41.6, 31.66 26.49, 43.66 10.21 M16.79 45.35 C24.86 38.27, 34.25 30.62, 48.08 13.23 M11.25 57.24 C32.01 36.54, 46.98 23.09, 56.53 8.49 M15.69 57.77 C27.19 41.9, 40.99 26.53, 54.32 10.42 M13.93 65.6 C29.67 49.6, 51.05 24.81, 66.06 10.21 M11.9 65.79 C29.05 45.43, 47.86 27.14, 62.01 9.32 M0.18 83.73 C31.01 57.86, 48.51 32.27, 69.54 6.17 M2.86 83.89 C17.29 65.34, 34.23 50.37, 69.35 6.35 M2.11 88.42 C15.32 74.22, 34.39 51.66, 77.56 1.12 M1.82 88.47 C25.4 64.94, 44.17 42.37, 76.6 5.14 M1.69 96.34 C28.55 66.38, 49.08 44.44, 80.19 4.66 M3.24 94.53 C18.58 77.19, 36.3 56.72, 80.83 6 M4.71 100.17 C23.08 74.97, 47.89 46.97, 85.53 7.62 M1.12 102.47 C21.37 80.1, 36.49 58.16, 88.8 2.83 M5.9 110.59 C33.54 73.7, 54.88 38.66, 90 1.42 M0.67 108.53 C27.23 78.94, 53.61 49.09, 91.78 5.1 M5.34 113.87 C35.98 72.92, 73.3 33.38, 98.73 3.71 M3.05 113 C34.68 78.31, 65.84 44.2, 100.31 4 M6.14 119.98 C40.45 76.96, 77.42 41.88, 101.96 -0.02 M1.56 120.88 C33.95 78.14, 67.98 41.69, 105.08 4.63 M3.54 124.02 C39.91 78.27, 80.29 37.73, 112.04 0.45 M3.14 121.87 C35.03 86.48, 70.72 47.07, 108.32 3.47 M7.23 129.56 C44.15 80.24, 79.47 41.72, 112.54 1.44 M5.13 126.26 C45.45 86.03, 81.98 38.79, 113.39 0.28 M11.05 128.75 C45.8 84.15, 81.62 48.16, 115.85 4.99 M9.45 131.66 C53.87 78.18, 97.42 32.08, 120.83 2.32 M10.09 131.73 C46.02 93.98, 88.92 44.15, 120.33 4.23 M10.08 136.88 C50.32 92.39, 89.72 45.78, 121.87 4.24 M13.68 134.97 C35.65 109.79, 62.08 81.67, 124.58 6.76 M14.5 136.92 C55.78 86.12, 103.28 33.55, 127.24 8.06 M12.44 144.94 C56.34 90.76, 98.27 37.32, 132.6 4.05 M13.21 143.14 C63.17 94.13, 106.6 42.03, 132.68 7.1 M16.01 145.66 C49.22 103.09, 83.49 65.3, 135.42 11.52 M17.87 145.41 C52.22 103.45, 85.5 64.89, 135.07 10.67 M20.07 146.43 C59.56 104.23, 100.41 54.65, 138.82 14.45 M18.76 148.39 C58.82 103.94, 95.87 59.21, 136.54 12.49 M20.04 149.35 C63.1 99.35, 110.28 47.53, 140.36 13.34 M18.94 153.6 C59.36 104.98, 100.85 56.42, 139.97 12.62 M27.51 155.52 C67.2 105.84, 109.36 53.64, 144.48 15.02 M25.06 154.21 C58.4 111.15, 97.45 65.89, 144.51 15.21 M23.21 161.88 C56.6 127.65, 81.49 102.06, 146.81 21.83 M28.85 158.42 C54.91 126.48, 83.49 93.61, 148.35 18.09 M26.78 161.34 C56.9 133.4, 85.23 99.95, 147.9 24.18 M31.24 162.16 C64.18 120.2, 101.38 80.73, 150.85 24.04 M32.42 165.17 C79.23 110.13, 131.63 53.05, 150.94 24.7 M34.55 162.04 C55.32 133.12, 82.9 104.9, 152.73 25.45 M37.32 164.6 C77.16 125.84, 108.85 83.63, 159.47 22.88 M37.24 165.52 C64.49 130.6, 97.7 93.88, 158.22 27.49 M42 168.45 C88.39 111.21, 139.47 59.87, 161.72 28.19 M38.78 167.1 C81.29 120.04, 122.92 69.72, 161.8 29.83 M38.68 172.78 C74.3 132.4, 106 95.02, 160.37 28.68 M42.42 170.52 C71.59 138.81, 100.73 104.44, 162.42 33.79 M44.35 173.75 C95.99 116.15, 145.77 65.81, 168.89 32.63 M44.69 172.18 C74.86 139.54, 107.45 106.4, 166.31 36.57 M46.49 172.22 C93.16 129.12, 134.1 75.43, 165.91 39.92 M47.57 174.37 C85.31 132.6, 125.72 91.92, 169.72 37.14 M56.04 174.16 C87.38 145.48, 116.01 104.53, 169.62 45.9 M51.91 176.12 C95.82 129.58, 138.54 75.32, 171.82 40.71 M59.84 180.77 C103.51 127.53, 147.98 78.44, 174.13 47.02 M56.28 179.99 C99.25 128.8, 142.92 83.59, 171.46 46.94 M61 178.1 C99.56 137.45, 140.45 92.81, 172.5 47.44 M61.82 180.19 C95.31 140.66, 132.52 102.09, 172.65 49.04 M63.24 182.15 C87.38 148.47, 118.25 119.55, 177.16 53.18 M62.94 180.29 C102.77 136.46, 141.38 94.02, 177.42 54.56 M65.99 186.55 C101 139.11, 138.5 99.86, 178.9 54.74 M66.95 183.4 C98.83 152.28, 124.3 121.47, 179.23 56.53 M74.01 182.11 C110.36 145.78, 145.78 100.66, 177.95 58.21 M74.04 184.37 C117.33 138.11, 156.79 89.8, 182.54 59.12 M76.53 184.53 C106.4 152.2, 139.28 116.81, 181.66 69.39 M76.92 187.98 C113.05 144.11, 149.43 102.71, 182.84 66.4 M80.87 189.96 C111.93 149.37, 148.16 110.62, 180.89 67.46 M80.84 189.09 C118.54 145.72, 158.93 100.34, 183.54 70.44 M84.22 185.91 C110.09 164.49, 135.69 131.37, 185.03 72.02 M83.81 190.12 C105.6 166.09, 124.37 138.19, 185.45 75.07 M87.99 190.59 C117.03 157.5, 146.53 132.13, 182.42 84.83 M89.39 192.98 C114.1 164.45, 143.3 131.12, 183.56 80.05 M93.45 190.83 C126.82 152.9, 163.44 112.17, 187.34 88.31 M94.8 191.47 C128.96 154.78, 162.25 116.59, 184.52 84.2 M98.91 191.91 C129.78 156.38, 154.52 123.2, 188.43 87.78 M102.47 189.79 C121.05 165.43, 140.12 143.31, 187.5 90.19 M104.66 186 C128.19 169.62, 149.65 144.23, 187.71 94.01 M105.49 189.4 C138.43 157.83, 165.07 126.16, 189.61 95.64 M109.38 185.7 C131.95 170.06, 147.69 147.25, 192.28 97.62 M114.4 187.28 C135.01 161.26, 157.72 132.54, 190.08 102.09 M117.83 182.48 C142.8 157.02, 163.94 136.77, 183.43 106.47 M121.35 184.79 C138.61 161.23, 158.21 139.18, 185.78 108.99 M129.89 187.52 C152.31 160.43, 170.37 137.23, 182.19 116.74 M127.57 185.16 C142.15 162.97, 158.48 145.49, 185.24 119.25 M134.26 179.84 C148.87 171.11, 156.88 153.08, 182.5 130.82 M137.5 180.16 C149.77 163.43, 162.53 149.01, 180.19 125.81 M144.92 172.97 C155.87 160.62, 169.17 147.11, 182.27 140.49 M145.72 173.32 C157.92 159.47, 168.26 147.83, 177.14 137.28 M19.09 151.81 C19.09 151.81, 19.09 151.81, 19.09 151.81 M19.09 151.81 C19.09 151.81, 19.09 151.81, 19.09 151.81 M49.98 171.91 C37 163.1, 27.79 154.01, 11.59 141.6 M48.97 172.08 C36.66 163.41, 26.22 151.06, 13.25 142.31 M61.7 173.47 C52.75 169.52, 43.54 161.03, 7.71 129.54 M60.59 176.8 C45.82 163.89, 34.88 154.79, 9.93 132.71 M71.74 183.93 C51.19 168.19, 45 155.11, 6.94 125.97 M71.92 181.64 C52.98 165.08, 34.28 147.34, 5.08 120.79 M89.86 185.94 C66.32 169.14, 38.8 149.39, 6.85 120.57 M88.06 187.99 C58.15 163.62, 30.62 143.52, 3.27 117.08 M91.17 190.63 C72.18 165.02, 44.38 145.6, 1.54 111.86 M92.85 188.36 C64.46 162.98, 37.79 138.62, 0.98 112.71 M93.26 185.16 C56.77 154.73, 22.9 124.61, -0.39 104.7 M94.58 188.47 C59.26 156.05, 26.46 123.92, 3.06 105.38 M104.63 187.56 C69.79 157.06, 34.77 126.18, 1.74 101.98 M100.73 186.71 C72.51 157.54, 39.82 131.14, 4.7 101.64 M105.12 182.88 C70.46 152.23, 37.85 128.03, 7.32 92.19 M106.94 184.75 C83.83 164.62, 59.41 145.71, 4.5 97.07 M111.28 186.15 C85.48 157.27, 52.06 129.26, 5.34 93.81 M112.72 183.2 C77.03 158.52, 44.15 129.88, 3.82 91.13 M117.27 180 C69.23 145.06, 28.12 106.56, 5.76 87.48 M114.86 181.65 C83.14 156.06, 55.2 131.75, 4.56 83.97 M120.18 185.6 C81.65 146.04, 49.5 121, 3.37 81.72 M119.18 182.27 C92.3 156.55, 62.96 127.71, 5.48 80.7 M128.46 180.32 C95.53 156.2, 66.85 129.53, 1.93 77.85 M125.34 182.01 C81.67 142.43, 40.18 107.18, 4.77 76.86 M128.53 181.31 C82.68 134.48, 36.77 91.5, 3.53 72.96 M127.98 180.72 C101.25 154.5, 73.19 129.35, 5.85 71.96 M130.14 176.52 C90.78 144.06, 56.1 108.29, 7.99 72.18 M134.41 174.75 C98.73 148.86, 68.98 121.35, 7.18 66.3 M134.51 177.58 C110.25 146.35, 79.72 128.15, 9.45 67.03 M135.31 174.38 C101.54 145.22, 68.89 113.93, 11.35 61.9 M137.45 172.84 C112.67 145.58, 84.78 118.05, 14.03 57.61 M140.15 171.46 C94.87 135.35, 48.98 92.85, 13.11 61.26 M147.74 174.25 C116.25 142.62, 86.43 117.23, 10.19 53 M146.12 170.8 C103.03 130.4, 57.78 90.97, 14.21 54.27 M149.47 169.74 C111.75 145.76, 83.44 113.04, 10.35 53.48 M148.89 169.15 C118.6 141.53, 86.8 112.57, 15.43 53.05 M152.49 170.07 C122.82 139.5, 92.92 117.65, 17.03 46.16 M151.42 166.6 C103.97 127.24, 58.36 89.51, 15.17 46.15 M154.71 161.26 C109.46 133.09, 71.58 92.8, 16.93 44.67 M154.77 165.54 C127.37 137.54, 95.29 109.42, 18.02 42.72 M160.51 159.37 C120.4 127.25, 89.71 99.64, 19.4 44.01 M158.96 162.11 C124.04 128.29, 87.1 93.79, 17.54 42.01 M157.6 161.68 C128.22 126.14, 87.57 97.73, 21.2 39.62 M160.19 159.77 C121.29 122.59, 83.4 86.82, 23.58 36.98 M163.94 157.4 C123.52 119.72, 85.73 93.26, 28.21 37.61 M164.27 156.76 C112.11 115.48, 62.66 71.86, 24.36 35.06 M170.3 156.83 C130.18 124.74, 95.06 97.38, 26.25 31.06 M165.59 153.66 C122.31 115.31, 77.68 80.15, 27.79 31.03 M172.4 148.23 C114.85 105.79, 63.71 60.93, 29.51 29.64 M169.7 150.94 C130.97 119.94, 97.9 86.2, 30.25 27.23 M173.61 145.43 C127.6 110.59, 84.85 69.19, 28.88 29.25 M172.44 147.07 C136.68 112.18, 99.76 80.02, 31.4 23.73 M176.7 145.51 C118.35 98.87, 69.72 49.88, 32.32 25.62 M174.13 144.8 C139.17 115.74, 107.89 85.18, 35.06 22.5 M179.31 137.07 C123.41 97.15, 72.19 51.13, 36.54 15.33 M175.5 141.93 C121.67 92.51, 65.71 43.5, 35.17 16.99 M176.79 132.51 C141.01 103.78, 101.03 66.34, 38.33 12.01 M178.93 136.23 C140.61 102.81, 104.28 70.48, 39.7 14.91 M180.08 134.99 C122.37 90.22, 73.9 45.53, 44.7 13.99 M178.79 130.93 C150.72 103.01, 123.69 78.73, 43.16 14.42 M180.09 124.04 C130.87 85.44, 84.04 49.65, 44.71 14.04 M180.27 128.86 C148.62 97.28, 114.62 68.04, 46.9 12.45 M179.32 124.55 C143.27 93.62, 102.28 61.76, 54.18 8.18 M183.39 124.06 C131.37 85, 83.25 42.62, 54.21 10.06 M185.97 118.41 C141.49 86.68, 107.33 59.43, 55.5 13.36 M183.62 117.95 C150.34 89.63, 115.46 61.38, 58.6 8.67 M186.85 118.08 C151.33 91.64, 119.98 61.51, 59.53 6.41 M185.14 115.45 C139.34 78.99, 96.82 43.15, 60.16 9.64 M188.71 109.58 C156.45 82.17, 128.73 62.59, 62.97 7.06 M184.71 112.55 C152.83 82.42, 119.37 51.49, 67.3 7.74 M187.43 106.77 C148.73 73.02, 106.78 33.72, 73.22 3.44 M185.17 105.2 C144.97 73.67, 102.73 34.7, 68.15 5.32 M188.31 105 C144.19 63.11, 96.56 27.74, 73.8 3.17 M186.31 103.41 C166.52 82.98, 141.11 63.48, 72.29 1.89 M191.27 95.37 C152.9 65.37, 118.43 33.4, 76.67 2.9 M190.4 100.17 C163.09 78.41, 137.14 53.71, 77.61 0.27 M189.91 93.76 C154.65 59.41, 118.92 28.55, 78.39 -2.73 M187.72 93.01 C154.8 63.56, 120.58 35.11, 82.87 -1.92 M191.21 84.3 C160.92 67.71, 137.5 43.19, 90.5 -0.73 M188.72 86.03 C147.47 48.58, 109.61 14.39, 88.51 0.67 M185.35 75.82 C157.89 55.39, 126.31 24.29, 94.84 0.46 M184.25 78.91 C150.61 48.83, 115.12 14.5, 92.42 -0.06 M184.11 72.72 C162.07 54.42, 141.74 36.94, 96.74 -2.68 M184.39 72.34 C165.53 55.5, 143.87 36.74, 97.58 -2.83 M180.71 64.63 C157.07 47.6, 138.99 27.05, 108.63 -3.86 M184.78 66.28 C152.84 39.12, 121.69 12.94, 104.05 -1.43 M184.48 58.06 C150.93 37.43, 128.97 11.24, 114.37 -1.29 M181.67 58.1 C156.84 35.98, 131.71 14.64, 111.83 -2.56 M173.42 50.69 C150.54 29.66, 131.05 10.19, 117.7 -0.08 M174.93 49.52 C154.25 34.43, 134.27 15.06, 117.66 -1.6 M164.2 32.84 C155.45 30, 146.48 20.1, 132.37 5.87 M166.51 38.55 C155.17 26.67, 143.6 16.08, 131.62 4.07" stroke="#e14b2d" stroke-width="0.5" fill="none"></path><path d="M130.78 6.6 C141.83 10.14, 153.59 21.49, 161.93 30.51 C170.27 39.53, 176.36 49.15, 180.81 60.72 C185.27 72.28, 189.08 87.26, 188.67 99.91 C188.26 112.56, 183.46 125.99, 178.34 136.61 C173.23 147.22, 166.98 155.97, 157.97 163.59 C148.97 171.2, 136.36 178.05, 124.32 182.29 C112.29 186.54, 98.66 190.27, 85.74 189.06 C72.83 187.85, 57.95 181.26, 46.83 175.04 C35.72 168.83, 26.64 161.23, 19.04 151.77 C11.45 142.3, 4 129.91, 1.25 118.26 C-1.49 106.61, 0.21 94.11, 2.59 81.85 C4.97 69.58, 9.39 55.62, 15.53 44.68 C21.68 33.73, 29.62 23.04, 39.44 16.18 C49.26 9.33, 62.07 6.18, 74.45 3.56 C86.83 0.95, 96.78 -6.52, 113.72 0.5 C130.66 7.52, 163.71 29.47, 176.1 45.68 C188.5 61.89, 189.86 97.26, 188.08 97.75 M53.49 11.89 C63.32 5.4, 76.24 0.5, 88.02 -0.07 C99.79 -0.64, 112.06 4.56, 124.13 8.47 C136.19 12.39, 150.52 15.1, 160.41 23.43 C170.31 31.76, 178.73 47.05, 183.51 58.46 C188.29 69.87, 189.41 79.49, 189.09 91.89 C188.78 104.29, 186.69 120.74, 181.61 132.86 C176.53 144.98, 167.6 156.62, 158.64 164.63 C149.68 172.65, 139.2 176.86, 127.87 180.95 C116.53 185.03, 103.23 189.29, 90.64 189.16 C78.05 189.02, 63.52 185.87, 52.31 180.14 C41.1 174.4, 31.15 164.27, 23.38 154.74 C15.61 145.21, 9.63 134.14, 5.7 122.94 C1.77 111.74, -0.85 99.91, -0.18 87.52 C0.48 75.12, 3.2 60.35, 9.67 48.57 C16.13 36.79, 31.45 23.78, 38.61 16.84 C45.77 9.9, 49.87 8.2, 52.62 6.92 C55.36 5.64, 54.29 6.89, 55.08 9.18" stroke="#e14b2d" stroke-width="1" fill="none"></path></g><g stroke-linecap="round" transform="translate(52.07020252561006 133.24299113424513) rotate(0 51.134151031654255 9.4571576846879)"><path d="M2 -3.47 L106 2.23 L102.04 22.18 L1.31 21.67" stroke="none" stroke-width="0" fill="#ffffff"></path><path d="M1.6 3.74 C28.36 -1.61, 55.64 -1.88, 105.35 -3.42 M-0.76 1.18 C30.7 -3.29, 58.9 -3.15, 102.95 0.95 M101.45 -3.44 C102.14 6.73, 105.01 10.23, 102.47 17.32 M102.81 -1.33 C103.89 6.18, 103.6 8.34, 101.52 18.25 M103.82 21.64 C74.93 18.3, 47.01 22.26, 1.96 15.92 M100.91 19.29 C63.37 18.75, 23.69 19.68, -1.1 19.51 M0.65 17.55 C1.75 13.16, -0.75 10.01, -2.69 -0.05 M-1.85 20.12 C-1.12 12.43, 1.87 5.77, -0.52 -0.26" stroke="#e14b2d" stroke-width="1" fill="none"></path></g><g stroke-linecap="round"><g transform="translate(77.34669593726903 181.32187547506737) rotate(181.11973861006382 28.911431229534173 -9.633603961700317)" fill-rule="evenodd"><path d="M-3.66 1.35 L2.08 -7.3 L2.93 -11.94 L20.16 -23.11 L39.08 -14.65 L52.07 -11.16 L60.07 -4.85 L55.42 -1.98 L49.24 1.64 L-2.82 3.71" stroke="none" stroke-width="0" fill="#ffffff" fill-rule="evenodd"></path><path d="M1.12 2.62 C0.74 1.73, -2.09 -0.33, -0.03 -3.68 C2.02 -7.03, 8.38 -14.43, 13.45 -17.47 C18.52 -20.52, 24.56 -22.6, 30.36 -21.95 C36.16 -21.3, 43.53 -16.97, 48.28 -13.58 C53.02 -10.19, 66.61 -4.34, 58.84 -1.61 C51.07 1.12, 11.91 2.18, 1.65 2.8 M-1.72 1.57 C-2.69 0.99, -4.5 2.5, -2.38 -0.2 C-0.26 -2.9, 5.26 -11.21, 11.01 -14.62 C16.76 -18.03, 26.53 -21, 32.11 -20.64 C37.7 -20.29, 40.78 -15.16, 44.51 -12.5 C48.24 -9.83, 61.25 -6.91, 54.51 -4.64 C47.77 -2.37, 12.82 -0.04, 4.06 1.14" stroke="#e14b2d" stroke-width="1" fill="none"></path></g></g><g stroke-linecap="round"><g transform="translate(77.53523031366785 126.68242493012963) rotate(0 29.54396659414465 -49.75588159570276)" fill-rule="evenodd"><path d="M-0.23 3.27 L-3.37 -1.06 L-7.45 -21.49 L1.27 -11.95 L-4.01 -39.13 L-4.54 -73.66 L-0.54 -81.12 L5.57 -73.41 L12.2 -65.4 L12.95 -56.65 L10.25 -56.66 L13.55 -72.55 L8.12 -84.94 L30.64 -101.81 L24.62 -87.45 L28.12 -59.39 L32.34 -44.81 L40.04 -80.36 L41.17 -88.7 L47.88 -91.08 L39.64 -91.32 L46.29 -78.15 L60.36 -47.95 L63.97 -40.35 L61.92 -25.01 L54.88 -8.4 L63.58 -18.34 L73.14 -25.1 L74.12 -15.78 L61.39 1.43 L-5.8 1.03 L3.26 -1.98" stroke="none" stroke-width="0" fill="#ffffff" fill-rule="evenodd"></path><path d="M2.62 -0.2 C2.12 -0.81, -0.05 -2.29, -1.35 -2.53 C-2.64 -2.78, -3.38 1.44, -5.16 -1.66 C-6.93 -4.76, -11.9 -18.89, -12.02 -21.15 C-12.14 -23.41, -8.24 -16.87, -5.86 -15.21 C-3.49 -13.55, 1.41 -8.55, 2.22 -11.21 C3.02 -13.87, -0.12 -24.85, -1.04 -31.18 C-1.95 -37.52, -3.41 -42.5, -3.27 -49.21 C-3.13 -55.93, 0.4 -66.15, -0.21 -71.45 C-0.82 -76.76, -6.8 -80.04, -6.95 -81.03 C-7.11 -82.02, -3.52 -79.9, -1.13 -77.4 C1.25 -74.9, 4.83 -69.46, 7.35 -66.02 C9.86 -62.57, 12.3 -57.3, 13.93 -56.72 C15.56 -56.15, 17.21 -60.25, 17.13 -62.59 C17.05 -64.92, 14.43 -68.3, 13.45 -70.75 C12.48 -73.2, 11.17 -74.74, 11.28 -77.28 C11.39 -79.83, 10.19 -81.69, 14.14 -86.01 C18.09 -90.33, 32.34 -101.73, 34.96 -103.18 C37.58 -104.64, 32.1 -97.54, 29.86 -94.76 C27.62 -91.98, 22.48 -89.68, 21.52 -86.51 C20.56 -83.34, 22.42 -80.41, 24.07 -75.74 C25.73 -71.06, 29.77 -62.83, 31.45 -58.46 C33.13 -54.1, 33.65 -47.34, 34.14 -49.55 C34.64 -51.75, 32.79 -64.78, 34.41 -71.68 C36.02 -78.58, 42.29 -87.49, 43.82 -90.97 C45.35 -94.44, 43.53 -92.56, 43.59 -92.51 C43.65 -92.46, 44.58 -92.87, 44.19 -90.65 C43.8 -88.43, 40.66 -82.2, 41.24 -79.19 C41.83 -76.19, 44.42 -77.42, 47.71 -72.64 C51 -67.85, 58.78 -56.35, 60.96 -50.48 C63.14 -44.6, 60.81 -42.09, 60.79 -37.39 C60.77 -32.69, 61.69 -26.43, 60.84 -22.28 C60 -18.12, 57.37 -14.47, 55.69 -12.44 C54.01 -10.41, 50.5 -10.1, 50.77 -10.12 C51.04 -10.14, 53.97 -10.93, 57.31 -12.57 C60.65 -14.21, 68.57 -18.84, 70.8 -19.96 C73.03 -21.07, 71.24 -20.19, 70.71 -19.26 C70.17 -18.32, 69.32 -17.47, 67.6 -14.37 C65.87 -11.27, 62.88 -3, 60.35 -0.67 C57.82 1.67, 62.01 -0.76, 52.41 -0.36 C42.82 0.03, 12.09 1.72, 2.8 1.69 C-6.49 1.65, -3.09 0.09, -3.32 -0.59 C-3.56 -1.28, 0.41 -2.79, 1.4 -2.43 M0.59 -2.78 C-0.46 -3.12, -2.44 1, -3.74 0.46 C-5.04 -0.08, -5.72 -2.8, -7.22 -6.02 C-8.72 -9.24, -12.41 -17.62, -12.74 -18.84 C-13.06 -20.05, -12.12 -14.32, -9.17 -13.31 C-6.22 -12.3, 4.56 -10.45, 4.98 -12.77 C5.4 -15.09, -5.05 -22.22, -6.64 -27.22 C-8.23 -32.22, -5.06 -34.98, -4.56 -42.77 C-4.06 -50.57, -3.3 -68.65, -3.64 -73.99 C-3.99 -79.34, -7.06 -74.6, -6.63 -74.83 C-6.19 -75.07, -4.01 -76.72, -1.02 -75.41 C1.96 -74.09, 8.49 -69.93, 11.27 -66.93 C14.05 -63.94, 14.76 -58.1, 15.64 -57.43 C16.51 -56.77, 16.85 -60.42, 16.5 -62.96 C16.16 -65.5, 14.14 -69.55, 13.59 -72.68 C13.03 -75.81, 13.51 -79.64, 13.18 -81.75 C12.85 -83.85, 8.25 -82.05, 11.61 -85.31 C14.97 -88.57, 30.65 -99.63, 33.34 -101.3 C36.03 -102.97, 29.65 -98.47, 27.77 -95.35 C25.89 -92.23, 21.78 -85.36, 22.06 -82.6 C22.34 -79.85, 27.81 -82.42, 29.45 -78.83 C31.09 -75.24, 30.94 -65.51, 31.88 -61.06 C32.83 -56.61, 34.09 -51.23, 35.14 -52.12 C36.18 -53, 37.26 -60.16, 38.15 -66.4 C39.04 -72.63, 39.3 -85.36, 40.47 -89.54 C41.65 -93.72, 45.28 -91.16, 45.18 -91.47 C45.08 -91.79, 40.14 -92.88, 39.86 -91.42 C39.59 -89.96, 42.02 -86.41, 43.51 -82.73 C45 -79.05, 46.5 -74.24, 48.81 -69.34 C51.13 -64.45, 55.68 -58.03, 57.39 -53.36 C59.09 -48.68, 58.48 -47.16, 59.07 -41.29 C59.66 -35.41, 62.23 -22.75, 60.94 -18.1 C59.66 -13.44, 52.48 -13.83, 51.37 -13.36 C50.26 -12.9, 52.63 -15.13, 54.27 -15.32 C55.9 -15.51, 59.46 -14.1, 61.17 -14.5 C62.88 -14.91, 63.59 -16.61, 64.52 -17.74 C65.45 -18.86, 66.2 -21.56, 66.75 -21.23 C67.31 -20.91, 67.98 -19.61, 67.83 -15.79 C67.68 -11.96, 67.74 -0.92, 65.85 1.72 C63.96 4.35, 68.07 -0.32, 56.48 0.04 C44.9 0.4, 5.85 3.94, -3.66 3.87 C-13.17 3.8, -1.15 0.91, -0.58 -0.37 C-0.02 -1.65, 0.27 -3.33, -0.26 -3.8" stroke="#e14b2d" stroke-width="1" fill="none"></path></g></g><g stroke-linecap="round"><g transform="translate(199.9684103362115 101.4406181315776) rotate(0 35.4969717283891 0.915219897753957)"><path d="M-0.09 -0.12 C11.93 -0.04, 60.24 1.48, 72.59 1.63 M-1.59 -1.23 C10.18 -0.45, 58.82 2.59, 71.38 3.06" stroke="#000000" stroke-width="1" fill="none"></path></g><g transform="translate(199.9684103362115 101.4406181315776) rotate(0 35.4969717283891 0.915219897753957)"><path d="M28.14 -10.52 C18.43 -4.91, 7.39 -3.59, 0.13 1.17 M27.36 -8.94 C20.03 -6.56, 13.97 -5.36, -0.99 -0.55" stroke="#000000" stroke-width="1" fill="none"></path></g><g transform="translate(199.9684103362115 101.4406181315776) rotate(0 35.4969717283891 0.915219897753957)"><path d="M27.64 10 C17.9 8.63, 7.04 2.98, 0.13 1.17 M26.86 11.57 C19.54 8.57, 13.61 4.39, -0.99 -0.55" stroke="#000000" stroke-width="1" fill="none"></path></g><g transform="translate(199.9684103362115 101.4406181315776) rotate(0 35.4969717283891 0.915219897753957)"><path d="M42.49 11.02 C52.02 10.43, 60.4 5.51, 71.59 4.35 M41.7 12.6 C49.25 9.6, 58.16 5.98, 70.47 2.64" stroke="#000000" stroke-width="1" fill="none"></path></g><g transform="translate(199.9684103362115 101.4406181315776) rotate(0 35.4969717283891 0.915219897753957)"><path d="M43.55 -9.47 C52.91 -3.1, 60.93 -1.05, 71.59 4.35 M42.76 -7.9 C50.15 -5.51, 58.79 -3.76, 70.47 2.64" stroke="#000000" stroke-width="1" fill="none"></path></g></g><g stroke-opacity="0.8" fill-opacity="0.8" stroke-linecap="round" transform="translate(284.76982859770396 51.85784045855189) rotate(0 107.76744186046517 42)"><path d="M0 0 C0 0, 0 0, 0 0 M0 0 C0 0, 0 0, 0 0 M-0.87 6.05 C1.86 5.19, 2.26 2.39, 5.02 0.38 M-0.27 6.76 C1.99 4.4, 3.55 1.6, 5.23 0.18 M-0.72 12.74 C2.25 9.17, 8.3 4.15, 9.22 0.92 M0.06 12.55 C1.89 9.79, 4.93 6.77, 10.58 0.75 M1 19.47 C7.4 12.44, 12.31 3.58, 16.93 -0.53 M0.56 18.94 C5.51 10.76, 11.37 4.55, 16.56 0.76 M0.7 22.44 C5.44 16.81, 10.12 13.79, 20.9 -1.11 M0.79 23.11 C9.13 14.81, 16.71 4.83, 20.91 0.67 M-1.89 30.23 C9.02 18.05, 18.66 7.64, 26.97 -0.12 M0.12 30.49 C5.53 23.42, 11.5 16.98, 26.66 -0.1 M-0.18 35.34 C7.48 26.87, 16.79 17.08, 29.94 1.88 M0.49 36.77 C6.17 28.43, 13.54 21.07, 30.93 -0.01 M1.89 40.81 C9.04 33.5, 14.41 25.71, 38.8 -0.37 M-0.5 42.67 C9.65 32.48, 19.32 22.3, 37.71 0.17 M-1.27 48.7 C10.15 39.42, 16.09 29.88, 42.75 1.23 M0.57 49.66 C13.59 33.14, 27.79 17.44, 42.25 -0.2 M0.46 54.94 C13.77 38.76, 29.97 20.16, 48.81 0.44 M0.61 55.04 C17.66 33.17, 37.02 12.48, 47.87 -0.22 M-1.46 61.61 C20.89 39.11, 38.7 16.23, 51.85 -1.24 M0.86 61.43 C12.46 44.66, 26.52 29.63, 52.34 -1.1 M-0.92 67.82 C19.85 45.2, 35.17 23.61, 56.18 1.72 M0.59 67.83 C16.58 49.15, 32.28 30.76, 58.69 -0.68 M-0.21 74.14 C19.64 50.15, 35.74 29.59, 65.57 1 M-0.78 73.37 C17.76 53.72, 35.96 33.12, 63.56 -1.06 M0.75 81.09 C13.72 62.96, 32.81 43.06, 68.86 -1.37 M-0.59 79.9 C23.82 50.38, 47.45 22.7, 68.05 0.8 M0.48 85.28 C23.63 57.13, 46.94 33.9, 74 1.2 M0.49 83.41 C21.18 61.23, 41.56 37.36, 74.08 -0.5 M6.18 86.6 C30.14 57.97, 54.53 30.12, 77.6 0.03 M6.83 85.45 C28.84 60.29, 49.65 34.57, 79.21 0.6 M9.91 85.97 C26.19 64.28, 41.55 48.89, 87.01 1.35 M11.44 84.06 C33.35 59.08, 55.21 32.66, 84.98 -0.98 M17.32 84.46 C40.01 58.21, 65.36 29.72, 89.9 -1.49 M16.9 85.14 C33.66 64.66, 50.86 44.84, 89.78 0.48 M23.12 84.74 C39.44 63.21, 58.06 41.34, 96.27 -1.87 M22.14 85.1 C41.05 65.2, 57.14 44.01, 95.17 -0.14 M26.61 85.28 C46.65 64.69, 62.72 41.25, 100.07 0.36 M26.26 85.28 C52.31 58.27, 76.32 30.42, 100.74 0.63 M31.13 85.26 C51.81 65.98, 69.11 41.62, 105.21 0.96 M31.22 84.13 C52.62 59.89, 74.07 36.55, 106.43 -0.76 M38.87 83.07 C56.76 61.73, 79.32 38.19, 111.18 -0.39 M36.99 83.8 C65.05 53.65, 90.16 24.08, 111.4 0.58 M43.71 84.68 C66.79 56.15, 93.78 29.14, 114.4 -1.27 M43.65 85.89 C66.84 57.97, 90.38 30.75, 115.73 1.06 M48.68 82.61 C74.89 57.56, 100.64 24.78, 121.11 -0.01 M49.06 84.51 C76.25 51.88, 106.37 18.16, 122.47 0.3 M51.45 84.12 C72.58 62.44, 89.4 43.35, 126.16 -1.24 M53.75 85.76 C77.63 57.19, 103.45 28.53, 126.88 -0.19 M58.43 85.37 C87.32 52.7, 116.22 15.98, 132.49 0.97 M59.25 84.11 C81.21 59.36, 100.92 35.7, 133 -0.89 M62.35 83.65 C90.25 57.14, 114.91 27.08, 138.61 1.39 M64.91 85.78 C88.67 56.58, 115 26.09, 137.57 0.17 M68.28 83.53 C96.28 52.13, 121.19 21.17, 142.74 -0.28 M70.25 85.2 C97.34 51.61, 124.25 18.97, 143.38 0.75 M75.23 85.08 C89.99 65.76, 105.76 45.97, 146.32 -1.11 M73.83 84.36 C99.84 54.41, 127.22 23.34, 149.04 0.92 M82.17 86.01 C107.83 53.69, 131.44 24.1, 154.08 1.14 M79.58 85.26 C95.93 67.64, 111.65 49.83, 154.39 0.33 M85.65 85.93 C108.9 55.06, 136.35 25.01, 157.63 -1.71 M85.61 85.3 C111.18 54.48, 137.8 23.9, 158.34 0.75 M89.81 84.45 C108.81 62.7, 130.65 38.88, 163.49 -0.15 M90.61 83.68 C119.09 53.93, 145.72 21.01, 164.16 -0.64 M95.98 85.44 C124.43 52.51, 152.65 15.75, 168.67 -0.71 M96.67 84.81 C119.42 59.09, 141.11 32.56, 169.4 -0.75 M100.71 83.18 C129.02 51.39, 157.12 19.11, 176.73 -1.83 M101.61 84.71 C125.11 58.28, 148.79 30.43, 175.18 0.75 M105.37 86.57 C126.69 59.69, 149.29 36.65, 181.35 0.35 M105.82 84.46 C121.1 66.65, 136.76 48.39, 180.03 -0.11 M114.16 85.28 C142.29 52.22, 170.73 19.3, 186.36 0.16 M112.66 84.52 C134.41 58.31, 157.11 32.2, 185.28 -0.23 M115.73 85.99 C141.1 56, 167.57 28.37, 189.36 0.62 M117.23 84.23 C146.19 52.12, 173.17 19.88, 190.87 1.02 M121.22 82.53 C148.34 57.59, 168.93 30.54, 197.71 1.59 M122.74 84.15 C142.37 62.28, 160.23 41.27, 196.69 -0.88 M129.78 84.11 C154.94 50.94, 183.89 22.15, 200.17 1.99 M127.39 85.5 C156.69 52.28, 185.37 19.16, 200.43 0.9 M134.73 85.45 C149.13 61.46, 169.08 43.39, 206.89 -0.05 M132.67 84.54 C156.4 58.59, 179.46 31.84, 206.95 -0.13 M137 83.03 C153.43 68.19, 170.52 49.57, 213.03 -0.95 M138.21 84.02 C164.38 53.6, 190.3 23.94, 212.08 0.67 M142.66 86 C167.88 53.1, 194.51 25.54, 217.48 1.96 M143.47 84.28 C162.69 61.77, 181.01 38.65, 216.69 1.97 M147.66 84.6 C168.38 62.18, 190.02 38, 215.07 7.92 M149.9 84.94 C165.18 67.55, 178.44 49.56, 217.15 6.15 M152.74 84.63 C174.12 65.11, 193.92 39.58, 217.28 11.6 M154 85.58 C176.7 59.04, 201.41 33.19, 217.32 13.36 M158.81 84.36 C178.82 64.34, 197.05 43.62, 216.43 17.12 M160.07 83.81 C174.01 65.84, 189.42 49.53, 217.04 19.76 M166.51 84.74 C178.05 68.23, 193.67 54.31, 215.93 24.95 M164.01 85.79 C177.71 69.75, 190.45 54.91, 215.66 25.69 M172.28 85.58 C179.84 70.88, 190.39 59.59, 215.62 30.87 M170.68 83.55 C180.56 73.49, 190.43 61.58, 215.63 30.78 M175.93 83.72 C184.38 74.25, 197.09 59.64, 216.67 38.38 M175.74 85.43 C185.07 72.57, 196.85 59.67, 216.71 37.62 M180.68 85.25 C195.49 68.48, 208 53.03, 216.35 45.15 M181.03 83.49 C193.06 68.89, 207.42 54.12, 217.04 44.42 M184.75 83.67 C198.3 69.97, 210.68 57.2, 215.52 47.96 M186.34 83.89 C196.5 74.15, 205.53 63.47, 215.84 49.15 M193.4 84.08 C201.12 73.13, 213.3 63.15, 218.11 56.9 M190.81 84.33 C200.28 73.31, 211.7 61.48, 217.28 56 M198.51 85.41 C200.58 78.61, 209.71 70.58, 214.61 60.27 M196.76 84.44 C199.8 80.04, 204.86 75.74, 217.12 61.47 M202.62 84.51 C205.97 79.1, 212.06 75.74, 216.85 67.04 M203.04 85.18 C207.57 79.9, 211.13 73.25, 215.88 67.04 M206.73 85.95 C209.04 81.56, 210.99 80.61, 215.32 74.96 M206.97 85.11 C210.19 80.21, 214.73 77.19, 216.78 74.66 M213 84.45 C213.83 82.59, 215.44 81.64, 217.25 79.63 M212.95 84.41 C214.14 82.93, 214.95 81.64, 216.64 79.54" stroke="#4c6ef5" stroke-width="0.5" fill="none"></path><path d="M-0.73 -0.3 C86.14 -1.31, 169.25 0.38, 216.66 -0.66 M0.65 -0.8 C77.62 2.28, 153.8 1.07, 215.16 -0.19 M217.16 1.36 C215.69 16.72, 214.78 34.41, 217.14 84.57 M216.31 -0.78 C215.92 18.93, 215.85 38.37, 215.38 84.39 M214.08 85.6 C137.03 82.56, 58.41 84.86, 0.31 82.81 M216.18 84.17 C146.31 83.76, 78.25 83.31, 0.33 84.15 M-0.44 85.77 C-1.79 61.81, 1.03 37.72, 0.19 -1.95 M0.8 84.45 C0.39 53.3, 1.16 22.01, 0.93 0.56" stroke="#000000" stroke-width="1" fill="none"></path></g><g transform="translate(319.1651774349175 85.71830557483054) rotate(0 81.74604651162781 12.537737195034993)"><text x="0" y="17.075474390069928" font-family="Virgil, Segoe UI Emoji" font-size="20.06037951205591px" fill="#000000" text-anchor="start" style="white-space: pre;" direction="ltr">Lua Web Handler</text></g><g stroke-linecap="round" transform="translate(606.1249255616531 43.85784045855189) rotate(0 115.46511627906966 45)"><path d="M0 0 C0 0, 0 0, 0 0 M0 0 C0 0, 0 0, 0 0 M0.39 6.79 C0.5 4.4, 2.02 3.91, 5.74 0.81 M-0.04 6.8 C1.23 4.28, 3.55 2.07, 5.13 0.67 M-1.2 13.28 C4.96 8.16, 5.95 4.71, 9.08 1.48 M-0.12 12.21 C3.65 8.3, 5.8 6.2, 11.09 0.13 M1.82 19.05 C7.12 9.53, 13.33 3.41, 17.51 2.14 M-0.53 17.86 C3.34 13.73, 9.38 8.81, 15.09 1.09 M0.43 22.75 C5.88 18.97, 11.85 9.41, 23.24 0.72 M0.85 24.37 C5.44 17.89, 10.79 12.36, 21.99 -0.72 M-0.96 29.42 C8.24 19.89, 19.12 9.26, 24.79 1.4 M-0.26 30.38 C8.71 20.46, 18.36 9.42, 25.86 1.24 M-0.58 36.45 C8.98 26.6, 15.13 19.15, 30.1 1.62 M-0.28 36.12 C8.77 26.55, 15.96 16.92, 31.01 0.03 M1.29 42.34 C8.12 32.75, 20.96 20.04, 35.75 -1.42 M0.35 43.09 C15.6 26.75, 29.75 9.59, 35.92 -0.39 M1.14 49.13 C8.61 38.21, 20.24 27.49, 42.96 1.49 M0.27 48.73 C11.26 36.01, 20.98 23.56, 42.56 0.29 M-0.38 55.35 C16.03 36.36, 30.81 20.99, 49.2 1.72 M-0.11 54.55 C19.75 32.84, 38.18 10.49, 48.33 1.12 M1.14 62.21 C12.36 47.24, 25.71 29.17, 52.26 0.98 M-0.76 60.56 C18.1 39.17, 36.46 16.32, 53.28 -0.7 M1.21 66.49 C18.57 42.67, 38.22 22.5, 57.75 1.56 M0.66 67.43 C11.22 54.02, 23.37 39.02, 58.05 0.58 M1.38 71.06 C13.82 54.5, 31.6 39.87, 63.24 -1.54 M-0.1 73.11 C14.56 57.12, 26.91 41.65, 63.17 0.69 M-2.02 81.24 C14.52 63.3, 28.11 44.54, 69.77 1.59 M0.29 78.55 C25.11 49.56, 49.43 22.31, 68.9 -0.29 M-0.38 83.78 C16.94 67.29, 33.67 47.44, 73.92 0 M0.37 84.77 C17.97 65.2, 34.5 46.11, 74.59 -0.51 M1.33 90.3 C19.96 68.17, 34.14 49.12, 79.41 0 M1.45 91.61 C21.57 65.09, 44.14 39.36, 78.52 0.09 M5.3 88.41 C30.74 61.6, 58.93 33.84, 85.11 1.4 M6.53 91.03 C32.82 59.8, 59.57 28.53, 85.26 -0.88 M10.61 91.53 C36.54 62.03, 59.96 32.6, 88.62 -0.3 M11.36 90.17 C35.5 61.58, 59.02 35.1, 89.46 0.21 M16.42 89.97 C42.05 59.35, 67.76 30.24, 94.37 -1.8 M17.9 90.58 C34.8 67.83, 52.55 48.26, 95.26 0.37 M22.93 92.41 C41.32 66.31, 63.82 42.07, 101.12 -1.69 M22.57 91.02 C40.71 70.33, 56.95 51.4, 100.1 0.44 M28.82 92.78 C51.99 62.08, 73.26 38.14, 106.08 -0.37 M25.94 90.51 C50.1 65.69, 74.42 37.7, 106.04 0.45 M32.04 90.79 C55.89 65.77, 75.82 40.31, 112.42 -1.81 M32.85 90.06 C58.78 60.97, 85.97 31.27, 111.67 0.06 M36.7 90.29 C56.53 71.12, 71.52 47.66, 116.71 -0.6 M37.52 91.28 C60.89 62.6, 84.73 35.05, 116.74 0.7 M44.45 92.26 C61.51 70.09, 76.01 52.49, 123.78 0.41 M42.29 90.55 C60.15 70.31, 77.57 51.31, 121.3 0.22 M50.06 88.95 C78.02 58.38, 103.76 25.85, 127.52 -1.33 M47.39 91.47 C75.52 59.1, 101.64 27.8, 127.83 0.58 M53.47 92.12 C80.07 58.02, 106.47 30.88, 132.29 -1.24 M54.37 90.17 C81.92 57.59, 112.31 23.01, 132.93 -1.04 M59.34 91.18 C77.56 69.89, 95.89 51.89, 138.53 0.61 M57.84 91.83 C77.37 67.53, 97.44 44.7, 138.16 1.22 M65.16 89.39 C93.79 55.24, 124.13 22.23, 144.78 1.73 M64.92 89.98 C89.07 59.35, 115.51 31.64, 142.39 0.24 M68.76 90.09 C87.24 66.79, 105.79 45.13, 149.25 1.33 M69 90.98 C100.92 55.91, 130.7 23.25, 148.63 -0.62 M76.4 88.82 C95.6 62.71, 118.24 40.78, 151.89 -1.45 M75.13 91.4 C105.29 57.09, 133.86 24.07, 154.37 0.87 M78.32 91.55 C106.84 59.65, 133.52 25.39, 159.94 0.65 M79.85 90.44 C100.57 65.91, 120.6 43.44, 158.46 1.21 M84.83 90.86 C107.15 67.05, 124.34 45.45, 166.02 1.17 M86.55 91.3 C101.67 72.52, 117.79 53.62, 165.41 -0.42 M89.81 92.12 C112.92 60.95, 138.02 34.26, 169.65 0.14 M91.27 91.62 C114.91 62.02, 140.98 31.13, 170.25 -0.75 M94.86 89.68 C118.07 63.94, 144.04 36.69, 175.36 -1.76 M96.09 90.88 C119.98 62.47, 143.11 37.32, 174.9 -0.02 M100.79 89.08 C120.74 68.98, 138.35 49.7, 178.21 1.05 M100.96 90.81 C131.66 56.22, 161.23 22.49, 180.96 -0.57 M107.72 91.19 C129.41 64.65, 152.42 37.81, 185.88 1.16 M107.02 90.77 C133.27 59.94, 159.5 28.8, 186.11 -0.44 M110.61 90.45 C131.93 69, 149.77 46.41, 192.23 -1.61 M112.49 90.2 C137.03 61.08, 162.75 33.69, 190.91 0.06 M119.37 91 C142.37 62.73, 170.35 34.6, 195.34 -2 M117.96 89.98 C146.18 57.27, 175.41 23.8, 197.16 0.72 M122.39 88.94 C141.73 70.4, 159.37 48.11, 203.11 -1.14 M122.29 90.88 C142.44 67.35, 161.48 45.48, 200.76 0.87 M126.6 88.45 C155.07 59.45, 181.64 27.87, 207.27 -0.39 M127.91 90.92 C147.85 68.36, 167.63 45.7, 206.02 -0.25 M133.05 92 C162.74 60.27, 189.17 27.87, 213.01 -1.11 M132.67 89.81 C159.78 59.51, 187.42 29.76, 212.55 -0.04 M136.3 89.33 C160.85 64.16, 187.39 36.57, 216.99 1.5 M138.55 91.11 C168.54 55.08, 201.27 20.23, 217.55 -0.18 M143.27 91.79 C176.12 55.45, 203.98 21.41, 220.9 -1.38 M144.77 90.85 C171.46 56.26, 201.18 23.39, 222.68 0.81 M150.1 92.91 C168.83 69.42, 185.62 48.84, 229.58 -2.06 M147.9 91.24 C170.57 67.29, 191.48 42.64, 228.42 -0.02 M155.53 91.2 C176.47 67.89, 195.67 41.53, 231.86 0.67 M153.59 89.76 C183.16 57.36, 213.65 23.86, 232.24 0.08 M158.47 90.44 C183.24 65.18, 205.75 35.84, 231.37 7.45 M159.37 90.63 C176.91 70.29, 193.94 50.7, 231.65 7.75 M164.07 89.81 C189.39 60.32, 216.38 28.79, 230.56 13.96 M165.01 91.17 C179.64 74.14, 195.02 54.84, 231.5 14.34 M169.29 92.12 C191.33 66.88, 209.4 46.85, 231.65 20.7 M169.38 91.25 C192.06 65.12, 213.8 40.27, 233.26 19.94 M176.94 89.95 C189.23 74.64, 202.38 61.12, 233.45 24.94 M174.77 89.63 C190.52 73.77, 205 58.78, 233.09 26.45 M181.24 89.88 C196.22 74.83, 208.5 56.75, 232.12 32.33 M181.73 91.44 C200 70.36, 217.65 47.31, 232.83 31.52 M185.94 90.65 C205.49 71.72, 222.76 51.09, 233.97 37.39 M185.44 90.54 C204.98 69.89, 222.06 51.04, 232.18 38.2 M189.78 91.37 C208.72 71.4, 221.12 52.14, 230.33 45.96 M190.54 90.95 C203.7 77.38, 216.91 61.76, 231.79 43.61 M196.67 89.67 C208.23 79.91, 216.16 67.72, 232.96 48.06 M197.47 91.23 C203.45 81.15, 210.77 72.26, 231.96 49.05 M201.15 89.95 C207.11 84.81, 213.33 76.94, 233.61 56.19 M201.33 89.92 C212 80.78, 220.52 70.73, 232.49 56.47 M206.51 89.49 C213.67 84.12, 221.47 75.41, 231.42 62.16 M208.18 89.9 C215.96 79.66, 224.45 69.3, 231.33 62.58 M214.35 90.71 C220.89 81.52, 229.45 72.23, 231.76 67.6 M211.95 89.86 C219.03 83.74, 226.11 75.82, 231.77 67.52 M218.62 91.3 C224.25 83.71, 226.65 81.17, 231.09 76.36 M218.73 90.64 C222.84 84.36, 226.58 80.11, 232.51 74.53 M223.21 91.92 C225.41 85.9, 228.43 82.13, 233.77 81.07 M223.52 90.7 C226.25 87.72, 229.27 82.92, 233.08 80.78 M228.65 89.99 C229.3 89.29, 230.7 88.65, 232.26 86.23 M228.95 90.35 C230.28 88.95, 231.26 87.61, 232.15 86.47" stroke="#82c91e" stroke-width="0.5" fill="none"></path><path d="M1.31 -1.45 C66.61 0.52, 134.98 -0.31, 231.93 1.69 M0.29 0.4 C45.64 1.03, 92.58 1.61, 230.16 0.05 M231.04 -0.84 C230.86 33.19, 233.27 68.37, 229.52 91.86 M230.53 -0.35 C231.17 32.82, 231.47 66.41, 231.61 89.66 M231.76 88.73 C164.89 92.76, 96.05 90.64, 0.32 90.96 M230.46 90.25 C168.03 90.21, 105.04 90.54, -0.31 90.38 M-1.42 89.97 C1.6 60.18, 0.39 32.31, 1.28 -1.57 M-0.27 89.86 C-0.22 59.69, 0.22 31.68, -0.06 0.82" stroke="#000000" stroke-width="1" fill="none"></path></g><g transform="translate(632.3342278872387 81.13691022599278) rotate(0 92.50000000000023 12.5)"><text x="0" y="17.000000000000046" font-family="Virgil, Segoe UI Emoji" font-size="20.438008275074964px" fill="#000000" text-anchor="start" style="white-space: pre;" direction="ltr">DNSmasq exporter</text></g><g stroke-linecap="round"><g transform="translate(501.4022732942449 91.57648661489611) rotate(0 51.04629079069787 -0.06736053676718257)"><path d="M-1.03 -0.23 C16.19 -0.17, 85.86 1.08, 103.12 1.32 M0.63 -1.4 C17.73 -1.75, 85.42 -0.51, 102.24 -0.39" stroke="#000000" stroke-width="1" fill="none"></path></g><g transform="translate(501.4022732942449 91.57648661489611) rotate(0 51.04629079069787 -0.06736053676718257)"><path d="M26.92 -9.86 C20.66 -8.29, 12.52 -2.75, -3 1.25 M26.33 -10.99 C21.01 -8.11, 14.62 -5.78, -0.26 0.58" stroke="#000000" stroke-width="1" fill="none"></path></g><g transform="translate(501.4022732942449 91.57648661489611) rotate(0 51.04629079069787 -0.06736053676718257)"><path d="M26.62 10.65 C20.28 6.42, 12.24 6.16, -3 1.25 M26.03 9.53 C20.71 8.13, 14.38 6.18, -0.26 0.58" stroke="#000000" stroke-width="1" fill="none"></path></g><g transform="translate(501.4022732942449 91.57648661489611) rotate(0 51.04629079069787 -0.06736053676718257)"><path d="M73.53 9.72 C83.15 6.19, 91.05 6.14, 100.26 1.09 M72.94 8.6 C79.36 7.09, 84.78 5.3, 103.01 0.42" stroke="#000000" stroke-width="1" fill="none"></path></g><g transform="translate(501.4022732942449 91.57648661489611) rotate(0 51.04629079069787 -0.06736053676718257)"><path d="M73.8 -10.8 C83.49 -8.52, 91.32 -2.76, 100.26 1.09 M73.21 -11.92 C79.64 -9.15, 85 -6.66, 103.01 0.42" stroke="#000000" stroke-width="1" fill="none"></path></g></g><g stroke-linecap="round" transform="translate(36.58518035005227 393.8578404585519) rotate(0 89.80620155038764 35)"><path d="M0 0 C0 0, 0 0, 0 0 M0 0 C0 0, 0 0, 0 0 M-1.02 6.43 C1.73 4.88, 4.16 2.14, 4.97 1.09 M-0.28 6.64 C1.37 4.44, 3.71 2.31, 4.77 0.53 M0.42 10.63 C3.27 7.79, 6.11 6.27, 10.48 0.99 M-0.26 11.99 C3.71 9.17, 5.91 6.19, 11.08 0.38 M-1.91 19.75 C5.21 13.04, 14.14 3.47, 16.99 1.32 M0.23 19.38 C4.5 13.33, 8.91 9.02, 15.83 -0.49 M1.88 23.72 C5.86 18.65, 14.16 8.46, 22.31 -2.01 M0.2 23.73 C8.47 16.19, 14.6 7.25, 20.31 -0.19 M-0.2 31.2 C6.35 21.57, 14.48 16.28, 26.49 0.32 M0.32 30.9 C6.83 21.9, 15.34 13.73, 26.29 -0.48 M-0.8 34.93 C10.93 24.51, 19.78 15.24, 33.38 -0.32 M-0.58 35.92 C9.68 24.81, 19.29 14.3, 32.77 -0.96 M1.14 44.44 C12.69 26.52, 24.77 14.3, 35.6 0.55 M0.82 43.35 C11.61 27.64, 22.84 14.37, 36.3 0.15 M0.54 49.15 C16.68 31.86, 32.42 12.7, 43.91 1.34 M-0.22 48.65 C14.37 31.96, 29.31 15.38, 42.62 0.05 M-0.99 55.86 C12.91 41.44, 26.83 27.19, 48.18 1.18 M0.48 54.93 C12.2 40.78, 25.9 25.24, 46.77 0.55 M1.74 59.66 C17.49 38.65, 38.65 18.87, 54.86 0.76 M0.19 60.15 C11.18 47.6, 23.44 34.27, 52.82 0.06 M-1.67 65.4 C23.37 42.34, 45 15.7, 59.83 1.14 M0.28 67.91 C21.67 40.88, 45.76 14.02, 57.96 0.76 M0.3 73.28 C25.9 45.39, 45.91 18.12, 61.93 0.53 M0.94 71.27 C17.72 50.73, 36.66 30.63, 64.21 0.64 M7.96 71.19 C17.58 57.31, 33.19 43, 67.83 1.16 M6.3 70.38 C29.35 47.12, 49.26 22.1, 68.54 0.65 M14.04 71.04 C30.63 51.92, 46.08 31.85, 73.53 -1.99 M11.25 71.13 C31.29 49.32, 50.56 26.21, 74.54 0.74 M16.34 69.26 C38.31 46.93, 58.81 22.94, 81.22 1.73 M18.35 70.88 C40.84 43.71, 63.62 17.96, 78.57 0.98 M23.41 73.39 C40.55 54.02, 56.14 36.84, 84.79 -0.66 M22.67 71.37 C41.5 48.73, 61.62 25.6, 85.43 -0.35 M27.95 70.9 C42.83 50.49, 60.38 33.2, 90.72 1.14 M27.48 70.78 C47.96 48.53, 66.54 27.62, 90.49 0.35 M31.77 71.99 C48.94 50.41, 66.06 30.67, 95.56 1.45 M32.35 70.89 C57.95 42.74, 83.13 14.45, 95.39 0.04 M39.25 70.4 C60.25 47.23, 79.79 20.27, 98.81 1.46 M38.88 71.07 C61.75 44.03, 84.03 18.7, 100.14 0.21 M42.22 70.26 C69.26 42.45, 92.55 14.21, 104.41 -1.97 M44.8 71.48 C56.52 57.16, 70.34 42.68, 106.83 -1.08 M48.8 71.61 C65.56 52.61, 81.22 32.51, 109.66 -1.47 M49 71.83 C70.38 49.04, 90.33 24.41, 111.75 -0.09 M55.56 69.45 C69.07 53.09, 85.63 34.53, 117.97 2.34 M54.94 70.77 C73.38 50.78, 91.35 28.38, 116.4 -0.57 M57.8 70.87 C81.62 47.03, 104.67 17.5, 123.15 -0.02 M59.13 72.23 C72.97 55.83, 85.94 41.95, 120.93 -0.4 M64.29 70.54 C88.65 43.55, 112.87 15.81, 127.56 2.13 M65.08 71.25 C77.98 56.02, 92.41 39.71, 126.59 0.79 M68.24 71.58 C88.26 51.23, 103.63 32.65, 132.92 -0.78 M70.49 72.09 C91.73 47.13, 113.67 20.57, 131.7 -0.65 M74.68 72.33 C96.98 48.96, 116.35 23.79, 139.24 2.21 M75.91 71.29 C87.58 57.66, 101.18 43.39, 136.83 -0.15 M79.46 71.17 C101.96 49.49, 124.87 24.35, 144.28 1.43 M79.86 71.81 C103.65 46.32, 124.74 21.71, 143.45 0.05 M84.66 69.37 C101.79 53.78, 120.64 35.39, 146.46 -0.6 M85.52 72.09 C102.81 52.97, 117.05 34.14, 149.08 1.08 M89.54 71.85 C116.14 43.58, 136.35 20.57, 152.3 1.59 M91.88 72.16 C110.24 49.81, 129.77 27.88, 153.97 0.46 M97.93 70.01 C108.03 57.38, 123.51 40.38, 159.38 1.32 M96.39 70.72 C115.08 50.99, 132.72 31.04, 158.22 0.27 M101.25 70.59 C117.89 54.35, 135.15 32.51, 163.74 -1.54 M102.11 71.26 C124.92 45.22, 149.06 16.78, 164.46 0.2 M105.87 70.39 C122.13 53.79, 138.74 35.9, 170.88 0.36 M108.38 71.12 C128.23 47.01, 150.25 20.74, 168.99 -0.38 M112.11 73.17 C125.44 56.05, 139.6 39.48, 175.1 0.56 M111.98 71.61 C130.46 51.42, 146.82 31.11, 174.46 0.74 M117.61 72.4 C136 49.49, 153.55 33.48, 178.55 -0.31 M117.76 71.09 C134.26 53.35, 150.01 33.7, 181.03 0.66 M124.33 72.14 C142.51 49.63, 162.53 28.33, 180.68 7 M123.83 71.06 C140.29 52.08, 157.28 31.33, 179.06 7.23 M129.97 69.75 C141.48 58.91, 151.15 44.1, 180.23 11.35 M128.18 71.26 C148.25 50.63, 165.36 29.85, 179.37 11.34 M134.87 72.82 C153.52 50.22, 167.78 31.95, 179.71 18.37 M133.87 71.79 C149 54.59, 166.04 35.46, 180.9 18.35 M141.5 69.89 C153.55 59.35, 162.04 43.19, 178.78 26.75 M139.67 70.16 C151.18 58.12, 161.98 46.65, 180.29 25.61 M145.38 71.33 C153 62.74, 160.4 52.43, 178.44 31.27 M145.22 71.39 C154.02 59.71, 163.4 50.17, 179.33 29.87 M150.48 72.09 C157.64 61.91, 166.09 51.78, 179.28 35.9 M149.67 71.15 C158.4 63.46, 164.93 54.53, 179.4 37.57 M156.24 72.57 C161.38 65.09, 167.54 61.71, 180.23 41.35 M154.87 71.78 C164.36 61.98, 172.05 53.31, 179.48 42.71 M160.25 70.13 C166.55 63.81, 169.38 60.65, 181.54 49.86 M159.34 72.21 C167.23 63.05, 176.39 53.31, 179.26 48.94 M164.55 72.2 C169.12 66.82, 174.06 58.95, 179.51 56.8 M166.72 72.24 C168.83 68.15, 171.88 64.31, 179.21 55.4 M171.54 71.43 C172.86 67.44, 177.27 65.31, 180.55 60.13 M171.11 71.86 C173.53 69.3, 174.37 67.48, 180.69 61.08 M176.93 71.14 C177.28 70.11, 178.25 69.09, 179.45 67.98 M176.53 71.08 C177.6 70.06, 178.59 69.36, 180.04 67.66" stroke="#4c6ef5" stroke-width="0.5" fill="none"></path><path d="M0.22 1.29 C66.97 1.52, 137.44 -1.63, 181.1 -1.83 M-0.91 -0.42 C59.74 0.84, 119.98 2.52, 180.43 0.68 M178.9 1.61 C179.89 19.97, 181.17 44.09, 181.16 68.43 M179.42 -0.16 C179.75 18.9, 179.02 36.37, 178.78 70.92 M180.75 70.36 C115.56 72.02, 55.36 71.11, 1.48 70.4 M179.4 70.37 C135.77 70.06, 92.03 70.52, -0.22 70.88 M-1.95 70.19 C-1.94 55.25, -1.56 38.49, 1.59 0.9 M-0.87 70.93 C0.65 50.86, 0.91 32.17, 0.69 0.54" stroke="#000000" stroke-width="1" fill="none"></path></g><g transform="translate(75.87760067736099 415.72304287026463) rotate(0 56.608695652173765 15.5)"><text x="0" y="21.999999999999975" font-family="Virgil, Segoe UI Emoji" font-size="24.853407937207027px" fill="#000000" text-anchor="start" style="white-space: pre;" direction="ltr">DNSMasq</text></g><g stroke-linecap="round"><g transform="translate(339.0158803266677 399.1292375675548) rotate(0 54.17291961530873 42.00990226594729)"><path d="M0.77 -0.45 C0.93 9.73, 0.62 48.97, 0.71 61.23 C0.79 73.48, 0.23 69.94, 1.3 73.07 C2.36 76.21, 4.23 78.35, 7.09 80.03 C9.94 81.71, 15 82.49, 18.43 83.17 C21.87 83.84, 17.2 83.98, 27.69 84.08 C38.17 84.17, 70.32 83.63, 81.35 83.74 C92.37 83.86, 90.24 85.43, 93.83 84.76 C97.43 84.09, 100.69 82.29, 102.93 79.7 C105.16 77.1, 106.43 72.92, 107.22 69.2 C108.01 65.47, 107.43 68.88, 107.67 57.37 C107.9 45.85, 108.76 9.51, 108.62 0.1 M-0.28 -1.74 C-0.2 8.13, -0.51 47.58, 0.13 59.73 C0.77 71.89, 2.46 67.6, 3.57 71.2 C4.67 74.8, 4.47 79.39, 6.76 81.35 C9.04 83.3, 13.63 82.7, 17.26 82.94 C20.89 83.18, 17.76 82.34, 28.53 82.77 C39.29 83.19, 71.14 85.13, 81.85 85.48 C92.57 85.84, 89.52 86.03, 92.84 84.9 C96.16 83.78, 99.24 81.48, 101.77 78.74 C104.3 76.01, 107.03 71.91, 108.02 68.48 C109.02 65.04, 107.78 69.56, 107.73 58.13 C107.68 46.69, 107.9 9.43, 107.71 -0.15" stroke="#000000" stroke-width="1" fill="none"></path></g></g><g stroke-linecap="round"><g transform="translate(362.2501466999893 409.7267553357465) rotate(0 31.26578425378102 7.753051372899677)"><path d="M-0.45 0.71 C8.85 0.31, 44.56 -1.61, 55.97 -1.58 C67.37 -1.55, 66.08 -1.82, 67.96 0.89 C69.85 3.59, 69.34 12.05, 67.28 14.66 C65.22 17.28, 65.82 16.22, 55.58 16.57 C45.34 16.93, 16.08 17.41, 5.84 16.81 C-4.4 16.2, -4.17 14.98, -5.85 12.97 C-7.53 10.96, -5.35 6.9, -4.24 4.75 C-3.13 2.6, 0.2 0.94, 0.82 0.06 M1.51 0.03 C10.75 -0.33, 44.62 -0.93, 55.65 -0.67 C66.67 -0.4, 65.65 -0.55, 67.67 1.63 C69.68 3.8, 69.49 9.94, 67.74 12.41 C65.99 14.87, 67.28 15.86, 57.16 16.39 C47.03 16.93, 17.48 16.42, 6.99 15.63 C-3.5 14.84, -3.82 13.44, -5.78 11.66 C-7.74 9.87, -5.68 7.08, -4.78 4.92 C-3.89 2.76, -1.22 -0.27, -0.42 -1.28" stroke="#000000" stroke-width="1" fill="none"></path></g></g><g stroke-linecap="round"><g transform="translate(339.213433086843 399.7671556167784) rotate(0 54.836840819229565 -14.67419909118837)"><path d="M0.71 1.2 C10.4 1.49, 39.53 1.65, 58.94 1.29 C78.35 0.92, 105.9 2.11, 117.17 -0.98 C128.44 -4.08, 126.25 -12.63, 126.58 -17.3 C126.91 -21.96, 124.47 -26.73, 119.17 -28.99 C113.87 -31.25, 112.76 -30.78, 94.79 -30.86 C76.83 -30.93, 29 -30.02, 11.38 -29.44 C-6.24 -28.86, -6.33 -29.74, -10.93 -27.36 C-15.53 -24.99, -15.96 -19.28, -16.21 -15.19 C-16.45 -11.1, -15.25 -5.4, -12.39 -2.81 C-9.53 -0.22, -0.96 -0.31, 0.96 0.34 M-0.38 0.78 C9.59 0.78, 41.05 0.28, 61.03 -0.37 C81.01 -1.01, 108.47 -0.37, 119.49 -3.11 C130.5 -5.85, 126.91 -12.51, 127.13 -16.81 C127.35 -21.1, 125.96 -26.86, 120.79 -28.86 C115.61 -30.86, 114.19 -28.57, 96.07 -28.81 C77.95 -29.05, 29.98 -30.56, 12.06 -30.3 C-5.86 -30.05, -6.46 -30.13, -11.44 -27.27 C-16.43 -24.42, -17.77 -17.14, -17.85 -13.18 C-17.92 -9.22, -15.15 -5.94, -11.88 -3.49 C-8.6 -1.04, -0.35 0.71, 1.79 1.51" stroke="#000000" stroke-width="1" fill="none"></path></g></g><g transform="translate(362.35621119862844 439.39258155552443) rotate(0 32.1108463221276 10.034639475664903)"><text x="0" y="14.06927895132981" font-family="Virgil, Segoe UI Emoji" font-size="16.055423161063853px" fill="#000000" text-anchor="start" style="white-space: pre;" direction="ltr">/tmp/log</text></g><g stroke-opacity="0.7" fill-opacity="0.7" stroke-linecap="round" transform="translate(635.8303863484725 205.18981305758143) rotate(0 145.5581395348836 150)"><path d="M0 0 C0 0, 0 0, 0 0 M0 0 C0 0, 0 0, 0 0 M-0.28 7.13 C2.21 4.79, 3.25 1.58, 5.47 0.01 M-0.47 6.57 C1.13 4.65, 3.53 2.38, 4.63 0.6 M-0.02 13.06 C1.64 9.96, 5.58 6.38, 10.53 1.54 M0.58 12.45 C4.63 7.88, 8.1 2.61, 11.15 -0.38 M1.24 19.43 C5.11 10.18, 10.62 4.91, 17.51 1.2 M0.09 17.62 C3.71 13.32, 7.35 10.32, 15.43 -0.19 M1.32 22.14 C9.72 15.1, 16.51 4.77, 20.56 1.41 M-0.68 23.96 C7.77 14.45, 15.53 5.88, 21.62 -0.28 M0.24 30.51 C5.26 23.31, 11.26 17.3, 27.08 -0.48 M0.04 29.71 C6.42 22.44, 13.74 14.49, 25.27 1.29 M1.23 36.66 C6.15 27.67, 14.11 20.75, 29.97 0.08 M0.62 36.02 C7.1 29.05, 12.71 21.79, 32.85 -0.42 M-1.14 42.82 C9.86 33.05, 20.26 22.98, 38.54 0.09 M-0.44 42.41 C8.53 34.26, 14.65 25.88, 36.99 0.94 M1.26 50.39 C13.98 32.95, 28.65 17.34, 41.98 -0.25 M-0.03 49.11 C12.33 34.34, 26.21 18.37, 43.17 -0.03 M0.95 55.52 C17.27 33.16, 37.82 12.69, 48.24 -0.67 M-0.47 54.89 C18.4 34.66, 35.2 14.13, 46.86 -0.31 M1.71 61.89 C11.69 44.26, 26.24 29.82, 51.54 -2.03 M-0.32 61.19 C17.71 41.15, 32.86 21.73, 52.17 0.59 M1.44 68.31 C17.49 49.22, 32.5 31.3, 59.24 -1.54 M-0.43 67.93 C17.12 47.2, 32.92 28.01, 59.03 0.79 M-1.71 73.74 C17.52 53.83, 36.54 32.61, 63.33 -1.91 M0.58 73.85 C13.73 57.04, 30.25 39.06, 63.83 -0.97 M-1.05 80.4 C24.23 49.53, 47.36 21.9, 67.34 1.45 M-0.34 79.9 C21.45 54.49, 43.16 31.3, 68.56 0.87 M-0.61 83.29 C20.79 61.51, 41.49 36.87, 73.76 -0.77 M0.41 86.02 C24.38 58.32, 48.45 30.74, 73.51 -0.28 M1.83 93.05 C25.49 65.98, 46.78 37.91, 79.03 1.07 M-0.81 92.3 C16.41 70.95, 33.15 52.83, 80.38 0.93 M-0.5 97.45 C25.22 69.24, 50.24 37.91, 84.93 -1.68 M0.14 97.76 C27.44 66.61, 55.73 34.4, 84.98 -1.06 M0.84 104.54 C21.12 78.7, 42.41 54.14, 89.54 0.88 M0.61 103.74 C21.63 77.98, 43.87 52.17, 90.33 -0.69 M-0.22 111.64 C25.13 85.31, 45.29 56.77, 94.68 0.03 M-0.4 110.23 C24.47 82.51, 47.81 53.19, 95.37 -0.16 M-1.57 116.93 C35.02 79.83, 67.98 41.47, 100.82 1.2 M-0.24 115.68 C25.26 88.31, 49.35 58.37, 100.11 0.7 M-1.87 120.3 C28.79 85.75, 59.56 53.01, 106.55 -1.17 M0.55 121.18 C27.93 88.73, 58.27 55.02, 106.25 -0.55 M-1.87 126.83 C41.25 81.17, 78.83 36.55, 111.52 1.15 M0.22 128.21 C37.03 85.34, 75.85 42.7, 110.35 -0.81 M1.85 135.93 C38.14 91.53, 75.29 48.52, 115.18 1.75 M0.27 133.01 C40.59 89.53, 80.96 41.5, 115.87 0.38 M1.13 140.36 C45.77 86.17, 96.21 30.02, 123.03 0.62 M-1.1 139.98 C29.51 105.37, 58.2 72.5, 121.55 -0.81 M0.94 147.79 C41.78 98.46, 86.69 48.87, 126.85 -0.71 M-0.03 146.45 C49.4 89.29, 99.08 30.39, 126.87 0.85 M0.35 151.74 C39.86 107.2, 75.42 64.52, 133.35 -1.55 M-0.74 151.87 C46.39 101.93, 91.09 49.74, 133.03 0.43 M1.27 160.47 C46.04 105.64, 95.35 48.57, 137.61 0.06 M-0.86 158.39 C48.76 99.89, 97.95 42.28, 137.34 0.22 M1.12 165.76 C54.05 100.68, 106.64 37.26, 143.53 1.37 M0.39 164.56 C31.04 128.4, 62.48 91.52, 142.37 -0.69 M-1.57 170.09 C50.91 109.64, 105.75 47.28, 149.66 1.37 M0.68 171.52 C53.08 111.38, 103.63 52.2, 148.28 0.81 M-0.98 177.93 C32.68 141.22, 65.23 104.23, 154.79 0.64 M0.43 176.97 C52.75 113.28, 107.97 50.4, 153.32 -0.94 M0.51 183.77 C56.09 117.52, 113.42 51.63, 158.03 1.09 M-0.45 182.91 C40.45 135.12, 83.67 85.95, 158.4 0.24 M-0.8 188.15 C62.52 120.22, 122.94 46.98, 163.99 -0.94 M-0.22 189.56 C65.13 114.61, 130.07 38.15, 164.13 -0.53 M1.33 195.04 C53.82 135.35, 104.61 74.38, 169.39 -1.33 M-0.19 194.45 C65.8 120.3, 130.55 45.84, 170.09 -0.45 M-0.07 201.91 C55.84 138.78, 111.83 73.41, 175.24 1.29 M-0.58 202.05 C48.98 144.71, 99.26 88.04, 175.58 -0.12 M-0.87 206.59 C36.35 163.05, 74.31 119.01, 180.02 -0.27 M1.05 207.34 C71.99 126.66, 142.1 45.93, 180.31 0.32 M0.71 213.69 C56.4 147.42, 113.78 81.41, 185.07 -0.23 M-0.53 213.86 C63.18 141.22, 127.03 68.84, 185.19 -0.04 M-0.2 219.11 C74.02 135.85, 144.93 52.48, 190.96 1.46 M-0.84 219.11 C62.02 149, 122.34 78.35, 191.2 0.83 M0.01 225.23 C51.32 167.42, 99.68 111.12, 196.85 -1.17 M0.88 225.21 C73.56 139.14, 148.97 54.06, 195.91 0.43 M-0.73 233.06 C78.98 142.57, 157.52 52.02, 200.04 1.26 M0.35 232.23 C47.19 173.95, 97.08 118.32, 201.29 0.19 M-0.85 237.88 C65.17 164.1, 130.23 88.95, 206.95 -0.07 M-0.22 236.89 C42.83 188.2, 86.17 138.7, 207.34 -0.65 M-0.32 243.04 C75.15 155.94, 149.97 70.1, 212.14 0.9 M-0.24 244.2 C75.93 155.4, 152.43 68.46, 212.36 0.34 M-0.2 249.32 C57.47 181.37, 114.45 113.04, 218.15 0.75 M-0.71 250.25 C63.72 175.27, 128.67 100.79, 217.05 0.04 M1.24 256.39 C50.72 199.89, 97.02 142.97, 223.22 -0.87 M-0.28 255.78 C68.25 178.32, 137.39 97.85, 222.87 -0.51 M-0.2 263.14 C84.19 166.53, 170.54 70.55, 229.4 -0.18 M-0.39 262.22 C72.76 178.94, 145.84 94.95, 228.1 -0.94 M0.75 267 C61.06 194.58, 123.21 124.9, 233.51 1.15 M0.88 267.87 C63.74 195.35, 126.87 124.02, 233.01 -0.1 M-0.85 275.46 C60.21 205.22, 120.22 135.95, 237.08 0.9 M0.65 274.66 C54.86 208.08, 110.93 143.84, 237.99 0.11 M0.17 279.56 C54.6 218.95, 109.24 155.41, 243.04 -1.11 M-0.04 280.37 C58.51 211.41, 119.62 141.11, 243.83 0.29 M0.66 287.06 C62.97 211.29, 129.11 135.99, 248.86 0.7 M0.08 286.6 C94.8 177.23, 190.02 67.37, 248.8 0.76 M-0.04 291.62 C92.14 185.67, 186.64 79, 255.2 0.77 M-0.45 292.42 C98.6 177.71, 198.69 63, 254.09 -0.48 M0.72 297.33 C81.76 205.28, 161.72 112.97, 258.34 0.07 M0.82 298.3 C102.87 179.99, 205.44 63.15, 259.9 0.62 M1.75 301.67 C102.48 184.94, 205.24 68.19, 265.93 0.19 M3.21 301.95 C77.01 213.41, 153.75 125.83, 264.62 -0.64 M7.83 301.75 C61.43 237.4, 118.72 173.21, 271.03 -0.51 M7.76 302.17 C80.71 219.07, 153.73 136.09, 270.13 0.04 M14.2 302.64 C100.94 205.37, 185.37 105.36, 274.82 -0.99 M13.1 302.23 C80.71 226.22, 147.14 150.32, 275.28 0.18 M17.86 302.69 C115.17 188.75, 214.72 77.8, 281.3 0.99 M18.41 302.19 C104.47 202.2, 191.95 102.41, 281.13 0.04 M23.55 302.67 C96.77 217.49, 168.37 133.8, 285.69 -1.23 M22.72 302.01 C87.47 227.65, 151.01 153.96, 286.75 -0.51 M29.43 301.74 C100.33 218.07, 172.79 137.07, 291.93 0.26 M29.39 302.1 C94.95 226.95, 160.15 151.68, 291.05 0.7 M34.26 303.54 C97.87 227.72, 162.61 151.65, 290.63 6.54 M34.19 302.31 C123.14 199.5, 212.02 95.82, 290.6 6.07 M38.62 302.26 C138.57 186.79, 237.5 73.12, 291.05 11.11 M39.72 301.76 C136.65 188.12, 235.29 74.7, 291.46 12.74 M44.63 301.67 C124.18 211.55, 203.08 121.31, 291.09 18.75 M44.78 302.72 C117.52 220.12, 189.76 137.65, 290.97 18.62 M50.58 302.99 C122.97 216.01, 196.67 132.74, 291.67 23.84 M50.35 301.55 C130.3 212.92, 208.57 122.77, 291.44 23.91 M55.21 302.57 C120.09 229.63, 182.99 156.75, 290.39 31.34 M55.8 302.1 C136.27 208.99, 217.91 114.96, 290.93 30.82 M59.57 301.03 C142.64 206.64, 226.31 111.35, 291.41 36.04 M61.32 301.81 C125.32 225.65, 191.83 148.54, 290.56 36.96 M64.49 301.43 C144.48 210.28, 221.8 121.47, 292.1 42.97 M65.37 302.69 C155.36 198.14, 245.79 94.22, 290.91 43.32 M72.15 300.93 C117.58 247.46, 165.49 195.63, 291.38 48.41 M70.96 302.18 C140.34 223.35, 210.19 144.55, 291.66 48.92 M75.32 301.33 C148.95 220.62, 218.29 140.16, 290.6 56.01 M76.76 301.82 C139.34 231.15, 202.69 159.98, 291.7 55.41 M83.13 300.84 C139.81 233.19, 200.11 166.03, 291.23 60.63 M81.77 302.12 C146.21 226.27, 210.87 151.25, 290.89 61.19 M85.83 302.18 C132.32 250.95, 177.09 195.65, 289.88 68.15 M87.26 301.68 C147.47 233.63, 206.91 165.9, 291.68 67.64 M92.1 301.36 C153.06 231.82, 214.36 161.36, 290.33 72.01 M93.34 301.66 C168.18 213.06, 245.45 124.89, 291.72 73.31 M98.79 301.46 C176.08 214.49, 251.67 126.47, 292.04 78.57 M98.08 302.08 C138.46 255.72, 177.75 210.59, 291.34 79.64 M102.94 301.5 C177.75 218.04, 249.14 134.75, 291.57 83.85 M103.92 302.22 C163.48 230.45, 224.02 160.35, 291.32 85.79 M108.76 301.48 C152.28 252.16, 198.48 201.09, 290.91 91.78 M108.24 302.32 C158.28 244.1, 208.98 184.69, 291.67 91.05 M113.62 303.07 C169.75 234.3, 230.38 166.92, 290.33 99.05 M114.2 301.4 C165.51 240.89, 218.51 181.04, 290.36 98.68 M117.98 302.34 C170.09 244.72, 221.9 185.8, 291.1 103.94 M119.71 301.88 C169.53 245.21, 220.66 188.65, 291.73 103.71 M123.21 303.11 C179.16 239.43, 234.77 177.91, 290.43 111.03 M125.24 301.23 C186.1 232.08, 247.13 162.65, 290.79 110.76 M129.66 303.14 C181.67 241.93, 233.23 183.29, 291.07 117.03 M128.88 302.91 C169.27 256.02, 209.62 209.95, 291.55 115.45 M133.77 301.4 C178.28 256.98, 216.61 208.12, 293.02 122.13 M134.45 301.38 C195.29 234.2, 254.01 167.16, 290.9 121.74 M139.52 303.5 C177.5 263.98, 210.39 224.34, 289.87 128.81 M140.06 301.39 C186.02 247.6, 233.03 193.96, 290.86 127.83 M144.99 303.48 C202.45 237.88, 260.21 169.23, 290.39 133.12 M145.43 302.1 C180.69 261.22, 218.32 218.53, 292 133.37 M150.4 301.94 C206.26 242.8, 256.35 181.19, 291.74 141.17 M150.16 302.71 C186.44 260.81, 222.4 218.65, 290.87 141.04 M154.77 302.33 C195.6 257.1, 234.27 210.96, 290.49 145.57 M156.67 302.09 C198 252.42, 241.45 201.95, 291.89 146.12 M160.6 301.02 C193.84 263.79, 228.94 225.19, 289.88 153.17 M160.95 302.49 C190.81 271.58, 217.77 239.18, 291.14 152.13 M167.6 301.43 C201.56 262.82, 239.79 219.51, 291.32 157.05 M166.52 302.17 C212.79 249.6, 258.6 196.2, 292.03 158.9 M173.05 302.98 C220.09 245.52, 268.04 192.55, 292.71 166.28 M171.69 302.49 C212.57 255.32, 251.5 208.06, 291.44 165.42 M177.33 304.01 C205.23 270.6, 231.9 243.01, 291.39 171.44 M177.04 301.38 C199.62 275.81, 223.01 247.82, 291.92 170.29 M181.25 302.5 C209.73 270.31, 240.25 236.4, 290.83 176.07 M183.2 301.32 C217.95 262.65, 252.92 222.86, 291.75 177.5 M186.98 302.92 C222.69 261.24, 260.4 219.82, 291.55 181.53 M187.04 302.5 C220.05 268.69, 249.67 232.92, 292.05 182.6 M191.48 301.06 C226.16 263.32, 264.58 220.77, 289.88 190.54 M193.28 302.85 C222.22 267.45, 251.49 235.08, 290.84 188.49 M199.46 302.8 C230.22 265.13, 263.43 226.5, 292.19 196.22 M198.67 303.21 C225.73 270.13, 253.58 238.36, 291.43 195.77 M204.76 300.93 C234.37 270.05, 262.4 235.72, 291.14 201.22 M203.62 301.33 C231.67 269.46, 260.63 236.73, 291.86 202.11 M207.37 302.03 C237.06 272.71, 261.33 239.83, 290.41 207.19 M208.42 303.06 C239.26 266.84, 268.65 233.69, 291.94 207.06 M214.81 303.17 C237.24 278.24, 258.09 253.25, 289.67 213.67 M214.8 302.35 C239.26 272.23, 264.02 244.5, 291.36 213.2 M219.06 302.83 C241.99 276.22, 260.39 255.83, 289.36 219.63 M220.19 302.44 C235.35 285.59, 250.21 268.64, 290.71 220.89 M226.06 301.61 C239.14 287.39, 251.06 268.61, 290.9 226.5 M225.29 301.87 C244.83 277.6, 264.98 256.49, 290.94 225.7 M228.58 301.15 C244.18 287.31, 256.57 272.6, 290.91 231.29 M230.27 301.62 C246.3 284.42, 262.61 264.68, 291.73 232.74 M235.69 300.85 C258.82 277.74, 280.43 250.69, 291.98 238.08 M236.44 301.19 C256.8 277.66, 275.37 255.12, 291.59 238.44 M241.69 300.74 C260.86 281.2, 275.65 261.86, 289.64 242.92 M240.35 301.71 C258.33 281.66, 276.29 262.81, 290.91 244.73 M247.56 302.28 C257.83 288.84, 266.95 280.37, 291.11 249.32 M245.51 302 C259.85 287.2, 273.57 271.53, 292.04 250.83 M249.89 303.16 C267.02 283.01, 282.6 265.15, 289.53 257.34 M250.5 301.7 C265.03 287.09, 276.44 272.31, 291.69 255.59 M257.63 302.85 C268.55 288.01, 279.92 274.25, 292.19 262.66 M255.99 302.09 C269.09 287.39, 281.79 274.19, 290.38 262.88 M260.38 301.7 C271.7 291.84, 280.22 282.75, 293.28 266.12 M262.17 301.43 C271.03 291.51, 278.92 282.34, 291.43 268.38 M266.53 301.99 C277.21 294.27, 285.95 281.2, 290.86 272.56 M267.21 303.34 C274.3 294.14, 283.71 284.97, 291.12 274.73 M274.09 303.46 C277.66 293.57, 283.41 289.93, 291.63 280.37 M273.23 302.59 C279.46 294.26, 287.78 285.18, 291.7 280.32 M277.63 304.19 C280.45 298.29, 283.32 292.91, 291.15 284.54 M277.45 303.25 C281.74 299.14, 284.15 294.89, 290.81 286.64 M283.56 302.8 C287.07 298.15, 289.77 294.09, 291.73 293.42 M283.1 301.84 C287.02 298.67, 289.12 294.88, 291.67 292.79 M288.7 302.26 C289.11 301.87, 289.65 300.66, 291.44 298.4 M288.16 302.5 C289.49 300.78, 290.94 299.45, 291.84 298.61" stroke="#82c91e" stroke-width="0.5" fill="none"></path><path d="M1.11 -1.37 C104.95 2.87, 207.43 0.8, 290.48 -0.32 M0.61 0.51 C60.91 -1.99, 121.44 -1.94, 291.72 0.21 M292.25 -1.15 C292.57 68.34, 292.48 137.43, 290.88 300.57 M290.51 0.67 C290.72 109.92, 291.03 221.35, 291.25 299.5 M292.23 300.3 C197.44 299.87, 105.76 299.1, 0.56 300.26 M290.95 300.66 C213.78 300.2, 138.03 299.48, 0.07 299.27 M1.17 300.66 C1.33 190.65, 2.46 80.44, 1.37 0.82 M0.51 300.4 C-1.96 211.32, -1.63 123.61, -0.41 -0.62" stroke="#000000" stroke-width="1" fill="none"></path></g><g stroke-opacity="0.7" fill-opacity="0.7" transform="translate(699.4815491391764 449.7246967785104) rotate(0 85.5 15.5)"><text x="0" y="22" font-family="Virgil, Segoe UI Emoji" font-size="25.343130261092927px" fill="#000000" text-anchor="start" style="white-space: pre;" direction="ltr">Log processor</text></g><g stroke-linecap="round"><g stroke-opacity="0.8" fill-opacity="0.8" transform="translate(218.7808230320611 430.46394507090235) rotate(0 58.23672841005032 0.6619599964469671)"><path d="M-1.1 0.41 C18.69 0.4, 98.07 0.65, 117.57 0.83 M0.52 -0.43 C20.31 -0.41, 97.31 1.26, 116.93 1.75" stroke="#000000" stroke-width="1" fill="none"></path></g><g stroke-opacity="0.8" fill-opacity="0.8" transform="translate(218.7808230320611 430.46394507090235) rotate(0 58.23672841005032 0.6619599964469671)"><path d="M89.18 12.32 C92.2 7.88, 99.02 7.32, 115.11 1.87 M88.56 10.94 C98.73 7.19, 110.64 4.21, 116.22 2.68" stroke="#000000" stroke-width="1" fill="none"></path></g><g stroke-opacity="0.8" fill-opacity="0.8" transform="translate(218.7808230320611 430.46394507090235) rotate(0 58.23672841005032 0.6619599964469671)"><path d="M89.65 -8.2 C92.73 -8.51, 99.46 -4.94, 115.11 1.87 M89.03 -9.57 C99.19 -5.59, 110.92 -0.84, 116.22 2.68" stroke="#000000" stroke-width="1" fill="none"></path></g></g><g stroke-linecap="round"><g stroke-opacity="0.8" fill-opacity="0.8" transform="translate(719.3077602856038 149.3923693466686) rotate(0 0.779125044731245 20.957120541396023)"><path d="M0.57 -1.17 C0.76 5.73, -0.04 34.75, 0 41.82 M-0.59 0.83 C0.05 7.85, 2.06 36.23, 2.14 43.09" stroke="#000000" stroke-width="1" fill="none"></path></g><g stroke-opacity="0.8" fill-opacity="0.8" transform="translate(719.3077602856038 149.3923693466686) rotate(0 0.779125044731245 20.957120541396023)"><path d="M-7.97 21.74 C-5.1 27.15, -4.37 31.77, 3.68 44.72 M-6.42 23.2 C-2.2 31.07, -0.7 38.9, 2.81 43.86" stroke="#000000" stroke-width="1" fill="none"></path></g><g stroke-opacity="0.8" fill-opacity="0.8" transform="translate(719.3077602856038 149.3923693466686) rotate(0 0.779125044731245 20.957120541396023)"><path d="M6.49 21.06 C6.35 26.68, 4.07 31.44, 3.68 44.72 M8.04 22.52 C6.94 30.58, 3.11 38.66, 2.81 43.86" stroke="#000000" stroke-width="1" fill="none"></path></g></g><g stroke-linecap="round"><g stroke-opacity="0.8" fill-opacity="0.8" transform="translate(629.1654829192889 455.767125169785) rotate(0 -91.84790246774082 -8.803311329965823)"><path d="M-1.17 -1.09 C-31.72 -4.28, -152.51 -15.71, -182.89 -18.56 M0.41 0.96 C-30.37 -2.1, -153.85 -14.19, -184.11 -17.16" stroke="#000000" stroke-width="1" fill="none"></path></g><g stroke-opacity="0.8" fill-opacity="0.8" transform="translate(629.1654829192889 455.767125169785) rotate(0 -91.84790246774082 -8.803311329965823)"><path d="M-156.86 -25.47 C-165.15 -24.23, -174.3 -18.39, -182.48 -15.8 M-155.41 -23.82 C-163.67 -23.17, -171.9 -19.52, -183.33 -17.95" stroke="#000000" stroke-width="1" fill="none"></path></g><g stroke-opacity="0.8" fill-opacity="0.8" transform="translate(629.1654829192889 455.767125169785) rotate(0 -91.84790246774082 -8.803311329965823)"><path d="M-158.87 -5.05 C-166.58 -10.61, -175.07 -11.59, -182.48 -15.8 M-157.41 -3.4 C-164.98 -8.97, -172.6 -11.56, -183.33 -17.95" stroke="#000000" stroke-width="1" fill="none"></path></g></g><g stroke-opacity="0.8" fill-opacity="0.8" transform="translate(660.2701251414396 227.98110588215877) rotate(0 124 12.5)"><text x="0" y="18" font-family="Virgil, Segoe UI Emoji" font-size="20px" fill="#000000" text-anchor="start" style="white-space: pre;" direction="ltr">web handler: 127.0.0.1:9101</text></g><g stroke-opacity="0.8" fill-opacity="0.8" stroke-linecap="round" transform="translate(698.2701251414396 323.9811058821588) rotate(0 90.5 21)"><path d="M0 0 C0 0, 0 0, 0 0 M0 0 C0 0, 0 0, 0 0 M-0.98 7.03 C1.74 5.23, 3.13 2.73, 4.65 -0.28 M-0.61 6.25 C1.29 4.9, 1.97 3.43, 5.31 0.05 M0.07 11.43 C4.61 6.68, 6.13 4.94, 11.34 0.79 M-0.22 12.21 C4.09 7.1, 7.47 3.06, 11 0.55 M1.07 18.93 C4.5 14.71, 7.38 8.06, 14.36 -0.86 M0.74 17.45 C2.42 15.55, 6.46 11.16, 15.3 1.02 M0.91 24.99 C4.82 16.97, 8.71 12.41, 22.17 0.97 M0.74 24.9 C6.88 16.98, 13.73 10.07, 20.69 -0.59 M0.36 31.09 C12.34 19.36, 21.27 7.1, 24.6 -0.49 M0.49 30.97 C7.44 21.51, 16.27 11.88, 25.43 -0.54 M0.48 35.31 C6.57 29.62, 12.96 20.53, 33.57 -0.82 M-0.46 37.17 C5.58 28.48, 12 20.33, 31.91 -0.14 M1.44 42.67 C13.06 26.93, 28.71 11.68, 36.77 0.05 M-0.7 42.93 C12.1 29.71, 22.47 16.43, 37.62 -0.14 M5.25 42.77 C18.35 29.35, 25.85 16.09, 43.76 -0.05 M5.06 42.39 C14.7 31.08, 25.65 19.3, 43.47 -0.41 M10.2 42.56 C20.13 32.2, 28.5 21.05, 47.54 -1.29 M10.69 43.48 C23.17 27.68, 36.56 13.34, 46.65 -0.43 M15.31 40.18 C26.64 26.87, 40.05 13.24, 54.56 0.32 M16.42 42.88 C24.33 31.75, 33.24 22.23, 52.96 -0.99 M23.35 40.48 C30.27 30.29, 40.83 17.21, 58.36 1.13 M22.09 41.8 C33.28 28.07, 44.84 15.39, 57.67 -0.67 M28.89 43.11 C40.4 24.57, 56.29 10.59, 65.56 0.04 M26.49 41.34 C36.49 30.93, 44.84 22.02, 63.84 0.44 M33.86 40.81 C40.55 33.03, 52.43 20.4, 69.48 -1.33 M31.24 42.9 C45.8 25.32, 60.28 10, 69.18 0.28 M39.6 43.53 C50.85 23.57, 67.74 8.67, 76.14 -0.42 M38.09 41.59 C47.62 31.1, 56.97 19.18, 74.4 -0.91 M42.47 40.66 C54.13 30.38, 67.45 15.79, 77.9 -1.58 M42.77 42.66 C54.47 27.83, 67.68 13.42, 80.04 0.94 M49.84 41.17 C59.15 27.8, 71.65 16.18, 83.46 -1.86 M48.38 42.86 C55.71 31.68, 63.56 23.06, 84.82 0.05 M51.72 43.84 C63.52 29.55, 76.36 13.77, 91.43 1.18 M53.16 42.88 C62.01 33.08, 69.9 22.26, 90.48 0.23 M60.78 41.44 C69.44 30.43, 82.09 16.23, 96.45 -0.37 M59.9 42.74 C67.03 33.59, 74.49 24.08, 96.12 -0.7 M63.93 42.89 C77.04 26.11, 93.44 12.32, 102.66 -0.54 M63.74 42.21 C75.58 29.13, 87.71 15.21, 101.07 0.46 M70.38 41.49 C79.39 30.89, 86.13 24.41, 105.84 -1.32 M69.54 42.22 C82.51 26.47, 96.19 11.28, 107.19 -1.28 M75.19 41.07 C88.96 25.66, 103.88 11.36, 110.93 -0.48 M73.71 43.23 C85.9 28.38, 97.17 16.41, 111.75 0.32 M78.71 40.94 C92.35 29.8, 101.69 18.24, 117.47 -0.61 M78.9 43.44 C91.82 27.79, 105.43 12.47, 117.11 -0.17 M85.39 42.34 C100.55 26.86, 111.89 11.16, 120.4 -0.7 M85.13 41.4 C100.34 25.71, 113.77 9.54, 122.83 -0.11 M88.62 40.87 C99.84 33.3, 110.97 19.45, 124.95 2.33 M89.91 41.68 C100.52 30.39, 111.48 17.78, 126.81 -0.21 M96.17 41.41 C107.23 33.65, 116.77 21.21, 133.99 -1.51 M95.93 42.04 C106.64 28.06, 118.44 14.96, 131.96 -0.34 M99.73 42.33 C109.74 32.78, 117.72 23.72, 135.67 -0.97 M99.88 42.84 C109.44 31.49, 119.14 21.84, 138.08 0.89 M104.98 41.67 C113.69 35.35, 122.48 23.15, 143.41 0.49 M106.86 41.41 C119.71 28.35, 132.11 14.08, 143.17 -0.51 M113.13 41.34 C124.51 28.93, 138.43 13.43, 147.49 -1.01 M111.14 43.49 C120.73 31.06, 130.49 19.82, 147.26 0.57 M119.04 41.27 C127.04 29.08, 140.3 18.37, 155.13 -1.61 M116.57 41.62 C130.01 29.35, 142.29 14.81, 153.82 -0.35 M120.69 43.65 C130.52 31, 141.9 22.4, 158.03 0.46 M121.38 42.57 C129 34.19, 136.94 24.57, 159.52 1.16 M129.35 43.06 C139.04 29.62, 147.52 18.09, 164.44 1.05 M128.56 41.7 C142.13 26.26, 156.1 8.98, 163.65 -0.22 M131.05 42.71 C148.61 26.99, 159.01 10.84, 170.71 0.35 M132.66 42.42 C143.89 28.34, 157.6 14.24, 169.91 0.88 M136.69 40.59 C147.4 30.99, 155.04 23.77, 173.37 -0.99 M138.17 42.55 C147.55 30.86, 158.62 19.66, 175.77 -0.08 M143.62 41.7 C157.84 25.19, 171.91 10.59, 180.7 0.35 M142.37 41.76 C151.74 33.94, 160.48 23.4, 180.33 0.85 M149.64 40.16 C156.73 30.01, 168.12 23.54, 182.8 0.8 M149.63 41.96 C162.24 27.99, 172.85 14.35, 183.66 1.77 M154.62 43.51 C160.32 34.54, 165.86 28.79, 181.78 9.12 M154.29 42.72 C165.41 29.58, 174.89 17.76, 183.32 8.36 M158.54 42.78 C167.46 32.68, 178.27 21.56, 183.77 13.97 M159 41.64 C165.91 33.42, 173.15 25.99, 183.58 14.7 M163.04 40.76 C171.18 35.84, 179.11 25.24, 182.61 19.25 M165.54 41.8 C171.03 36.53, 175.15 29.93, 183.44 20.78 M169.51 42.16 C175.43 39.19, 178.09 34.74, 182.54 25.17 M171.21 42.15 C174.73 37.11, 177.3 32.98, 182.56 26.86 M176.13 41.98 C177.89 40.86, 178.52 36.89, 184.58 31.38 M175.48 42.71 C177.88 39.79, 180.59 37.06, 184.19 32.26 M181.17 42.1 C181.88 40.77, 183.26 39.29, 183.1 38.79 M180.89 41.94 C181.77 40.82, 182.47 39.79, 183.67 38.8" stroke="#4c6ef5" stroke-width="0.5" fill="none"></path><path d="M1.05 0.8 C65.2 -2.79, 128.79 -0.82, 180.75 0.07 M-0.64 -0.16 C60.42 -0.76, 119.77 -1.31, 180.84 -0.03 M180.08 0.08 C179.33 13.7, 179.54 32.24, 179.43 43.25 M180.8 -0.61 C180.82 15.86, 180.9 31.6, 181.1 41.35 M182.45 42.72 C137.32 44.31, 98.53 43.19, 1.89 40.07 M181.84 42.89 C129.98 40.94, 79.38 42.13, 0.75 42.78 M1.52 40.37 C-0.53 25.1, -0.18 13.76, -1.5 1.47 M0.92 42.95 C0.36 27.51, 0.32 15.52, -0.47 -0.84" stroke="#000000" stroke-width="1" fill="none"></path></g><g stroke-opacity="0.8" fill-opacity="0.8" transform="translate(729.2701251414396 332.9811058821588) rotate(0 58 12.5)"><text x="0" y="18" font-family="Virgil, Segoe UI Emoji" font-size="20px" fill="#000000" text-anchor="start" style="white-space: pre;" direction="ltr">Go channels</text></g><g stroke-linecap="round"><g stroke-opacity="0.7" fill-opacity="0.7" transform="translate(776.0215731008384 316.9811058821588) rotate(0 -0.3366574424924238 -31.218521728822964)"><path d="M0.36 1.15 C0.17 -9.16, 0.06 -50.96, -0.05 -61.65 M-0.9 0.72 C-1.3 -9.99, -0.7 -53.11, -0.7 -63.59" stroke="#000000" stroke-width="1" fill="none"></path></g><g stroke-opacity="0.7" fill-opacity="0.7" transform="translate(776.0215731008384 316.9811058821588) rotate(0 -0.3366574424924238 -31.218521728822964)"><path d="M-8.16 -26.02 C-5.35 -15.46, -3.47 -5.69, 0.29 2.1 M-10.28 -26.99 C-5.93 -19.23, -4.46 -10.86, -0.52 2.11" stroke="#000000" stroke-width="1" fill="none"></path></g><g stroke-opacity="0.7" fill-opacity="0.7" transform="translate(776.0215731008384 316.9811058821588) rotate(0 -0.3366574424924238 -31.218521728822964)"><path d="M12.36 -26.16 C7.11 -15.48, 0.93 -5.66, 0.29 2.1 M10.24 -27.13 C8.4 -19.23, 3.67 -10.82, -0.52 2.11" stroke="#000000" stroke-width="1" fill="none"></path></g><g stroke-opacity="0.7" fill-opacity="0.7" transform="translate(776.0215731008384 316.9811058821588) rotate(0 -0.3366574424924238 -31.218521728822964)"><path d="M11.28 -34.38 C5.94 -45.9, -0.24 -58.28, -0.78 -62.65 M9.16 -35.35 C7.05 -44.52, 2.33 -53.18, -1.59 -62.63" stroke="#000000" stroke-width="1" fill="none"></path></g><g stroke-opacity="0.7" fill-opacity="0.7" transform="translate(776.0215731008384 316.9811058821588) rotate(0 -0.3366574424924238 -31.218521728822964)"><path d="M-9.24 -34.53 C-6.52 -46.05, -4.64 -58.38, -0.78 -62.65 M-11.36 -35.5 C-7.27 -44.72, -5.8 -53.34, -1.59 -62.63" stroke="#000000" stroke-width="1" fill="none"></path></g></g><g stroke-linecap="round"><g stroke-opacity="0.7" fill-opacity="0.7" transform="translate(776.7034590120534 374.9811058821588) rotate(0 0.9277072355348537 36.11966842025515)"><path d="M0.36 -0.08 C0.8 12.34, 2.09 61.31, 2.77 73.41 M-0.92 -1.17 C-0.69 10.97, 0.68 59.05, 1.55 71.5" stroke="#000000" stroke-width="1" fill="none"></path></g><g stroke-opacity="0.7" fill-opacity="0.7" transform="translate(776.7034590120534 374.9811058821588) rotate(0 0.9277072355348537 36.11966842025515)"><path d="M11.34 26.93 C8.96 21.15, 3.97 9.57, -0.18 1.41 M11.77 26.91 C6.77 17.24, 2.82 8.24, 1.28 0.59" stroke="#000000" stroke-width="1" fill="none"></path></g><g stroke-opacity="0.7" fill-opacity="0.7" transform="translate(776.7034590120534 374.9811058821588) rotate(0 0.9277072355348537 36.11966842025515)"><path d="M-9.17 27.56 C-5.19 21.53, -3.83 9.75, -0.18 1.41 M-8.74 27.54 C-6.41 17.79, -3.03 8.57, 1.28 0.59" stroke="#000000" stroke-width="1" fill="none"></path></g><g stroke-opacity="0.7" fill-opacity="0.7" transform="translate(776.7034590120534 374.9811058821588) rotate(0 0.9277072355348537 36.11966842025515)"><path d="M-10.13 42.95 C-6 54.32, -3.96 59.93, 1.02 72.98 M-9.71 42.93 C-6.23 53.3, -2.07 64.18, 2.48 72.16" stroke="#000000" stroke-width="1" fill="none"></path></g><g stroke-opacity="0.7" fill-opacity="0.7" transform="translate(776.7034590120534 374.9811058821588) rotate(0 0.9277072355348537 36.11966842025515)"><path d="M10.37 42 C8.15 53.72, 3.83 59.63, 1.02 72.98 M10.79 41.98 C6.94 52.54, 3.77 63.76, 2.48 72.16" stroke="#000000" stroke-width="1" fill="none"></path></g></g></svg>
