<svg version="1.1" xmlns="http://www.w3.org/2000/svg" viewBox="0 0 329.07584372134 774.639226917247" width="329.07584372134" height="774.639226917247">
  <!-- svg-source:excalidraw -->

  <defs>
    <style>
      @font-face {
        font-family: "Virgil";
        src: url("https://excalidraw.com/Virgil.woff2");
      }
      @font-face {
        font-family: "Cascadia";
        src: url("https://excalidraw.com/Cascadia.woff2");
      }
    </style>
  </defs>
  <rect x="0" y="0" width="329.07584372134" height="774.639226917247" fill="#ffffff"></rect><g stroke-linecap="round" transform="translate(66.4215294366387 10) rotate(0 71.94266595054319 68.96982851457034)"><path d="M105.4 6.43 C115.25 10.07, 123.7 19.36, 130.06 27.95 C136.41 36.54, 141.75 47.78, 143.55 57.96 C145.35 68.14, 144.24 79.09, 140.84 89.04 C137.45 99, 130.94 110.05, 123.2 117.72 C115.46 125.39, 104.73 132, 94.43 135.09 C84.13 138.19, 71.95 137.74, 61.4 136.3 C50.85 134.86, 39.94 132.34, 31.12 126.45 C22.29 120.56, 13.79 110.35, 8.44 100.96 C3.09 91.56, -0.83 80.24, -0.97 70.09 C-1.1 59.94, 2.8 49.29, 7.63 40.05 C12.47 30.82, 19.51 21, 28.02 14.67 C36.53 8.34, 48 4.07, 58.69 2.09 C69.38 0.11, 83.79 1.49, 92.15 2.77 C100.51 4.06, 105.67 7.98, 108.84 9.79 C112 11.6, 111.91 12.61, 111.14 13.64 M88.99 1.15 C99.17 2.37, 110.25 9.47, 118.22 16.19 C126.19 22.91, 132.54 31.67, 136.8 41.47 C141.05 51.26, 144.44 64.34, 143.75 74.94 C143.05 85.54, 138 96.51, 132.61 105.07 C127.22 113.64, 120.44 120.83, 111.43 126.34 C102.41 131.86, 89.23 137.06, 78.51 138.18 C67.79 139.3, 57.33 136.83, 47.1 133.06 C36.86 129.28, 24.56 123.36, 17.09 115.5 C9.63 107.64, 4.76 95.96, 2.28 85.91 C-0.19 75.85, 0.07 65.42, 2.26 55.17 C4.45 44.93, 8.77 32.79, 15.42 24.44 C22.08 16.09, 32.19 8.92, 42.18 5.06 C52.16 1.21, 67.61 1.69, 75.33 1.32 C83.05 0.95, 86.41 2.49, 88.5 2.84 C90.58 3.19, 88.29 2.65, 87.84 3.4" stroke="#000000" stroke-width="2" fill="none"></path></g><g stroke-linecap="round"><g transform="translate(140.2032550797618 13.463224992447067) rotate(0 -0.9398103440951218 67.58011892645408)"><path d="M-0.42 1.12 C-0.94 23.44, -3.32 111.43, -3.45 133.44 M1.57 0.67 C1.42 23.14, -0.81 112.29, -1.29 134.49" stroke="#000000" stroke-width="2" fill="none"></path></g></g><g stroke-linecap="round"><g transform="translate(93.43862053866417 32.59973841919464) rotate(0 49.92334675012745 10.089286241888772)"><path d="M1.12 -1.07 C0.65 -1, -2.53 0.2, -3.31 0.01 C-4.09 -0.19, -4.47 -2.94, -3.56 -2.22 C-2.65 -1.5, -1.47 1.52, 2.15 4.33 C5.77 7.13, 8.14 11.59, 18.16 14.6 C28.18 17.61, 53.89 21.57, 62.27 22.37 C70.64 23.18, 64.17 20.65, 68.42 19.43 C72.67 18.2, 82.34 17.56, 87.79 15 C93.24 12.45, 98.51 6.41, 101.13 4.1 C103.74 1.78, 103.17 1.81, 103.45 1.13 C103.74 0.45, 103.11 -0.7, 102.84 0.01 C102.57 0.72, 101.74 4.65, 101.83 5.41 M0.25 0.99 C0.19 0.79, -0.83 -1.19, -1.08 -1.49 C-1.34 -1.79, -1.85 -1.43, -1.29 -0.82 C-0.73 -0.21, -0.75 -0.49, 2.27 2.17 C5.3 4.84, 6.69 11.99, 16.86 15.17 C27.03 18.34, 54.52 20.19, 63.28 21.22 C72.04 22.24, 65.4 22.46, 69.4 21.33 C73.4 20.19, 81.76 17.48, 87.28 14.43 C92.8 11.37, 100.2 5.29, 102.51 2.99 C104.83 0.7, 101.13 1.09, 101.19 0.65 C101.24 0.21, 102.39 -0.4, 102.84 0.37 C103.28 1.15, 104.23 4.78, 103.85 5.33" stroke="#000000" stroke-width="2" fill="none"></path></g></g><g stroke-linecap="round"><g transform="translate(88.97378556930619 133.61869741996543) rotate(0 51.52464267117119 -13.452774090380558)"><path d="M-1.07 -0.93 C2.57 -3.69, 9.51 -11.01, 21.41 -15.45 C33.31 -19.9, 59.49 -26.05, 70.31 -27.58 C81.14 -29.11, 81.39 -27.14, 86.38 -24.65 C91.36 -22.16, 97.61 -15.67, 100.22 -12.65 C102.83 -9.62, 101.44 -7.78, 102.05 -6.49 C102.65 -5.21, 103.5 -4.87, 103.85 -4.96 M0.57 1.2 C4.19 -0.95, 9.58 -9.94, 21.09 -14.54 C32.6 -19.13, 58.64 -24.91, 69.63 -26.38 C80.62 -27.86, 82.14 -25.66, 87.02 -23.37 C91.91 -21.09, 96.2 -15.35, 98.92 -12.66 C101.64 -9.96, 102.48 -8.34, 103.34 -7.2 C104.2 -6.05, 104.15 -6.27, 104.08 -5.79" stroke="#000000" stroke-width="2" fill="none"></path></g></g><g stroke-linecap="round"><g transform="translate(66.31323588164253 82.21581132976326) rotate(0 70.14731579506275 1.8695109211387262)"><path d="M-0.93 1.19 C22.07 1.6, 115.63 1.22, 139.13 1.34 M0.78 0.78 C24.04 1.49, 118.15 3.09, 141.22 2.96" stroke="#000000" stroke-width="2" fill="none"></path></g></g><g stroke-linecap="round"><g transform="translate(138.90864579531683 16.810355599396644) rotate(0 18.621729600371737 66.71055196857105)"><path d="M1.19 -1.18 C1.99 -1.27, 2.21 -1.67, 3.72 -1.42 C5.24 -1.17, 6.68 -1.77, 10.27 0.32 C13.87 2.42, 22.5 8.5, 25.3 11.13 C28.11 13.76, 25.53 8.28, 27.13 16.1 C28.73 23.92, 33.54 48.25, 34.89 58.06 C36.23 67.87, 36.19 67.8, 35.22 74.96 C34.25 82.13, 32.17 93.26, 29.07 101.08 C25.96 108.89, 20.64 116.39, 16.59 121.87 C12.54 127.34, 7.03 131.87, 4.77 133.94 C2.51 136.01, 3.46 134.15, 3.03 134.31 C2.6 134.47, 2.31 134.71, 2.19 134.91 M0.36 0.81 C1.11 0.99, 1.26 -0.17, 2.86 0 C4.45 0.16, 6.1 -0.16, 9.91 1.81 C13.72 3.79, 23.12 9.34, 25.73 11.84 C28.33 14.34, 23.85 9.21, 25.54 16.83 C27.24 24.44, 34.2 47.56, 35.88 57.54 C37.56 67.51, 36.88 69.38, 35.62 76.68 C34.36 83.98, 31.78 93.5, 28.32 101.36 C24.86 109.22, 18.79 118.5, 14.89 123.82 C10.99 129.14, 6.78 131.86, 4.91 133.26 C3.05 134.66, 4.4 131.98, 3.69 132.23 C2.99 132.48, 0.87 134.26, 0.68 134.76" stroke="#000000" stroke-width="2" fill="none"></path></g></g><g stroke-linecap="round"><g transform="translate(137.5093170985898 19.36622469634176) rotate(0 -20.859693851916916 59.85817711328764)"><path d="M-1.18 0.15 C-1.27 -0.31, 1.9 -3.83, -1.42 -1.62 C-4.74 0.59, -15.24 7.04, -21.08 13.41 C-26.92 19.79, -33.12 27.12, -36.43 36.64 C-39.75 46.17, -41.07 61.09, -40.98 70.56 C-40.89 80.03, -37.37 87.72, -35.88 93.49 C-34.39 99.26, -33.88 103.12, -32.06 105.17 C-30.24 107.22, -27.44 104.67, -24.97 105.78 C-22.51 106.88, -19.57 108.9, -17.26 111.79 C-14.96 114.68, -13.21 121.38, -11.13 123.13 C-9.06 124.88, -5.77 122.41, -4.82 122.29 M0.39 -0.81 C0.22 -1.11, 1.19 -5.96, -2.49 -3.34 C-6.17 -0.72, -15.99 8.08, -21.68 14.91 C-27.36 21.73, -33.18 28.36, -36.58 37.63 C-39.99 46.9, -41.94 61.44, -42.11 70.54 C-42.29 79.63, -39.3 86.61, -37.61 92.21 C-35.93 97.8, -34.05 101.91, -32.01 104.11 C-29.97 106.3, -28.11 103.85, -25.37 105.41 C-22.64 106.96, -18.06 110.51, -15.6 113.45 C-13.13 116.38, -11.93 121.4, -10.59 123.02 C-9.25 124.65, -8.24 123.35, -7.56 123.18" stroke="#000000" stroke-width="2" fill="none"></path></g></g><g stroke-linecap="round" transform="translate(59.07584372133999 229.66298463691032) rotate(0 130 63.5)"><path d="M0 0 C0 0, 0 0, 0 0 M0 0 C0 0, 0 0, 0 0 M-0.57 5.89 C2.13 4.9, 3.61 2.29, 4.5 -0.11 M-0.38 6.06 C0.95 5.27, 2.36 3.46, 4.69 0.65 M1.48 10.97 C4.18 9.17, 5.31 5.47, 12.03 -1.17 M0.66 12.64 C3.11 8.1, 7.54 4.15, 11.11 -0.48 M0.72 17.75 C4.67 14.68, 5.54 11.16, 14.38 1.59 M-1 19.4 C2.69 13.76, 7.3 9.55, 16.03 1.13 M2.19 23.01 C9.56 13.87, 16.24 7.41, 21.05 -0.86 M1.25 23.98 C9.21 14.07, 17.5 4.58, 21.82 -0.37 M-1.88 31.35 C11.03 16.69, 21.48 8.09, 24.99 1.19 M0.82 31.03 C6.23 24.53, 10.12 17.52, 26.44 0.23 M0.86 34.97 C7.91 27.5, 15.75 18.66, 33.8 1.42 M-0.95 37 C12.98 21.9, 25.08 8.33, 31.94 0.34 M1.63 42.28 C14.56 26.16, 29.11 10.24, 35.34 -0.21 M-0.47 42.71 C13.88 28.28, 25.91 12.79, 36.58 0.79 M-0.97 48.72 C14.68 33.61, 28.93 16.77, 43.32 -0.97 M-0.46 48.85 C14.38 31.29, 30.43 14.4, 42.38 -0.08 M0.05 54.03 C15.1 37.35, 31.61 18.75, 46.55 -0.68 M0.84 54.9 C10.44 43.18, 22.69 29.56, 47.14 0.91 M1.27 60.86 C18.04 38.15, 37.91 17.69, 54.61 -1.26 M-0.29 60.42 C15.03 42.57, 32.94 23.91, 53.99 -0.08 M-2.12 68.03 C17.64 48.73, 34.41 29.16, 59.06 -0.09 M-0.13 67.97 C23.46 39.93, 46.55 13.24, 57.38 -0.64 M0.15 73.37 C19.71 48.66, 41.06 26.82, 63.06 -1.5 M-0.25 72.56 C20.09 49.31, 39.41 27.32, 64.69 0.07 M-0.09 78.57 C19.73 55.95, 38.83 35.77, 70.65 1.82 M0.82 80.2 C22.72 53.13, 44.11 28.55, 68.15 0.59 M1.57 84.4 C22.68 57.17, 44.04 30.62, 76.37 1.38 M-0.55 85.76 C19.32 62.87, 38.19 41.17, 74.49 -0.71 M1.32 91.37 C19.02 69.87, 35.12 47.84, 78.46 -0.53 M-0.03 91.31 C25.36 61.76, 50.2 33.21, 78.87 -0.31 M-1.85 98.98 C24.44 65.99, 53.6 36.86, 84.59 1.65 M0.5 97.96 C17.02 78.32, 35.73 56.71, 84.48 0.63 M0.3 102.56 C26.91 71.17, 56.12 40.7, 88.97 -0.57 M-0.67 104.44 C33.88 64.43, 67.29 24.3, 90.53 -0.53 M1.79 108.08 C30.99 73.58, 65.21 36.15, 94.12 -1.28 M0.16 110.49 C27.93 76.37, 57.24 43.13, 95.82 0.35 M-0.63 117.43 C20.93 91.17, 45.06 61.5, 100 -1.54 M1.03 115.89 C35.7 75.84, 70.46 35.97, 100.72 -0.62 M1.78 123.04 C29.72 86.62, 58.99 54.72, 105.71 -0.86 M0.29 121.63 C26.31 93.12, 52.96 63.48, 106.76 -1.14 M-0.61 128.41 C25.77 96.58, 49.23 69.94, 110.7 1.42 M0.22 128.15 C41.2 83.52, 79.21 37.5, 110.6 0.54 M7.32 127.86 C40.03 90.74, 71.88 52.77, 115.78 -0.61 M6.89 127.78 C49.86 77.98, 92.76 28.6, 116.96 0.52 M12.08 129.02 C40.45 94.71, 67.49 60.61, 123.59 -0.62 M10.68 126.8 C53.95 78.47, 95.69 29.28, 121.89 0.76 M15.73 128.95 C56.08 83.47, 92.87 39.46, 125.08 0.83 M17.31 126.31 C46.86 91.68, 77.41 57.07, 127.13 -0.44 M22.48 128.08 C54.74 89.85, 92.37 48.69, 134.52 -0.46 M22.24 127.73 C55.69 88.88, 89.03 50.37, 131.92 -0.5 M26.39 128.68 C61.87 88.96, 95.18 49.77, 136.72 0.26 M27.21 128.03 C61.53 86.48, 96.12 46.22, 138.09 -0.32 M30.51 127.51 C76.8 80.78, 116.7 31.04, 142.68 -0.75 M31.3 127.94 C56.86 99.29, 81.03 73.23, 142.56 -1.08 M37.96 127.04 C71.27 91.1, 104.86 52.2, 148.82 0.86 M36.77 127.91 C65.11 94.42, 96.11 58.8, 148.4 -0.01 M42.39 128.36 C76.41 91.4, 108.12 54.76, 152.61 0.04 M43.38 126.6 C78.55 85.03, 114.63 42.6, 153.3 0.82 M48.42 125.92 C78.39 90.86, 110.47 55.62, 159.83 -1.03 M47.71 128.33 C87.92 81.04, 130.2 32.84, 158.68 0.76 M52.71 128.86 C75.32 102.48, 98.95 73.17, 164.2 1.57 M54.03 128.04 C85.18 90.43, 116.99 55.09, 164.17 -0.29 M57.12 127.6 C88.8 94.55, 118.47 59.6, 170.57 2.09 M58.35 128.57 C84.93 97.72, 109.85 68.69, 168.66 0.44 M62.41 126.37 C87.12 98.98, 110.56 72.96, 174.66 -0.33 M63.91 126.78 C89.42 98.92, 114.37 68.93, 174.81 -0.27 M69.42 125.8 C114.59 75.36, 154.62 28.07, 178.18 -1.11 M69.25 126.87 C102.7 89.37, 137.56 48.36, 180.12 0.64 M76.75 127.44 C108.26 92.89, 139.53 56.18, 184.57 0.33 M75.73 126.5 C112.9 86.67, 147.37 45.4, 185.42 -0.29 M78 128.38 C119.2 82.15, 157.54 37.62, 190.15 1.17 M79.56 128.12 C107.81 93.9, 136.97 61.57, 189.92 -0.82 M87.36 125.75 C120.13 89.71, 152.6 51.56, 195.85 1.69 M85.32 127.06 C112.63 94.65, 141.94 60.67, 195.77 0.17 M88.9 127.35 C131.08 79.29, 172.13 30.61, 202.33 1.9 M90 126.88 C132.14 79.86, 174.55 32.12, 201.02 1 M94.19 128.15 C123.74 94.24, 154.6 61.99, 205.74 0.05 M96.54 127.48 C133.63 83.86, 170 40.71, 206.23 0.28 M99.52 128.89 C134.02 89, 168.19 52.3, 212.87 1.22 M101.86 128.4 C136.63 84.84, 173.14 42.01, 211.44 -0.76 M107.55 128.63 C136.61 93.96, 162.35 64.66, 216.85 -0.14 M106.37 126.97 C148.33 80.11, 188.82 34.37, 216.73 -1.12 M112.57 127.32 C141.53 92.36, 172.35 58.47, 224.32 0.39 M112.02 127.58 C140.16 92.15, 168.81 59.91, 223.27 0.22 M118.09 126.35 C149.74 90.92, 186.4 51.71, 227.14 -0.28 M117.83 127.89 C160.59 76.22, 204.7 26.33, 227.8 -0.5 M122.12 127.13 C148.29 97, 176.1 63.02, 233.54 -0.14 M121.93 128.01 C154.61 90.27, 186.51 54.34, 233.7 0.42 M126.79 127.62 C164.26 87.18, 196.5 44.68, 239.22 -0.83 M127.05 126.78 C168.56 81.1, 210.28 32.71, 238.87 0.08 M131.59 128.95 C161.99 93.51, 192.87 60.08, 245.73 1.23 M132.62 126.94 C175.06 79.27, 215.16 32.84, 243.99 -0.53 M139 127.92 C176.08 83.77, 212.27 42.25, 249.04 1.62 M138.23 127.36 C167.89 93.29, 195.95 58.61, 247.91 0.97 M143.73 127.6 C168.93 97.79, 190.45 68.53, 256.46 1.24 M143.71 128.29 C170.56 94.55, 199.33 62.47, 254.47 -0.78 M150.39 125.87 C177.86 93.72, 206.76 60.84, 259.92 0.89 M148.63 127.53 C189 81.66, 228.47 36.69, 258.54 0.46 M154.65 126.02 C183.14 92.66, 214.92 58.58, 263.65 4.06 M154.37 127.67 C190.98 83.62, 229.21 40.63, 263.59 2.92 M160.32 126 C198.96 83.91, 239.92 34.99, 263.97 8.52 M158.96 127.08 C196.13 86.22, 233.63 41.57, 262.36 9.07 M163.79 129.31 C204.12 83.85, 242.54 38.26, 262.32 15.06 M164.39 127.34 C187.73 101.76, 209.42 75.43, 261.63 14.03 M168.49 129.75 C205.32 85.64, 244.67 43.75, 261.79 19.38 M168.95 127.74 C196.7 95.07, 223.32 65.07, 263.7 20.14 M175.94 126.75 C201.74 100.75, 223.15 71.36, 260.91 25.14 M175.09 127.24 C203.49 92.8, 233.47 59.55, 261.99 27.59 M180.94 125.96 C212.71 88.8, 245.34 53.04, 264.66 31.24 M180.45 128.67 C211.69 91.4, 245.38 52.88, 262.85 32.44 M187.23 125.77 C203.33 106.7, 222.33 84.69, 263.68 40.43 M186.41 127.98 C206.77 103.59, 228.75 77.46, 262.67 38.85 M190.72 125.89 C214.5 100.76, 237.94 74.49, 261.28 46.56 M191.06 128.44 C206.56 109.28, 222.77 92.08, 261.7 44.97 M195.14 125.92 C214.53 109.26, 233.27 88.77, 263.91 51.45 M195.83 127.86 C219.54 102.18, 242.44 75.32, 262.39 51.49 M203.24 125.93 C218.72 109.48, 235.11 88.36, 261.65 55.69 M202.44 126.8 C222.39 104.75, 241.33 80.18, 262.7 57.09 M208.48 128.97 C230.81 103.74, 248.21 76.64, 261.22 63.91 M207.45 127.82 C226.22 105.11, 245.91 81.46, 262.97 63.38 M214.23 125.66 C231.26 106.29, 250.39 83.54, 263.17 71.4 M213.33 127.67 C223.94 113.83, 236.43 98.78, 261.93 70.14 M217.43 128.78 C230.28 112.14, 245.04 95.08, 262.91 77.39 M218.92 126.5 C227.47 113.89, 239.71 102.8, 261.62 76.29 M223.79 125.79 C232.69 117.23, 241.11 107.35, 263.2 79.86 M222.54 128.13 C233.66 116.92, 243.04 105.77, 262.67 81.35 M227.48 125.42 C239.18 113.3, 252.16 100.33, 264.59 88.39 M228.47 127.2 C238.72 115.38, 247.58 104.66, 262.62 87.92 M234.33 126.2 C240.46 117.24, 250.1 107.56, 264.48 95.41 M233.99 127.45 C245.36 114.68, 255.71 102.27, 263.8 93.63 M237.5 127.08 C247.72 117.78, 256.71 105.53, 264.26 100.82 M239.92 126.89 C245.19 121.47, 249.57 116.6, 262.36 99.38 M244.64 127.92 C249.52 121.34, 254.6 113.21, 264.42 107.27 M243.64 128.05 C249.67 121.41, 252.85 117.31, 262.13 107.31 M249.66 128.12 C252.75 125.33, 256.66 119.72, 262.92 112.99 M249.65 127.2 C254.18 122.15, 259.68 115.67, 262.95 111.23 M255.45 127.28 C258.32 123.16, 259.55 121.55, 263.35 118.52 M254.68 126.93 C256.74 125.6, 259.18 123.57, 262.29 118.26" stroke="#ced4da" stroke-width="0.5" fill="none"></path><path d="M-1.57 -0.98 C74.32 0.4, 150.94 1.08, 260.38 1.57 M-0.11 0.79 C60.07 -1.33, 120.59 -1.66, 260.32 0.19 M260.79 -1.08 C258.13 37.84, 260.96 79.95, 258.51 126.08 M260.44 0.62 C259.53 46.03, 260.82 94.05, 260.23 127.3 M261.01 127.69 C169.35 127.5, 79.59 127.09, 0.73 128.36 M259.76 127.08 C197.43 125.74, 133.24 126.08, 0.48 127.53 M-0.87 126.94 C-1.74 81.27, -0.39 34.25, -1.61 1.92 M-0.05 127.02 C1.37 81.03, 0.85 32.85, 0.17 -0.09" stroke="#000000" stroke-width="1" fill="none"></path></g><g transform="translate(123.07584372134 275.6629846369103) rotate(0 71.68 16)"><text x="0" y="21.999999999999993" font-family="Virgil, Segoe UI Emoji" font-size="25.600000000000005px" fill="#000000" text-anchor="start" style="white-space: pre;" direction="ltr">SKY Router</text></g><g stroke-linecap="round"><g transform="translate(190.72186866373806 228.59414234507835) rotate(0 -14.451398262586451 -40.953020554278055)"><path d="M-0.3 1.15 C-5.57 -12.3, -25.59 -67.43, -30.64 -81.3 M1.74 0.71 C-3.22 -13.03, -22.69 -69.47, -28.26 -83.06" stroke="#000000" stroke-width="1" fill="none"></path></g><g transform="translate(190.72186866373806 228.59414234507835) rotate(0 -14.451398262586451 -40.953020554278055)"><path d="M-17.78 -22.81 C-11.25 -14.01, -5.19 -2.53, -0.51 0.36 M-18.72 -21.85 C-11.85 -13.01, -4.2 -3.76, 0.25 0.85" stroke="#000000" stroke-width="1" fill="none"></path></g><g transform="translate(190.72186866373806 228.59414234507835) rotate(0 -14.451398262586451 -40.953020554278055)"><path d="M1.48 -29.92 C0.62 -18.46, -0.66 -4.26, -0.51 0.36 M0.54 -28.95 C-0.34 -17.22, -0.35 -5.15, 0.25 0.85" stroke="#000000" stroke-width="1" fill="none"></path></g><g transform="translate(190.72186866373806 228.59414234507835) rotate(0 -14.451398262586451 -40.953020554278055)"><path d="M-6.89 -61.29 C-14.95 -70.03, -23.7 -76, -28.47 -83.85 M-7.83 -60.33 C-15.99 -69.58, -23.81 -78.55, -27.71 -83.35" stroke="#000000" stroke-width="1" fill="none"></path></g><g transform="translate(190.72186866373806 228.59414234507835) rotate(0 -14.451398262586451 -40.953020554278055)"><path d="M-26.12 -54.13 C-26.81 -65.56, -28.23 -74.25, -28.47 -83.85 M-27.06 -53.16 C-27.49 -65.33, -27.65 -77.16, -27.71 -83.35" stroke="#000000" stroke-width="1" fill="none"></path></g></g><g stroke-linecap="round" transform="translate(56.721868663738064 443.09414234507835) rotate(0 130 63.5)"><path d="M0 0 C0 0, 0 0, 0 0 M0 0 C0 0, 0 0, 0 0 M-0.17 5.83 C0.95 5.14, 2.2 3.51, 4.39 0.65 M-0.22 6.11 C1.54 4.62, 2.46 2.97, 4.84 0.02 M-0.06 13.36 C2.99 7.9, 6.53 4.3, 9.9 -0.07 M0.33 12.13 C4.09 8.05, 8.75 3.12, 10.19 -0.31 M0.03 19.13 C6.36 13.23, 10.53 5.35, 14.31 -1.3 M-0.56 18.22 C3.27 13.48, 7.38 10.12, 15.41 -0.02 M-1.15 24.48 C7.84 18.23, 12.8 10.66, 21.11 -1.15 M0.42 24.13 C5.71 18.36, 10.22 13.03, 20.65 0.09 M0.03 29.44 C7.94 20.98, 15.22 13.08, 24.28 2.27 M-0.89 31.15 C5.7 24.27, 11.86 16.76, 27.23 0.99 M-0.32 35.42 C9.35 25.5, 18.58 13.43, 30.11 1.74 M0.54 37.54 C7.49 27.93, 15.21 20.84, 32.41 -0.46 M0.94 44.23 C10.14 33.64, 17.27 20.21, 38.34 1.41 M0.2 43.17 C13.4 27.16, 28.58 10.52, 36.3 -0.29 M-1.49 50.77 C10.17 33.57, 26.32 18.77, 43.97 -0.85 M0.33 48.97 C9.38 38.8, 19.88 27.7, 42.29 0.83 M-0.1 54.19 C13.07 41.75, 27.26 24.63, 46.58 -0.91 M-0.3 54.04 C18.06 34.26, 36.12 13.13, 48.03 0.9 M-1.34 62.38 C19.26 38.5, 38.58 18.13, 52.13 -2.02 M0.6 60.87 C20.52 35.96, 43.27 12.55, 53.9 -1.15 M-0.43 67.1 C20.29 44.44, 42.41 21.01, 58.26 1.65 M0.64 66.38 C14.46 51.43, 30.17 33.23, 57.99 -0.13 M-0.75 72.69 C18.72 53.31, 37.02 32.54, 64.14 -0.54 M1 73.49 C15.41 55.25, 29.37 38.84, 64.54 -0.39 M0.71 78.8 C24.37 48.48, 52.87 21.42, 67.77 0.73 M-0.32 79.61 C15.42 62.99, 29.09 45.16, 68.93 -0.46 M0.55 85.5 C27.85 52.37, 59.89 16.07, 75.76 1.18 M0.32 84.69 C22.03 59.28, 45.7 32.07, 74.15 -0.83 M0.26 91.77 C24.54 62.95, 50.7 36.32, 80.68 -0.65 M0.17 91.49 C31.81 56.2, 62.44 20.63, 79.77 -0.61 M1.36 96.68 C26.09 65.67, 52.98 38.17, 86.87 -0.93 M-1.1 97.63 C28.24 64.81, 56.65 34.04, 84.37 0.68 M0 102.07 C35.08 67.86, 64.65 30.64, 91.72 1.86 M-0.18 104.1 C27.19 71.09, 54.85 39.02, 90.59 0.48 M-0.43 109.22 C18.17 87.46, 39.06 67.4, 95.52 1.4 M0.19 110.82 C26.85 80.11, 52.12 49.74, 95.5 -0.63 M-0.15 114.08 C25.25 86.02, 49.49 55.17, 98.75 -0.04 M0.98 115.62 C22.07 90.79, 43.96 64.97, 101.66 0.45 M-1.71 123.67 C30.4 84.23, 64.71 48, 107.91 -1.2 M-0.13 121.58 C29.53 87.56, 59.78 52.81, 105.51 -0.46 M-0.12 126.55 C35.64 85.86, 70.88 46.16, 112.81 -1.33 M-0.31 127.27 C41.1 78.81, 83.07 32.33, 110.41 0.53 M4.32 126.42 C31.23 98.62, 52.12 72.71, 115.75 -1.03 M5.33 127.28 C42.65 84.72, 79.17 42.97, 116.39 0.34 M12.83 126.49 C36.03 101.25, 55.71 75.98, 120.09 -1.61 M11.15 128.32 C47.91 86.5, 84.07 44.73, 122.44 0.51 M16.42 127.48 C39.63 101.72, 63.36 74.84, 128.87 1.71 M16.93 126.16 C60.58 78.2, 102.71 28.62, 127.76 -0.3 M22.6 127.41 C67.33 75.2, 110.61 27.42, 131.93 0.85 M21.24 127.22 C50.67 94.72, 78 62.17, 132.54 -0.24 M27.21 125.98 C65.88 86.28, 102.86 41.91, 137.27 1.42 M26.92 127.82 C55.91 93.16, 84.29 59.79, 137.96 -0.06 M33.72 127.08 C63.9 91.36, 91.97 58.09, 142.83 -0.9 M33.03 126.46 C56.19 98.61, 78.53 70.83, 143.65 0.24 M36.41 127.88 C73 84.31, 109.18 44.91, 147.8 2.1 M37.66 127.9 C71.37 89.72, 105.01 51.23, 147.65 -0.34 M42.91 125.61 C67.3 96.47, 95.15 67.91, 152.45 -0.44 M43.21 127.6 C76.85 88.95, 110.27 48.99, 153.89 -0.53 M46.86 126.2 C72.13 103.21, 95.75 77.54, 157.43 0.07 M48.63 127.36 C85.59 83.66, 124.07 40.29, 158.16 -0.45 M53.02 127.46 C97.4 79.03, 141.49 27.68, 163.6 0 M53.2 128.26 C87 88.7, 119.93 49.91, 163.56 -0.42 M58.6 127.57 C95.83 83.42, 134.82 36.55, 171.31 2.03 M59.54 128.01 C98.83 81.75, 140.69 34.16, 168.49 -0.6 M63.08 127.45 C99.91 88.06, 132.52 48.01, 176.25 -0.49 M64.06 127.17 C87.84 99.36, 112.55 72.38, 174.11 0.25 M69.48 127.23 C99.15 92.39, 127.57 61.17, 180.73 -1.01 M69.92 128.47 C90.29 101.3, 113.62 76.43, 180.32 1.06 M74.24 128.71 C97.73 97.46, 125.48 69.93, 185.53 0.54 M75.52 127.09 C112.55 82.12, 149.83 39.13, 185.2 -0.26 M80.48 127.75 C114.27 87.75, 151.47 47.24, 189.15 0.31 M79.46 127.94 C109.24 93.17, 138.03 60.56, 191 -0.55 M83.84 128.74 C113.01 98.6, 135.62 72.28, 195.71 -1.13 M85 127.92 C106.77 100.46, 130.59 73.7, 195.62 -0.11 M89.78 129.04 C120.54 95.79, 147.97 60.96, 202.18 -0.28 M91.03 127.21 C132.54 76.98, 177.04 27.47, 200.54 -0.42 M95.37 125.38 C130.2 91.56, 158.28 54.16, 206.24 1.65 M96.57 127.58 C119.25 98.8, 143.88 70.29, 206.35 -0.87 M102.67 126.35 C135.15 88.49, 167.17 47.6, 213.58 1.26 M101.69 127.63 C121.84 101.74, 144.23 75.81, 212.64 -0.45 M108.47 126.8 C131.59 97.92, 157.38 72.45, 217.71 1.33 M106 127.1 C129.71 100.36, 152.61 74.92, 217.55 -0.53 M113.64 128.29 C139.19 97.82, 166.09 68.66, 223.27 1.33 M111.63 128.15 C153.44 80.69, 193.59 35.07, 221.66 -0.5 M116.93 125.52 C155.91 83.4, 193.63 39.26, 229.87 -2.25 M117.7 127.59 C153.53 87.81, 187.94 47.33, 227.54 -0.53 M124.3 126.8 C151.96 92.13, 182.75 55.42, 231.34 -1.33 M123.26 128.27 C155.34 88.43, 191.62 48.04, 233.64 0.7 M126.71 128.42 C154.51 99.94, 176.39 69.9, 238.97 0.83 M127.78 127.23 C158.54 90.89, 190.33 54.03, 239.16 0.05 M133.44 127.17 C163.2 94.43, 188.63 62.02, 244.02 0.37 M132.12 127.09 C170.23 85.13, 207.09 43.14, 243.28 0.45 M137.91 126.71 C170.82 88.15, 204.23 51.94, 250.38 1.55 M139 126.27 C177.97 79.78, 218.94 34.15, 249.39 0.43 M142.99 126.04 C174.32 95.81, 199.51 61.61, 255.7 -0.14 M143.95 128.29 C172.11 96.89, 199.56 64.66, 254.96 -0.85 M150.81 125.93 C178.25 97.19, 205.61 66.61, 260.68 -1.47 M149.8 128.05 C175.23 98.74, 199.65 70.27, 260.42 -0.31 M156.06 129.37 C190.73 89.11, 221.87 46.99, 264.96 1.17 M153.65 127.11 C197.44 78.23, 239.53 27.26, 263.76 1.55 M159.17 128.74 C187.7 94.89, 216.98 63.01, 263.01 9.26 M158.65 128.74 C181.74 101.87, 203.64 73.96, 262.04 9.01 M162.88 126.5 C199.88 87.46, 234.36 47.72, 261.28 16.73 M164.29 127.39 C184.8 104.84, 205.18 83.26, 263.19 15.51 M170.87 125.88 C203.7 87.9, 236.06 48.33, 262.85 19.76 M169.63 127.32 C200.67 91.56, 231.16 56.29, 262.36 20.33 M174.88 128.07 C196.82 102.1, 219.48 74.37, 261.37 27.67 M176.12 126.53 C193.67 106.31, 210.58 86.03, 262.48 27.33 M182.01 126.68 C203.41 100.51, 223.96 76.26, 264.17 32.12 M179.55 127.11 C200.29 104.13, 221.1 80.41, 263.03 32.94 M186.6 128.11 C215.28 95.71, 243.46 62.22, 263.59 37.55 M185.55 126.5 C206.87 102.38, 227.59 79.74, 262.05 38.48 M189.47 126.07 C215.21 100.18, 238.79 73.66, 264.14 46.34 M191.54 127.77 C210.45 105.62, 228.57 84.17, 262.92 46.2 M197.77 125.95 C210.27 113.44, 223.13 98.17, 261.11 49.52 M196.19 126.89 C219.23 101.32, 239.93 75.89, 263.63 51.75 M200.3 127.32 C227.8 99.18, 250.32 71.4, 261.1 55.48 M201.4 127.03 C224.48 101.21, 246.83 76.33, 263.03 57.81 M207.27 128.3 C226.29 105.65, 247.68 83.43, 263.25 65.08 M207.78 127.82 C223.49 109.57, 238.23 91.08, 262.63 63.01 M213.69 128.06 C230.69 105.48, 250.34 85.96, 264.52 68.19 M212.6 127.68 C229.41 105.39, 249.26 84.12, 263.58 69.31 M219.13 127.2 C234.09 110.15, 248.06 89.91, 260.85 74.8 M217.26 127.02 C230.58 112.94, 241.83 98.29, 262.48 74.96 M223.02 126.24 C232.5 117.13, 238.67 109.46, 263.74 79.74 M223.28 126.61 C237.62 110.47, 253.63 92.38, 263.61 82.06 M228.53 126.02 C235.04 118.96, 244.75 111.44, 262.86 89.37 M227.74 126.79 C235.59 118.46, 242.71 111.42, 262.24 87.11 M233.8 126.17 C244.19 115.41, 256.94 103.88, 261.22 94.74 M233.27 127.78 C242.77 115.49, 253.02 104.27, 263.35 93 M239.81 125.5 C247.81 118.17, 257.67 108.68, 262.43 98.06 M239.5 126.99 C246 120.47, 251.21 114.23, 263.68 99.32 M245.69 128.49 C249.32 118.67, 255.97 112.89, 261.92 105.87 M245.04 127.24 C249.67 122.01, 253.28 117.08, 262.51 106.39 M248.49 125.69 C253.07 121.07, 262.21 115.88, 261.5 111.73 M248.97 128.08 C254.61 122.67, 257.62 116.72, 262.91 111.77 M254.67 127.91 C258.24 123.61, 259.18 121.39, 262.27 117.52 M254.81 127.85 C258.15 123.6, 260.85 120.42, 262.29 118.07" stroke="#82c91e" stroke-width="0.5" fill="none"></path><path d="M1.34 -1.28 C99.46 0.27, 196.94 -0.94, 260.05 0.35 M0.41 -0.13 C82.2 0.01, 165.53 1.1, 260.31 -0.09 M261.02 1.19 C258.13 34.08, 259.43 69.96, 261.6 126.39 M260.48 0.06 C260.3 50.41, 260.44 101.19, 259.34 127.94 M260.18 125.44 C196.38 126.94, 129.87 126.8, 0.05 128.13 M259.43 126.73 C202.63 126.52, 146.64 125.42, 0.57 127.52 M1.41 127.63 C-0.18 96.53, 0.37 62.07, -0.32 -1.3 M0.08 127.56 C-0.88 76.66, -1.47 25.92, 0.45 0.58" stroke="#000000" stroke-width="1" fill="none"></path></g><g transform="translate(120.72186866373806 489.09414234507835) rotate(0 57 16.5)"><text x="0" y="23" font-family="Virgil, Segoe UI Emoji" font-size="25.600000000000005px" fill="#000000" text-anchor="start" style="white-space: pre;" direction="ltr">OpenWRT</text></g><g stroke-linecap="round"><g transform="translate(189.5742631203749 437.59414234507835) rotate(0 -1.0777952819323673 -36.693577089570454)"><path d="M-0.12 -1.12 C-0.31 -13.19, -1.12 -60.55, -1.3 -72.45 M-1.64 0.9 C-1.95 -11.51, -2.02 -61.69, -2.04 -74.29" stroke="#000000" stroke-width="1" fill="none"></path></g><g transform="translate(189.5742631203749 437.59414234507835) rotate(0 -1.0777952819323673 -36.693577089570454)"><path d="M-12.72 -28.47 C-6.84 -20.19, -3.9 -12.15, 0.8 -1.4 M-10.72 -28.53 C-6.56 -18.77, -2.22 -8, -0.87 -1.95" stroke="#000000" stroke-width="1" fill="none"></path></g><g transform="translate(189.5742631203749 437.59414234507835) rotate(0 -1.0777952819323673 -36.693577089570454)"><path d="M7.8 -28.81 C7.73 -20.45, 4.72 -12.31, 0.8 -1.4 M9.8 -28.87 C5.88 -18.83, 2.14 -7.93, -0.87 -1.95" stroke="#000000" stroke-width="1" fill="none"></path></g><g transform="translate(189.5742631203749 437.59414234507835) rotate(0 -1.0777952819323673 -36.693577089570454)"><path d="M6.4 -45.45 C6.21 -53.49, 3.04 -61.75, -1.12 -74.57 M8.4 -45.51 C4.68 -57.71, 0.73 -69.05, -2.79 -75.12" stroke="#000000" stroke-width="1" fill="none"></path></g><g transform="translate(189.5742631203749 437.59414234507835) rotate(0 -1.0777952819323673 -36.693577089570454)"><path d="M-14.12 -45.41 C-8.36 -53.45, -5.57 -61.71, -1.12 -74.57 M-12.12 -45.47 C-7.77 -57.83, -3.64 -69.19, -2.79 -75.12" stroke="#000000" stroke-width="1" fill="none"></path></g></g><g stroke-linecap="round" transform="translate(15.231449180688628 677.4737893217027) rotate(0 64.75862270579728 40.20004795506611)"><path d="M0 0 C31.37 0, 62.73 0, 129.52 0 M0 0 C48.27 0, 96.55 0, 129.52 0 M129.52 0 C129.52 22.25, 129.52 44.5, 129.52 80.4 M129.52 0 C129.52 20.4, 129.52 40.81, 129.52 80.4 M129.52 80.4 C83.91 80.4, 38.31 80.4, 0 80.4 M129.52 80.4 C97.3 80.4, 65.09 80.4, 0 80.4 M0 80.4 C0 50.23, 0 20.07, 0 0 M0 80.4 C0 55.8, 0 31.2, 0 0" stroke="#000000" stroke-width="2" fill="none"></path></g><g stroke-linecap="round" transform="translate(20.20163692786184 683.9057969945145) rotate(0 59.78843495862549 34.498950245074866)"><path d="M0 0 L119.58 0 L119.58 69 L0 69" stroke="none" stroke-width="0" fill="#000000"></path><path d="M0 0 C29.39 0, 58.79 0, 119.58 0 M0 0 C31.64 0, 63.27 0, 119.58 0 M119.58 0 C119.58 27.38, 119.58 54.75, 119.58 69 M119.58 0 C119.58 16.81, 119.58 33.62, 119.58 69 M119.58 69 C75.61 69, 31.65 69, 0 69 M119.58 69 C94.77 69, 69.96 69, 0 69 M0 69 C0 55.01, 0 41.03, 0 0 M0 69 C0 43.26, 0 17.52, 0 0" stroke="#000000" stroke-width="2" fill="none"></path></g><g stroke-linecap="round"><g transform="translate(10 758.1662492169637) rotate(0 70.15180515485616 0)"><path d="M0 0 C40.48 0, 80.96 0, 140.3 0 M0 0 C32.04 0, 64.08 0, 140.3 0" stroke="#000000" stroke-width="2" fill="none"></path></g></g><g stroke-linecap="round"><g transform="translate(13.80499978616092 764.4332036153862) rotate(0 66.88603723587602 0)"><path d="M0 0 C42.13 0, 84.25 0, 133.77 0 M0 0 C35.73 0, 71.46 0, 133.77 0" stroke="#000000" stroke-width="2" fill="none"></path></g></g><g stroke-linecap="round"><g transform="translate(147.6371643876231 774.5826720600405) rotate(0 1.4247262450256812 -13.10389982202662)" fill-rule="evenodd"><path d="M0 -9.94 L2.37 -13.96 L2.82 -16.26" stroke="none" stroke-width="0" fill="#000000" fill-rule="evenodd"></path><path d="M0 -9.94 C0.43 -10.32, 2.08 -11.18, 2.56 -12.23 C3.03 -13.28, 2.78 -15.59, 2.82 -16.26 M0 -9.94 C0.43 -10.32, 2.08 -11.18, 2.56 -12.23 C3.03 -13.28, 2.78 -15.59, 2.82 -16.26" stroke="#000000" stroke-width="2" fill="none"></path></g></g><g stroke-linecap="round"><g transform="translate(18.765184864197295 774.37110939743) rotate(0 -6.691353100609376 -12.8250934428346)" fill-rule="evenodd"><path d="M-5.08 -9.73 L-7.61 -13.29 L-8.31 -15.92" stroke="none" stroke-width="0" fill="#000000" fill-rule="evenodd"></path><path d="M-5.08 -9.73 C-5.49 -9.94, -6.99 -9.94, -7.53 -10.97 C-8.07 -12, -8.18 -15.09, -8.31 -15.92 M-5.08 -9.73 C-5.49 -9.94, -6.99 -9.94, -7.53 -10.97 C-8.07 -12, -8.18 -15.09, -8.31 -15.92" stroke="#000000" stroke-width="2" fill="none"></path></g></g><g stroke-linecap="round" transform="translate(70.11760702671313 758.2411216684952) rotate(0 9.60624522562614 0.44336516425971695)"><path d="M0 0 L19.21 0 L19.21 0.89 L0 0.89" stroke="none" stroke-width="0" fill="#000000"></path><path d="M0 0 C7.54 0, 15.09 0, 19.21 0 M0 0 C5.87 0, 11.74 0, 19.21 0 M19.21 0 C19.21 0.25, 19.21 0.5, 19.21 0.89 M19.21 0 C19.21 0.22, 19.21 0.44, 19.21 0.89 M19.21 0.89 C12.09 0.89, 4.96 0.89, 0 0.89 M19.21 0.89 C13.62 0.89, 8.04 0.89, 0 0.89 M0 0.89 C0 0.63, 0 0.38, 0 0 M0 0.89 C0 0.71, 0 0.53, 0 0" stroke="#000000" stroke-width="2" fill="none"></path></g><g stroke-linecap="round" transform="translate(269.2615908800399 699.2765969180077) rotate(0 15.224637681159152 28.859890109889648)"><path d="M0 0 C9.27 0, 18.54 0, 30.45 0 M0 0 C11.5 0, 22.99 0, 30.45 0 M30.45 0 C30.45 13.11, 30.45 26.22, 30.45 57.72 M30.45 0 C30.45 12.13, 30.45 24.26, 30.45 57.72 M30.45 57.72 C19.67 57.72, 8.9 57.72, 0 57.72 M30.45 57.72 C24.02 57.72, 17.6 57.72, 0 57.72 M0 57.72 C0 40.39, 0 23.06, 0 0 M0 57.72 C0 44.31, 0 30.89, 0 0" stroke="#000000" stroke-width="2" fill="none"></path></g><g stroke-linecap="round" transform="translate(270.66165877553067 702.1207600013024) rotate(0 13.793750681050199 25.304686255772822)"><path d="M0 0 L27.59 0 L27.59 50.61 L0 50.61" stroke="none" stroke-width="0" fill="#000000"></path><path d="M0 0 C5.94 0, 11.87 0, 27.59 0 M0 0 C7.22 0, 14.44 0, 27.59 0 M27.59 0 C27.59 10.55, 27.59 21.09, 27.59 50.61 M27.59 0 C27.59 18.8, 27.59 37.6, 27.59 50.61 M27.59 50.61 C16.77 50.61, 5.94 50.61, 0 50.61 M27.59 50.61 C21.82 50.61, 16.06 50.61, 0 50.61 M0 50.61 C0 33.41, 0 16.2, 0 0 M0 50.61 C0 37.97, 0 25.34, 0 0" stroke="#000000" stroke-width="1" fill="none"></path></g><g stroke-linecap="round" transform="translate(279.46711723774 754.0685621991026) rotate(0 4.935459468068075 0.8365185539098547)"><path d="M0.42 0 L9.45 0 L9.87 1.25 L0.42 1.67 L0.42 0" stroke="none" stroke-width="0" fill="#000000"></path><path d="M0.42 0 M0.42 0 C2.78 0, 5.15 0, 9.45 0 M0.42 0 C3.98 0, 7.54 0, 9.45 0 M9.45 0 C9.73 0, 9.87 0.14, 9.87 0.42 M9.45 0 C9.73 0, 9.87 0.14, 9.87 0.42 M9.87 0.42 C9.87 0.73, 9.87 1.04, 9.87 1.25 M9.87 0.42 C9.87 0.67, 9.87 0.92, 9.87 1.25 M9.87 1.25 C9.87 1.53, 9.73 1.67, 9.45 1.67 M9.87 1.25 C9.87 1.53, 9.73 1.67, 9.45 1.67 M9.45 1.67 C7.56 1.67, 5.68 1.67, 0.42 1.67 M9.45 1.67 C7.15 1.67, 4.84 1.67, 0.42 1.67 M0.42 1.67 C0.14 1.67, 0 1.53, 0 1.25 M0.42 1.67 C0.14 1.67, 0 1.53, 0 1.25 M0 1.25 C0 1.05, 0 0.84, 0 0.42 M0 1.25 C0 1.07, 0 0.89, 0 0.42 M0 0.42 C0 0.14, 0.14 0, 0.42 0 M0 0.42 C0 0.14, 0.14 0, 0.42 0" stroke="#000000" stroke-width="1" fill="none"></path></g><g stroke-linecap="round" transform="translate(279.2306176373613 700.3921034481332) rotate(0 4.809981684981608 0.37643334925940053)"><path d="M0.19 0 L9.43 0 L9.62 0.56 L0.19 0.75 L0.19 0" stroke="none" stroke-width="0" fill="#000000"></path><path d="M0.19 0 M0.19 0 C3.03 0, 5.87 0, 9.43 0 M0.19 0 C2.99 0, 5.79 0, 9.43 0 M9.43 0 C9.56 0, 9.62 0.06, 9.62 0.19 M9.43 0 C9.56 0, 9.62 0.06, 9.62 0.19 M9.62 0.19 C9.62 0.28, 9.62 0.36, 9.62 0.56 M9.62 0.19 C9.62 0.31, 9.62 0.42, 9.62 0.56 M9.62 0.56 C9.62 0.69, 9.56 0.75, 9.43 0.75 M9.62 0.56 C9.62 0.69, 9.56 0.75, 9.43 0.75 M9.43 0.75 C6.73 0.75, 4.02 0.75, 0.19 0.75 M9.43 0.75 C6.04 0.75, 2.65 0.75, 0.19 0.75 M0.19 0.75 C0.06 0.75, 0 0.69, 0 0.56 M0.19 0.75 C0.06 0.75, 0 0.69, 0 0.56 M0 0.56 C0 0.48, 0 0.39, 0 0.19 M0 0.56 C0 0.42, 0 0.27, 0 0.19 M0 0.19 C0 0.06, 0.06 0, 0.19 0 M0 0.19 C0 0.06, 0.06 0, 0.19 0" stroke="#000000" stroke-width="1" fill="none"></path></g><g stroke-linecap="round"><g transform="translate(91.15968819207319 669.4963771377877) rotate(0 36.45409431701603 -46.257600808385746)"><path d="M-0.27 0.72 C12.09 -14.59, 61.06 -76.13, 73.18 -91.42 M1.79 0.05 C14.15 -15.65, 60.97 -77.75, 72.6 -93.23" stroke="#000000" stroke-width="1" fill="none"></path></g><g transform="translate(91.15968819207319 669.4963771377877) rotate(0 36.45409431701603 -46.257600808385746)"><path d="M10.49 -26.53 C8.3 -21.7, 6.9 -13.73, 0.06 -0.51 M8.81 -27.7 C5.76 -18.95, 2.56 -10.09, -0.33 -0.09" stroke="#000000" stroke-width="1" fill="none"></path></g><g transform="translate(91.15968819207319 669.4963771377877) rotate(0 36.45409431701603 -46.257600808385746)"><path d="M26.53 -13.73 C20.84 -11.69, 15.98 -6.49, 0.06 -0.51 M24.85 -14.9 C16.94 -10.2, 8.87 -5.23, -0.33 -0.09" stroke="#000000" stroke-width="1" fill="none"></path></g><g transform="translate(91.15968819207319 669.4963771377877) rotate(0 36.45409431701603 -46.257600808385746)"><path d="M65.03 -63.35 C66.6 -70.8, 69.15 -75.15, 72.93 -94.46 M63.35 -64.52 C65.93 -72.96, 68.3 -81.45, 72.54 -94.03" stroke="#000000" stroke-width="1" fill="none"></path></g><g transform="translate(91.15968819207319 669.4963771377877) rotate(0 36.45409431701603 -46.257600808385746)"><path d="M48.64 -75.7 C53.79 -80.45, 59.87 -82.14, 72.93 -94.46 M46.96 -76.87 C54.5 -81.4, 61.86 -86.14, 72.54 -94.03" stroke="#000000" stroke-width="1" fill="none"></path></g></g><g stroke-linecap="round"><g transform="translate(278.1382630797019 689.5512726058814) rotate(0 -18.877721794726597 -57.19023760911091)"><path d="M0.86 0.27 C-5.6 -18.37, -32.19 -93.76, -38.61 -112.71 M-0.15 -0.63 C-6.26 -19.57, -30.06 -96.04, -36.47 -114.65" stroke="#000000" stroke-width="1" fill="none"></path></g><g transform="translate(278.1382630797019 689.5512726058814) rotate(0 -18.877721794726597 -57.19023760911091)"><path d="M-17.69 -24.74 C-11.85 -16.17, -7.13 -8.49, 1.18 1.87 M-18.24 -22.58 C-11.2 -12.9, -3.06 -3.81, 0.23 1.11" stroke="#000000" stroke-width="1" fill="none"></path></g><g transform="translate(278.1382630797019 689.5512726058814) rotate(0 -18.877721794726597 -57.19023760911091)"><path d="M1.67 -31.52 C1.47 -20.71, 0.19 -10.93, 1.18 1.87 M1.12 -29.36 C0.5 -17.01, 1.03 -5.25, 0.23 1.11" stroke="#000000" stroke-width="1" fill="none"></path></g><g transform="translate(278.1382630797019 689.5512726058814) rotate(0 -18.877721794726597 -57.19023760911091)"><path d="M-17.54 -92.81 C-22.97 -98.49, -29.86 -105.33, -36.14 -113.05 M-18.09 -90.65 C-25.38 -99.37, -31.97 -108.69, -37.09 -113.81" stroke="#000000" stroke-width="1" fill="none"></path></g><g transform="translate(278.1382630797019 689.5512726058814) rotate(0 -18.877721794726597 -57.19023760911091)"><path d="M-37.05 -86.46 C-36.39 -94.25, -37.23 -103.06, -36.14 -113.05 M-37.61 -84.31 C-37.17 -95.53, -36.09 -107.33, -37.09 -113.81" stroke="#000000" stroke-width="1" fill="none"></path></g></g></svg>
