<svg version="1.1" xmlns="http://www.w3.org/2000/svg" viewBox="0 0 812.4016541286712 137.66445883912593" width="812.4016541286712" height="137.66445883912593">
  <!-- svg-source:excalidraw -->

  <defs>
    <style>
      @font-face {
        font-family: "Virgil";
        src: url("https://excalidraw.com/Virgil.woff2");
      }
      @font-face {
        font-family: "Cascadia";
        src: url("https://excalidraw.com/Cascadia.woff2");
      }
    </style>
  </defs>
  <rect x="0" y="0" width="812.4016541286712" height="137.66445883912593" fill="#ffffff"></rect><g stroke-linecap="round" transform="translate(10 35.61405936010851) rotate(0 89.80620155038753 35)"><path d="M0 0 C0 0, 0 0, 0 0 M0 0 C0 0, 0 0, 0 0 M0.5 6.68 C2.48 3.41, 4.04 1.67, 4.5 0.53 M-0.02 6.48 C1.9 4.58, 3.06 2.02, 4.85 0.03 M1.27 10.74 C2.83 9.24, 6.6 5.23, 11.23 -0.73 M-0.03 12.71 C3.07 8.79, 5.73 4.23, 9.98 -0.36 M1.61 17.03 C6.08 12.6, 13.93 4.88, 14.08 1.14 M-1 18.23 C3.15 14, 7.79 10.39, 16.1 -0.41 M-0.36 23.73 C4.61 17.21, 12.47 11.42, 21.55 0.63 M-0.2 24 C6.79 15.77, 13.65 7.83, 21.19 -0.66 M0.97 31.22 C8.67 20.29, 17.5 13.3, 26.94 -1.65 M0.64 30.57 C7.66 23.14, 13.89 15.25, 25.37 -0.46 M1.48 35.49 C10.19 25.56, 22.91 11.06, 32.57 -1.4 M-0.23 37.27 C6.77 26.66, 15.96 17.72, 31.07 0.07 M2.08 40.58 C9.38 31.38, 20.03 19.77, 35.05 -0.17 M-0.3 42.88 C7.56 32.76, 15.73 24.73, 36.86 -0.73 M1.17 49.45 C8.19 36.77, 20.21 24.78, 43.03 -0.8 M0.5 49.11 C14.25 32.87, 27.09 17.63, 43.02 0.08 M-0.34 53.22 C18.63 35.26, 34.96 12.15, 46.39 -0.87 M0.69 55.54 C18.21 35.52, 33.48 16.13, 47.55 -0.67 M-1.81 61.8 C12.42 47.84, 24.38 32.09, 53.87 -0.17 M-0.75 60.89 C17.31 41.33, 35.78 19.55, 53.7 -0.11 M-1.89 69.14 C21 42.91, 38.71 21.44, 58.32 1.94 M0.52 67.9 C13.04 51.4, 25.66 36.23, 58.01 -0.05 M3.32 70.59 C22.89 46.47, 43.96 21.94, 62.36 -0.99 M0.82 71.38 C25.15 44.81, 47.73 18.21, 63.83 -0.82 M7.36 70.94 C22.38 53.62, 40.89 33.49, 67.54 0.13 M7.4 71.88 C20.34 57.27, 32.29 42.74, 69.38 0.02 M13.27 72.52 C36.99 44.87, 61.19 17.95, 76.11 -1.57 M11.18 70.49 C28.56 52.27, 44.38 32.7, 75.22 -0.19 M18.55 71.46 C35.5 48.54, 54.65 29.53, 80.09 1.71 M17.48 70.69 C40.86 44.28, 64.61 17.93, 80.37 0.1 M21 72.03 C41.45 51.89, 55.27 35.18, 83.08 0.93 M22.79 71.4 C45.61 46.18, 67 21.77, 85.75 -1.2 M28.48 71.19 C49.27 43.12, 74.4 18.39, 89.35 0.85 M28.3 71.18 C44.13 52.23, 60.01 35.05, 90.28 -0.56 M32.03 73.17 C53.51 48.53, 72.21 25.02, 97.58 0.52 M33.89 71.43 C51.81 49.66, 69.31 28.23, 96.38 -0.64 M39.6 70.02 C54.53 54.85, 67.58 37.34, 102.04 -0.11 M39.75 70.63 C55.13 52.31, 70.65 33.07, 100 0.95 M45.21 72.16 C70.29 42.85, 92.2 16.24, 106.25 0.35 M44.3 71.54 C59.45 54.29, 74.42 36.34, 106.15 -0.15 M50.01 69.72 C62.52 54.65, 77.57 40.34, 112.23 -0.69 M49.15 72.21 C64.69 54.44, 78.24 37.32, 110.96 0.2 M54.73 71.33 C72.35 48.53, 92.2 25.86, 117.44 -0.51 M54.39 71.38 C74.14 50.78, 92.02 28.58, 116.52 -0.43 M58.14 72.98 C82.89 49.07, 101.72 24.68, 123.34 -0.25 M58.88 71.03 C79.92 47.08, 101.45 22.16, 122.21 0.44 M64.13 73.23 C82.65 52.22, 96.37 36.08, 125.79 -0.1 M66.14 72.26 C81.25 53.69, 96.94 34.93, 127 0.72 M68.81 69.89 C88.51 51.05, 106.82 29.98, 134.12 0 M69.41 71.61 C93.52 45.56, 114.71 22.16, 133.35 -0.38 M76.29 70.5 C96.46 45.09, 117.88 20.98, 138.32 0.96 M76.11 72.18 C92.51 54.34, 108.06 35.09, 138.21 -0.05 M81.8 72.96 C100.44 48.98, 121.27 25.66, 144.68 -0.97 M80.95 71.91 C103.61 47.55, 124.92 20.16, 143.57 -0.69 M87.44 71.99 C105.44 48.99, 121.17 30.94, 147.05 -1.56 M86.4 70.78 C106.38 49.49, 124.5 25.91, 147.5 0.32 M93.28 71.83 C115.34 43.87, 138.98 18.12, 154.46 -2.07 M91.78 71.04 C108.36 50.56, 125.18 32.48, 154.64 -0.2 M97.14 72.68 C116.83 45.57, 140.76 20.06, 158.36 -0.7 M97.74 70.41 C109.12 57.2, 122.27 42.59, 159.29 1.05 M101.73 71.34 C114.76 52.01, 130.84 38.26, 164.25 -2.02 M101.29 72.31 C121.16 48.5, 143.06 25.59, 163.9 -0.98 M106.32 71.71 C124.31 48.7, 144.25 28.51, 170.94 -0.38 M108.39 71.06 C131.16 43.94, 156.21 15.87, 170.1 0.55 M113.98 73.44 C131.14 50.19, 154.47 24.44, 174.18 -1.39 M112.91 72.16 C134.71 45.73, 157.08 20.34, 175.27 -0.41 M119.23 70.38 C138.49 46.24, 162.33 24.57, 181.87 -1.34 M119.22 71.42 C135.37 52.21, 153.45 32.34, 179.52 -0.6 M123.23 71.26 C136.04 56.55, 151.75 38.38, 179.83 6.17 M123.17 71.25 C143.3 49.07, 162.18 28.47, 180.35 6.58 M129.47 70.14 C147.41 48.49, 166.23 27.08, 182.03 12.89 M128.66 71.83 C147.39 50.08, 165.38 29.26, 180.7 11.4 M134.98 71.07 C143.87 58.74, 153.71 47.44, 179.32 16.89 M134.67 71.37 C144.67 59.58, 155.32 46.54, 180.52 19.44 M137.98 70.6 C150.09 59.01, 160.83 44.08, 181.01 26.56 M139.74 71.3 C151.18 57.93, 161.02 45.24, 180.24 25.17 M145.11 70.33 C154.51 59.36, 163.17 49.2, 179.41 31.39 M145.08 70.51 C157.02 56.31, 169.32 41.7, 180.05 31.51 M151.06 71.52 C160.25 60.78, 169.28 49.83, 180.21 38.87 M151.04 70.54 C160.53 60.24, 169.91 47.64, 180.26 36.27 M153.83 71.63 C163.64 60.69, 175.16 49.22, 181.6 41.71 M156.17 71.82 C161.66 65.39, 165.91 59.36, 181.16 42.1 M161.68 71.59 C167.67 65.55, 170.77 57.97, 181.4 50.47 M161.09 71.65 C165.39 65.27, 171.29 59.97, 180.01 48.74 M167.68 72.7 C169.48 67.45, 174.85 60.69, 180.1 56.81 M166.78 70.63 C169.16 67.64, 173.13 63.59, 179 54.94 M170.35 71.47 C173.51 67.49, 175.12 64.3, 179.57 62 M170.22 72.03 C173.71 68.13, 178.12 63.77, 179.65 61.03 M176.79 71.59 C177.47 70.02, 179.25 68.85, 179.46 67.03 M176.35 71.33 C177.62 70.53, 178.4 69.27, 179.68 67.68" stroke="#4c6ef5" stroke-width="0.5" fill="none"></path><path d="M-1.72 -1.6 C40.98 -0.6, 83.91 2.85, 178.22 0.13 M-0.69 -0.44 C61.78 -1.92, 122.57 -0.85, 179.06 0.01 M180.3 -0.34 C180.72 14.1, 179.78 32.04, 180.84 69.52 M178.78 0.19 C180.8 19.66, 180.56 38.24, 180.31 70.58 M179.92 68.63 C143.39 68.17, 105.84 70.58, 1.64 70.17 M179.69 70.42 C112.04 69.21, 45.26 69.37, 0.32 70.31 M1.46 69.26 C2.17 54.77, -1.56 37.33, -1.63 1.7 M-0.29 70.31 C0.07 52.2, -0.14 36.41, -0.19 0.8" stroke="#000000" stroke-width="1" fill="none"></path></g><g transform="translate(49.29242032730872 57.47926177182171) rotate(0 56.60869565217388 15.5)"><text x="0" y="21.999999999999975" font-family="Virgil, Segoe UI Emoji" font-size="24.853407937207027px" fill="#000000" text-anchor="start" style="white-space: pre;" direction="ltr">DNSMasq</text></g><g stroke-linecap="round"><g transform="translate(312.43069997661496 40.88545646911143) rotate(0 53.81333128562926 43.06512025989582)"><path d="M-0.96 -0.65 C-1.01 9.51, -1.91 47.9, -1.18 59.9 C-0.46 71.9, 1.8 67.98, 3.37 71.35 C4.95 74.72, 5.73 77.76, 8.26 80.1 C10.8 82.44, 15.31 84.72, 18.59 85.38 C21.87 86.04, 17.29 84.22, 27.94 84.06 C38.59 83.89, 71.43 84.29, 82.5 84.39 C93.57 84.5, 91.22 85.6, 94.35 84.69 C97.49 83.77, 99.32 81.28, 101.29 78.9 C103.26 76.52, 104.99 73.84, 106.2 70.4 C107.41 66.95, 108.35 69.91, 108.56 58.21 C108.76 46.51, 107.73 9.94, 107.45 0.17 M0.74 1.63 C1.12 12.06, 0.52 49.6, 0.91 61.37 C1.3 73.14, 1.8 69.49, 3.08 72.23 C4.35 74.97, 6.14 76.06, 8.55 77.8 C10.95 79.53, 14.1 81.22, 17.5 82.65 C20.89 84.09, 18.51 85.76, 28.92 86.4 C39.33 87.04, 69.17 86.74, 79.96 86.48 C90.74 86.21, 89.81 86.28, 93.64 84.79 C97.47 83.3, 100.79 79.94, 102.93 77.52 C105.07 75.11, 105.43 73.33, 106.46 70.31 C107.49 67.29, 109.18 71.14, 109.09 59.41 C109 47.69, 106.33 10.09, 105.93 -0.03" stroke="#000000" stroke-width="1" fill="none"></path></g></g><g stroke-linecap="round"><g transform="translate(335.66496634993655 51.4829742373031) rotate(0 32.03486448294427 8.44860173897473)"><path d="M-0.65 -1.18 C8.63 -0.94, 43.49 -0.05, 54.64 0.5 C65.79 1.04, 64.12 -0.33, 66.24 2.06 C68.36 4.45, 68.76 12.35, 67.35 14.82 C65.94 17.28, 68.05 16.3, 57.79 16.83 C47.54 17.35, 16.32 18.52, 5.82 17.96 C-4.68 17.4, -3.51 15.96, -5.2 13.49 C-6.89 11.02, -5.18 5.52, -4.31 3.11 C-3.44 0.7, -0.82 -0.51, 0.02 -0.96 M1.21 0.81 C10.41 0.81, 42.38 -1.59, 53.63 -1.16 C64.87 -0.72, 66.33 1.12, 68.7 3.42 C71.07 5.72, 69.82 10.41, 67.85 12.64 C65.88 14.87, 67.02 15.99, 56.87 16.78 C46.72 17.57, 17.23 18.11, 6.96 17.39 C-3.32 16.67, -2.82 14.95, -4.79 12.45 C-6.77 9.96, -5.42 4.37, -4.9 2.42 C-4.37 0.48, -2.77 1.19, -1.65 0.81" stroke="#000000" stroke-width="1" fill="none"></path></g></g><g stroke-linecap="round"><g transform="translate(312.6282527367903 41.523374518335004) rotate(0 55.10139675191135 -14.94750048137837)"><path d="M-1.18 -0.13 C9.15 -0.09, 41.1 -0.31, 61.02 -0.44 C80.94 -0.57, 107.39 1.53, 118.35 -0.91 C129.3 -3.35, 126.56 -10.4, 126.74 -15.08 C126.92 -19.76, 124.55 -26.48, 119.42 -29 C114.29 -31.52, 113.87 -30.12, 95.95 -30.21 C78.03 -30.29, 29.99 -29.86, 11.9 -29.52 C-6.18 -29.17, -7.71 -30.75, -12.57 -28.16 C-17.42 -25.57, -17.41 -18.36, -17.23 -13.99 C-17.06 -9.62, -14.34 -4.37, -11.5 -1.97 C-8.66 0.43, -1.99 0.12, -0.2 0.42 M0.4 -1.24 C10.73 -1.02, 41 0.96, 60.54 0.66 C80.08 0.37, 106.48 -0.04, 117.62 -3 C128.76 -5.96, 126.77 -12.78, 127.36 -17.09 C127.96 -21.41, 126.71 -26.49, 121.17 -28.89 C115.64 -31.29, 112.22 -31.22, 94.17 -31.48 C76.12 -31.73, 30.26 -30.92, 12.86 -30.42 C-4.55 -29.92, -5.51 -31.06, -10.28 -28.49 C-15.04 -25.92, -15.71 -19.39, -15.75 -15.01 C-15.79 -10.63, -13.15 -4.97, -10.52 -2.2 C-7.89 0.57, -1.92 1.37, 0.01 1.63" stroke="#000000" stroke-width="1" fill="none"></path></g></g><g transform="translate(318.7710308485757 83.1488004570815) rotate(0 48.5 10)"><text x="0" y="14" font-family="Virgil, Segoe UI Emoji" font-size="16.055423161063853px" fill="#000000" text-anchor="start" style="white-space: pre;" direction="ltr">/tmp/log.fifo</text></g><g stroke-linecap="round"><g stroke-opacity="0.8" fill-opacity="0.8" transform="translate(192.19564268200884 72.22016397245898) rotate(0 58.488395742718126 0.8223861340433132)"><path d="M0.89 -0.83 C20.6 -0.4, 97.6 1.83, 117.08 2.48 M-0.1 1.34 C19.56 1.43, 96.59 0.62, 116.17 0.61" stroke="#000000" stroke-width="1" fill="none"></path></g><g stroke-opacity="0.8" fill-opacity="0.8" transform="translate(192.19564268200884 72.22016397245898) rotate(0 58.488395742718126 0.8223861340433132)"><path d="M86.65 11.16 C94.51 9.94, 101.11 5.24, 115.29 2.1 M87.49 11.05 C94.59 8.67, 103.14 5.69, 116 0.96" stroke="#000000" stroke-width="1" fill="none"></path></g><g stroke-opacity="0.8" fill-opacity="0.8" transform="translate(192.19564268200884 72.22016397245898) rotate(0 58.488395742718126 0.8223861340433132)"><path d="M86.53 -9.36 C94.39 -6.45, 101.02 -7.02, 115.29 2.1 M87.37 -9.47 C94.6 -6.45, 103.18 -4.02, 116 0.96" stroke="#000000" stroke-width="1" fill="none"></path></g></g><g stroke-linecap="round" transform="translate(575.2853750589038 15.940265104262835) rotate(0 113.55813953488371 40.5)"><path d="M0 0 C0 0, 0 0, 0 0 M0 0 C0 0, 0 0, 0 0 M-0.94 5.87 C1.66 4.15, 2.68 2.37, 4.85 0.96 M-0.43 6.53 C0.91 5.1, 2.02 3.25, 4.68 0.73 M-0.43 11.17 C2.24 10.3, 5.4 4.38, 9.57 0.38 M-0.47 11.77 C3.43 7.89, 6.58 4.48, 10.79 -0.02 M1.34 18.34 C5.46 12.49, 12.46 5.39, 17.23 1.21 M0.18 19.03 C3.48 13.24, 7.52 8.62, 16.21 0.01 M1.83 24.78 C3.96 18.38, 11.57 9.07, 19.9 -0.17 M0.29 24.79 C8.04 15.04, 16.29 6.23, 21.58 0.68 M0.22 32.37 C11.31 18.83, 19.76 9.44, 27.1 0.62 M0.69 30.04 C10.2 18.6, 21.16 7.17, 25.55 0.85 M0.24 36.88 C10.87 22.86, 24.23 7.43, 32.74 -1.26 M-0.42 36.88 C11.13 23.19, 22.75 8.95, 32.57 -0.81 M0.66 42.5 C12.94 27.47, 25.99 12.04, 36.19 0.71 M-0.34 42.95 C8.65 33.17, 15.43 24.18, 35.94 -0.52 M-0.2 50.49 C10.72 35.87, 26.16 19.31, 44.08 -1.22 M0.35 49.05 C11.39 36.25, 22.46 22.69, 42.24 0.85 M0.79 54.4 C10.44 41.57, 25.16 28.93, 47.61 -0.54 M-0.39 54.05 C12.52 40.36, 26.32 25.44, 48.3 1.13 M0.81 60.48 C14.57 46.95, 27.82 31.54, 52.36 -2.15 M0.91 60.26 C11.66 47.92, 22.41 35.1, 53.69 -0.93 M0.27 66.86 C12.47 53.17, 28.4 34.14, 59.6 2.18 M-0.95 66.43 C13.5 51.79, 26.24 36.78, 57.69 -0.35 M-0.6 72.27 C21.91 48.51, 45.13 20.51, 64.14 0.18 M0.39 73.27 C25.64 43.21, 52.22 14.59, 63.73 0.34 M0.86 78.73 C22.19 51.05, 47.88 24.62, 67.57 -0.45 M0.14 80.01 C23.38 52.08, 49.06 23.59, 68.37 0.43 M2.82 82.41 C23.12 55.82, 44.28 34.24, 76.16 -1.64 M3.08 82.15 C17.16 64.37, 33.12 46.7, 73.79 -0.76 M7.72 83.17 C29.17 56.59, 49.65 33.94, 78.09 1.56 M6.96 82.77 C22.82 66.25, 39.41 46.53, 78.75 -0.54 M14.07 81.47 C30.76 58.67, 50.17 38.91, 85.31 -0.68 M12.01 82.3 C29.76 61.89, 48.49 41.93, 85.02 -0.6 M19.69 83.77 C37.21 60.52, 55.26 39.19, 90.86 -0.44 M18.77 83.8 C34.17 64.94, 51.24 45.63, 90.42 0.3 M22.21 82.74 C48.82 53, 75.08 26.13, 94.65 -1.67 M24.3 82 C45.66 57.08, 66.82 31.84, 95.21 0.57 M30.4 83.7 C49.84 58.35, 68.27 36.71, 100.77 0.27 M28.14 83.56 C46.05 64.27, 65.26 43.02, 101.14 -0.9 M35.99 81.04 C60.89 55.13, 86.88 23.99, 107.36 1.01 M33.78 82.36 C60.51 51.94, 88.51 20.96, 105.84 -0.46 M40.95 84.69 C59.22 60.06, 77.58 38.73, 111.86 -0.3 M38.62 83.78 C66.74 50.82, 96.13 16.93, 111.84 -0.43 M45.32 84.53 C59.41 62.26, 77.22 44.71, 116.17 2.08 M45.45 82.01 C65.91 57.78, 87.95 30.68, 116.39 -0.05 M50.55 84.85 C76.94 49.4, 105.39 17.95, 123.3 1.25 M50.41 82.28 C69.67 59.9, 88.71 36.64, 121.64 0.01 M55.27 80.73 C82.62 51.89, 112.59 18.66, 127.89 0.33 M54.47 82.2 C77.17 56.55, 98.19 32.11, 125.98 0.25 M58.61 84.58 C80.87 59.96, 105.1 34.26, 131.44 1.64 M59.39 81.97 C81.8 58.82, 104.1 31.89, 132.8 0.29 M64.05 82.48 C85.44 62.64, 100.63 40.1, 137.55 1.16 M65.18 81.73 C81.48 64.83, 97.38 47.55, 138.46 1.24 M70.67 84.68 C95.77 56.77, 119.81 28.5, 143.78 0.93 M70.11 83.81 C85.81 65, 99.74 47.48, 143.78 0.88 M77.03 81.98 C94.19 62.31, 111.88 41.4, 148.96 -0.44 M76.1 82.01 C95.16 62.81, 113.15 40.7, 147.99 0.03 M80.43 84.25 C97.4 65.58, 112.52 43.57, 152.98 0.56 M80.79 83.87 C104.11 57.14, 127.13 30.54, 154.2 -0.21 M88.76 80.77 C103.73 66.12, 119.22 47.4, 160.12 -1.13 M86.91 81.99 C108.11 57.84, 130.72 34.05, 159.39 -0.17 M91.76 82.75 C109.99 61.32, 131.03 37.63, 162.86 1.26 M92.32 82.28 C111.18 60.25, 130.4 37.46, 163.85 -0.36 M96.25 84.47 C112.73 63.37, 133.57 43.89, 169.17 0.77 M96.8 83.98 C124.75 51.49, 153.91 20.56, 169.16 0.89 M104.67 81.99 C125.49 55.02, 150.25 29.72, 174.37 1.14 M103.28 82.24 C125.58 56.65, 148.09 30.99, 175.69 0.62 M107.68 81.82 C120.85 65.94, 136.71 51.95, 180.4 -0.72 M108.12 83.6 C136.04 50.64, 164.6 18.54, 180.5 -0.41 M113.33 84.12 C126.72 64.72, 144.96 45.76, 187.65 1.65 M112.9 83.05 C129.68 65.23, 145.6 46.82, 184.86 -0.5 M120.38 83.13 C132.28 65.95, 149.59 47.26, 190.27 -1.23 M119.4 83.3 C144.86 51.37, 173.16 21.2, 190.23 -0.66 M124.07 81.63 C151.71 52.06, 176.71 21.05, 195.98 1.58 M124.08 83.07 C147.28 54.74, 170.04 29.54, 195.67 0.61 M129.5 83.33 C155.91 53.64, 178.39 23.51, 201.39 -0.05 M129.03 82.37 C145.77 62.63, 163.64 44.13, 201.88 -0.35 M133.38 83.35 C160.28 55.02, 180.12 29.5, 207.8 -0.95 M134.42 82.75 C157.89 56.58, 178.85 29.33, 206.61 -1.12 M141.37 84.65 C156.27 65.21, 169.47 49.6, 212.52 1.87 M139.54 82.66 C156.77 62.37, 173.88 43.74, 212.65 -0.89 M145.9 84.46 C162.5 63.18, 175.6 46.39, 216.69 1.55 M145.17 83.62 C164.66 59.72, 182.99 37.59, 217.31 -1.19 M151.45 82.72 C171.66 60.55, 191.74 34.8, 220.59 -0.07 M150.64 83.61 C171.25 58.01, 192.9 31.81, 222.38 0.39 M156.42 84.49 C182.45 54.26, 204.82 22.66, 226.76 0.65 M156.25 83.28 C182.64 52.49, 209.39 21.94, 226.95 0.23 M162.37 84.46 C176.47 67.02, 188.66 51.74, 228.76 6.67 M160.23 83.25 C181.03 60.69, 201.8 36.89, 226.73 6.01 M167.89 81.3 C180.16 67.33, 190.47 54.22, 226.73 11.07 M167.25 82.4 C179.85 67.23, 192.26 52.28, 227.35 12.37 M169.9 82.18 C190.75 64.35, 207.46 42.99, 225.6 18.65 M171.36 83.15 C193.08 59.73, 214.89 34.77, 227.2 18.3 M177.44 81.11 C198.33 61.69, 216.98 38.11, 227.5 25.01 M176.45 81.74 C192.98 63.48, 208.02 46.14, 227.5 25.13 M180.99 83.49 C195.01 70.13, 204.71 55.09, 227.07 31.04 M183.26 83.5 C192.47 70.49, 203.32 58.07, 228.26 30.86 M186.32 84.46 C202.01 67.94, 214.82 54.33, 226.63 36.07 M187.8 83.14 C202.58 66.27, 215.76 50.04, 227.09 38.1 M191.74 81.39 C208.23 68.9, 219.27 51.48, 226.74 44.59 M192.34 82.05 C207.19 67.48, 220.9 50.63, 228.47 42.67 M197.96 84.26 C210.15 71.87, 219.14 59.46, 226.82 50.93 M197.89 82.52 C209.59 69.33, 219.45 57.5, 227.96 49.14 M205.38 84.18 C207.75 77.73, 216.08 70.4, 226.29 54.43 M203.16 83.11 C213.19 72.35, 221.5 60.6, 228.05 55.79 M207.27 84.5 C212.08 77.8, 220.66 71.34, 225.93 59.89 M208.37 83.62 C216.35 74.13, 223.92 66.4, 227.11 61.98 M214.33 81.54 C219.36 77.8, 225.83 71.13, 228.94 68.77 M213.48 82.61 C219.44 76.62, 223.86 71.74, 227.23 67.11 M217.96 83.24 C222.68 79.98, 224.77 78.16, 228.97 72.38 M219.38 83.72 C222.3 79.7, 225.2 76.41, 228.17 73.9 M225.09 82.74 C225.41 82, 226.9 80.69, 227.56 79.81 M224.9 82.85 C225.46 82.08, 226.35 80.88, 227.53 79.89" stroke="#82c91e" stroke-width="0.5" fill="none"></path><path d="M1.48 1.01 C75.51 -1.69, 152.65 -1.81, 227.02 -0.49 M-0.23 0.42 C75.8 1.76, 151.65 1.21, 227.05 -0.46 M226.62 0.87 C225.44 27.78, 225.31 58.18, 228.79 80.03 M227.15 0.57 C228.77 26.09, 227.05 52.2, 226.53 81.9 M226.52 80.61 C182.04 81.49, 136.1 79.33, -0.71 80.98 M226.65 80.76 C153.46 80.6, 78.77 80.95, 0.22 80.16 M-1.14 80.21 C-0.72 54.36, 0.23 28.39, 0.23 0.85 M0.31 80.68 C0.25 53.15, -0.04 22.56, -0.38 -0.84" stroke="#000000" stroke-width="1" fill="none"></path></g><g transform="translate(601.9365378496077 43.475148825192264) rotate(0 89.77083333333337 15.5)"><text x="0" y="22.000000000000025" font-family="Virgil, Segoe UI Emoji" font-size="25.343130261092927px" fill="#000000" text-anchor="start" style="white-space: pre;" direction="ltr">AWK processor</text></g><g stroke-linecap="round"><g stroke-opacity="0.8" fill-opacity="0.8" transform="translate(570.2358117424919 63.21439711758376) rotate(0 -75.09236600361771 6.059519854271798)"><path d="M0.71 -0.78 C-24.48 0.98, -125.61 9.46, -150.89 11.58 M-0.38 1.42 C-25.22 3.87, -123.95 10.93, -148.65 12.9" stroke="#000000" stroke-width="1" fill="none"></path></g><g stroke-opacity="0.8" fill-opacity="0.8" transform="translate(570.2358117424919 63.21439711758376) rotate(0 -75.09236600361771 6.059519854271798)"><path d="M-122.61 -0.94 C-130.69 3.05, -138.9 8.08, -147.99 14.32 M-121.15 0.75 C-126.94 2.95, -133.37 5.55, -148.01 12.69" stroke="#000000" stroke-width="1" fill="none"></path></g><g stroke-opacity="0.8" fill-opacity="0.8" transform="translate(570.2358117424919 63.21439711758376) rotate(0 -75.09236600361771 6.059519854271798)"><path d="M-121.07 19.52 C-129.82 16.94, -138.52 15.39, -147.99 14.32 M-119.61 21.22 C-125.68 18.95, -132.45 17.07, -148.01 12.69" stroke="#000000" stroke-width="1" fill="none"></path></g></g></svg>
